G04 #@! TF.GenerationSoftware,KiCad,Pcbnew,(5.1.10)-1*
G04 #@! TF.CreationDate,2021-08-29T10:51:26+02:00*
G04 #@! TF.ProjectId,nrf52-sensor-tag,6e726635-322d-4736-956e-736f722d7461,rev?*
G04 #@! TF.SameCoordinates,Original*
G04 #@! TF.FileFunction,Copper,L1,Top*
G04 #@! TF.FilePolarity,Positive*
%FSLAX46Y46*%
G04 Gerber Fmt 4.6, Leading zero omitted, Abs format (unit mm)*
G04 Created by KiCad (PCBNEW (5.1.10)-1) date 2021-08-29 10:51:26*
%MOMM*%
%LPD*%
G01*
G04 APERTURE LIST*
G04 #@! TA.AperFunction,SMDPad,CuDef*
%ADD10R,0.400000X0.500000*%
G04 #@! TD*
G04 #@! TA.AperFunction,SMDPad,CuDef*
%ADD11R,1.700000X0.800000*%
G04 #@! TD*
G04 #@! TA.AperFunction,SMDPad,CuDef*
%ADD12C,0.100000*%
G04 #@! TD*
G04 #@! TA.AperFunction,SMDPad,CuDef*
%ADD13R,0.300000X0.550000*%
G04 #@! TD*
G04 #@! TA.AperFunction,ComponentPad*
%ADD14O,1.700000X1.700000*%
G04 #@! TD*
G04 #@! TA.AperFunction,ComponentPad*
%ADD15R,1.700000X1.700000*%
G04 #@! TD*
G04 #@! TA.AperFunction,ViaPad*
%ADD16C,0.800000*%
G04 #@! TD*
G04 #@! TA.AperFunction,Conductor*
%ADD17C,0.250000*%
G04 #@! TD*
G04 #@! TA.AperFunction,Conductor*
%ADD18C,0.254000*%
G04 #@! TD*
G04 #@! TA.AperFunction,Conductor*
%ADD19C,0.100000*%
G04 #@! TD*
G04 APERTURE END LIST*
G04 #@! TA.AperFunction,SMDPad,CuDef*
G36*
G01*
X115620000Y-75736000D02*
X116170000Y-75736000D01*
G75*
G02*
X116370000Y-75936000I0J-200000D01*
G01*
X116370000Y-76336000D01*
G75*
G02*
X116170000Y-76536000I-200000J0D01*
G01*
X115620000Y-76536000D01*
G75*
G02*
X115420000Y-76336000I0J200000D01*
G01*
X115420000Y-75936000D01*
G75*
G02*
X115620000Y-75736000I200000J0D01*
G01*
G37*
G04 #@! TD.AperFunction*
G04 #@! TA.AperFunction,SMDPad,CuDef*
G36*
G01*
X115620000Y-74086000D02*
X116170000Y-74086000D01*
G75*
G02*
X116370000Y-74286000I0J-200000D01*
G01*
X116370000Y-74686000D01*
G75*
G02*
X116170000Y-74886000I-200000J0D01*
G01*
X115620000Y-74886000D01*
G75*
G02*
X115420000Y-74686000I0J200000D01*
G01*
X115420000Y-74286000D01*
G75*
G02*
X115620000Y-74086000I200000J0D01*
G01*
G37*
G04 #@! TD.AperFunction*
G04 #@! TA.AperFunction,SMDPad,CuDef*
G36*
G01*
X117653000Y-75736000D02*
X118203000Y-75736000D01*
G75*
G02*
X118403000Y-75936000I0J-200000D01*
G01*
X118403000Y-76336000D01*
G75*
G02*
X118203000Y-76536000I-200000J0D01*
G01*
X117653000Y-76536000D01*
G75*
G02*
X117453000Y-76336000I0J200000D01*
G01*
X117453000Y-75936000D01*
G75*
G02*
X117653000Y-75736000I200000J0D01*
G01*
G37*
G04 #@! TD.AperFunction*
G04 #@! TA.AperFunction,SMDPad,CuDef*
G36*
G01*
X117653000Y-74086000D02*
X118203000Y-74086000D01*
G75*
G02*
X118403000Y-74286000I0J-200000D01*
G01*
X118403000Y-74686000D01*
G75*
G02*
X118203000Y-74886000I-200000J0D01*
G01*
X117653000Y-74886000D01*
G75*
G02*
X117453000Y-74686000I0J200000D01*
G01*
X117453000Y-74286000D01*
G75*
G02*
X117653000Y-74086000I200000J0D01*
G01*
G37*
G04 #@! TD.AperFunction*
G04 #@! TA.AperFunction,SMDPad,CuDef*
G36*
G01*
X120235000Y-74886000D02*
X119685000Y-74886000D01*
G75*
G02*
X119485000Y-74686000I0J200000D01*
G01*
X119485000Y-74286000D01*
G75*
G02*
X119685000Y-74086000I200000J0D01*
G01*
X120235000Y-74086000D01*
G75*
G02*
X120435000Y-74286000I0J-200000D01*
G01*
X120435000Y-74686000D01*
G75*
G02*
X120235000Y-74886000I-200000J0D01*
G01*
G37*
G04 #@! TD.AperFunction*
G04 #@! TA.AperFunction,SMDPad,CuDef*
G36*
G01*
X120235000Y-76536000D02*
X119685000Y-76536000D01*
G75*
G02*
X119485000Y-76336000I0J200000D01*
G01*
X119485000Y-75936000D01*
G75*
G02*
X119685000Y-75736000I200000J0D01*
G01*
X120235000Y-75736000D01*
G75*
G02*
X120435000Y-75936000I0J-200000D01*
G01*
X120435000Y-76336000D01*
G75*
G02*
X120235000Y-76536000I-200000J0D01*
G01*
G37*
G04 #@! TD.AperFunction*
D10*
X113417000Y-74915000D03*
X114117000Y-74915000D03*
X114117000Y-76215000D03*
X113417000Y-76215000D03*
D11*
X130340000Y-70815000D03*
X130340000Y-69715000D03*
X130340000Y-68615000D03*
X130340000Y-67515000D03*
X130340000Y-66415000D03*
X130340000Y-65315000D03*
X130340000Y-64215000D03*
X130340000Y-63115000D03*
X130340000Y-62015000D03*
X130340000Y-60915000D03*
X130340000Y-59815000D03*
X130340000Y-58715000D03*
X130340000Y-57615000D03*
X130340000Y-56515000D03*
X113140000Y-70815000D03*
X113140000Y-69715000D03*
X113140000Y-68615000D03*
X113140000Y-67515000D03*
X113140000Y-66415000D03*
X113140000Y-65315000D03*
X113140000Y-64215000D03*
X113140000Y-63115000D03*
X113140000Y-62015000D03*
X113140000Y-60915000D03*
X113140000Y-59815000D03*
X113140000Y-58715000D03*
X113140000Y-57615000D03*
X113140000Y-56515000D03*
G04 #@! TA.AperFunction,SMDPad,CuDef*
D12*
G36*
X104942837Y-63369440D02*
G01*
X105486017Y-64713857D01*
X104790629Y-64994812D01*
X104247449Y-63650395D01*
X104942837Y-63369440D01*
G37*
G04 #@! TD.AperFunction*
G04 #@! TA.AperFunction,SMDPad,CuDef*
G36*
X106101817Y-62901182D02*
G01*
X106644997Y-64245599D01*
X105949609Y-64526554D01*
X105406429Y-63182137D01*
X106101817Y-62901182D01*
G37*
G04 #@! TD.AperFunction*
G04 #@! TA.AperFunction,SMDPad,CuDef*
G36*
X107260796Y-62432923D02*
G01*
X107803976Y-63777340D01*
X107108588Y-64058295D01*
X106565408Y-62713878D01*
X107260796Y-62432923D01*
G37*
G04 #@! TD.AperFunction*
G04 #@! TA.AperFunction,SMDPad,CuDef*
G36*
X108419776Y-61964665D02*
G01*
X108962956Y-63309082D01*
X108267568Y-63590037D01*
X107724388Y-62245620D01*
X108419776Y-61964665D01*
G37*
G04 #@! TD.AperFunction*
G04 #@! TA.AperFunction,SMDPad,CuDef*
G36*
X109281371Y-64097188D02*
G01*
X109824551Y-65441605D01*
X109129163Y-65722560D01*
X108585983Y-64378143D01*
X109281371Y-64097188D01*
G37*
G04 #@! TD.AperFunction*
G04 #@! TA.AperFunction,SMDPad,CuDef*
G36*
X108122391Y-64565446D02*
G01*
X108665571Y-65909863D01*
X107970183Y-66190818D01*
X107427003Y-64846401D01*
X108122391Y-64565446D01*
G37*
G04 #@! TD.AperFunction*
G04 #@! TA.AperFunction,SMDPad,CuDef*
G36*
X106963412Y-65033705D02*
G01*
X107506592Y-66378122D01*
X106811204Y-66659077D01*
X106268024Y-65314660D01*
X106963412Y-65033705D01*
G37*
G04 #@! TD.AperFunction*
G04 #@! TA.AperFunction,SMDPad,CuDef*
G36*
X105804432Y-65501963D02*
G01*
X106347612Y-66846380D01*
X105652224Y-67127335D01*
X105109044Y-65782918D01*
X105804432Y-65501963D01*
G37*
G04 #@! TD.AperFunction*
D13*
X137023000Y-65518000D03*
X136373000Y-65518000D03*
X135723000Y-65518000D03*
X135723000Y-63768000D03*
X136373000Y-63768000D03*
X137023000Y-63768000D03*
G04 #@! TA.AperFunction,SMDPad,CuDef*
G36*
G01*
X136825000Y-61845000D02*
X136825000Y-61345000D01*
G75*
G02*
X137050000Y-61120000I225000J0D01*
G01*
X137500000Y-61120000D01*
G75*
G02*
X137725000Y-61345000I0J-225000D01*
G01*
X137725000Y-61845000D01*
G75*
G02*
X137500000Y-62070000I-225000J0D01*
G01*
X137050000Y-62070000D01*
G75*
G02*
X136825000Y-61845000I0J225000D01*
G01*
G37*
G04 #@! TD.AperFunction*
G04 #@! TA.AperFunction,SMDPad,CuDef*
G36*
G01*
X135275000Y-61845000D02*
X135275000Y-61345000D01*
G75*
G02*
X135500000Y-61120000I225000J0D01*
G01*
X135950000Y-61120000D01*
G75*
G02*
X136175000Y-61345000I0J-225000D01*
G01*
X136175000Y-61845000D01*
G75*
G02*
X135950000Y-62070000I-225000J0D01*
G01*
X135500000Y-62070000D01*
G75*
G02*
X135275000Y-61845000I0J225000D01*
G01*
G37*
G04 #@! TD.AperFunction*
G04 #@! TA.AperFunction,SMDPad,CuDef*
G36*
G01*
X110224986Y-66848548D02*
X110037683Y-66384957D01*
G75*
G02*
X110162013Y-66092055I208616J84286D01*
G01*
X110579246Y-65923482D01*
G75*
G02*
X110872148Y-66047812I84286J-208616D01*
G01*
X111059451Y-66511403D01*
G75*
G02*
X110935121Y-66804305I-208616J-84286D01*
G01*
X110517888Y-66972878D01*
G75*
G02*
X110224986Y-66848548I-84286J208616D01*
G01*
G37*
G04 #@! TD.AperFunction*
G04 #@! TA.AperFunction,SMDPad,CuDef*
G36*
G01*
X108787852Y-67429188D02*
X108600549Y-66965597D01*
G75*
G02*
X108724879Y-66672695I208616J84286D01*
G01*
X109142112Y-66504122D01*
G75*
G02*
X109435014Y-66628452I84286J-208616D01*
G01*
X109622317Y-67092043D01*
G75*
G02*
X109497987Y-67384945I-208616J-84286D01*
G01*
X109080754Y-67553518D01*
G75*
G02*
X108787852Y-67429188I-84286J208616D01*
G01*
G37*
G04 #@! TD.AperFunction*
D14*
X114275000Y-79362300D03*
X116815000Y-79362300D03*
X119355000Y-79362300D03*
X121895000Y-79362300D03*
X124435000Y-79362300D03*
X126975000Y-79362300D03*
D15*
X129515000Y-79362300D03*
G04 #@! TA.AperFunction,SMDPad,CuDef*
G36*
G01*
X128366000Y-74873300D02*
X127816000Y-74873300D01*
G75*
G02*
X127616000Y-74673300I0J200000D01*
G01*
X127616000Y-74273300D01*
G75*
G02*
X127816000Y-74073300I200000J0D01*
G01*
X128366000Y-74073300D01*
G75*
G02*
X128566000Y-74273300I0J-200000D01*
G01*
X128566000Y-74673300D01*
G75*
G02*
X128366000Y-74873300I-200000J0D01*
G01*
G37*
G04 #@! TD.AperFunction*
G04 #@! TA.AperFunction,SMDPad,CuDef*
G36*
G01*
X128366000Y-76523300D02*
X127816000Y-76523300D01*
G75*
G02*
X127616000Y-76323300I0J200000D01*
G01*
X127616000Y-75923300D01*
G75*
G02*
X127816000Y-75723300I200000J0D01*
G01*
X128366000Y-75723300D01*
G75*
G02*
X128566000Y-75923300I0J-200000D01*
G01*
X128566000Y-76323300D01*
G75*
G02*
X128366000Y-76523300I-200000J0D01*
G01*
G37*
G04 #@! TD.AperFunction*
G04 #@! TA.AperFunction,SMDPad,CuDef*
G36*
G01*
X121718000Y-74086000D02*
X122268000Y-74086000D01*
G75*
G02*
X122468000Y-74286000I0J-200000D01*
G01*
X122468000Y-74686000D01*
G75*
G02*
X122268000Y-74886000I-200000J0D01*
G01*
X121718000Y-74886000D01*
G75*
G02*
X121518000Y-74686000I0J200000D01*
G01*
X121518000Y-74286000D01*
G75*
G02*
X121718000Y-74086000I200000J0D01*
G01*
G37*
G04 #@! TD.AperFunction*
G04 #@! TA.AperFunction,SMDPad,CuDef*
G36*
G01*
X121718000Y-75736000D02*
X122268000Y-75736000D01*
G75*
G02*
X122468000Y-75936000I0J-200000D01*
G01*
X122468000Y-76336000D01*
G75*
G02*
X122268000Y-76536000I-200000J0D01*
G01*
X121718000Y-76536000D01*
G75*
G02*
X121518000Y-76336000I0J200000D01*
G01*
X121518000Y-75936000D01*
G75*
G02*
X121718000Y-75736000I200000J0D01*
G01*
G37*
G04 #@! TD.AperFunction*
G04 #@! TA.AperFunction,SMDPad,CuDef*
G36*
G01*
X124301000Y-74886000D02*
X123751000Y-74886000D01*
G75*
G02*
X123551000Y-74686000I0J200000D01*
G01*
X123551000Y-74286000D01*
G75*
G02*
X123751000Y-74086000I200000J0D01*
G01*
X124301000Y-74086000D01*
G75*
G02*
X124501000Y-74286000I0J-200000D01*
G01*
X124501000Y-74686000D01*
G75*
G02*
X124301000Y-74886000I-200000J0D01*
G01*
G37*
G04 #@! TD.AperFunction*
G04 #@! TA.AperFunction,SMDPad,CuDef*
G36*
G01*
X124301000Y-76536000D02*
X123751000Y-76536000D01*
G75*
G02*
X123551000Y-76336000I0J200000D01*
G01*
X123551000Y-75936000D01*
G75*
G02*
X123751000Y-75736000I200000J0D01*
G01*
X124301000Y-75736000D01*
G75*
G02*
X124501000Y-75936000I0J-200000D01*
G01*
X124501000Y-76336000D01*
G75*
G02*
X124301000Y-76536000I-200000J0D01*
G01*
G37*
G04 #@! TD.AperFunction*
G04 #@! TA.AperFunction,SMDPad,CuDef*
G36*
G01*
X126333000Y-74886000D02*
X125783000Y-74886000D01*
G75*
G02*
X125583000Y-74686000I0J200000D01*
G01*
X125583000Y-74286000D01*
G75*
G02*
X125783000Y-74086000I200000J0D01*
G01*
X126333000Y-74086000D01*
G75*
G02*
X126533000Y-74286000I0J-200000D01*
G01*
X126533000Y-74686000D01*
G75*
G02*
X126333000Y-74886000I-200000J0D01*
G01*
G37*
G04 #@! TD.AperFunction*
G04 #@! TA.AperFunction,SMDPad,CuDef*
G36*
G01*
X126333000Y-76536000D02*
X125783000Y-76536000D01*
G75*
G02*
X125583000Y-76336000I0J200000D01*
G01*
X125583000Y-75936000D01*
G75*
G02*
X125783000Y-75736000I200000J0D01*
G01*
X126333000Y-75736000D01*
G75*
G02*
X126533000Y-75936000I0J-200000D01*
G01*
X126533000Y-76336000D01*
G75*
G02*
X126333000Y-76536000I-200000J0D01*
G01*
G37*
G04 #@! TD.AperFunction*
G04 #@! TA.AperFunction,SMDPad,CuDef*
D12*
G36*
X105830865Y-71716853D02*
G01*
X105055865Y-70374513D01*
X105921891Y-69874513D01*
X106696891Y-71216853D01*
X105830865Y-71716853D01*
G37*
G04 #@! TD.AperFunction*
G04 #@! TA.AperFunction,SMDPad,CuDef*
G36*
X107303109Y-70866853D02*
G01*
X106528109Y-69524513D01*
X107394135Y-69024513D01*
X108169135Y-70366853D01*
X107303109Y-70866853D01*
G37*
G04 #@! TD.AperFunction*
G04 #@! TA.AperFunction,SMDPad,CuDef*
G36*
X108455865Y-76263487D02*
G01*
X107680865Y-74921147D01*
X108546891Y-74421147D01*
X109321891Y-75763487D01*
X108455865Y-76263487D01*
G37*
G04 #@! TD.AperFunction*
G04 #@! TA.AperFunction,SMDPad,CuDef*
G36*
X109928109Y-75413487D02*
G01*
X109153109Y-74071147D01*
X110019135Y-73571147D01*
X110794135Y-74913487D01*
X109928109Y-75413487D01*
G37*
G04 #@! TD.AperFunction*
G04 #@! TA.AperFunction,SMDPad,CuDef*
G36*
X135855135Y-74921147D02*
G01*
X135080135Y-76263487D01*
X134214109Y-75763487D01*
X134989109Y-74421147D01*
X135855135Y-74921147D01*
G37*
G04 #@! TD.AperFunction*
G04 #@! TA.AperFunction,SMDPad,CuDef*
G36*
X134382891Y-74071147D02*
G01*
X133607891Y-75413487D01*
X132741865Y-74913487D01*
X133516865Y-73571147D01*
X134382891Y-74071147D01*
G37*
G04 #@! TD.AperFunction*
G04 #@! TA.AperFunction,SMDPad,CuDef*
G36*
X138480135Y-70374513D02*
G01*
X137705135Y-71716853D01*
X136839109Y-71216853D01*
X137614109Y-69874513D01*
X138480135Y-70374513D01*
G37*
G04 #@! TD.AperFunction*
G04 #@! TA.AperFunction,SMDPad,CuDef*
G36*
X137007891Y-69524513D02*
G01*
X136232891Y-70866853D01*
X135366865Y-70366853D01*
X136141865Y-69024513D01*
X137007891Y-69524513D01*
G37*
G04 #@! TD.AperFunction*
G04 #@! TA.AperFunction,SMDPad,CuDef*
G36*
G01*
X129874000Y-75623300D02*
X130374000Y-75623300D01*
G75*
G02*
X130599000Y-75848300I0J-225000D01*
G01*
X130599000Y-76298300D01*
G75*
G02*
X130374000Y-76523300I-225000J0D01*
G01*
X129874000Y-76523300D01*
G75*
G02*
X129649000Y-76298300I0J225000D01*
G01*
X129649000Y-75848300D01*
G75*
G02*
X129874000Y-75623300I225000J0D01*
G01*
G37*
G04 #@! TD.AperFunction*
G04 #@! TA.AperFunction,SMDPad,CuDef*
G36*
G01*
X129874000Y-74073300D02*
X130374000Y-74073300D01*
G75*
G02*
X130599000Y-74298300I0J-225000D01*
G01*
X130599000Y-74748300D01*
G75*
G02*
X130374000Y-74973300I-225000J0D01*
G01*
X129874000Y-74973300D01*
G75*
G02*
X129649000Y-74748300I0J225000D01*
G01*
X129649000Y-74298300D01*
G75*
G02*
X129874000Y-74073300I225000J0D01*
G01*
G37*
G04 #@! TD.AperFunction*
D16*
X114846000Y-56578500D03*
X107861000Y-67056000D03*
X111735000Y-69723000D03*
X131229100Y-78994000D03*
X132118100Y-78359000D03*
X133070600Y-77660500D03*
X133896100Y-76835000D03*
X112496600Y-79121000D03*
X111544100Y-78486000D03*
X110655100Y-77724000D03*
X109766100Y-76898500D03*
X138404600Y-69088000D03*
X138658600Y-68008500D03*
X138849100Y-66929000D03*
X105130600Y-69151500D03*
X104876600Y-68072000D03*
X104622600Y-66929000D03*
X136690100Y-56197500D03*
X135674100Y-56197500D03*
X134594600Y-56197500D03*
X133515100Y-56197500D03*
X132499100Y-56197500D03*
X106718100Y-56197500D03*
X107734100Y-56197500D03*
X108813600Y-56197500D03*
X109829600Y-56197500D03*
X110909100Y-56197500D03*
X128812800Y-73324900D03*
X127253100Y-56064600D03*
X125004200Y-75316900D03*
X136607100Y-67012800D03*
X110338000Y-67818000D03*
X115138900Y-73068100D03*
X128803200Y-72319500D03*
X135322300Y-66438100D03*
X108879500Y-68511000D03*
X110465400Y-70301700D03*
X133261000Y-67818000D03*
X134150000Y-61468000D03*
X133261000Y-61468000D03*
X132372000Y-61468000D03*
X134150000Y-67818000D03*
X132372000Y-67818000D03*
X111588900Y-60765000D03*
X135637700Y-68076800D03*
X122897100Y-76974700D03*
X115044400Y-71415800D03*
X118724253Y-77919153D03*
X115989100Y-77787500D03*
D17*
X113140000Y-56515000D02*
X114783000Y-56515000D01*
X114783000Y-56515000D02*
X114846000Y-56578500D01*
X108046000Y-65378100D02*
X108046000Y-66870800D01*
X108046000Y-66870800D02*
X107861000Y-67056000D01*
X113140000Y-69715000D02*
X111743000Y-69715000D01*
X111743000Y-69715000D02*
X111735000Y-69723000D01*
X130340000Y-58715000D02*
X129164700Y-58715000D01*
X129515000Y-79362300D02*
X129515000Y-78187000D01*
X129515000Y-78187000D02*
X128945600Y-77617600D01*
X128945600Y-77617600D02*
X128945600Y-75753700D01*
X128945600Y-75753700D02*
X128490200Y-75298300D01*
X128490200Y-75298300D02*
X127694700Y-75298300D01*
X127694700Y-75298300D02*
X127263200Y-74866800D01*
X127263200Y-74866800D02*
X127263200Y-60616500D01*
X127263200Y-60616500D02*
X129164700Y-58715000D01*
X109280600Y-58715000D02*
X113140000Y-58715000D01*
X106025700Y-61969900D02*
X109280600Y-58715000D01*
X106025700Y-63713900D02*
X106025700Y-61969900D01*
X124026000Y-61113200D02*
X124026000Y-74486000D01*
X124052900Y-61086300D02*
X124026000Y-61113200D01*
X136373000Y-63167700D02*
X136373000Y-63768000D01*
X133045300Y-63167700D02*
X136373000Y-63167700D01*
X131618400Y-61740800D02*
X133045300Y-63167700D01*
X131618400Y-56082400D02*
X131618400Y-61740800D01*
X131270800Y-55734800D02*
X131618400Y-56082400D01*
X129404400Y-55734800D02*
X131270800Y-55734800D01*
X124026000Y-61113200D02*
X129404400Y-55734800D01*
X116713500Y-61113200D02*
X124026000Y-61113200D01*
X114315300Y-58715000D02*
X116713500Y-61113200D01*
X113140000Y-58715000D02*
X114315300Y-58715000D01*
X129164700Y-59815000D02*
X128077900Y-60901800D01*
X128077900Y-60901800D02*
X128077900Y-72669700D01*
X128077900Y-72669700D02*
X128733100Y-73324900D01*
X128733100Y-73324900D02*
X128812800Y-73324900D01*
X130340000Y-59815000D02*
X129164700Y-59815000D01*
X127253100Y-56064600D02*
X125702700Y-57615000D01*
X125702700Y-57615000D02*
X113140000Y-57615000D01*
X125004200Y-75316900D02*
X125835100Y-74486000D01*
X125835100Y-74486000D02*
X126058000Y-74486000D01*
X136373000Y-65518000D02*
X136373000Y-66778700D01*
X136373000Y-66778700D02*
X136607100Y-67012800D01*
X109698100Y-57615000D02*
X113140000Y-57615000D01*
X104813100Y-62500000D02*
X109698100Y-57615000D01*
X104813100Y-64128500D02*
X104813100Y-62500000D01*
X104866700Y-64182100D02*
X104813100Y-64128500D01*
X133762400Y-74145900D02*
X130501400Y-74145900D01*
X130501400Y-74145900D02*
X130124000Y-74523300D01*
X133562400Y-74492300D02*
X133762400Y-74145900D01*
X128091000Y-74473300D02*
X130074000Y-74473300D01*
X130074000Y-74473300D02*
X130124000Y-74523300D01*
X133769100Y-72847700D02*
X133769100Y-74139200D01*
X135526700Y-71090100D02*
X133769100Y-72847700D01*
X136187400Y-69945700D02*
X135526700Y-71090100D01*
X134893800Y-68652100D02*
X136187400Y-69945700D01*
X134893800Y-67532200D02*
X134893800Y-68652100D01*
X133769100Y-74139200D02*
X133762400Y-74145900D01*
X132676600Y-65315000D02*
X134893800Y-67532200D01*
X130340000Y-65315000D02*
X132676600Y-65315000D01*
X112933400Y-73068100D02*
X112891700Y-73109800D01*
X112891700Y-73109800D02*
X112891700Y-76215000D01*
X115138900Y-73068100D02*
X112933400Y-73068100D01*
X111964700Y-70815000D02*
X111964700Y-72099400D01*
X111964700Y-72099400D02*
X112933400Y-73068100D01*
X134150000Y-61468000D02*
X135598000Y-61468000D01*
X135598000Y-61468000D02*
X135725000Y-61595000D01*
X130340000Y-70815000D02*
X131515300Y-70815000D01*
X132372000Y-67818000D02*
X132372000Y-69958300D01*
X132372000Y-69958300D02*
X131515300Y-70815000D01*
X130340000Y-70815000D02*
X129164700Y-70815000D01*
X129164700Y-70815000D02*
X129164700Y-71958000D01*
X129164700Y-71958000D02*
X128803200Y-72319500D01*
X135723000Y-66118300D02*
X135403200Y-66438100D01*
X135403200Y-66438100D02*
X135322300Y-66438100D01*
X135723000Y-65518000D02*
X135723000Y-66118300D01*
X108879500Y-68395000D02*
X107808700Y-68395000D01*
X107808700Y-68395000D02*
X106964400Y-67550700D01*
X106964400Y-67550700D02*
X106227700Y-67550700D01*
X109111400Y-67028800D02*
X109111400Y-68163100D01*
X109111400Y-68163100D02*
X108879500Y-68395000D01*
X108879500Y-68511000D02*
X108879500Y-68395000D01*
X105728300Y-66314600D02*
X106227700Y-67550700D01*
X126058000Y-76136000D02*
X128078300Y-76136000D01*
X128078300Y-76136000D02*
X128091000Y-76123300D01*
X124435000Y-76136000D02*
X124026000Y-76136000D01*
X126058000Y-76136000D02*
X124435000Y-76136000D01*
X124435000Y-76136000D02*
X124435000Y-78187000D01*
X124435000Y-79362300D02*
X124435000Y-78187000D01*
X111964700Y-70815000D02*
X110978700Y-70815000D01*
X110978700Y-70815000D02*
X110465400Y-70301700D01*
X113140000Y-70815000D02*
X111964700Y-70815000D01*
X113417000Y-76215000D02*
X112891700Y-76215000D01*
X135723000Y-65518000D02*
X135723000Y-64917700D01*
X135723000Y-64917700D02*
X136662200Y-64917700D01*
X136662200Y-64917700D02*
X137023000Y-65278500D01*
X137023000Y-65278500D02*
X137023000Y-65518000D01*
X121993000Y-74486000D02*
X123643000Y-76136000D01*
X123643000Y-76136000D02*
X124026000Y-76136000D01*
X109572500Y-67818000D02*
X108879500Y-68511000D01*
X110338000Y-67818000D02*
X109572500Y-67818000D01*
X108840200Y-71090100D02*
X108840200Y-71921000D01*
X108840200Y-71921000D02*
X109312900Y-72393700D01*
X109312900Y-72393700D02*
X109312900Y-73347900D01*
X111964700Y-67515000D02*
X111964700Y-68203100D01*
X111964700Y-68203100D02*
X110591400Y-69576400D01*
X110591400Y-69576400D02*
X110165000Y-69576400D01*
X110165000Y-69576400D02*
X108840200Y-70901200D01*
X108840200Y-70901200D02*
X108840200Y-71090100D01*
X108840200Y-71090100D02*
X108009300Y-71090100D01*
X113140000Y-67515000D02*
X111964700Y-67515000D01*
X107348600Y-69945700D02*
X108009300Y-71090100D01*
X109973600Y-74492300D02*
X109312900Y-73347900D01*
X113140000Y-60915000D02*
X111964700Y-60915000D01*
X111588900Y-60765000D02*
X111814700Y-60765000D01*
X111814700Y-60765000D02*
X111964700Y-60915000D01*
X114315300Y-59815000D02*
X113140000Y-59815000D01*
X120780000Y-66279700D02*
X114315300Y-59815000D01*
X120780000Y-74983600D02*
X120780000Y-66279700D01*
X119042800Y-75773900D02*
X119505700Y-75311000D01*
X119042800Y-76575300D02*
X119042800Y-75773900D01*
X116815000Y-78803100D02*
X119042800Y-76575300D01*
X116815000Y-79362300D02*
X116815000Y-78803100D01*
X120452600Y-75311000D02*
X120780000Y-74983600D01*
X119505700Y-75311000D02*
X120452600Y-75311000D01*
X135637700Y-68076800D02*
X136568900Y-68076800D01*
X136568900Y-68076800D02*
X137498400Y-67147300D01*
X137498400Y-67147300D02*
X137498400Y-65107600D01*
X137498400Y-65107600D02*
X136759100Y-64368300D01*
X136759100Y-64368300D02*
X135723000Y-64368300D01*
X135723000Y-63768000D02*
X135723000Y-64368300D01*
X121993000Y-76136000D02*
X122058400Y-76136000D01*
X122058400Y-76136000D02*
X122897100Y-76974700D01*
X113140000Y-68615000D02*
X114315300Y-68615000D01*
X115044400Y-71415800D02*
X115044400Y-69344100D01*
X115044400Y-69344100D02*
X114315300Y-68615000D01*
X113417000Y-74915000D02*
X113417000Y-75490300D01*
X113417000Y-75490300D02*
X114321900Y-75490300D01*
X114321900Y-75490300D02*
X114761700Y-75930100D01*
X114761700Y-75930100D02*
X114761700Y-76220700D01*
X114761700Y-76220700D02*
X115449900Y-76908900D01*
X115449900Y-76908900D02*
X117155100Y-76908900D01*
X117155100Y-76908900D02*
X117928000Y-76136000D01*
X114117000Y-74915000D02*
X114674000Y-74915000D01*
X114674000Y-74915000D02*
X115895000Y-76136000D01*
X119960000Y-76683406D02*
X118724253Y-77919153D01*
X119960000Y-76136000D02*
X119960000Y-76683406D01*
X115689500Y-77787500D02*
X114117000Y-76215000D01*
X115989100Y-77787500D02*
X115689500Y-77787500D01*
X113140000Y-64215000D02*
X114315300Y-64215000D01*
X114315300Y-64215000D02*
X119960000Y-69859700D01*
X119960000Y-69859700D02*
X119960000Y-74486000D01*
X113140000Y-65315000D02*
X114315300Y-65315000D01*
X117928000Y-74486000D02*
X117928000Y-68927700D01*
X117928000Y-68927700D02*
X114315300Y-65315000D01*
X113140000Y-66415000D02*
X114315300Y-66415000D01*
X114315300Y-66415000D02*
X115895000Y-67994700D01*
X115895000Y-67994700D02*
X115895000Y-74486000D01*
D18*
X111967732Y-59179103D02*
X111986430Y-59240743D01*
X111999396Y-59265000D01*
X111986430Y-59289257D01*
X111967732Y-59350897D01*
X111961418Y-59415000D01*
X111961418Y-60139553D01*
X111933264Y-60120741D01*
X111800958Y-60065938D01*
X111660503Y-60038000D01*
X111517297Y-60038000D01*
X111376842Y-60065938D01*
X111244536Y-60120741D01*
X111125464Y-60200302D01*
X111024202Y-60301564D01*
X110944641Y-60420636D01*
X110889838Y-60552942D01*
X110861900Y-60693397D01*
X110861900Y-60836603D01*
X110889838Y-60977058D01*
X110944641Y-61109364D01*
X111024202Y-61228436D01*
X111125464Y-61329698D01*
X111244536Y-61409259D01*
X111376842Y-61464062D01*
X111517297Y-61492000D01*
X111660503Y-61492000D01*
X111800958Y-61464062D01*
X111933264Y-61409259D01*
X111969529Y-61385028D01*
X111986430Y-61440743D01*
X111999396Y-61465000D01*
X111986430Y-61489257D01*
X111967732Y-61550897D01*
X111961418Y-61615000D01*
X111961418Y-62415000D01*
X111967732Y-62479103D01*
X111986430Y-62540743D01*
X111999396Y-62565000D01*
X111986430Y-62589257D01*
X111967732Y-62650897D01*
X111961418Y-62715000D01*
X111961418Y-63515000D01*
X111967732Y-63579103D01*
X111986430Y-63640743D01*
X111999396Y-63665000D01*
X111986430Y-63689257D01*
X111967732Y-63750897D01*
X111961418Y-63815000D01*
X111961418Y-64615000D01*
X111967732Y-64679103D01*
X111986430Y-64740743D01*
X111999396Y-64765000D01*
X111986430Y-64789257D01*
X111967732Y-64850897D01*
X111961418Y-64915000D01*
X111961418Y-65715000D01*
X111967732Y-65779103D01*
X111986430Y-65840743D01*
X111999396Y-65865000D01*
X111986430Y-65889257D01*
X111967732Y-65950897D01*
X111961418Y-66015000D01*
X111961418Y-66815000D01*
X111967732Y-66879103D01*
X111986430Y-66940743D01*
X111999396Y-66965000D01*
X111986430Y-66989257D01*
X111967732Y-67050897D01*
X111966736Y-67061013D01*
X111964700Y-67060813D01*
X111942495Y-67063000D01*
X111876093Y-67069540D01*
X111790890Y-67095386D01*
X111712367Y-67137357D01*
X111643541Y-67193841D01*
X111587057Y-67262667D01*
X111545086Y-67341190D01*
X111519240Y-67426393D01*
X111510513Y-67515000D01*
X111512700Y-67537206D01*
X111512701Y-68015874D01*
X110404177Y-69124400D01*
X110187204Y-69124400D01*
X110164999Y-69122213D01*
X110076392Y-69130940D01*
X109996224Y-69155259D01*
X109991190Y-69156786D01*
X109912667Y-69198757D01*
X109843841Y-69255241D01*
X109829685Y-69272490D01*
X108536300Y-70565877D01*
X108519041Y-70580041D01*
X108471394Y-70638100D01*
X108352004Y-70638100D01*
X108385784Y-70613894D01*
X108429817Y-70566881D01*
X108463831Y-70512181D01*
X108486521Y-70451896D01*
X108497013Y-70388343D01*
X108494906Y-70323965D01*
X108480279Y-70261234D01*
X108453695Y-70202562D01*
X107678695Y-68860222D01*
X107649102Y-68818925D01*
X107720092Y-68840460D01*
X107808700Y-68849187D01*
X107830905Y-68847000D01*
X108231777Y-68847000D01*
X108235241Y-68855364D01*
X108314802Y-68974436D01*
X108416064Y-69075698D01*
X108535136Y-69155259D01*
X108667442Y-69210062D01*
X108807897Y-69238000D01*
X108951103Y-69238000D01*
X109091558Y-69210062D01*
X109223864Y-69155259D01*
X109342936Y-69075698D01*
X109444198Y-68974436D01*
X109523759Y-68855364D01*
X109578562Y-68723058D01*
X109606500Y-68582603D01*
X109606500Y-68439397D01*
X109603817Y-68425907D01*
X109759724Y-68270000D01*
X109765661Y-68270000D01*
X109773302Y-68281436D01*
X109874564Y-68382698D01*
X109993636Y-68462259D01*
X110125942Y-68517062D01*
X110266397Y-68545000D01*
X110409603Y-68545000D01*
X110550058Y-68517062D01*
X110682364Y-68462259D01*
X110801436Y-68382698D01*
X110902698Y-68281436D01*
X110982259Y-68162364D01*
X111037062Y-68030058D01*
X111065000Y-67889603D01*
X111065000Y-67746397D01*
X111037062Y-67605942D01*
X110982259Y-67473636D01*
X110902698Y-67354564D01*
X110801436Y-67253302D01*
X110713013Y-67194220D01*
X110478390Y-66613507D01*
X110459846Y-66620999D01*
X110418376Y-66518357D01*
X110713894Y-66518357D01*
X110951301Y-67105960D01*
X111075297Y-67158593D01*
X111287153Y-67074985D01*
X111353648Y-67040186D01*
X111412076Y-66993082D01*
X111460192Y-66935485D01*
X111496147Y-66869608D01*
X111518558Y-66797982D01*
X111526567Y-66723360D01*
X111519862Y-66648610D01*
X111498704Y-66576604D01*
X111402313Y-66342949D01*
X111278318Y-66290316D01*
X110713894Y-66518357D01*
X110418376Y-66518357D01*
X110364696Y-66385495D01*
X110383240Y-66378003D01*
X110145833Y-65790400D01*
X110021837Y-65737767D01*
X109809981Y-65821375D01*
X109743486Y-65856174D01*
X109685058Y-65903278D01*
X109636942Y-65960875D01*
X109600987Y-66026752D01*
X109578576Y-66098378D01*
X109570567Y-66173000D01*
X109577272Y-66247750D01*
X109592945Y-66301089D01*
X109537957Y-66255153D01*
X109442700Y-66203163D01*
X109339130Y-66170756D01*
X109231229Y-66159177D01*
X109123142Y-66168871D01*
X109019023Y-66199466D01*
X108601790Y-66368039D01*
X108505640Y-66418358D01*
X108421154Y-66486468D01*
X108351580Y-66569752D01*
X108299590Y-66665009D01*
X108267183Y-66768579D01*
X108255604Y-66876480D01*
X108265298Y-66984567D01*
X108295893Y-67088687D01*
X108483196Y-67552278D01*
X108533515Y-67648427D01*
X108601625Y-67732913D01*
X108659401Y-67781178D01*
X108659401Y-67815269D01*
X108535136Y-67866741D01*
X108421006Y-67943000D01*
X107995924Y-67943000D01*
X107299723Y-67246800D01*
X107285559Y-67229541D01*
X107216733Y-67173057D01*
X107138210Y-67131086D01*
X107053007Y-67105240D01*
X106986605Y-67098700D01*
X106964400Y-67096513D01*
X106942195Y-67098700D01*
X106555642Y-67098700D01*
X106577918Y-67080741D01*
X106619215Y-67031308D01*
X106650073Y-66974767D01*
X106658385Y-66948204D01*
X106682817Y-66961538D01*
X106744291Y-66980774D01*
X106808337Y-66987646D01*
X106872492Y-66981893D01*
X106934293Y-66963733D01*
X107629681Y-66682778D01*
X107686751Y-66652911D01*
X107736898Y-66612483D01*
X107778195Y-66563050D01*
X107796262Y-66529947D01*
X107820594Y-66543227D01*
X107892220Y-66565638D01*
X107966842Y-66573646D01*
X108041592Y-66566942D01*
X108113598Y-66545784D01*
X108254535Y-66486854D01*
X108307168Y-66362858D01*
X107976110Y-65543459D01*
X107957566Y-65550951D01*
X107862416Y-65315447D01*
X107880960Y-65307955D01*
X107549901Y-64488556D01*
X107425905Y-64435923D01*
X107283588Y-64491435D01*
X107217093Y-64526235D01*
X107158665Y-64573338D01*
X107110549Y-64630935D01*
X107074594Y-64696812D01*
X107066316Y-64723270D01*
X107030325Y-64712008D01*
X106966279Y-64705136D01*
X106902124Y-64710889D01*
X106840323Y-64729049D01*
X106144935Y-65010004D01*
X106087865Y-65039871D01*
X106037718Y-65080299D01*
X105996421Y-65129732D01*
X105965563Y-65186273D01*
X105957251Y-65212836D01*
X105932819Y-65199502D01*
X105871345Y-65180266D01*
X105807299Y-65173394D01*
X105743144Y-65179147D01*
X105681343Y-65197307D01*
X104985955Y-65478262D01*
X104928885Y-65508129D01*
X104878738Y-65548557D01*
X104837441Y-65597990D01*
X104806583Y-65654531D01*
X104787347Y-65716005D01*
X104780475Y-65780051D01*
X104786228Y-65844206D01*
X104804388Y-65906007D01*
X105347568Y-67250424D01*
X105377435Y-67307494D01*
X105417863Y-67357641D01*
X105467296Y-67398938D01*
X105523837Y-67429796D01*
X105585311Y-67449032D01*
X105649357Y-67455904D01*
X105700068Y-67451357D01*
X105801036Y-67701270D01*
X105808086Y-67724510D01*
X105828131Y-67762012D01*
X105847866Y-67799722D01*
X105849116Y-67801273D01*
X105850057Y-67803033D01*
X105877100Y-67835985D01*
X105903747Y-67869039D01*
X105905273Y-67870314D01*
X105906541Y-67871859D01*
X105939477Y-67898889D01*
X105972076Y-67926123D01*
X105973825Y-67927078D01*
X105975367Y-67928343D01*
X106012884Y-67948396D01*
X106050229Y-67968779D01*
X106052133Y-67969375D01*
X106053890Y-67970314D01*
X106094621Y-67982670D01*
X106135203Y-67995368D01*
X106137182Y-67995580D01*
X106139093Y-67996160D01*
X106181496Y-68000336D01*
X106223730Y-68004869D01*
X106247916Y-68002700D01*
X106777177Y-68002700D01*
X107473381Y-68698905D01*
X107480554Y-68707645D01*
X107479178Y-68707127D01*
X107415625Y-68696635D01*
X107351247Y-68698742D01*
X107288516Y-68713369D01*
X107229844Y-68739953D01*
X106363818Y-69239953D01*
X106311460Y-69277472D01*
X106267427Y-69324485D01*
X106233413Y-69379185D01*
X106210723Y-69439470D01*
X106200231Y-69503023D01*
X106202338Y-69567401D01*
X106216965Y-69630132D01*
X106219498Y-69635723D01*
X106209727Y-69622087D01*
X106154951Y-69570783D01*
X106091218Y-69531152D01*
X106020978Y-69504715D01*
X105946930Y-69492490D01*
X105871920Y-69494945D01*
X105798830Y-69511988D01*
X105730469Y-69542962D01*
X105490852Y-69683433D01*
X105455988Y-69813547D01*
X105922863Y-70622198D01*
X105940184Y-70612198D01*
X106067184Y-70832168D01*
X106049863Y-70842168D01*
X106516738Y-71650819D01*
X106646852Y-71685683D01*
X106888312Y-71548404D01*
X106949317Y-71504689D01*
X107000621Y-71449913D01*
X107040252Y-71386180D01*
X107066689Y-71315940D01*
X107078914Y-71241892D01*
X107076459Y-71166882D01*
X107059416Y-71093792D01*
X107052494Y-71078514D01*
X107056068Y-71083502D01*
X107103081Y-71127535D01*
X107157781Y-71161549D01*
X107218066Y-71184239D01*
X107281619Y-71194731D01*
X107345997Y-71192624D01*
X107408728Y-71177997D01*
X107467400Y-71151413D01*
X107508933Y-71127434D01*
X107614156Y-71309690D01*
X107631657Y-71342433D01*
X107650511Y-71365407D01*
X107667819Y-71389561D01*
X107678690Y-71399743D01*
X107688141Y-71411259D01*
X107711120Y-71430117D01*
X107732803Y-71450426D01*
X107745448Y-71458289D01*
X107756967Y-71467743D01*
X107783180Y-71481754D01*
X107808412Y-71497445D01*
X107822353Y-71502692D01*
X107835490Y-71509714D01*
X107863928Y-71518341D01*
X107891741Y-71528809D01*
X107906437Y-71531236D01*
X107920693Y-71535560D01*
X107950269Y-71538473D01*
X107979588Y-71543314D01*
X108016674Y-71542100D01*
X108388201Y-71542100D01*
X108388201Y-71898785D01*
X108386013Y-71921000D01*
X108394740Y-72009607D01*
X108420586Y-72094809D01*
X108446238Y-72142800D01*
X108462558Y-72173333D01*
X108519042Y-72242159D01*
X108536296Y-72256319D01*
X108860900Y-72580924D01*
X108860901Y-73310831D01*
X108859686Y-73318189D01*
X108860901Y-73355318D01*
X108860901Y-73370105D01*
X108861626Y-73377462D01*
X108862598Y-73407177D01*
X108865982Y-73421689D01*
X108867441Y-73436507D01*
X108876064Y-73464935D01*
X108882815Y-73493888D01*
X108888964Y-73507460D01*
X108893287Y-73521710D01*
X108907296Y-73547920D01*
X108910352Y-73554664D01*
X108917754Y-73567486D01*
X108935258Y-73600233D01*
X108939988Y-73605996D01*
X109030391Y-73762585D01*
X108988818Y-73786587D01*
X108936460Y-73824106D01*
X108892427Y-73871119D01*
X108858413Y-73925819D01*
X108835723Y-73986104D01*
X108825231Y-74049657D01*
X108827338Y-74114035D01*
X108841965Y-74176766D01*
X108844498Y-74182357D01*
X108834727Y-74168721D01*
X108779951Y-74117417D01*
X108716218Y-74077786D01*
X108645978Y-74051349D01*
X108571930Y-74039124D01*
X108496920Y-74041579D01*
X108423830Y-74058622D01*
X108355469Y-74089596D01*
X108115852Y-74230067D01*
X108080988Y-74360181D01*
X108547863Y-75168832D01*
X108565184Y-75158832D01*
X108692184Y-75378802D01*
X108674863Y-75388802D01*
X109141738Y-76197453D01*
X109271852Y-76232317D01*
X109513312Y-76095038D01*
X109574317Y-76051323D01*
X109625621Y-75996547D01*
X109665252Y-75932814D01*
X109691689Y-75862574D01*
X109703914Y-75788526D01*
X109701459Y-75713516D01*
X109684416Y-75640426D01*
X109677494Y-75625148D01*
X109681068Y-75630136D01*
X109728081Y-75674169D01*
X109782781Y-75708183D01*
X109843066Y-75730873D01*
X109906619Y-75741365D01*
X109970997Y-75739258D01*
X110033728Y-75724631D01*
X110092400Y-75698047D01*
X110958426Y-75198047D01*
X111010784Y-75160528D01*
X111054817Y-75113515D01*
X111088831Y-75058815D01*
X111111521Y-74998530D01*
X111122013Y-74934977D01*
X111119906Y-74870599D01*
X111105279Y-74807868D01*
X111078695Y-74749196D01*
X110303695Y-73406856D01*
X110266176Y-73354498D01*
X110219163Y-73310465D01*
X110164463Y-73276451D01*
X110104178Y-73253761D01*
X110040625Y-73243269D01*
X109976247Y-73245376D01*
X109913516Y-73260003D01*
X109854844Y-73286587D01*
X109813278Y-73310585D01*
X109764900Y-73226790D01*
X109764900Y-72415905D01*
X109767087Y-72393700D01*
X109758360Y-72305092D01*
X109732514Y-72219890D01*
X109707629Y-72173333D01*
X109690543Y-72141367D01*
X109634059Y-72072541D01*
X109616806Y-72058382D01*
X109292200Y-71733777D01*
X109292200Y-71112304D01*
X109294387Y-71090100D01*
X109294041Y-71086583D01*
X109795782Y-70584842D01*
X109821141Y-70646064D01*
X109900702Y-70765136D01*
X110001964Y-70866398D01*
X110121036Y-70945959D01*
X110253342Y-71000762D01*
X110393797Y-71028700D01*
X110537003Y-71028700D01*
X110550493Y-71026017D01*
X110643381Y-71118905D01*
X110657541Y-71136159D01*
X110726367Y-71192643D01*
X110804890Y-71234614D01*
X110890092Y-71260460D01*
X110978700Y-71269187D01*
X111000905Y-71267000D01*
X111512700Y-71267000D01*
X111512701Y-72077185D01*
X111510513Y-72099400D01*
X111519240Y-72188007D01*
X111545086Y-72273209D01*
X111562129Y-72305094D01*
X111587058Y-72351733D01*
X111643542Y-72420559D01*
X111660796Y-72434719D01*
X112439700Y-73213624D01*
X112439701Y-76192785D01*
X112437513Y-76215000D01*
X112446240Y-76303607D01*
X112472086Y-76388810D01*
X112514057Y-76467333D01*
X112570541Y-76536159D01*
X112639367Y-76592643D01*
X112717890Y-76634614D01*
X112803093Y-76660460D01*
X112869495Y-76667000D01*
X112891700Y-76669187D01*
X112913905Y-76667000D01*
X112959756Y-76667000D01*
X112984657Y-76697343D01*
X113034450Y-76738206D01*
X113091257Y-76768570D01*
X113152897Y-76787268D01*
X113217000Y-76793582D01*
X113617000Y-76793582D01*
X113681103Y-76787268D01*
X113742743Y-76768570D01*
X113767000Y-76755604D01*
X113791257Y-76768570D01*
X113852897Y-76787268D01*
X113917000Y-76793582D01*
X114056359Y-76793582D01*
X115309628Y-78046852D01*
X115344841Y-78131864D01*
X115424402Y-78250936D01*
X115525664Y-78352198D01*
X115644736Y-78431759D01*
X115777042Y-78486562D01*
X115917497Y-78514500D01*
X115998270Y-78514500D01*
X115900764Y-78612006D01*
X115771956Y-78804781D01*
X115683231Y-79018982D01*
X115638000Y-79246376D01*
X115638000Y-79478224D01*
X115683231Y-79705618D01*
X115771956Y-79919819D01*
X115900764Y-80112594D01*
X116064706Y-80276536D01*
X116257481Y-80405344D01*
X116471682Y-80494069D01*
X116699076Y-80539300D01*
X116930924Y-80539300D01*
X117158318Y-80494069D01*
X117372519Y-80405344D01*
X117565294Y-80276536D01*
X117729236Y-80112594D01*
X117858044Y-79919819D01*
X117946769Y-79705618D01*
X117952007Y-79679281D01*
X118165505Y-79679281D01*
X118250201Y-79905249D01*
X118377353Y-80110352D01*
X118542076Y-80286708D01*
X118738039Y-80427539D01*
X118957712Y-80527434D01*
X119038020Y-80551789D01*
X119228000Y-80490927D01*
X119228000Y-79489300D01*
X119482000Y-79489300D01*
X119482000Y-80490927D01*
X119671980Y-80551789D01*
X119752288Y-80527434D01*
X119971961Y-80427539D01*
X120167924Y-80286708D01*
X120332647Y-80110352D01*
X120459799Y-79905249D01*
X120544495Y-79679281D01*
X120705505Y-79679281D01*
X120790201Y-79905249D01*
X120917353Y-80110352D01*
X121082076Y-80286708D01*
X121278039Y-80427539D01*
X121497712Y-80527434D01*
X121578020Y-80551789D01*
X121768000Y-80490927D01*
X121768000Y-79489300D01*
X122022000Y-79489300D01*
X122022000Y-80490927D01*
X122211980Y-80551789D01*
X122292288Y-80527434D01*
X122511961Y-80427539D01*
X122707924Y-80286708D01*
X122872647Y-80110352D01*
X122999799Y-79905249D01*
X123084495Y-79679281D01*
X123024187Y-79489300D01*
X122022000Y-79489300D01*
X121768000Y-79489300D01*
X120765813Y-79489300D01*
X120705505Y-79679281D01*
X120544495Y-79679281D01*
X120484187Y-79489300D01*
X119482000Y-79489300D01*
X119228000Y-79489300D01*
X118225813Y-79489300D01*
X118165505Y-79679281D01*
X117952007Y-79679281D01*
X117992000Y-79478224D01*
X117992000Y-79246376D01*
X117946769Y-79018982D01*
X117858044Y-78804781D01*
X117729236Y-78612006D01*
X117687277Y-78570047D01*
X118054750Y-78202573D01*
X118079994Y-78263517D01*
X118159555Y-78382589D01*
X118260817Y-78483851D01*
X118379889Y-78563412D01*
X118412297Y-78576836D01*
X118377353Y-78614248D01*
X118250201Y-78819351D01*
X118165505Y-79045319D01*
X118225813Y-79235300D01*
X119228000Y-79235300D01*
X119228000Y-79215300D01*
X119482000Y-79215300D01*
X119482000Y-79235300D01*
X120484187Y-79235300D01*
X120544495Y-79045319D01*
X120705505Y-79045319D01*
X120765813Y-79235300D01*
X121768000Y-79235300D01*
X121768000Y-78233673D01*
X122022000Y-78233673D01*
X122022000Y-79235300D01*
X123024187Y-79235300D01*
X123084495Y-79045319D01*
X122999799Y-78819351D01*
X122872647Y-78614248D01*
X122707924Y-78437892D01*
X122511961Y-78297061D01*
X122292288Y-78197166D01*
X122211980Y-78172811D01*
X122022000Y-78233673D01*
X121768000Y-78233673D01*
X121578020Y-78172811D01*
X121497712Y-78197166D01*
X121278039Y-78297061D01*
X121082076Y-78437892D01*
X120917353Y-78614248D01*
X120790201Y-78819351D01*
X120705505Y-79045319D01*
X120544495Y-79045319D01*
X120459799Y-78819351D01*
X120332647Y-78614248D01*
X120167924Y-78437892D01*
X119971961Y-78297061D01*
X119752288Y-78197166D01*
X119671980Y-78172811D01*
X119482002Y-78233672D01*
X119482002Y-78131300D01*
X119423278Y-78131300D01*
X119423315Y-78131211D01*
X119451253Y-77990756D01*
X119451253Y-77847550D01*
X119448570Y-77834060D01*
X120263910Y-77018721D01*
X120281159Y-77004565D01*
X120337643Y-76935739D01*
X120379614Y-76857216D01*
X120384751Y-76840280D01*
X120437280Y-76824346D01*
X120528664Y-76775500D01*
X120608764Y-76709764D01*
X120674500Y-76629664D01*
X120723346Y-76538280D01*
X120753425Y-76439121D01*
X120763582Y-76336000D01*
X120763582Y-75936000D01*
X120753425Y-75832879D01*
X120723346Y-75733720D01*
X120700514Y-75691005D01*
X120704933Y-75688643D01*
X120773759Y-75632159D01*
X120787923Y-75614900D01*
X121083906Y-75318918D01*
X121101159Y-75304759D01*
X121157643Y-75235933D01*
X121199614Y-75157410D01*
X121211225Y-75119133D01*
X121225460Y-75072208D01*
X121234187Y-74983600D01*
X121232000Y-74961395D01*
X121232000Y-74892669D01*
X121278500Y-74979664D01*
X121344236Y-75059764D01*
X121424336Y-75125500D01*
X121515720Y-75174346D01*
X121614879Y-75204425D01*
X121718000Y-75214582D01*
X122082358Y-75214582D01*
X122275980Y-75408204D01*
X122268000Y-75407418D01*
X121718000Y-75407418D01*
X121614879Y-75417575D01*
X121515720Y-75447654D01*
X121424336Y-75496500D01*
X121344236Y-75562236D01*
X121278500Y-75642336D01*
X121229654Y-75733720D01*
X121199575Y-75832879D01*
X121189418Y-75936000D01*
X121189418Y-76336000D01*
X121199575Y-76439121D01*
X121229654Y-76538280D01*
X121278500Y-76629664D01*
X121344236Y-76709764D01*
X121424336Y-76775500D01*
X121515720Y-76824346D01*
X121614879Y-76854425D01*
X121718000Y-76864582D01*
X122147759Y-76864582D01*
X122172783Y-76889607D01*
X122170100Y-76903097D01*
X122170100Y-77046303D01*
X122198038Y-77186758D01*
X122252841Y-77319064D01*
X122332402Y-77438136D01*
X122433664Y-77539398D01*
X122552736Y-77618959D01*
X122685042Y-77673762D01*
X122825497Y-77701700D01*
X122968703Y-77701700D01*
X123109158Y-77673762D01*
X123241464Y-77618959D01*
X123360536Y-77539398D01*
X123461798Y-77438136D01*
X123541359Y-77319064D01*
X123596162Y-77186758D01*
X123624100Y-77046303D01*
X123624100Y-76903097D01*
X123612270Y-76843623D01*
X123647879Y-76854425D01*
X123751000Y-76864582D01*
X123983000Y-76864582D01*
X123983001Y-78164795D01*
X123983001Y-78275548D01*
X123877481Y-78319256D01*
X123684706Y-78448064D01*
X123520764Y-78612006D01*
X123391956Y-78804781D01*
X123303231Y-79018982D01*
X123258000Y-79246376D01*
X123258000Y-79478224D01*
X123303231Y-79705618D01*
X123391956Y-79919819D01*
X123520764Y-80112594D01*
X123684706Y-80276536D01*
X123877481Y-80405344D01*
X124091682Y-80494069D01*
X124319076Y-80539300D01*
X124550924Y-80539300D01*
X124778318Y-80494069D01*
X124992519Y-80405344D01*
X125185294Y-80276536D01*
X125349236Y-80112594D01*
X125478044Y-79919819D01*
X125566769Y-79705618D01*
X125612000Y-79478224D01*
X125612000Y-79246376D01*
X125798000Y-79246376D01*
X125798000Y-79478224D01*
X125843231Y-79705618D01*
X125931956Y-79919819D01*
X126060764Y-80112594D01*
X126224706Y-80276536D01*
X126417481Y-80405344D01*
X126631682Y-80494069D01*
X126859076Y-80539300D01*
X127090924Y-80539300D01*
X127318318Y-80494069D01*
X127532519Y-80405344D01*
X127725294Y-80276536D01*
X127889236Y-80112594D01*
X128018044Y-79919819D01*
X128106769Y-79705618D01*
X128152000Y-79478224D01*
X128152000Y-79246376D01*
X128106769Y-79018982D01*
X128018044Y-78804781D01*
X127889236Y-78612006D01*
X127725294Y-78448064D01*
X127532519Y-78319256D01*
X127318318Y-78230531D01*
X127090924Y-78185300D01*
X126859076Y-78185300D01*
X126631682Y-78230531D01*
X126417481Y-78319256D01*
X126224706Y-78448064D01*
X126060764Y-78612006D01*
X125931956Y-78804781D01*
X125843231Y-79018982D01*
X125798000Y-79246376D01*
X125612000Y-79246376D01*
X125566769Y-79018982D01*
X125478044Y-78804781D01*
X125349236Y-78612006D01*
X125185294Y-78448064D01*
X124992519Y-78319256D01*
X124887000Y-78275549D01*
X124887000Y-76588000D01*
X125321230Y-76588000D01*
X125343500Y-76629664D01*
X125409236Y-76709764D01*
X125489336Y-76775500D01*
X125580720Y-76824346D01*
X125679879Y-76854425D01*
X125783000Y-76864582D01*
X126333000Y-76864582D01*
X126436121Y-76854425D01*
X126535280Y-76824346D01*
X126626664Y-76775500D01*
X126706764Y-76709764D01*
X126772500Y-76629664D01*
X126794770Y-76588000D01*
X127361018Y-76588000D01*
X127376500Y-76616964D01*
X127442236Y-76697064D01*
X127522336Y-76762800D01*
X127613720Y-76811646D01*
X127712879Y-76841725D01*
X127816000Y-76851882D01*
X128366000Y-76851882D01*
X128469121Y-76841725D01*
X128493600Y-76834299D01*
X128493600Y-77595395D01*
X128491413Y-77617600D01*
X128500140Y-77706207D01*
X128508211Y-77732813D01*
X128525986Y-77791409D01*
X128567957Y-77869932D01*
X128624441Y-77938759D01*
X128641700Y-77952923D01*
X128872494Y-78183718D01*
X128665000Y-78183718D01*
X128600897Y-78190032D01*
X128539257Y-78208730D01*
X128482450Y-78239094D01*
X128432657Y-78279957D01*
X128391794Y-78329750D01*
X128361430Y-78386557D01*
X128342732Y-78448197D01*
X128336418Y-78512300D01*
X128336418Y-80212300D01*
X128342732Y-80276403D01*
X128361430Y-80338043D01*
X128391794Y-80394850D01*
X128432657Y-80444643D01*
X128482450Y-80485506D01*
X128539257Y-80515870D01*
X128600897Y-80534568D01*
X128665000Y-80540882D01*
X129312143Y-80540882D01*
X128924038Y-80733539D01*
X114571236Y-80733539D01*
X114180407Y-80539300D01*
X114390924Y-80539300D01*
X114618318Y-80494069D01*
X114832519Y-80405344D01*
X115025294Y-80276536D01*
X115189236Y-80112594D01*
X115318044Y-79919819D01*
X115406769Y-79705618D01*
X115452000Y-79478224D01*
X115452000Y-79246376D01*
X115406769Y-79018982D01*
X115318044Y-78804781D01*
X115189236Y-78612006D01*
X115025294Y-78448064D01*
X114832519Y-78319256D01*
X114618318Y-78230531D01*
X114390924Y-78185300D01*
X114159076Y-78185300D01*
X113931682Y-78230531D01*
X113717481Y-78319256D01*
X113524706Y-78448064D01*
X113360764Y-78612006D01*
X113231956Y-78804781D01*
X113143231Y-79018982D01*
X113098000Y-79246376D01*
X113098000Y-79478224D01*
X113143231Y-79705618D01*
X113231956Y-79919819D01*
X113360764Y-80112594D01*
X113399232Y-80151062D01*
X113168947Y-80036612D01*
X111780597Y-79178246D01*
X110477460Y-78195299D01*
X109270694Y-77096186D01*
X108755594Y-76531545D01*
X108886904Y-76454567D01*
X108921768Y-76324453D01*
X108454893Y-75515802D01*
X108437572Y-75525802D01*
X108310572Y-75305832D01*
X108327893Y-75295832D01*
X107861018Y-74487181D01*
X107730904Y-74452317D01*
X107489444Y-74589596D01*
X107428439Y-74633311D01*
X107377135Y-74688087D01*
X107337504Y-74751820D01*
X107328501Y-74775739D01*
X107186619Y-74587953D01*
X106327136Y-73200288D01*
X105776205Y-72093986D01*
X105805826Y-72098876D01*
X105880836Y-72096421D01*
X105953926Y-72079378D01*
X106022287Y-72048404D01*
X106261904Y-71907933D01*
X106296768Y-71777819D01*
X105829893Y-70969168D01*
X105812572Y-70979168D01*
X105685572Y-70759198D01*
X105702893Y-70749198D01*
X105236018Y-69940547D01*
X105105904Y-69905683D01*
X104947083Y-69995978D01*
X104563515Y-68647038D01*
X104264009Y-67042458D01*
X104114002Y-65417099D01*
X104114576Y-64198662D01*
X104485973Y-65117901D01*
X104515840Y-65174971D01*
X104556268Y-65225118D01*
X104605701Y-65266415D01*
X104662242Y-65297273D01*
X104723716Y-65316509D01*
X104787762Y-65323381D01*
X104851917Y-65317628D01*
X104913718Y-65299468D01*
X105609106Y-65018513D01*
X105666176Y-64988646D01*
X105716323Y-64948218D01*
X105757620Y-64898785D01*
X105788478Y-64842244D01*
X105796790Y-64815681D01*
X105821222Y-64829015D01*
X105882696Y-64848251D01*
X105946742Y-64855123D01*
X106010897Y-64849370D01*
X106072698Y-64831210D01*
X106768086Y-64550255D01*
X106825156Y-64520388D01*
X106875303Y-64479960D01*
X106916600Y-64430527D01*
X106936859Y-64393406D01*
X107785406Y-64393406D01*
X108116464Y-65212805D01*
X108135008Y-65205313D01*
X108230158Y-65440817D01*
X108211614Y-65448309D01*
X108542673Y-66267708D01*
X108666669Y-66320341D01*
X108808986Y-66264829D01*
X108875481Y-66230029D01*
X108933909Y-66182926D01*
X108982025Y-66125329D01*
X109017980Y-66059452D01*
X109026258Y-66032995D01*
X109062250Y-66044257D01*
X109126296Y-66051129D01*
X109190451Y-66045376D01*
X109252252Y-66027216D01*
X109947640Y-65746261D01*
X110004710Y-65716394D01*
X110030937Y-65695250D01*
X110381337Y-65695250D01*
X110618744Y-66282853D01*
X111183167Y-66054811D01*
X111235800Y-65930815D01*
X111142827Y-65695779D01*
X111108028Y-65629284D01*
X111060925Y-65570856D01*
X111003327Y-65522741D01*
X110937450Y-65486786D01*
X110865824Y-65464374D01*
X110791203Y-65456366D01*
X110716452Y-65463070D01*
X110644446Y-65484229D01*
X110433970Y-65571254D01*
X110381337Y-65695250D01*
X110030937Y-65695250D01*
X110054857Y-65675966D01*
X110096154Y-65626533D01*
X110127012Y-65569992D01*
X110146248Y-65508518D01*
X110153120Y-65444472D01*
X110147367Y-65380317D01*
X110129207Y-65318516D01*
X109586027Y-63974099D01*
X109556160Y-63917029D01*
X109515732Y-63866882D01*
X109466299Y-63825585D01*
X109409758Y-63794727D01*
X109348284Y-63775491D01*
X109284238Y-63768619D01*
X109220083Y-63774372D01*
X109158282Y-63792532D01*
X108462894Y-64073487D01*
X108405824Y-64103354D01*
X108355677Y-64143782D01*
X108314380Y-64193215D01*
X108296314Y-64226318D01*
X108271980Y-64213037D01*
X108200354Y-64190626D01*
X108125732Y-64182618D01*
X108050982Y-64189322D01*
X107978976Y-64210480D01*
X107838039Y-64269410D01*
X107785406Y-64393406D01*
X106936859Y-64393406D01*
X106947458Y-64373986D01*
X106955770Y-64347422D01*
X106980201Y-64360756D01*
X107041675Y-64379992D01*
X107105721Y-64386864D01*
X107169876Y-64381111D01*
X107231677Y-64362951D01*
X107927065Y-64081996D01*
X107984135Y-64052129D01*
X108034282Y-64011701D01*
X108075579Y-63962268D01*
X108106437Y-63905727D01*
X108114749Y-63879164D01*
X108139181Y-63892498D01*
X108200655Y-63911734D01*
X108264701Y-63918606D01*
X108328856Y-63912853D01*
X108390657Y-63894693D01*
X109086045Y-63613738D01*
X109143115Y-63583871D01*
X109193262Y-63543443D01*
X109234559Y-63494010D01*
X109265417Y-63437469D01*
X109284653Y-63375995D01*
X109291525Y-63311949D01*
X109285772Y-63247794D01*
X109267612Y-63185993D01*
X108724432Y-61841576D01*
X108694565Y-61784506D01*
X108654137Y-61734359D01*
X108604704Y-61693062D01*
X108548163Y-61662204D01*
X108486689Y-61642968D01*
X108422643Y-61636096D01*
X108358488Y-61641849D01*
X108296687Y-61660009D01*
X107601299Y-61940964D01*
X107544229Y-61970831D01*
X107494082Y-62011259D01*
X107452785Y-62060692D01*
X107421927Y-62117233D01*
X107413615Y-62143796D01*
X107389183Y-62130462D01*
X107327709Y-62111226D01*
X107263663Y-62104354D01*
X107199508Y-62110107D01*
X107137707Y-62128267D01*
X106477700Y-62394927D01*
X106477700Y-62157123D01*
X109467824Y-59167000D01*
X111966540Y-59167000D01*
X111967732Y-59179103D01*
G04 #@! TA.AperFunction,Conductor*
D19*
G36*
X111967732Y-59179103D02*
G01*
X111986430Y-59240743D01*
X111999396Y-59265000D01*
X111986430Y-59289257D01*
X111967732Y-59350897D01*
X111961418Y-59415000D01*
X111961418Y-60139553D01*
X111933264Y-60120741D01*
X111800958Y-60065938D01*
X111660503Y-60038000D01*
X111517297Y-60038000D01*
X111376842Y-60065938D01*
X111244536Y-60120741D01*
X111125464Y-60200302D01*
X111024202Y-60301564D01*
X110944641Y-60420636D01*
X110889838Y-60552942D01*
X110861900Y-60693397D01*
X110861900Y-60836603D01*
X110889838Y-60977058D01*
X110944641Y-61109364D01*
X111024202Y-61228436D01*
X111125464Y-61329698D01*
X111244536Y-61409259D01*
X111376842Y-61464062D01*
X111517297Y-61492000D01*
X111660503Y-61492000D01*
X111800958Y-61464062D01*
X111933264Y-61409259D01*
X111969529Y-61385028D01*
X111986430Y-61440743D01*
X111999396Y-61465000D01*
X111986430Y-61489257D01*
X111967732Y-61550897D01*
X111961418Y-61615000D01*
X111961418Y-62415000D01*
X111967732Y-62479103D01*
X111986430Y-62540743D01*
X111999396Y-62565000D01*
X111986430Y-62589257D01*
X111967732Y-62650897D01*
X111961418Y-62715000D01*
X111961418Y-63515000D01*
X111967732Y-63579103D01*
X111986430Y-63640743D01*
X111999396Y-63665000D01*
X111986430Y-63689257D01*
X111967732Y-63750897D01*
X111961418Y-63815000D01*
X111961418Y-64615000D01*
X111967732Y-64679103D01*
X111986430Y-64740743D01*
X111999396Y-64765000D01*
X111986430Y-64789257D01*
X111967732Y-64850897D01*
X111961418Y-64915000D01*
X111961418Y-65715000D01*
X111967732Y-65779103D01*
X111986430Y-65840743D01*
X111999396Y-65865000D01*
X111986430Y-65889257D01*
X111967732Y-65950897D01*
X111961418Y-66015000D01*
X111961418Y-66815000D01*
X111967732Y-66879103D01*
X111986430Y-66940743D01*
X111999396Y-66965000D01*
X111986430Y-66989257D01*
X111967732Y-67050897D01*
X111966736Y-67061013D01*
X111964700Y-67060813D01*
X111942495Y-67063000D01*
X111876093Y-67069540D01*
X111790890Y-67095386D01*
X111712367Y-67137357D01*
X111643541Y-67193841D01*
X111587057Y-67262667D01*
X111545086Y-67341190D01*
X111519240Y-67426393D01*
X111510513Y-67515000D01*
X111512700Y-67537206D01*
X111512701Y-68015874D01*
X110404177Y-69124400D01*
X110187204Y-69124400D01*
X110164999Y-69122213D01*
X110076392Y-69130940D01*
X109996224Y-69155259D01*
X109991190Y-69156786D01*
X109912667Y-69198757D01*
X109843841Y-69255241D01*
X109829685Y-69272490D01*
X108536300Y-70565877D01*
X108519041Y-70580041D01*
X108471394Y-70638100D01*
X108352004Y-70638100D01*
X108385784Y-70613894D01*
X108429817Y-70566881D01*
X108463831Y-70512181D01*
X108486521Y-70451896D01*
X108497013Y-70388343D01*
X108494906Y-70323965D01*
X108480279Y-70261234D01*
X108453695Y-70202562D01*
X107678695Y-68860222D01*
X107649102Y-68818925D01*
X107720092Y-68840460D01*
X107808700Y-68849187D01*
X107830905Y-68847000D01*
X108231777Y-68847000D01*
X108235241Y-68855364D01*
X108314802Y-68974436D01*
X108416064Y-69075698D01*
X108535136Y-69155259D01*
X108667442Y-69210062D01*
X108807897Y-69238000D01*
X108951103Y-69238000D01*
X109091558Y-69210062D01*
X109223864Y-69155259D01*
X109342936Y-69075698D01*
X109444198Y-68974436D01*
X109523759Y-68855364D01*
X109578562Y-68723058D01*
X109606500Y-68582603D01*
X109606500Y-68439397D01*
X109603817Y-68425907D01*
X109759724Y-68270000D01*
X109765661Y-68270000D01*
X109773302Y-68281436D01*
X109874564Y-68382698D01*
X109993636Y-68462259D01*
X110125942Y-68517062D01*
X110266397Y-68545000D01*
X110409603Y-68545000D01*
X110550058Y-68517062D01*
X110682364Y-68462259D01*
X110801436Y-68382698D01*
X110902698Y-68281436D01*
X110982259Y-68162364D01*
X111037062Y-68030058D01*
X111065000Y-67889603D01*
X111065000Y-67746397D01*
X111037062Y-67605942D01*
X110982259Y-67473636D01*
X110902698Y-67354564D01*
X110801436Y-67253302D01*
X110713013Y-67194220D01*
X110478390Y-66613507D01*
X110459846Y-66620999D01*
X110418376Y-66518357D01*
X110713894Y-66518357D01*
X110951301Y-67105960D01*
X111075297Y-67158593D01*
X111287153Y-67074985D01*
X111353648Y-67040186D01*
X111412076Y-66993082D01*
X111460192Y-66935485D01*
X111496147Y-66869608D01*
X111518558Y-66797982D01*
X111526567Y-66723360D01*
X111519862Y-66648610D01*
X111498704Y-66576604D01*
X111402313Y-66342949D01*
X111278318Y-66290316D01*
X110713894Y-66518357D01*
X110418376Y-66518357D01*
X110364696Y-66385495D01*
X110383240Y-66378003D01*
X110145833Y-65790400D01*
X110021837Y-65737767D01*
X109809981Y-65821375D01*
X109743486Y-65856174D01*
X109685058Y-65903278D01*
X109636942Y-65960875D01*
X109600987Y-66026752D01*
X109578576Y-66098378D01*
X109570567Y-66173000D01*
X109577272Y-66247750D01*
X109592945Y-66301089D01*
X109537957Y-66255153D01*
X109442700Y-66203163D01*
X109339130Y-66170756D01*
X109231229Y-66159177D01*
X109123142Y-66168871D01*
X109019023Y-66199466D01*
X108601790Y-66368039D01*
X108505640Y-66418358D01*
X108421154Y-66486468D01*
X108351580Y-66569752D01*
X108299590Y-66665009D01*
X108267183Y-66768579D01*
X108255604Y-66876480D01*
X108265298Y-66984567D01*
X108295893Y-67088687D01*
X108483196Y-67552278D01*
X108533515Y-67648427D01*
X108601625Y-67732913D01*
X108659401Y-67781178D01*
X108659401Y-67815269D01*
X108535136Y-67866741D01*
X108421006Y-67943000D01*
X107995924Y-67943000D01*
X107299723Y-67246800D01*
X107285559Y-67229541D01*
X107216733Y-67173057D01*
X107138210Y-67131086D01*
X107053007Y-67105240D01*
X106986605Y-67098700D01*
X106964400Y-67096513D01*
X106942195Y-67098700D01*
X106555642Y-67098700D01*
X106577918Y-67080741D01*
X106619215Y-67031308D01*
X106650073Y-66974767D01*
X106658385Y-66948204D01*
X106682817Y-66961538D01*
X106744291Y-66980774D01*
X106808337Y-66987646D01*
X106872492Y-66981893D01*
X106934293Y-66963733D01*
X107629681Y-66682778D01*
X107686751Y-66652911D01*
X107736898Y-66612483D01*
X107778195Y-66563050D01*
X107796262Y-66529947D01*
X107820594Y-66543227D01*
X107892220Y-66565638D01*
X107966842Y-66573646D01*
X108041592Y-66566942D01*
X108113598Y-66545784D01*
X108254535Y-66486854D01*
X108307168Y-66362858D01*
X107976110Y-65543459D01*
X107957566Y-65550951D01*
X107862416Y-65315447D01*
X107880960Y-65307955D01*
X107549901Y-64488556D01*
X107425905Y-64435923D01*
X107283588Y-64491435D01*
X107217093Y-64526235D01*
X107158665Y-64573338D01*
X107110549Y-64630935D01*
X107074594Y-64696812D01*
X107066316Y-64723270D01*
X107030325Y-64712008D01*
X106966279Y-64705136D01*
X106902124Y-64710889D01*
X106840323Y-64729049D01*
X106144935Y-65010004D01*
X106087865Y-65039871D01*
X106037718Y-65080299D01*
X105996421Y-65129732D01*
X105965563Y-65186273D01*
X105957251Y-65212836D01*
X105932819Y-65199502D01*
X105871345Y-65180266D01*
X105807299Y-65173394D01*
X105743144Y-65179147D01*
X105681343Y-65197307D01*
X104985955Y-65478262D01*
X104928885Y-65508129D01*
X104878738Y-65548557D01*
X104837441Y-65597990D01*
X104806583Y-65654531D01*
X104787347Y-65716005D01*
X104780475Y-65780051D01*
X104786228Y-65844206D01*
X104804388Y-65906007D01*
X105347568Y-67250424D01*
X105377435Y-67307494D01*
X105417863Y-67357641D01*
X105467296Y-67398938D01*
X105523837Y-67429796D01*
X105585311Y-67449032D01*
X105649357Y-67455904D01*
X105700068Y-67451357D01*
X105801036Y-67701270D01*
X105808086Y-67724510D01*
X105828131Y-67762012D01*
X105847866Y-67799722D01*
X105849116Y-67801273D01*
X105850057Y-67803033D01*
X105877100Y-67835985D01*
X105903747Y-67869039D01*
X105905273Y-67870314D01*
X105906541Y-67871859D01*
X105939477Y-67898889D01*
X105972076Y-67926123D01*
X105973825Y-67927078D01*
X105975367Y-67928343D01*
X106012884Y-67948396D01*
X106050229Y-67968779D01*
X106052133Y-67969375D01*
X106053890Y-67970314D01*
X106094621Y-67982670D01*
X106135203Y-67995368D01*
X106137182Y-67995580D01*
X106139093Y-67996160D01*
X106181496Y-68000336D01*
X106223730Y-68004869D01*
X106247916Y-68002700D01*
X106777177Y-68002700D01*
X107473381Y-68698905D01*
X107480554Y-68707645D01*
X107479178Y-68707127D01*
X107415625Y-68696635D01*
X107351247Y-68698742D01*
X107288516Y-68713369D01*
X107229844Y-68739953D01*
X106363818Y-69239953D01*
X106311460Y-69277472D01*
X106267427Y-69324485D01*
X106233413Y-69379185D01*
X106210723Y-69439470D01*
X106200231Y-69503023D01*
X106202338Y-69567401D01*
X106216965Y-69630132D01*
X106219498Y-69635723D01*
X106209727Y-69622087D01*
X106154951Y-69570783D01*
X106091218Y-69531152D01*
X106020978Y-69504715D01*
X105946930Y-69492490D01*
X105871920Y-69494945D01*
X105798830Y-69511988D01*
X105730469Y-69542962D01*
X105490852Y-69683433D01*
X105455988Y-69813547D01*
X105922863Y-70622198D01*
X105940184Y-70612198D01*
X106067184Y-70832168D01*
X106049863Y-70842168D01*
X106516738Y-71650819D01*
X106646852Y-71685683D01*
X106888312Y-71548404D01*
X106949317Y-71504689D01*
X107000621Y-71449913D01*
X107040252Y-71386180D01*
X107066689Y-71315940D01*
X107078914Y-71241892D01*
X107076459Y-71166882D01*
X107059416Y-71093792D01*
X107052494Y-71078514D01*
X107056068Y-71083502D01*
X107103081Y-71127535D01*
X107157781Y-71161549D01*
X107218066Y-71184239D01*
X107281619Y-71194731D01*
X107345997Y-71192624D01*
X107408728Y-71177997D01*
X107467400Y-71151413D01*
X107508933Y-71127434D01*
X107614156Y-71309690D01*
X107631657Y-71342433D01*
X107650511Y-71365407D01*
X107667819Y-71389561D01*
X107678690Y-71399743D01*
X107688141Y-71411259D01*
X107711120Y-71430117D01*
X107732803Y-71450426D01*
X107745448Y-71458289D01*
X107756967Y-71467743D01*
X107783180Y-71481754D01*
X107808412Y-71497445D01*
X107822353Y-71502692D01*
X107835490Y-71509714D01*
X107863928Y-71518341D01*
X107891741Y-71528809D01*
X107906437Y-71531236D01*
X107920693Y-71535560D01*
X107950269Y-71538473D01*
X107979588Y-71543314D01*
X108016674Y-71542100D01*
X108388201Y-71542100D01*
X108388201Y-71898785D01*
X108386013Y-71921000D01*
X108394740Y-72009607D01*
X108420586Y-72094809D01*
X108446238Y-72142800D01*
X108462558Y-72173333D01*
X108519042Y-72242159D01*
X108536296Y-72256319D01*
X108860900Y-72580924D01*
X108860901Y-73310831D01*
X108859686Y-73318189D01*
X108860901Y-73355318D01*
X108860901Y-73370105D01*
X108861626Y-73377462D01*
X108862598Y-73407177D01*
X108865982Y-73421689D01*
X108867441Y-73436507D01*
X108876064Y-73464935D01*
X108882815Y-73493888D01*
X108888964Y-73507460D01*
X108893287Y-73521710D01*
X108907296Y-73547920D01*
X108910352Y-73554664D01*
X108917754Y-73567486D01*
X108935258Y-73600233D01*
X108939988Y-73605996D01*
X109030391Y-73762585D01*
X108988818Y-73786587D01*
X108936460Y-73824106D01*
X108892427Y-73871119D01*
X108858413Y-73925819D01*
X108835723Y-73986104D01*
X108825231Y-74049657D01*
X108827338Y-74114035D01*
X108841965Y-74176766D01*
X108844498Y-74182357D01*
X108834727Y-74168721D01*
X108779951Y-74117417D01*
X108716218Y-74077786D01*
X108645978Y-74051349D01*
X108571930Y-74039124D01*
X108496920Y-74041579D01*
X108423830Y-74058622D01*
X108355469Y-74089596D01*
X108115852Y-74230067D01*
X108080988Y-74360181D01*
X108547863Y-75168832D01*
X108565184Y-75158832D01*
X108692184Y-75378802D01*
X108674863Y-75388802D01*
X109141738Y-76197453D01*
X109271852Y-76232317D01*
X109513312Y-76095038D01*
X109574317Y-76051323D01*
X109625621Y-75996547D01*
X109665252Y-75932814D01*
X109691689Y-75862574D01*
X109703914Y-75788526D01*
X109701459Y-75713516D01*
X109684416Y-75640426D01*
X109677494Y-75625148D01*
X109681068Y-75630136D01*
X109728081Y-75674169D01*
X109782781Y-75708183D01*
X109843066Y-75730873D01*
X109906619Y-75741365D01*
X109970997Y-75739258D01*
X110033728Y-75724631D01*
X110092400Y-75698047D01*
X110958426Y-75198047D01*
X111010784Y-75160528D01*
X111054817Y-75113515D01*
X111088831Y-75058815D01*
X111111521Y-74998530D01*
X111122013Y-74934977D01*
X111119906Y-74870599D01*
X111105279Y-74807868D01*
X111078695Y-74749196D01*
X110303695Y-73406856D01*
X110266176Y-73354498D01*
X110219163Y-73310465D01*
X110164463Y-73276451D01*
X110104178Y-73253761D01*
X110040625Y-73243269D01*
X109976247Y-73245376D01*
X109913516Y-73260003D01*
X109854844Y-73286587D01*
X109813278Y-73310585D01*
X109764900Y-73226790D01*
X109764900Y-72415905D01*
X109767087Y-72393700D01*
X109758360Y-72305092D01*
X109732514Y-72219890D01*
X109707629Y-72173333D01*
X109690543Y-72141367D01*
X109634059Y-72072541D01*
X109616806Y-72058382D01*
X109292200Y-71733777D01*
X109292200Y-71112304D01*
X109294387Y-71090100D01*
X109294041Y-71086583D01*
X109795782Y-70584842D01*
X109821141Y-70646064D01*
X109900702Y-70765136D01*
X110001964Y-70866398D01*
X110121036Y-70945959D01*
X110253342Y-71000762D01*
X110393797Y-71028700D01*
X110537003Y-71028700D01*
X110550493Y-71026017D01*
X110643381Y-71118905D01*
X110657541Y-71136159D01*
X110726367Y-71192643D01*
X110804890Y-71234614D01*
X110890092Y-71260460D01*
X110978700Y-71269187D01*
X111000905Y-71267000D01*
X111512700Y-71267000D01*
X111512701Y-72077185D01*
X111510513Y-72099400D01*
X111519240Y-72188007D01*
X111545086Y-72273209D01*
X111562129Y-72305094D01*
X111587058Y-72351733D01*
X111643542Y-72420559D01*
X111660796Y-72434719D01*
X112439700Y-73213624D01*
X112439701Y-76192785D01*
X112437513Y-76215000D01*
X112446240Y-76303607D01*
X112472086Y-76388810D01*
X112514057Y-76467333D01*
X112570541Y-76536159D01*
X112639367Y-76592643D01*
X112717890Y-76634614D01*
X112803093Y-76660460D01*
X112869495Y-76667000D01*
X112891700Y-76669187D01*
X112913905Y-76667000D01*
X112959756Y-76667000D01*
X112984657Y-76697343D01*
X113034450Y-76738206D01*
X113091257Y-76768570D01*
X113152897Y-76787268D01*
X113217000Y-76793582D01*
X113617000Y-76793582D01*
X113681103Y-76787268D01*
X113742743Y-76768570D01*
X113767000Y-76755604D01*
X113791257Y-76768570D01*
X113852897Y-76787268D01*
X113917000Y-76793582D01*
X114056359Y-76793582D01*
X115309628Y-78046852D01*
X115344841Y-78131864D01*
X115424402Y-78250936D01*
X115525664Y-78352198D01*
X115644736Y-78431759D01*
X115777042Y-78486562D01*
X115917497Y-78514500D01*
X115998270Y-78514500D01*
X115900764Y-78612006D01*
X115771956Y-78804781D01*
X115683231Y-79018982D01*
X115638000Y-79246376D01*
X115638000Y-79478224D01*
X115683231Y-79705618D01*
X115771956Y-79919819D01*
X115900764Y-80112594D01*
X116064706Y-80276536D01*
X116257481Y-80405344D01*
X116471682Y-80494069D01*
X116699076Y-80539300D01*
X116930924Y-80539300D01*
X117158318Y-80494069D01*
X117372519Y-80405344D01*
X117565294Y-80276536D01*
X117729236Y-80112594D01*
X117858044Y-79919819D01*
X117946769Y-79705618D01*
X117952007Y-79679281D01*
X118165505Y-79679281D01*
X118250201Y-79905249D01*
X118377353Y-80110352D01*
X118542076Y-80286708D01*
X118738039Y-80427539D01*
X118957712Y-80527434D01*
X119038020Y-80551789D01*
X119228000Y-80490927D01*
X119228000Y-79489300D01*
X119482000Y-79489300D01*
X119482000Y-80490927D01*
X119671980Y-80551789D01*
X119752288Y-80527434D01*
X119971961Y-80427539D01*
X120167924Y-80286708D01*
X120332647Y-80110352D01*
X120459799Y-79905249D01*
X120544495Y-79679281D01*
X120705505Y-79679281D01*
X120790201Y-79905249D01*
X120917353Y-80110352D01*
X121082076Y-80286708D01*
X121278039Y-80427539D01*
X121497712Y-80527434D01*
X121578020Y-80551789D01*
X121768000Y-80490927D01*
X121768000Y-79489300D01*
X122022000Y-79489300D01*
X122022000Y-80490927D01*
X122211980Y-80551789D01*
X122292288Y-80527434D01*
X122511961Y-80427539D01*
X122707924Y-80286708D01*
X122872647Y-80110352D01*
X122999799Y-79905249D01*
X123084495Y-79679281D01*
X123024187Y-79489300D01*
X122022000Y-79489300D01*
X121768000Y-79489300D01*
X120765813Y-79489300D01*
X120705505Y-79679281D01*
X120544495Y-79679281D01*
X120484187Y-79489300D01*
X119482000Y-79489300D01*
X119228000Y-79489300D01*
X118225813Y-79489300D01*
X118165505Y-79679281D01*
X117952007Y-79679281D01*
X117992000Y-79478224D01*
X117992000Y-79246376D01*
X117946769Y-79018982D01*
X117858044Y-78804781D01*
X117729236Y-78612006D01*
X117687277Y-78570047D01*
X118054750Y-78202573D01*
X118079994Y-78263517D01*
X118159555Y-78382589D01*
X118260817Y-78483851D01*
X118379889Y-78563412D01*
X118412297Y-78576836D01*
X118377353Y-78614248D01*
X118250201Y-78819351D01*
X118165505Y-79045319D01*
X118225813Y-79235300D01*
X119228000Y-79235300D01*
X119228000Y-79215300D01*
X119482000Y-79215300D01*
X119482000Y-79235300D01*
X120484187Y-79235300D01*
X120544495Y-79045319D01*
X120705505Y-79045319D01*
X120765813Y-79235300D01*
X121768000Y-79235300D01*
X121768000Y-78233673D01*
X122022000Y-78233673D01*
X122022000Y-79235300D01*
X123024187Y-79235300D01*
X123084495Y-79045319D01*
X122999799Y-78819351D01*
X122872647Y-78614248D01*
X122707924Y-78437892D01*
X122511961Y-78297061D01*
X122292288Y-78197166D01*
X122211980Y-78172811D01*
X122022000Y-78233673D01*
X121768000Y-78233673D01*
X121578020Y-78172811D01*
X121497712Y-78197166D01*
X121278039Y-78297061D01*
X121082076Y-78437892D01*
X120917353Y-78614248D01*
X120790201Y-78819351D01*
X120705505Y-79045319D01*
X120544495Y-79045319D01*
X120459799Y-78819351D01*
X120332647Y-78614248D01*
X120167924Y-78437892D01*
X119971961Y-78297061D01*
X119752288Y-78197166D01*
X119671980Y-78172811D01*
X119482002Y-78233672D01*
X119482002Y-78131300D01*
X119423278Y-78131300D01*
X119423315Y-78131211D01*
X119451253Y-77990756D01*
X119451253Y-77847550D01*
X119448570Y-77834060D01*
X120263910Y-77018721D01*
X120281159Y-77004565D01*
X120337643Y-76935739D01*
X120379614Y-76857216D01*
X120384751Y-76840280D01*
X120437280Y-76824346D01*
X120528664Y-76775500D01*
X120608764Y-76709764D01*
X120674500Y-76629664D01*
X120723346Y-76538280D01*
X120753425Y-76439121D01*
X120763582Y-76336000D01*
X120763582Y-75936000D01*
X120753425Y-75832879D01*
X120723346Y-75733720D01*
X120700514Y-75691005D01*
X120704933Y-75688643D01*
X120773759Y-75632159D01*
X120787923Y-75614900D01*
X121083906Y-75318918D01*
X121101159Y-75304759D01*
X121157643Y-75235933D01*
X121199614Y-75157410D01*
X121211225Y-75119133D01*
X121225460Y-75072208D01*
X121234187Y-74983600D01*
X121232000Y-74961395D01*
X121232000Y-74892669D01*
X121278500Y-74979664D01*
X121344236Y-75059764D01*
X121424336Y-75125500D01*
X121515720Y-75174346D01*
X121614879Y-75204425D01*
X121718000Y-75214582D01*
X122082358Y-75214582D01*
X122275980Y-75408204D01*
X122268000Y-75407418D01*
X121718000Y-75407418D01*
X121614879Y-75417575D01*
X121515720Y-75447654D01*
X121424336Y-75496500D01*
X121344236Y-75562236D01*
X121278500Y-75642336D01*
X121229654Y-75733720D01*
X121199575Y-75832879D01*
X121189418Y-75936000D01*
X121189418Y-76336000D01*
X121199575Y-76439121D01*
X121229654Y-76538280D01*
X121278500Y-76629664D01*
X121344236Y-76709764D01*
X121424336Y-76775500D01*
X121515720Y-76824346D01*
X121614879Y-76854425D01*
X121718000Y-76864582D01*
X122147759Y-76864582D01*
X122172783Y-76889607D01*
X122170100Y-76903097D01*
X122170100Y-77046303D01*
X122198038Y-77186758D01*
X122252841Y-77319064D01*
X122332402Y-77438136D01*
X122433664Y-77539398D01*
X122552736Y-77618959D01*
X122685042Y-77673762D01*
X122825497Y-77701700D01*
X122968703Y-77701700D01*
X123109158Y-77673762D01*
X123241464Y-77618959D01*
X123360536Y-77539398D01*
X123461798Y-77438136D01*
X123541359Y-77319064D01*
X123596162Y-77186758D01*
X123624100Y-77046303D01*
X123624100Y-76903097D01*
X123612270Y-76843623D01*
X123647879Y-76854425D01*
X123751000Y-76864582D01*
X123983000Y-76864582D01*
X123983001Y-78164795D01*
X123983001Y-78275548D01*
X123877481Y-78319256D01*
X123684706Y-78448064D01*
X123520764Y-78612006D01*
X123391956Y-78804781D01*
X123303231Y-79018982D01*
X123258000Y-79246376D01*
X123258000Y-79478224D01*
X123303231Y-79705618D01*
X123391956Y-79919819D01*
X123520764Y-80112594D01*
X123684706Y-80276536D01*
X123877481Y-80405344D01*
X124091682Y-80494069D01*
X124319076Y-80539300D01*
X124550924Y-80539300D01*
X124778318Y-80494069D01*
X124992519Y-80405344D01*
X125185294Y-80276536D01*
X125349236Y-80112594D01*
X125478044Y-79919819D01*
X125566769Y-79705618D01*
X125612000Y-79478224D01*
X125612000Y-79246376D01*
X125798000Y-79246376D01*
X125798000Y-79478224D01*
X125843231Y-79705618D01*
X125931956Y-79919819D01*
X126060764Y-80112594D01*
X126224706Y-80276536D01*
X126417481Y-80405344D01*
X126631682Y-80494069D01*
X126859076Y-80539300D01*
X127090924Y-80539300D01*
X127318318Y-80494069D01*
X127532519Y-80405344D01*
X127725294Y-80276536D01*
X127889236Y-80112594D01*
X128018044Y-79919819D01*
X128106769Y-79705618D01*
X128152000Y-79478224D01*
X128152000Y-79246376D01*
X128106769Y-79018982D01*
X128018044Y-78804781D01*
X127889236Y-78612006D01*
X127725294Y-78448064D01*
X127532519Y-78319256D01*
X127318318Y-78230531D01*
X127090924Y-78185300D01*
X126859076Y-78185300D01*
X126631682Y-78230531D01*
X126417481Y-78319256D01*
X126224706Y-78448064D01*
X126060764Y-78612006D01*
X125931956Y-78804781D01*
X125843231Y-79018982D01*
X125798000Y-79246376D01*
X125612000Y-79246376D01*
X125566769Y-79018982D01*
X125478044Y-78804781D01*
X125349236Y-78612006D01*
X125185294Y-78448064D01*
X124992519Y-78319256D01*
X124887000Y-78275549D01*
X124887000Y-76588000D01*
X125321230Y-76588000D01*
X125343500Y-76629664D01*
X125409236Y-76709764D01*
X125489336Y-76775500D01*
X125580720Y-76824346D01*
X125679879Y-76854425D01*
X125783000Y-76864582D01*
X126333000Y-76864582D01*
X126436121Y-76854425D01*
X126535280Y-76824346D01*
X126626664Y-76775500D01*
X126706764Y-76709764D01*
X126772500Y-76629664D01*
X126794770Y-76588000D01*
X127361018Y-76588000D01*
X127376500Y-76616964D01*
X127442236Y-76697064D01*
X127522336Y-76762800D01*
X127613720Y-76811646D01*
X127712879Y-76841725D01*
X127816000Y-76851882D01*
X128366000Y-76851882D01*
X128469121Y-76841725D01*
X128493600Y-76834299D01*
X128493600Y-77595395D01*
X128491413Y-77617600D01*
X128500140Y-77706207D01*
X128508211Y-77732813D01*
X128525986Y-77791409D01*
X128567957Y-77869932D01*
X128624441Y-77938759D01*
X128641700Y-77952923D01*
X128872494Y-78183718D01*
X128665000Y-78183718D01*
X128600897Y-78190032D01*
X128539257Y-78208730D01*
X128482450Y-78239094D01*
X128432657Y-78279957D01*
X128391794Y-78329750D01*
X128361430Y-78386557D01*
X128342732Y-78448197D01*
X128336418Y-78512300D01*
X128336418Y-80212300D01*
X128342732Y-80276403D01*
X128361430Y-80338043D01*
X128391794Y-80394850D01*
X128432657Y-80444643D01*
X128482450Y-80485506D01*
X128539257Y-80515870D01*
X128600897Y-80534568D01*
X128665000Y-80540882D01*
X129312143Y-80540882D01*
X128924038Y-80733539D01*
X114571236Y-80733539D01*
X114180407Y-80539300D01*
X114390924Y-80539300D01*
X114618318Y-80494069D01*
X114832519Y-80405344D01*
X115025294Y-80276536D01*
X115189236Y-80112594D01*
X115318044Y-79919819D01*
X115406769Y-79705618D01*
X115452000Y-79478224D01*
X115452000Y-79246376D01*
X115406769Y-79018982D01*
X115318044Y-78804781D01*
X115189236Y-78612006D01*
X115025294Y-78448064D01*
X114832519Y-78319256D01*
X114618318Y-78230531D01*
X114390924Y-78185300D01*
X114159076Y-78185300D01*
X113931682Y-78230531D01*
X113717481Y-78319256D01*
X113524706Y-78448064D01*
X113360764Y-78612006D01*
X113231956Y-78804781D01*
X113143231Y-79018982D01*
X113098000Y-79246376D01*
X113098000Y-79478224D01*
X113143231Y-79705618D01*
X113231956Y-79919819D01*
X113360764Y-80112594D01*
X113399232Y-80151062D01*
X113168947Y-80036612D01*
X111780597Y-79178246D01*
X110477460Y-78195299D01*
X109270694Y-77096186D01*
X108755594Y-76531545D01*
X108886904Y-76454567D01*
X108921768Y-76324453D01*
X108454893Y-75515802D01*
X108437572Y-75525802D01*
X108310572Y-75305832D01*
X108327893Y-75295832D01*
X107861018Y-74487181D01*
X107730904Y-74452317D01*
X107489444Y-74589596D01*
X107428439Y-74633311D01*
X107377135Y-74688087D01*
X107337504Y-74751820D01*
X107328501Y-74775739D01*
X107186619Y-74587953D01*
X106327136Y-73200288D01*
X105776205Y-72093986D01*
X105805826Y-72098876D01*
X105880836Y-72096421D01*
X105953926Y-72079378D01*
X106022287Y-72048404D01*
X106261904Y-71907933D01*
X106296768Y-71777819D01*
X105829893Y-70969168D01*
X105812572Y-70979168D01*
X105685572Y-70759198D01*
X105702893Y-70749198D01*
X105236018Y-69940547D01*
X105105904Y-69905683D01*
X104947083Y-69995978D01*
X104563515Y-68647038D01*
X104264009Y-67042458D01*
X104114002Y-65417099D01*
X104114576Y-64198662D01*
X104485973Y-65117901D01*
X104515840Y-65174971D01*
X104556268Y-65225118D01*
X104605701Y-65266415D01*
X104662242Y-65297273D01*
X104723716Y-65316509D01*
X104787762Y-65323381D01*
X104851917Y-65317628D01*
X104913718Y-65299468D01*
X105609106Y-65018513D01*
X105666176Y-64988646D01*
X105716323Y-64948218D01*
X105757620Y-64898785D01*
X105788478Y-64842244D01*
X105796790Y-64815681D01*
X105821222Y-64829015D01*
X105882696Y-64848251D01*
X105946742Y-64855123D01*
X106010897Y-64849370D01*
X106072698Y-64831210D01*
X106768086Y-64550255D01*
X106825156Y-64520388D01*
X106875303Y-64479960D01*
X106916600Y-64430527D01*
X106936859Y-64393406D01*
X107785406Y-64393406D01*
X108116464Y-65212805D01*
X108135008Y-65205313D01*
X108230158Y-65440817D01*
X108211614Y-65448309D01*
X108542673Y-66267708D01*
X108666669Y-66320341D01*
X108808986Y-66264829D01*
X108875481Y-66230029D01*
X108933909Y-66182926D01*
X108982025Y-66125329D01*
X109017980Y-66059452D01*
X109026258Y-66032995D01*
X109062250Y-66044257D01*
X109126296Y-66051129D01*
X109190451Y-66045376D01*
X109252252Y-66027216D01*
X109947640Y-65746261D01*
X110004710Y-65716394D01*
X110030937Y-65695250D01*
X110381337Y-65695250D01*
X110618744Y-66282853D01*
X111183167Y-66054811D01*
X111235800Y-65930815D01*
X111142827Y-65695779D01*
X111108028Y-65629284D01*
X111060925Y-65570856D01*
X111003327Y-65522741D01*
X110937450Y-65486786D01*
X110865824Y-65464374D01*
X110791203Y-65456366D01*
X110716452Y-65463070D01*
X110644446Y-65484229D01*
X110433970Y-65571254D01*
X110381337Y-65695250D01*
X110030937Y-65695250D01*
X110054857Y-65675966D01*
X110096154Y-65626533D01*
X110127012Y-65569992D01*
X110146248Y-65508518D01*
X110153120Y-65444472D01*
X110147367Y-65380317D01*
X110129207Y-65318516D01*
X109586027Y-63974099D01*
X109556160Y-63917029D01*
X109515732Y-63866882D01*
X109466299Y-63825585D01*
X109409758Y-63794727D01*
X109348284Y-63775491D01*
X109284238Y-63768619D01*
X109220083Y-63774372D01*
X109158282Y-63792532D01*
X108462894Y-64073487D01*
X108405824Y-64103354D01*
X108355677Y-64143782D01*
X108314380Y-64193215D01*
X108296314Y-64226318D01*
X108271980Y-64213037D01*
X108200354Y-64190626D01*
X108125732Y-64182618D01*
X108050982Y-64189322D01*
X107978976Y-64210480D01*
X107838039Y-64269410D01*
X107785406Y-64393406D01*
X106936859Y-64393406D01*
X106947458Y-64373986D01*
X106955770Y-64347422D01*
X106980201Y-64360756D01*
X107041675Y-64379992D01*
X107105721Y-64386864D01*
X107169876Y-64381111D01*
X107231677Y-64362951D01*
X107927065Y-64081996D01*
X107984135Y-64052129D01*
X108034282Y-64011701D01*
X108075579Y-63962268D01*
X108106437Y-63905727D01*
X108114749Y-63879164D01*
X108139181Y-63892498D01*
X108200655Y-63911734D01*
X108264701Y-63918606D01*
X108328856Y-63912853D01*
X108390657Y-63894693D01*
X109086045Y-63613738D01*
X109143115Y-63583871D01*
X109193262Y-63543443D01*
X109234559Y-63494010D01*
X109265417Y-63437469D01*
X109284653Y-63375995D01*
X109291525Y-63311949D01*
X109285772Y-63247794D01*
X109267612Y-63185993D01*
X108724432Y-61841576D01*
X108694565Y-61784506D01*
X108654137Y-61734359D01*
X108604704Y-61693062D01*
X108548163Y-61662204D01*
X108486689Y-61642968D01*
X108422643Y-61636096D01*
X108358488Y-61641849D01*
X108296687Y-61660009D01*
X107601299Y-61940964D01*
X107544229Y-61970831D01*
X107494082Y-62011259D01*
X107452785Y-62060692D01*
X107421927Y-62117233D01*
X107413615Y-62143796D01*
X107389183Y-62130462D01*
X107327709Y-62111226D01*
X107263663Y-62104354D01*
X107199508Y-62110107D01*
X107137707Y-62128267D01*
X106477700Y-62394927D01*
X106477700Y-62157123D01*
X109467824Y-59167000D01*
X111966540Y-59167000D01*
X111967732Y-59179103D01*
G37*
G04 #@! TD.AperFunction*
D18*
X137168048Y-56018246D02*
X137895680Y-57479376D01*
X138485236Y-59001469D01*
X138931671Y-60571507D01*
X139231176Y-62176081D01*
X139381183Y-63801440D01*
X139380414Y-65433722D01*
X139228873Y-67058952D01*
X138927854Y-68663242D01*
X138553312Y-69975736D01*
X138430096Y-69905683D01*
X138299982Y-69940547D01*
X137833107Y-70749198D01*
X137850428Y-70759198D01*
X137723428Y-70979168D01*
X137706107Y-70969168D01*
X137239232Y-71777819D01*
X137274096Y-71907933D01*
X137513713Y-72048404D01*
X137582074Y-72079378D01*
X137655164Y-72096421D01*
X137717203Y-72098451D01*
X137159940Y-73214829D01*
X136299143Y-74601689D01*
X136192630Y-74742387D01*
X136158865Y-74688087D01*
X136107561Y-74633311D01*
X136046556Y-74589596D01*
X135805096Y-74452317D01*
X135674982Y-74487181D01*
X135208107Y-75295832D01*
X135225428Y-75305832D01*
X135098428Y-75525802D01*
X135081107Y-75515802D01*
X134614232Y-76324453D01*
X134649096Y-76454567D01*
X134753795Y-76515945D01*
X134212717Y-77107940D01*
X133004906Y-78205923D01*
X131700852Y-79187634D01*
X130693582Y-79809081D01*
X130693582Y-78512300D01*
X130687268Y-78448197D01*
X130668570Y-78386557D01*
X130638206Y-78329750D01*
X130597343Y-78279957D01*
X130547550Y-78239094D01*
X130490743Y-78208730D01*
X130429103Y-78190032D01*
X130365000Y-78183718D01*
X129968864Y-78183718D01*
X129960460Y-78098392D01*
X129949742Y-78063060D01*
X129934614Y-78013190D01*
X129892643Y-77934667D01*
X129836159Y-77865841D01*
X129818910Y-77851685D01*
X129397600Y-77430377D01*
X129397600Y-76809859D01*
X129436304Y-76841622D01*
X129502492Y-76877001D01*
X129574311Y-76898787D01*
X129649000Y-76906143D01*
X129901750Y-76904300D01*
X129997000Y-76809050D01*
X129997000Y-76200300D01*
X130251000Y-76200300D01*
X130251000Y-76809050D01*
X130346250Y-76904300D01*
X130599000Y-76906143D01*
X130673689Y-76898787D01*
X130745508Y-76877001D01*
X130811696Y-76841622D01*
X130869711Y-76794011D01*
X130917322Y-76735996D01*
X130952701Y-76669808D01*
X130974487Y-76597989D01*
X130981843Y-76523300D01*
X130980000Y-76295550D01*
X130884750Y-76200300D01*
X130251000Y-76200300D01*
X129997000Y-76200300D01*
X129977000Y-76200300D01*
X129977000Y-75946300D01*
X129997000Y-75946300D01*
X129997000Y-75926300D01*
X130251000Y-75926300D01*
X130251000Y-75946300D01*
X130884750Y-75946300D01*
X130980000Y-75851050D01*
X130981843Y-75623300D01*
X130974487Y-75548611D01*
X130952701Y-75476792D01*
X130917322Y-75410604D01*
X130869711Y-75352589D01*
X130811696Y-75304978D01*
X130745508Y-75269599D01*
X130673689Y-75247813D01*
X130618361Y-75242364D01*
X130681554Y-75208587D01*
X130765442Y-75139742D01*
X130834287Y-75055854D01*
X130885443Y-74960147D01*
X130916945Y-74856298D01*
X130927582Y-74748300D01*
X130927582Y-74597900D01*
X132544656Y-74597900D01*
X132457305Y-74749196D01*
X132430721Y-74807868D01*
X132416094Y-74870599D01*
X132413987Y-74934977D01*
X132424479Y-74998530D01*
X132447169Y-75058815D01*
X132481183Y-75113515D01*
X132525216Y-75160528D01*
X132577574Y-75198047D01*
X133443600Y-75698047D01*
X133502272Y-75724631D01*
X133565003Y-75739258D01*
X133629381Y-75741365D01*
X133692934Y-75730873D01*
X133753219Y-75708183D01*
X133807919Y-75674169D01*
X133854932Y-75630136D01*
X133858506Y-75625148D01*
X133851584Y-75640426D01*
X133834541Y-75713516D01*
X133832086Y-75788526D01*
X133844311Y-75862574D01*
X133870748Y-75932814D01*
X133910379Y-75996547D01*
X133961683Y-76051323D01*
X134022688Y-76095038D01*
X134264148Y-76232317D01*
X134394262Y-76197453D01*
X134861137Y-75388802D01*
X134843816Y-75378802D01*
X134970816Y-75158832D01*
X134988137Y-75168832D01*
X135455012Y-74360181D01*
X135420148Y-74230067D01*
X135180531Y-74089596D01*
X135112170Y-74058622D01*
X135039080Y-74041579D01*
X134964070Y-74039124D01*
X134890022Y-74051349D01*
X134819782Y-74077786D01*
X134756049Y-74117417D01*
X134701273Y-74168721D01*
X134691502Y-74182357D01*
X134694035Y-74176766D01*
X134708662Y-74114035D01*
X134710769Y-74049657D01*
X134700277Y-73986104D01*
X134677587Y-73925819D01*
X134643573Y-73871119D01*
X134599540Y-73824106D01*
X134547182Y-73786587D01*
X134221100Y-73598324D01*
X134221100Y-73034923D01*
X135841085Y-71414939D01*
X135868180Y-71389561D01*
X135885487Y-71365408D01*
X135904342Y-71342434D01*
X135921845Y-71309687D01*
X136027067Y-71127434D01*
X136068600Y-71151413D01*
X136127272Y-71177997D01*
X136190003Y-71192624D01*
X136254381Y-71194731D01*
X136317934Y-71184239D01*
X136378219Y-71161549D01*
X136432919Y-71127535D01*
X136479932Y-71083502D01*
X136483506Y-71078514D01*
X136476584Y-71093792D01*
X136459541Y-71166882D01*
X136457086Y-71241892D01*
X136469311Y-71315940D01*
X136495748Y-71386180D01*
X136535379Y-71449913D01*
X136586683Y-71504689D01*
X136647688Y-71548404D01*
X136889148Y-71685683D01*
X137019262Y-71650819D01*
X137486137Y-70842168D01*
X137468816Y-70832168D01*
X137595816Y-70612198D01*
X137613137Y-70622198D01*
X138080012Y-69813547D01*
X138045148Y-69683433D01*
X137805531Y-69542962D01*
X137737170Y-69511988D01*
X137664080Y-69494945D01*
X137589070Y-69492490D01*
X137515022Y-69504715D01*
X137444782Y-69531152D01*
X137381049Y-69570783D01*
X137326273Y-69622087D01*
X137316502Y-69635723D01*
X137319035Y-69630132D01*
X137333662Y-69567401D01*
X137335769Y-69503023D01*
X137325277Y-69439470D01*
X137302587Y-69379185D01*
X137268573Y-69324485D01*
X137224540Y-69277472D01*
X137172182Y-69239953D01*
X136306156Y-68739953D01*
X136247484Y-68713369D01*
X136184753Y-68698742D01*
X136120375Y-68696635D01*
X136056822Y-68707127D01*
X135996537Y-68729817D01*
X135941837Y-68763831D01*
X135894824Y-68807864D01*
X135857305Y-68860222D01*
X135814788Y-68933864D01*
X135684723Y-68803800D01*
X135709303Y-68803800D01*
X135849758Y-68775862D01*
X135982064Y-68721059D01*
X136101136Y-68641498D01*
X136202398Y-68540236D01*
X136210039Y-68528800D01*
X136546695Y-68528800D01*
X136568900Y-68530987D01*
X136591105Y-68528800D01*
X136657507Y-68522260D01*
X136742710Y-68496414D01*
X136821233Y-68454443D01*
X136890059Y-68397959D01*
X136904223Y-68380700D01*
X137802306Y-67482618D01*
X137819559Y-67468459D01*
X137876043Y-67399633D01*
X137918014Y-67321110D01*
X137930525Y-67279866D01*
X137943860Y-67235908D01*
X137952587Y-67147300D01*
X137950400Y-67125095D01*
X137950400Y-65129804D01*
X137952587Y-65107599D01*
X137943860Y-65018992D01*
X137918014Y-64933790D01*
X137907971Y-64915000D01*
X137876043Y-64855267D01*
X137819559Y-64786441D01*
X137802310Y-64772285D01*
X137388799Y-64358775D01*
X137443711Y-64313711D01*
X137491322Y-64255696D01*
X137526701Y-64189508D01*
X137548487Y-64117689D01*
X137555843Y-64043000D01*
X137554000Y-63990250D01*
X137458750Y-63895000D01*
X137046000Y-63895000D01*
X137046000Y-63915000D01*
X137000000Y-63915000D01*
X137000000Y-63895000D01*
X136876000Y-63895000D01*
X136876000Y-63641000D01*
X137000000Y-63641000D01*
X137000000Y-63207250D01*
X137046000Y-63207250D01*
X137046000Y-63641000D01*
X137458750Y-63641000D01*
X137554000Y-63545750D01*
X137555843Y-63493000D01*
X137548487Y-63418311D01*
X137526701Y-63346492D01*
X137491322Y-63280304D01*
X137443711Y-63222289D01*
X137385696Y-63174678D01*
X137319508Y-63139299D01*
X137247689Y-63117513D01*
X137173000Y-63110157D01*
X137141250Y-63112000D01*
X137046000Y-63207250D01*
X137000000Y-63207250D01*
X136904750Y-63112000D01*
X136873000Y-63110157D01*
X136822014Y-63115179D01*
X136818460Y-63079093D01*
X136792614Y-62993890D01*
X136750643Y-62915367D01*
X136694159Y-62846541D01*
X136625333Y-62790057D01*
X136546810Y-62748086D01*
X136461607Y-62722240D01*
X136395205Y-62715700D01*
X136373000Y-62713513D01*
X136350795Y-62715700D01*
X133232525Y-62715700D01*
X132654647Y-62137823D01*
X132716364Y-62112259D01*
X132816500Y-62045351D01*
X132916636Y-62112259D01*
X133048942Y-62167062D01*
X133189397Y-62195000D01*
X133332603Y-62195000D01*
X133473058Y-62167062D01*
X133605364Y-62112259D01*
X133705500Y-62045351D01*
X133805636Y-62112259D01*
X133937942Y-62167062D01*
X134078397Y-62195000D01*
X134221603Y-62195000D01*
X134362058Y-62167062D01*
X134494364Y-62112259D01*
X134613436Y-62032698D01*
X134714698Y-61931436D01*
X134722339Y-61920000D01*
X134953805Y-61920000D01*
X134957055Y-61952998D01*
X134988557Y-62056847D01*
X135039713Y-62152554D01*
X135108558Y-62236442D01*
X135192446Y-62305287D01*
X135288153Y-62356443D01*
X135392002Y-62387945D01*
X135500000Y-62398582D01*
X135950000Y-62398582D01*
X136057998Y-62387945D01*
X136161847Y-62356443D01*
X136257554Y-62305287D01*
X136341442Y-62236442D01*
X136410287Y-62152554D01*
X136444064Y-62089361D01*
X136449513Y-62144689D01*
X136471299Y-62216508D01*
X136506678Y-62282696D01*
X136554289Y-62340711D01*
X136612304Y-62388322D01*
X136678492Y-62423701D01*
X136750311Y-62445487D01*
X136825000Y-62452843D01*
X137052750Y-62451000D01*
X137148000Y-62355750D01*
X137148000Y-61722000D01*
X137402000Y-61722000D01*
X137402000Y-62355750D01*
X137497250Y-62451000D01*
X137725000Y-62452843D01*
X137799689Y-62445487D01*
X137871508Y-62423701D01*
X137937696Y-62388322D01*
X137995711Y-62340711D01*
X138043322Y-62282696D01*
X138078701Y-62216508D01*
X138100487Y-62144689D01*
X138107843Y-62070000D01*
X138106000Y-61817250D01*
X138010750Y-61722000D01*
X137402000Y-61722000D01*
X137148000Y-61722000D01*
X137128000Y-61722000D01*
X137128000Y-61468000D01*
X137148000Y-61468000D01*
X137148000Y-60834250D01*
X137402000Y-60834250D01*
X137402000Y-61468000D01*
X138010750Y-61468000D01*
X138106000Y-61372750D01*
X138107843Y-61120000D01*
X138100487Y-61045311D01*
X138078701Y-60973492D01*
X138043322Y-60907304D01*
X137995711Y-60849289D01*
X137937696Y-60801678D01*
X137871508Y-60766299D01*
X137799689Y-60744513D01*
X137725000Y-60737157D01*
X137497250Y-60739000D01*
X137402000Y-60834250D01*
X137148000Y-60834250D01*
X137052750Y-60739000D01*
X136825000Y-60737157D01*
X136750311Y-60744513D01*
X136678492Y-60766299D01*
X136612304Y-60801678D01*
X136554289Y-60849289D01*
X136506678Y-60907304D01*
X136471299Y-60973492D01*
X136449513Y-61045311D01*
X136444064Y-61100639D01*
X136410287Y-61037446D01*
X136341442Y-60953558D01*
X136257554Y-60884713D01*
X136161847Y-60833557D01*
X136057998Y-60802055D01*
X135950000Y-60791418D01*
X135500000Y-60791418D01*
X135392002Y-60802055D01*
X135288153Y-60833557D01*
X135192446Y-60884713D01*
X135108558Y-60953558D01*
X135057313Y-61016000D01*
X134722339Y-61016000D01*
X134714698Y-61004564D01*
X134613436Y-60903302D01*
X134494364Y-60823741D01*
X134362058Y-60768938D01*
X134221603Y-60741000D01*
X134078397Y-60741000D01*
X133937942Y-60768938D01*
X133805636Y-60823741D01*
X133705500Y-60890649D01*
X133605364Y-60823741D01*
X133473058Y-60768938D01*
X133332603Y-60741000D01*
X133189397Y-60741000D01*
X133048942Y-60768938D01*
X132916636Y-60823741D01*
X132816500Y-60890649D01*
X132716364Y-60823741D01*
X132584058Y-60768938D01*
X132443603Y-60741000D01*
X132300397Y-60741000D01*
X132159942Y-60768938D01*
X132070400Y-60806028D01*
X132070400Y-56104605D01*
X132072587Y-56082400D01*
X132063860Y-55993792D01*
X132038014Y-55908590D01*
X132028500Y-55890791D01*
X131996043Y-55830067D01*
X131939559Y-55761241D01*
X131929517Y-55753000D01*
X137003762Y-55753000D01*
X137168048Y-56018246D01*
G04 #@! TA.AperFunction,Conductor*
D19*
G36*
X137168048Y-56018246D02*
G01*
X137895680Y-57479376D01*
X138485236Y-59001469D01*
X138931671Y-60571507D01*
X139231176Y-62176081D01*
X139381183Y-63801440D01*
X139380414Y-65433722D01*
X139228873Y-67058952D01*
X138927854Y-68663242D01*
X138553312Y-69975736D01*
X138430096Y-69905683D01*
X138299982Y-69940547D01*
X137833107Y-70749198D01*
X137850428Y-70759198D01*
X137723428Y-70979168D01*
X137706107Y-70969168D01*
X137239232Y-71777819D01*
X137274096Y-71907933D01*
X137513713Y-72048404D01*
X137582074Y-72079378D01*
X137655164Y-72096421D01*
X137717203Y-72098451D01*
X137159940Y-73214829D01*
X136299143Y-74601689D01*
X136192630Y-74742387D01*
X136158865Y-74688087D01*
X136107561Y-74633311D01*
X136046556Y-74589596D01*
X135805096Y-74452317D01*
X135674982Y-74487181D01*
X135208107Y-75295832D01*
X135225428Y-75305832D01*
X135098428Y-75525802D01*
X135081107Y-75515802D01*
X134614232Y-76324453D01*
X134649096Y-76454567D01*
X134753795Y-76515945D01*
X134212717Y-77107940D01*
X133004906Y-78205923D01*
X131700852Y-79187634D01*
X130693582Y-79809081D01*
X130693582Y-78512300D01*
X130687268Y-78448197D01*
X130668570Y-78386557D01*
X130638206Y-78329750D01*
X130597343Y-78279957D01*
X130547550Y-78239094D01*
X130490743Y-78208730D01*
X130429103Y-78190032D01*
X130365000Y-78183718D01*
X129968864Y-78183718D01*
X129960460Y-78098392D01*
X129949742Y-78063060D01*
X129934614Y-78013190D01*
X129892643Y-77934667D01*
X129836159Y-77865841D01*
X129818910Y-77851685D01*
X129397600Y-77430377D01*
X129397600Y-76809859D01*
X129436304Y-76841622D01*
X129502492Y-76877001D01*
X129574311Y-76898787D01*
X129649000Y-76906143D01*
X129901750Y-76904300D01*
X129997000Y-76809050D01*
X129997000Y-76200300D01*
X130251000Y-76200300D01*
X130251000Y-76809050D01*
X130346250Y-76904300D01*
X130599000Y-76906143D01*
X130673689Y-76898787D01*
X130745508Y-76877001D01*
X130811696Y-76841622D01*
X130869711Y-76794011D01*
X130917322Y-76735996D01*
X130952701Y-76669808D01*
X130974487Y-76597989D01*
X130981843Y-76523300D01*
X130980000Y-76295550D01*
X130884750Y-76200300D01*
X130251000Y-76200300D01*
X129997000Y-76200300D01*
X129977000Y-76200300D01*
X129977000Y-75946300D01*
X129997000Y-75946300D01*
X129997000Y-75926300D01*
X130251000Y-75926300D01*
X130251000Y-75946300D01*
X130884750Y-75946300D01*
X130980000Y-75851050D01*
X130981843Y-75623300D01*
X130974487Y-75548611D01*
X130952701Y-75476792D01*
X130917322Y-75410604D01*
X130869711Y-75352589D01*
X130811696Y-75304978D01*
X130745508Y-75269599D01*
X130673689Y-75247813D01*
X130618361Y-75242364D01*
X130681554Y-75208587D01*
X130765442Y-75139742D01*
X130834287Y-75055854D01*
X130885443Y-74960147D01*
X130916945Y-74856298D01*
X130927582Y-74748300D01*
X130927582Y-74597900D01*
X132544656Y-74597900D01*
X132457305Y-74749196D01*
X132430721Y-74807868D01*
X132416094Y-74870599D01*
X132413987Y-74934977D01*
X132424479Y-74998530D01*
X132447169Y-75058815D01*
X132481183Y-75113515D01*
X132525216Y-75160528D01*
X132577574Y-75198047D01*
X133443600Y-75698047D01*
X133502272Y-75724631D01*
X133565003Y-75739258D01*
X133629381Y-75741365D01*
X133692934Y-75730873D01*
X133753219Y-75708183D01*
X133807919Y-75674169D01*
X133854932Y-75630136D01*
X133858506Y-75625148D01*
X133851584Y-75640426D01*
X133834541Y-75713516D01*
X133832086Y-75788526D01*
X133844311Y-75862574D01*
X133870748Y-75932814D01*
X133910379Y-75996547D01*
X133961683Y-76051323D01*
X134022688Y-76095038D01*
X134264148Y-76232317D01*
X134394262Y-76197453D01*
X134861137Y-75388802D01*
X134843816Y-75378802D01*
X134970816Y-75158832D01*
X134988137Y-75168832D01*
X135455012Y-74360181D01*
X135420148Y-74230067D01*
X135180531Y-74089596D01*
X135112170Y-74058622D01*
X135039080Y-74041579D01*
X134964070Y-74039124D01*
X134890022Y-74051349D01*
X134819782Y-74077786D01*
X134756049Y-74117417D01*
X134701273Y-74168721D01*
X134691502Y-74182357D01*
X134694035Y-74176766D01*
X134708662Y-74114035D01*
X134710769Y-74049657D01*
X134700277Y-73986104D01*
X134677587Y-73925819D01*
X134643573Y-73871119D01*
X134599540Y-73824106D01*
X134547182Y-73786587D01*
X134221100Y-73598324D01*
X134221100Y-73034923D01*
X135841085Y-71414939D01*
X135868180Y-71389561D01*
X135885487Y-71365408D01*
X135904342Y-71342434D01*
X135921845Y-71309687D01*
X136027067Y-71127434D01*
X136068600Y-71151413D01*
X136127272Y-71177997D01*
X136190003Y-71192624D01*
X136254381Y-71194731D01*
X136317934Y-71184239D01*
X136378219Y-71161549D01*
X136432919Y-71127535D01*
X136479932Y-71083502D01*
X136483506Y-71078514D01*
X136476584Y-71093792D01*
X136459541Y-71166882D01*
X136457086Y-71241892D01*
X136469311Y-71315940D01*
X136495748Y-71386180D01*
X136535379Y-71449913D01*
X136586683Y-71504689D01*
X136647688Y-71548404D01*
X136889148Y-71685683D01*
X137019262Y-71650819D01*
X137486137Y-70842168D01*
X137468816Y-70832168D01*
X137595816Y-70612198D01*
X137613137Y-70622198D01*
X138080012Y-69813547D01*
X138045148Y-69683433D01*
X137805531Y-69542962D01*
X137737170Y-69511988D01*
X137664080Y-69494945D01*
X137589070Y-69492490D01*
X137515022Y-69504715D01*
X137444782Y-69531152D01*
X137381049Y-69570783D01*
X137326273Y-69622087D01*
X137316502Y-69635723D01*
X137319035Y-69630132D01*
X137333662Y-69567401D01*
X137335769Y-69503023D01*
X137325277Y-69439470D01*
X137302587Y-69379185D01*
X137268573Y-69324485D01*
X137224540Y-69277472D01*
X137172182Y-69239953D01*
X136306156Y-68739953D01*
X136247484Y-68713369D01*
X136184753Y-68698742D01*
X136120375Y-68696635D01*
X136056822Y-68707127D01*
X135996537Y-68729817D01*
X135941837Y-68763831D01*
X135894824Y-68807864D01*
X135857305Y-68860222D01*
X135814788Y-68933864D01*
X135684723Y-68803800D01*
X135709303Y-68803800D01*
X135849758Y-68775862D01*
X135982064Y-68721059D01*
X136101136Y-68641498D01*
X136202398Y-68540236D01*
X136210039Y-68528800D01*
X136546695Y-68528800D01*
X136568900Y-68530987D01*
X136591105Y-68528800D01*
X136657507Y-68522260D01*
X136742710Y-68496414D01*
X136821233Y-68454443D01*
X136890059Y-68397959D01*
X136904223Y-68380700D01*
X137802306Y-67482618D01*
X137819559Y-67468459D01*
X137876043Y-67399633D01*
X137918014Y-67321110D01*
X137930525Y-67279866D01*
X137943860Y-67235908D01*
X137952587Y-67147300D01*
X137950400Y-67125095D01*
X137950400Y-65129804D01*
X137952587Y-65107599D01*
X137943860Y-65018992D01*
X137918014Y-64933790D01*
X137907971Y-64915000D01*
X137876043Y-64855267D01*
X137819559Y-64786441D01*
X137802310Y-64772285D01*
X137388799Y-64358775D01*
X137443711Y-64313711D01*
X137491322Y-64255696D01*
X137526701Y-64189508D01*
X137548487Y-64117689D01*
X137555843Y-64043000D01*
X137554000Y-63990250D01*
X137458750Y-63895000D01*
X137046000Y-63895000D01*
X137046000Y-63915000D01*
X137000000Y-63915000D01*
X137000000Y-63895000D01*
X136876000Y-63895000D01*
X136876000Y-63641000D01*
X137000000Y-63641000D01*
X137000000Y-63207250D01*
X137046000Y-63207250D01*
X137046000Y-63641000D01*
X137458750Y-63641000D01*
X137554000Y-63545750D01*
X137555843Y-63493000D01*
X137548487Y-63418311D01*
X137526701Y-63346492D01*
X137491322Y-63280304D01*
X137443711Y-63222289D01*
X137385696Y-63174678D01*
X137319508Y-63139299D01*
X137247689Y-63117513D01*
X137173000Y-63110157D01*
X137141250Y-63112000D01*
X137046000Y-63207250D01*
X137000000Y-63207250D01*
X136904750Y-63112000D01*
X136873000Y-63110157D01*
X136822014Y-63115179D01*
X136818460Y-63079093D01*
X136792614Y-62993890D01*
X136750643Y-62915367D01*
X136694159Y-62846541D01*
X136625333Y-62790057D01*
X136546810Y-62748086D01*
X136461607Y-62722240D01*
X136395205Y-62715700D01*
X136373000Y-62713513D01*
X136350795Y-62715700D01*
X133232525Y-62715700D01*
X132654647Y-62137823D01*
X132716364Y-62112259D01*
X132816500Y-62045351D01*
X132916636Y-62112259D01*
X133048942Y-62167062D01*
X133189397Y-62195000D01*
X133332603Y-62195000D01*
X133473058Y-62167062D01*
X133605364Y-62112259D01*
X133705500Y-62045351D01*
X133805636Y-62112259D01*
X133937942Y-62167062D01*
X134078397Y-62195000D01*
X134221603Y-62195000D01*
X134362058Y-62167062D01*
X134494364Y-62112259D01*
X134613436Y-62032698D01*
X134714698Y-61931436D01*
X134722339Y-61920000D01*
X134953805Y-61920000D01*
X134957055Y-61952998D01*
X134988557Y-62056847D01*
X135039713Y-62152554D01*
X135108558Y-62236442D01*
X135192446Y-62305287D01*
X135288153Y-62356443D01*
X135392002Y-62387945D01*
X135500000Y-62398582D01*
X135950000Y-62398582D01*
X136057998Y-62387945D01*
X136161847Y-62356443D01*
X136257554Y-62305287D01*
X136341442Y-62236442D01*
X136410287Y-62152554D01*
X136444064Y-62089361D01*
X136449513Y-62144689D01*
X136471299Y-62216508D01*
X136506678Y-62282696D01*
X136554289Y-62340711D01*
X136612304Y-62388322D01*
X136678492Y-62423701D01*
X136750311Y-62445487D01*
X136825000Y-62452843D01*
X137052750Y-62451000D01*
X137148000Y-62355750D01*
X137148000Y-61722000D01*
X137402000Y-61722000D01*
X137402000Y-62355750D01*
X137497250Y-62451000D01*
X137725000Y-62452843D01*
X137799689Y-62445487D01*
X137871508Y-62423701D01*
X137937696Y-62388322D01*
X137995711Y-62340711D01*
X138043322Y-62282696D01*
X138078701Y-62216508D01*
X138100487Y-62144689D01*
X138107843Y-62070000D01*
X138106000Y-61817250D01*
X138010750Y-61722000D01*
X137402000Y-61722000D01*
X137148000Y-61722000D01*
X137128000Y-61722000D01*
X137128000Y-61468000D01*
X137148000Y-61468000D01*
X137148000Y-60834250D01*
X137402000Y-60834250D01*
X137402000Y-61468000D01*
X138010750Y-61468000D01*
X138106000Y-61372750D01*
X138107843Y-61120000D01*
X138100487Y-61045311D01*
X138078701Y-60973492D01*
X138043322Y-60907304D01*
X137995711Y-60849289D01*
X137937696Y-60801678D01*
X137871508Y-60766299D01*
X137799689Y-60744513D01*
X137725000Y-60737157D01*
X137497250Y-60739000D01*
X137402000Y-60834250D01*
X137148000Y-60834250D01*
X137052750Y-60739000D01*
X136825000Y-60737157D01*
X136750311Y-60744513D01*
X136678492Y-60766299D01*
X136612304Y-60801678D01*
X136554289Y-60849289D01*
X136506678Y-60907304D01*
X136471299Y-60973492D01*
X136449513Y-61045311D01*
X136444064Y-61100639D01*
X136410287Y-61037446D01*
X136341442Y-60953558D01*
X136257554Y-60884713D01*
X136161847Y-60833557D01*
X136057998Y-60802055D01*
X135950000Y-60791418D01*
X135500000Y-60791418D01*
X135392002Y-60802055D01*
X135288153Y-60833557D01*
X135192446Y-60884713D01*
X135108558Y-60953558D01*
X135057313Y-61016000D01*
X134722339Y-61016000D01*
X134714698Y-61004564D01*
X134613436Y-60903302D01*
X134494364Y-60823741D01*
X134362058Y-60768938D01*
X134221603Y-60741000D01*
X134078397Y-60741000D01*
X133937942Y-60768938D01*
X133805636Y-60823741D01*
X133705500Y-60890649D01*
X133605364Y-60823741D01*
X133473058Y-60768938D01*
X133332603Y-60741000D01*
X133189397Y-60741000D01*
X133048942Y-60768938D01*
X132916636Y-60823741D01*
X132816500Y-60890649D01*
X132716364Y-60823741D01*
X132584058Y-60768938D01*
X132443603Y-60741000D01*
X132300397Y-60741000D01*
X132159942Y-60768938D01*
X132070400Y-60806028D01*
X132070400Y-56104605D01*
X132072587Y-56082400D01*
X132063860Y-55993792D01*
X132038014Y-55908590D01*
X132028500Y-55890791D01*
X131996043Y-55830067D01*
X131939559Y-55761241D01*
X131929517Y-55753000D01*
X137003762Y-55753000D01*
X137168048Y-56018246D01*
G37*
G04 #@! TD.AperFunction*
D18*
X111961418Y-69015000D02*
X111967732Y-69079103D01*
X111973935Y-69099553D01*
X111971678Y-69102304D01*
X111936299Y-69168492D01*
X111914513Y-69240311D01*
X111907157Y-69315000D01*
X111909000Y-69492750D01*
X112004250Y-69588000D01*
X113013000Y-69588000D01*
X113013000Y-69568000D01*
X113267000Y-69568000D01*
X113267000Y-69588000D01*
X114275750Y-69588000D01*
X114371000Y-69492750D01*
X114372843Y-69315000D01*
X114372490Y-69311414D01*
X114592401Y-69531326D01*
X114592400Y-70843461D01*
X114580964Y-70851102D01*
X114479702Y-70952364D01*
X114400141Y-71071436D01*
X114345338Y-71203742D01*
X114317400Y-71344197D01*
X114317400Y-71487403D01*
X114345338Y-71627858D01*
X114400141Y-71760164D01*
X114479702Y-71879236D01*
X114580964Y-71980498D01*
X114700036Y-72060059D01*
X114832342Y-72114862D01*
X114972797Y-72142800D01*
X115116003Y-72142800D01*
X115256458Y-72114862D01*
X115388764Y-72060059D01*
X115443001Y-72023819D01*
X115443001Y-72407163D01*
X115350958Y-72369038D01*
X115210503Y-72341100D01*
X115067297Y-72341100D01*
X114926842Y-72369038D01*
X114794536Y-72423841D01*
X114675464Y-72503402D01*
X114574202Y-72604664D01*
X114566561Y-72616100D01*
X113120624Y-72616100D01*
X112416700Y-71912177D01*
X112416700Y-71543582D01*
X113990000Y-71543582D01*
X114054103Y-71537268D01*
X114115743Y-71518570D01*
X114172550Y-71488206D01*
X114222343Y-71447343D01*
X114263206Y-71397550D01*
X114293570Y-71340743D01*
X114312268Y-71279103D01*
X114318582Y-71215000D01*
X114318582Y-70415000D01*
X114312268Y-70350897D01*
X114306065Y-70330447D01*
X114308322Y-70327696D01*
X114343701Y-70261508D01*
X114365487Y-70189689D01*
X114372843Y-70115000D01*
X114371000Y-69937250D01*
X114275750Y-69842000D01*
X113267000Y-69842000D01*
X113267000Y-69862000D01*
X113013000Y-69862000D01*
X113013000Y-69842000D01*
X112004250Y-69842000D01*
X111909000Y-69937250D01*
X111907157Y-70115000D01*
X111914513Y-70189689D01*
X111936299Y-70261508D01*
X111971678Y-70327696D01*
X111973935Y-70330447D01*
X111967732Y-70350897D01*
X111966736Y-70361013D01*
X111964700Y-70360813D01*
X111942495Y-70363000D01*
X111192400Y-70363000D01*
X111192400Y-70230097D01*
X111164462Y-70089642D01*
X111109659Y-69957336D01*
X111030098Y-69838264D01*
X110999429Y-69807595D01*
X111961418Y-68845607D01*
X111961418Y-69015000D01*
G04 #@! TA.AperFunction,Conductor*
D19*
G36*
X111961418Y-69015000D02*
G01*
X111967732Y-69079103D01*
X111973935Y-69099553D01*
X111971678Y-69102304D01*
X111936299Y-69168492D01*
X111914513Y-69240311D01*
X111907157Y-69315000D01*
X111909000Y-69492750D01*
X112004250Y-69588000D01*
X113013000Y-69588000D01*
X113013000Y-69568000D01*
X113267000Y-69568000D01*
X113267000Y-69588000D01*
X114275750Y-69588000D01*
X114371000Y-69492750D01*
X114372843Y-69315000D01*
X114372490Y-69311414D01*
X114592401Y-69531326D01*
X114592400Y-70843461D01*
X114580964Y-70851102D01*
X114479702Y-70952364D01*
X114400141Y-71071436D01*
X114345338Y-71203742D01*
X114317400Y-71344197D01*
X114317400Y-71487403D01*
X114345338Y-71627858D01*
X114400141Y-71760164D01*
X114479702Y-71879236D01*
X114580964Y-71980498D01*
X114700036Y-72060059D01*
X114832342Y-72114862D01*
X114972797Y-72142800D01*
X115116003Y-72142800D01*
X115256458Y-72114862D01*
X115388764Y-72060059D01*
X115443001Y-72023819D01*
X115443001Y-72407163D01*
X115350958Y-72369038D01*
X115210503Y-72341100D01*
X115067297Y-72341100D01*
X114926842Y-72369038D01*
X114794536Y-72423841D01*
X114675464Y-72503402D01*
X114574202Y-72604664D01*
X114566561Y-72616100D01*
X113120624Y-72616100D01*
X112416700Y-71912177D01*
X112416700Y-71543582D01*
X113990000Y-71543582D01*
X114054103Y-71537268D01*
X114115743Y-71518570D01*
X114172550Y-71488206D01*
X114222343Y-71447343D01*
X114263206Y-71397550D01*
X114293570Y-71340743D01*
X114312268Y-71279103D01*
X114318582Y-71215000D01*
X114318582Y-70415000D01*
X114312268Y-70350897D01*
X114306065Y-70330447D01*
X114308322Y-70327696D01*
X114343701Y-70261508D01*
X114365487Y-70189689D01*
X114372843Y-70115000D01*
X114371000Y-69937250D01*
X114275750Y-69842000D01*
X113267000Y-69842000D01*
X113267000Y-69862000D01*
X113013000Y-69862000D01*
X113013000Y-69842000D01*
X112004250Y-69842000D01*
X111909000Y-69937250D01*
X111907157Y-70115000D01*
X111914513Y-70189689D01*
X111936299Y-70261508D01*
X111971678Y-70327696D01*
X111973935Y-70330447D01*
X111967732Y-70350897D01*
X111966736Y-70361013D01*
X111964700Y-70360813D01*
X111942495Y-70363000D01*
X111192400Y-70363000D01*
X111192400Y-70230097D01*
X111164462Y-70089642D01*
X111109659Y-69957336D01*
X111030098Y-69838264D01*
X110999429Y-69807595D01*
X111961418Y-68845607D01*
X111961418Y-69015000D01*
G37*
G04 #@! TD.AperFunction*
D18*
X112143492Y-55761299D02*
X112077304Y-55796678D01*
X112019289Y-55844289D01*
X111971678Y-55902304D01*
X111936299Y-55968492D01*
X111914513Y-56040311D01*
X111907157Y-56115000D01*
X111909000Y-56292750D01*
X112004250Y-56388000D01*
X113013000Y-56388000D01*
X113013000Y-56368000D01*
X113267000Y-56368000D01*
X113267000Y-56388000D01*
X114275750Y-56388000D01*
X114371000Y-56292750D01*
X114372843Y-56115000D01*
X114365487Y-56040311D01*
X114343701Y-55968492D01*
X114308322Y-55902304D01*
X114260711Y-55844289D01*
X114202696Y-55796678D01*
X114136508Y-55761299D01*
X114109150Y-55753000D01*
X126595270Y-55753000D01*
X126554038Y-55852542D01*
X126526100Y-55992997D01*
X126526100Y-56136203D01*
X126528783Y-56149693D01*
X125515477Y-57163000D01*
X114313460Y-57163000D01*
X114312268Y-57150897D01*
X114306065Y-57130447D01*
X114308322Y-57127696D01*
X114343701Y-57061508D01*
X114365487Y-56989689D01*
X114372843Y-56915000D01*
X114371000Y-56737250D01*
X114275750Y-56642000D01*
X113267000Y-56642000D01*
X113267000Y-56662000D01*
X113013000Y-56662000D01*
X113013000Y-56642000D01*
X112004250Y-56642000D01*
X111909000Y-56737250D01*
X111907157Y-56915000D01*
X111914513Y-56989689D01*
X111936299Y-57061508D01*
X111971678Y-57127696D01*
X111973935Y-57130447D01*
X111967732Y-57150897D01*
X111966540Y-57163000D01*
X109720304Y-57163000D01*
X109698099Y-57160813D01*
X109609492Y-57169540D01*
X109589662Y-57175556D01*
X109524290Y-57195386D01*
X109445767Y-57237357D01*
X109376941Y-57293841D01*
X109362786Y-57311089D01*
X104509196Y-62164681D01*
X104491942Y-62178841D01*
X104439491Y-62242753D01*
X104435458Y-62247667D01*
X104393486Y-62326191D01*
X104367640Y-62411393D01*
X104358913Y-62500000D01*
X104361101Y-62522215D01*
X104361101Y-63250090D01*
X104156940Y-63332576D01*
X104266312Y-62159586D01*
X104567331Y-60555294D01*
X105015248Y-58985681D01*
X105606235Y-57464153D01*
X106335245Y-56003711D01*
X106490856Y-55753000D01*
X112170850Y-55753000D01*
X112143492Y-55761299D01*
G04 #@! TA.AperFunction,Conductor*
D19*
G36*
X112143492Y-55761299D02*
G01*
X112077304Y-55796678D01*
X112019289Y-55844289D01*
X111971678Y-55902304D01*
X111936299Y-55968492D01*
X111914513Y-56040311D01*
X111907157Y-56115000D01*
X111909000Y-56292750D01*
X112004250Y-56388000D01*
X113013000Y-56388000D01*
X113013000Y-56368000D01*
X113267000Y-56368000D01*
X113267000Y-56388000D01*
X114275750Y-56388000D01*
X114371000Y-56292750D01*
X114372843Y-56115000D01*
X114365487Y-56040311D01*
X114343701Y-55968492D01*
X114308322Y-55902304D01*
X114260711Y-55844289D01*
X114202696Y-55796678D01*
X114136508Y-55761299D01*
X114109150Y-55753000D01*
X126595270Y-55753000D01*
X126554038Y-55852542D01*
X126526100Y-55992997D01*
X126526100Y-56136203D01*
X126528783Y-56149693D01*
X125515477Y-57163000D01*
X114313460Y-57163000D01*
X114312268Y-57150897D01*
X114306065Y-57130447D01*
X114308322Y-57127696D01*
X114343701Y-57061508D01*
X114365487Y-56989689D01*
X114372843Y-56915000D01*
X114371000Y-56737250D01*
X114275750Y-56642000D01*
X113267000Y-56642000D01*
X113267000Y-56662000D01*
X113013000Y-56662000D01*
X113013000Y-56642000D01*
X112004250Y-56642000D01*
X111909000Y-56737250D01*
X111907157Y-56915000D01*
X111914513Y-56989689D01*
X111936299Y-57061508D01*
X111971678Y-57127696D01*
X111973935Y-57130447D01*
X111967732Y-57150897D01*
X111966540Y-57163000D01*
X109720304Y-57163000D01*
X109698099Y-57160813D01*
X109609492Y-57169540D01*
X109589662Y-57175556D01*
X109524290Y-57195386D01*
X109445767Y-57237357D01*
X109376941Y-57293841D01*
X109362786Y-57311089D01*
X104509196Y-62164681D01*
X104491942Y-62178841D01*
X104439491Y-62242753D01*
X104435458Y-62247667D01*
X104393486Y-62326191D01*
X104367640Y-62411393D01*
X104358913Y-62500000D01*
X104361101Y-62522215D01*
X104361101Y-63250090D01*
X104156940Y-63332576D01*
X104266312Y-62159586D01*
X104567331Y-60555294D01*
X105015248Y-58985681D01*
X105606235Y-57464153D01*
X106335245Y-56003711D01*
X106490856Y-55753000D01*
X112170850Y-55753000D01*
X112143492Y-55761299D01*
G37*
G04 #@! TD.AperFunction*
M02*
