G04 #@! TF.GenerationSoftware,KiCad,Pcbnew,(5.1.10)-1*
G04 #@! TF.CreationDate,2021-09-02T18:37:34+02:00*
G04 #@! TF.ProjectId,nrf52-sensor-tag,6e726635-322d-4736-956e-736f722d7461,rev?*
G04 #@! TF.SameCoordinates,Original*
G04 #@! TF.FileFunction,Paste,Top*
G04 #@! TF.FilePolarity,Positive*
%FSLAX46Y46*%
G04 Gerber Fmt 4.6, Leading zero omitted, Abs format (unit mm)*
G04 Created by KiCad (PCBNEW (5.1.10)-1) date 2021-09-02 18:37:34*
%MOMM*%
%LPD*%
G01*
G04 APERTURE LIST*
%ADD10R,0.400000X0.500000*%
%ADD11R,1.700000X0.800000*%
%ADD12C,0.100000*%
%ADD13R,0.300000X0.550000*%
G04 APERTURE END LIST*
G36*
G01*
X136066100Y-59964501D02*
X136066100Y-57764499D01*
G75*
G02*
X136316099Y-57514500I249999J0D01*
G01*
X136966101Y-57514500D01*
G75*
G02*
X137216100Y-57764499I0J-249999D01*
G01*
X137216100Y-59964501D01*
G75*
G02*
X136966101Y-60214500I-249999J0D01*
G01*
X136316099Y-60214500D01*
G75*
G02*
X136066100Y-59964501I0J249999D01*
G01*
G37*
G36*
G01*
X133116100Y-59964501D02*
X133116100Y-57764499D01*
G75*
G02*
X133366099Y-57514500I249999J0D01*
G01*
X134016101Y-57514500D01*
G75*
G02*
X134266100Y-57764499I0J-249999D01*
G01*
X134266100Y-59964501D01*
G75*
G02*
X134016101Y-60214500I-249999J0D01*
G01*
X133366099Y-60214500D01*
G75*
G02*
X133116100Y-59964501I0J249999D01*
G01*
G37*
G36*
G01*
X115620000Y-75736000D02*
X116170000Y-75736000D01*
G75*
G02*
X116370000Y-75936000I0J-200000D01*
G01*
X116370000Y-76336000D01*
G75*
G02*
X116170000Y-76536000I-200000J0D01*
G01*
X115620000Y-76536000D01*
G75*
G02*
X115420000Y-76336000I0J200000D01*
G01*
X115420000Y-75936000D01*
G75*
G02*
X115620000Y-75736000I200000J0D01*
G01*
G37*
G36*
G01*
X115620000Y-74086000D02*
X116170000Y-74086000D01*
G75*
G02*
X116370000Y-74286000I0J-200000D01*
G01*
X116370000Y-74686000D01*
G75*
G02*
X116170000Y-74886000I-200000J0D01*
G01*
X115620000Y-74886000D01*
G75*
G02*
X115420000Y-74686000I0J200000D01*
G01*
X115420000Y-74286000D01*
G75*
G02*
X115620000Y-74086000I200000J0D01*
G01*
G37*
G36*
G01*
X117653000Y-75736000D02*
X118203000Y-75736000D01*
G75*
G02*
X118403000Y-75936000I0J-200000D01*
G01*
X118403000Y-76336000D01*
G75*
G02*
X118203000Y-76536000I-200000J0D01*
G01*
X117653000Y-76536000D01*
G75*
G02*
X117453000Y-76336000I0J200000D01*
G01*
X117453000Y-75936000D01*
G75*
G02*
X117653000Y-75736000I200000J0D01*
G01*
G37*
G36*
G01*
X117653000Y-74086000D02*
X118203000Y-74086000D01*
G75*
G02*
X118403000Y-74286000I0J-200000D01*
G01*
X118403000Y-74686000D01*
G75*
G02*
X118203000Y-74886000I-200000J0D01*
G01*
X117653000Y-74886000D01*
G75*
G02*
X117453000Y-74686000I0J200000D01*
G01*
X117453000Y-74286000D01*
G75*
G02*
X117653000Y-74086000I200000J0D01*
G01*
G37*
G36*
G01*
X120235000Y-74886000D02*
X119685000Y-74886000D01*
G75*
G02*
X119485000Y-74686000I0J200000D01*
G01*
X119485000Y-74286000D01*
G75*
G02*
X119685000Y-74086000I200000J0D01*
G01*
X120235000Y-74086000D01*
G75*
G02*
X120435000Y-74286000I0J-200000D01*
G01*
X120435000Y-74686000D01*
G75*
G02*
X120235000Y-74886000I-200000J0D01*
G01*
G37*
G36*
G01*
X120235000Y-76536000D02*
X119685000Y-76536000D01*
G75*
G02*
X119485000Y-76336000I0J200000D01*
G01*
X119485000Y-75936000D01*
G75*
G02*
X119685000Y-75736000I200000J0D01*
G01*
X120235000Y-75736000D01*
G75*
G02*
X120435000Y-75936000I0J-200000D01*
G01*
X120435000Y-76336000D01*
G75*
G02*
X120235000Y-76536000I-200000J0D01*
G01*
G37*
D10*
X113417000Y-74915000D03*
X114117000Y-74915000D03*
X114117000Y-76215000D03*
X113417000Y-76215000D03*
D11*
X130340000Y-70815000D03*
X130340000Y-69715000D03*
X130340000Y-68615000D03*
X130340000Y-67515000D03*
X130340000Y-66415000D03*
X130340000Y-65315000D03*
X130340000Y-64215000D03*
X130340000Y-63115000D03*
X130340000Y-62015000D03*
X130340000Y-60915000D03*
X130340000Y-59815000D03*
X130340000Y-58715000D03*
X130340000Y-57615000D03*
X130340000Y-56515000D03*
X113140000Y-70815000D03*
X113140000Y-69715000D03*
X113140000Y-68615000D03*
X113140000Y-67515000D03*
X113140000Y-66415000D03*
X113140000Y-65315000D03*
X113140000Y-64215000D03*
X113140000Y-63115000D03*
X113140000Y-62015000D03*
X113140000Y-60915000D03*
X113140000Y-59815000D03*
X113140000Y-58715000D03*
X113140000Y-57615000D03*
X113140000Y-56515000D03*
D12*
G36*
X104942837Y-63369440D02*
G01*
X105486017Y-64713857D01*
X104790629Y-64994812D01*
X104247449Y-63650395D01*
X104942837Y-63369440D01*
G37*
G36*
X106101817Y-62901182D02*
G01*
X106644997Y-64245599D01*
X105949609Y-64526554D01*
X105406429Y-63182137D01*
X106101817Y-62901182D01*
G37*
G36*
X107260796Y-62432923D02*
G01*
X107803976Y-63777340D01*
X107108588Y-64058295D01*
X106565408Y-62713878D01*
X107260796Y-62432923D01*
G37*
G36*
X108419776Y-61964665D02*
G01*
X108962956Y-63309082D01*
X108267568Y-63590037D01*
X107724388Y-62245620D01*
X108419776Y-61964665D01*
G37*
G36*
X109281371Y-64097188D02*
G01*
X109824551Y-65441605D01*
X109129163Y-65722560D01*
X108585983Y-64378143D01*
X109281371Y-64097188D01*
G37*
G36*
X108122391Y-64565446D02*
G01*
X108665571Y-65909863D01*
X107970183Y-66190818D01*
X107427003Y-64846401D01*
X108122391Y-64565446D01*
G37*
G36*
X106963412Y-65033705D02*
G01*
X107506592Y-66378122D01*
X106811204Y-66659077D01*
X106268024Y-65314660D01*
X106963412Y-65033705D01*
G37*
G36*
X105804432Y-65501963D02*
G01*
X106347612Y-66846380D01*
X105652224Y-67127335D01*
X105109044Y-65782918D01*
X105804432Y-65501963D01*
G37*
D13*
X137023000Y-65518000D03*
X136373000Y-65518000D03*
X135723000Y-65518000D03*
X135723000Y-63768000D03*
X136373000Y-63768000D03*
X137023000Y-63768000D03*
G36*
G01*
X136825000Y-61845000D02*
X136825000Y-61345000D01*
G75*
G02*
X137050000Y-61120000I225000J0D01*
G01*
X137500000Y-61120000D01*
G75*
G02*
X137725000Y-61345000I0J-225000D01*
G01*
X137725000Y-61845000D01*
G75*
G02*
X137500000Y-62070000I-225000J0D01*
G01*
X137050000Y-62070000D01*
G75*
G02*
X136825000Y-61845000I0J225000D01*
G01*
G37*
G36*
G01*
X135275000Y-61845000D02*
X135275000Y-61345000D01*
G75*
G02*
X135500000Y-61120000I225000J0D01*
G01*
X135950000Y-61120000D01*
G75*
G02*
X136175000Y-61345000I0J-225000D01*
G01*
X136175000Y-61845000D01*
G75*
G02*
X135950000Y-62070000I-225000J0D01*
G01*
X135500000Y-62070000D01*
G75*
G02*
X135275000Y-61845000I0J225000D01*
G01*
G37*
G36*
G01*
X110224986Y-66848548D02*
X110037683Y-66384957D01*
G75*
G02*
X110162013Y-66092055I208616J84286D01*
G01*
X110579246Y-65923482D01*
G75*
G02*
X110872148Y-66047812I84286J-208616D01*
G01*
X111059451Y-66511403D01*
G75*
G02*
X110935121Y-66804305I-208616J-84286D01*
G01*
X110517888Y-66972878D01*
G75*
G02*
X110224986Y-66848548I-84286J208616D01*
G01*
G37*
G36*
G01*
X108787852Y-67429188D02*
X108600549Y-66965597D01*
G75*
G02*
X108724879Y-66672695I208616J84286D01*
G01*
X109142112Y-66504122D01*
G75*
G02*
X109435014Y-66628452I84286J-208616D01*
G01*
X109622317Y-67092043D01*
G75*
G02*
X109497987Y-67384945I-208616J-84286D01*
G01*
X109080754Y-67553518D01*
G75*
G02*
X108787852Y-67429188I-84286J208616D01*
G01*
G37*
G36*
G01*
X128366000Y-74873300D02*
X127816000Y-74873300D01*
G75*
G02*
X127616000Y-74673300I0J200000D01*
G01*
X127616000Y-74273300D01*
G75*
G02*
X127816000Y-74073300I200000J0D01*
G01*
X128366000Y-74073300D01*
G75*
G02*
X128566000Y-74273300I0J-200000D01*
G01*
X128566000Y-74673300D01*
G75*
G02*
X128366000Y-74873300I-200000J0D01*
G01*
G37*
G36*
G01*
X128366000Y-76523300D02*
X127816000Y-76523300D01*
G75*
G02*
X127616000Y-76323300I0J200000D01*
G01*
X127616000Y-75923300D01*
G75*
G02*
X127816000Y-75723300I200000J0D01*
G01*
X128366000Y-75723300D01*
G75*
G02*
X128566000Y-75923300I0J-200000D01*
G01*
X128566000Y-76323300D01*
G75*
G02*
X128366000Y-76523300I-200000J0D01*
G01*
G37*
G36*
G01*
X121718000Y-74086000D02*
X122268000Y-74086000D01*
G75*
G02*
X122468000Y-74286000I0J-200000D01*
G01*
X122468000Y-74686000D01*
G75*
G02*
X122268000Y-74886000I-200000J0D01*
G01*
X121718000Y-74886000D01*
G75*
G02*
X121518000Y-74686000I0J200000D01*
G01*
X121518000Y-74286000D01*
G75*
G02*
X121718000Y-74086000I200000J0D01*
G01*
G37*
G36*
G01*
X121718000Y-75736000D02*
X122268000Y-75736000D01*
G75*
G02*
X122468000Y-75936000I0J-200000D01*
G01*
X122468000Y-76336000D01*
G75*
G02*
X122268000Y-76536000I-200000J0D01*
G01*
X121718000Y-76536000D01*
G75*
G02*
X121518000Y-76336000I0J200000D01*
G01*
X121518000Y-75936000D01*
G75*
G02*
X121718000Y-75736000I200000J0D01*
G01*
G37*
G36*
G01*
X124301000Y-74886000D02*
X123751000Y-74886000D01*
G75*
G02*
X123551000Y-74686000I0J200000D01*
G01*
X123551000Y-74286000D01*
G75*
G02*
X123751000Y-74086000I200000J0D01*
G01*
X124301000Y-74086000D01*
G75*
G02*
X124501000Y-74286000I0J-200000D01*
G01*
X124501000Y-74686000D01*
G75*
G02*
X124301000Y-74886000I-200000J0D01*
G01*
G37*
G36*
G01*
X124301000Y-76536000D02*
X123751000Y-76536000D01*
G75*
G02*
X123551000Y-76336000I0J200000D01*
G01*
X123551000Y-75936000D01*
G75*
G02*
X123751000Y-75736000I200000J0D01*
G01*
X124301000Y-75736000D01*
G75*
G02*
X124501000Y-75936000I0J-200000D01*
G01*
X124501000Y-76336000D01*
G75*
G02*
X124301000Y-76536000I-200000J0D01*
G01*
G37*
G36*
G01*
X126333000Y-74886000D02*
X125783000Y-74886000D01*
G75*
G02*
X125583000Y-74686000I0J200000D01*
G01*
X125583000Y-74286000D01*
G75*
G02*
X125783000Y-74086000I200000J0D01*
G01*
X126333000Y-74086000D01*
G75*
G02*
X126533000Y-74286000I0J-200000D01*
G01*
X126533000Y-74686000D01*
G75*
G02*
X126333000Y-74886000I-200000J0D01*
G01*
G37*
G36*
G01*
X126333000Y-76536000D02*
X125783000Y-76536000D01*
G75*
G02*
X125583000Y-76336000I0J200000D01*
G01*
X125583000Y-75936000D01*
G75*
G02*
X125783000Y-75736000I200000J0D01*
G01*
X126333000Y-75736000D01*
G75*
G02*
X126533000Y-75936000I0J-200000D01*
G01*
X126533000Y-76336000D01*
G75*
G02*
X126333000Y-76536000I-200000J0D01*
G01*
G37*
D12*
G36*
X105830865Y-71716853D02*
G01*
X105055865Y-70374513D01*
X105921891Y-69874513D01*
X106696891Y-71216853D01*
X105830865Y-71716853D01*
G37*
G36*
X107303109Y-70866853D02*
G01*
X106528109Y-69524513D01*
X107394135Y-69024513D01*
X108169135Y-70366853D01*
X107303109Y-70866853D01*
G37*
G36*
X108455865Y-76263487D02*
G01*
X107680865Y-74921147D01*
X108546891Y-74421147D01*
X109321891Y-75763487D01*
X108455865Y-76263487D01*
G37*
G36*
X109928109Y-75413487D02*
G01*
X109153109Y-74071147D01*
X110019135Y-73571147D01*
X110794135Y-74913487D01*
X109928109Y-75413487D01*
G37*
G36*
X135855135Y-74921147D02*
G01*
X135080135Y-76263487D01*
X134214109Y-75763487D01*
X134989109Y-74421147D01*
X135855135Y-74921147D01*
G37*
G36*
X134382891Y-74071147D02*
G01*
X133607891Y-75413487D01*
X132741865Y-74913487D01*
X133516865Y-73571147D01*
X134382891Y-74071147D01*
G37*
G36*
X138480135Y-70374513D02*
G01*
X137705135Y-71716853D01*
X136839109Y-71216853D01*
X137614109Y-69874513D01*
X138480135Y-70374513D01*
G37*
G36*
X137007891Y-69524513D02*
G01*
X136232891Y-70866853D01*
X135366865Y-70366853D01*
X136141865Y-69024513D01*
X137007891Y-69524513D01*
G37*
G36*
G01*
X129874000Y-75623300D02*
X130374000Y-75623300D01*
G75*
G02*
X130599000Y-75848300I0J-225000D01*
G01*
X130599000Y-76298300D01*
G75*
G02*
X130374000Y-76523300I-225000J0D01*
G01*
X129874000Y-76523300D01*
G75*
G02*
X129649000Y-76298300I0J225000D01*
G01*
X129649000Y-75848300D01*
G75*
G02*
X129874000Y-75623300I225000J0D01*
G01*
G37*
G36*
G01*
X129874000Y-74073300D02*
X130374000Y-74073300D01*
G75*
G02*
X130599000Y-74298300I0J-225000D01*
G01*
X130599000Y-74748300D01*
G75*
G02*
X130374000Y-74973300I-225000J0D01*
G01*
X129874000Y-74973300D01*
G75*
G02*
X129649000Y-74748300I0J225000D01*
G01*
X129649000Y-74298300D01*
G75*
G02*
X129874000Y-74073300I225000J0D01*
G01*
G37*
M02*
