G04 #@! TF.GenerationSoftware,KiCad,Pcbnew,(5.1.10)-1*
G04 #@! TF.CreationDate,2021-08-29T10:51:26+02:00*
G04 #@! TF.ProjectId,nrf52-sensor-tag,6e726635-322d-4736-956e-736f722d7461,rev?*
G04 #@! TF.SameCoordinates,Original*
G04 #@! TF.FileFunction,Legend,Top*
G04 #@! TF.FilePolarity,Positive*
%FSLAX46Y46*%
G04 Gerber Fmt 4.6, Leading zero omitted, Abs format (unit mm)*
G04 Created by KiCad (PCBNEW (5.1.10)-1) date 2021-08-29 10:51:26*
%MOMM*%
%LPD*%
G01*
G04 APERTURE LIST*
%ADD10C,0.120000*%
%ADD11C,0.150000*%
%ADD12C,0.100000*%
%ADD13C,0.254000*%
%ADD14C,0.200000*%
G04 APERTURE END LIST*
D10*
X119354600Y-77851000D02*
X119608600Y-77851000D01*
X119354600Y-78359000D02*
X119354600Y-77851000D01*
X121894600Y-77851000D02*
X121640600Y-77851000D01*
X121894600Y-78359000D02*
X121894600Y-77851000D01*
D11*
X134299600Y-66981428D02*
X134499600Y-67581428D01*
X134699600Y-66981428D01*
X134899600Y-67267142D02*
X135099600Y-67267142D01*
X135185314Y-67581428D02*
X134899600Y-67581428D01*
X134899600Y-66981428D01*
X135185314Y-66981428D01*
X135442457Y-67581428D02*
X135442457Y-66981428D01*
X135642457Y-67410000D01*
X135842457Y-66981428D01*
X135842457Y-67581428D01*
X136413885Y-67581428D02*
X136128171Y-67581428D01*
X136128171Y-66981428D01*
X136871028Y-66981428D02*
X136756742Y-66981428D01*
X136699600Y-67010000D01*
X136671028Y-67038571D01*
X136613885Y-67124285D01*
X136585314Y-67238571D01*
X136585314Y-67467142D01*
X136613885Y-67524285D01*
X136642457Y-67552857D01*
X136699600Y-67581428D01*
X136813885Y-67581428D01*
X136871028Y-67552857D01*
X136899600Y-67524285D01*
X136928171Y-67467142D01*
X136928171Y-67324285D01*
X136899600Y-67267142D01*
X136871028Y-67238571D01*
X136813885Y-67210000D01*
X136699600Y-67210000D01*
X136642457Y-67238571D01*
X136613885Y-67267142D01*
X136585314Y-67324285D01*
X137299600Y-66981428D02*
X137356742Y-66981428D01*
X137413885Y-67010000D01*
X137442457Y-67038571D01*
X137471028Y-67095714D01*
X137499600Y-67210000D01*
X137499600Y-67352857D01*
X137471028Y-67467142D01*
X137442457Y-67524285D01*
X137413885Y-67552857D01*
X137356742Y-67581428D01*
X137299600Y-67581428D01*
X137242457Y-67552857D01*
X137213885Y-67524285D01*
X137185314Y-67467142D01*
X137156742Y-67352857D01*
X137156742Y-67210000D01*
X137185314Y-67095714D01*
X137213885Y-67038571D01*
X137242457Y-67010000D01*
X137299600Y-66981428D01*
X137699600Y-66981428D02*
X138071028Y-66981428D01*
X137871028Y-67210000D01*
X137956742Y-67210000D01*
X138013885Y-67238571D01*
X138042457Y-67267142D01*
X138071028Y-67324285D01*
X138071028Y-67467142D01*
X138042457Y-67524285D01*
X138013885Y-67552857D01*
X137956742Y-67581428D01*
X137785314Y-67581428D01*
X137728171Y-67552857D01*
X137699600Y-67524285D01*
X138442457Y-66981428D02*
X138499600Y-66981428D01*
X138556742Y-67010000D01*
X138585314Y-67038571D01*
X138613885Y-67095714D01*
X138642457Y-67210000D01*
X138642457Y-67352857D01*
X138613885Y-67467142D01*
X138585314Y-67524285D01*
X138556742Y-67552857D01*
X138499600Y-67581428D01*
X138442457Y-67581428D01*
X138385314Y-67552857D01*
X138356742Y-67524285D01*
X138328171Y-67467142D01*
X138299600Y-67352857D01*
X138299600Y-67210000D01*
X138328171Y-67095714D01*
X138356742Y-67038571D01*
X138385314Y-67010000D01*
X138442457Y-66981428D01*
X113860314Y-77522428D02*
X114203171Y-77522428D01*
X114031742Y-78122428D02*
X114031742Y-77522428D01*
X114346028Y-78122428D02*
X114660314Y-77722428D01*
X114346028Y-77722428D02*
X114660314Y-78122428D01*
X116757457Y-78122428D02*
X116557457Y-77836714D01*
X116414600Y-78122428D02*
X116414600Y-77522428D01*
X116643171Y-77522428D01*
X116700314Y-77551000D01*
X116728885Y-77579571D01*
X116757457Y-77636714D01*
X116757457Y-77722428D01*
X116728885Y-77779571D01*
X116700314Y-77808142D01*
X116643171Y-77836714D01*
X116414600Y-77836714D01*
X116957457Y-78122428D02*
X117271742Y-77722428D01*
X116957457Y-77722428D02*
X117271742Y-78122428D01*
X120167457Y-77551000D02*
X120110314Y-77522428D01*
X120024600Y-77522428D01*
X119938885Y-77551000D01*
X119881742Y-77608142D01*
X119853171Y-77665285D01*
X119824600Y-77779571D01*
X119824600Y-77865285D01*
X119853171Y-77979571D01*
X119881742Y-78036714D01*
X119938885Y-78093857D01*
X120024600Y-78122428D01*
X120081742Y-78122428D01*
X120167457Y-78093857D01*
X120196028Y-78065285D01*
X120196028Y-77865285D01*
X120081742Y-77865285D01*
X120453171Y-78122428D02*
X120453171Y-77522428D01*
X120796028Y-78122428D01*
X120796028Y-77522428D01*
X121081742Y-78122428D02*
X121081742Y-77522428D01*
X121224600Y-77522428D01*
X121310314Y-77551000D01*
X121367457Y-77608142D01*
X121396028Y-77665285D01*
X121424600Y-77779571D01*
X121424600Y-77865285D01*
X121396028Y-77979571D01*
X121367457Y-78036714D01*
X121310314Y-78093857D01*
X121224600Y-78122428D01*
X121081742Y-78122428D01*
X123691742Y-77522428D02*
X124063171Y-77522428D01*
X123863171Y-77751000D01*
X123948885Y-77751000D01*
X124006028Y-77779571D01*
X124034600Y-77808142D01*
X124063171Y-77865285D01*
X124063171Y-78008142D01*
X124034600Y-78065285D01*
X124006028Y-78093857D01*
X123948885Y-78122428D01*
X123777457Y-78122428D01*
X123720314Y-78093857D01*
X123691742Y-78065285D01*
X124234600Y-77522428D02*
X124434600Y-78122428D01*
X124634600Y-77522428D01*
X124777457Y-77522428D02*
X125148885Y-77522428D01*
X124948885Y-77751000D01*
X125034600Y-77751000D01*
X125091742Y-77779571D01*
X125120314Y-77808142D01*
X125148885Y-77865285D01*
X125148885Y-78008142D01*
X125120314Y-78065285D01*
X125091742Y-78093857D01*
X125034600Y-78122428D01*
X124863171Y-78122428D01*
X124806028Y-78093857D01*
X124777457Y-78065285D01*
X126360314Y-78122428D02*
X126360314Y-77522428D01*
X126503171Y-77522428D01*
X126588885Y-77551000D01*
X126646028Y-77608142D01*
X126674600Y-77665285D01*
X126703171Y-77779571D01*
X126703171Y-77865285D01*
X126674600Y-77979571D01*
X126646028Y-78036714D01*
X126588885Y-78093857D01*
X126503171Y-78122428D01*
X126360314Y-78122428D01*
X126960314Y-78122428D02*
X126960314Y-77522428D01*
X127360314Y-77522428D02*
X127474600Y-77522428D01*
X127531742Y-77551000D01*
X127588885Y-77608142D01*
X127617457Y-77722428D01*
X127617457Y-77922428D01*
X127588885Y-78036714D01*
X127531742Y-78093857D01*
X127474600Y-78122428D01*
X127360314Y-78122428D01*
X127303171Y-78093857D01*
X127246028Y-78036714D01*
X127217457Y-77922428D01*
X127217457Y-77722428D01*
X127246028Y-77608142D01*
X127303171Y-77551000D01*
X127360314Y-77522428D01*
X129157457Y-78065285D02*
X129128885Y-78093857D01*
X129043171Y-78122428D01*
X128986028Y-78122428D01*
X128900314Y-78093857D01*
X128843171Y-78036714D01*
X128814600Y-77979571D01*
X128786028Y-77865285D01*
X128786028Y-77779571D01*
X128814600Y-77665285D01*
X128843171Y-77608142D01*
X128900314Y-77551000D01*
X128986028Y-77522428D01*
X129043171Y-77522428D01*
X129128885Y-77551000D01*
X129157457Y-77579571D01*
X129700314Y-78122428D02*
X129414600Y-78122428D01*
X129414600Y-77522428D01*
X129900314Y-78122428D02*
X129900314Y-77522428D01*
X130243171Y-78122428D02*
X129986028Y-77779571D01*
X130243171Y-77522428D02*
X129900314Y-77865285D01*
X108083457Y-59434428D02*
X108226314Y-59834428D01*
X108369171Y-59434428D01*
X108912028Y-59834428D02*
X108569171Y-59834428D01*
X108740600Y-59834428D02*
X108740600Y-59234428D01*
X108683457Y-59320142D01*
X108626314Y-59377285D01*
X108569171Y-59405857D01*
X109169171Y-59777285D02*
X109197742Y-59805857D01*
X109169171Y-59834428D01*
X109140600Y-59805857D01*
X109169171Y-59777285D01*
X109169171Y-59834428D01*
X109426314Y-59291571D02*
X109454885Y-59263000D01*
X109512028Y-59234428D01*
X109654885Y-59234428D01*
X109712028Y-59263000D01*
X109740600Y-59291571D01*
X109769171Y-59348714D01*
X109769171Y-59405857D01*
X109740600Y-59491571D01*
X109397742Y-59834428D01*
X109769171Y-59834428D01*
X107512028Y-56931428D02*
X107854885Y-56931428D01*
X107683457Y-57531428D02*
X107683457Y-56931428D01*
X108054885Y-57531428D02*
X108054885Y-56931428D01*
X108312028Y-57531428D02*
X108312028Y-57217142D01*
X108283457Y-57160000D01*
X108226314Y-57131428D01*
X108140600Y-57131428D01*
X108083457Y-57160000D01*
X108054885Y-57188571D01*
X108597742Y-57531428D02*
X108597742Y-57131428D01*
X108597742Y-57245714D02*
X108626314Y-57188571D01*
X108654885Y-57160000D01*
X108712028Y-57131428D01*
X108769171Y-57131428D01*
X109197742Y-57502857D02*
X109140600Y-57531428D01*
X109026314Y-57531428D01*
X108969171Y-57502857D01*
X108940600Y-57445714D01*
X108940600Y-57217142D01*
X108969171Y-57160000D01*
X109026314Y-57131428D01*
X109140600Y-57131428D01*
X109197742Y-57160000D01*
X109226314Y-57217142D01*
X109226314Y-57274285D01*
X108940600Y-57331428D01*
X109740600Y-57531428D02*
X109740600Y-57217142D01*
X109712028Y-57160000D01*
X109654885Y-57131428D01*
X109540600Y-57131428D01*
X109483457Y-57160000D01*
X109740600Y-57502857D02*
X109683457Y-57531428D01*
X109540600Y-57531428D01*
X109483457Y-57502857D01*
X109454885Y-57445714D01*
X109454885Y-57388571D01*
X109483457Y-57331428D01*
X109540600Y-57302857D01*
X109683457Y-57302857D01*
X109740600Y-57274285D01*
X110283457Y-57531428D02*
X110283457Y-56931428D01*
X110283457Y-57502857D02*
X110226314Y-57531428D01*
X110112028Y-57531428D01*
X110054885Y-57502857D01*
X110026314Y-57474285D01*
X109997742Y-57417142D01*
X109997742Y-57245714D01*
X110026314Y-57188571D01*
X110054885Y-57160000D01*
X110112028Y-57131428D01*
X110226314Y-57131428D01*
X110283457Y-57160000D01*
X106540600Y-58552857D02*
X106626314Y-58581428D01*
X106769171Y-58581428D01*
X106826314Y-58552857D01*
X106854885Y-58524285D01*
X106883457Y-58467142D01*
X106883457Y-58410000D01*
X106854885Y-58352857D01*
X106826314Y-58324285D01*
X106769171Y-58295714D01*
X106654885Y-58267142D01*
X106597742Y-58238571D01*
X106569171Y-58210000D01*
X106540600Y-58152857D01*
X106540600Y-58095714D01*
X106569171Y-58038571D01*
X106597742Y-58010000D01*
X106654885Y-57981428D01*
X106797742Y-57981428D01*
X106883457Y-58010000D01*
X107369171Y-58552857D02*
X107312028Y-58581428D01*
X107197742Y-58581428D01*
X107140600Y-58552857D01*
X107112028Y-58495714D01*
X107112028Y-58267142D01*
X107140600Y-58210000D01*
X107197742Y-58181428D01*
X107312028Y-58181428D01*
X107369171Y-58210000D01*
X107397742Y-58267142D01*
X107397742Y-58324285D01*
X107112028Y-58381428D01*
X107654885Y-58181428D02*
X107654885Y-58581428D01*
X107654885Y-58238571D02*
X107683457Y-58210000D01*
X107740600Y-58181428D01*
X107826314Y-58181428D01*
X107883457Y-58210000D01*
X107912028Y-58267142D01*
X107912028Y-58581428D01*
X108169171Y-58552857D02*
X108226314Y-58581428D01*
X108340600Y-58581428D01*
X108397742Y-58552857D01*
X108426314Y-58495714D01*
X108426314Y-58467142D01*
X108397742Y-58410000D01*
X108340600Y-58381428D01*
X108254885Y-58381428D01*
X108197742Y-58352857D01*
X108169171Y-58295714D01*
X108169171Y-58267142D01*
X108197742Y-58210000D01*
X108254885Y-58181428D01*
X108340600Y-58181428D01*
X108397742Y-58210000D01*
X108769171Y-58581428D02*
X108712028Y-58552857D01*
X108683457Y-58524285D01*
X108654885Y-58467142D01*
X108654885Y-58295714D01*
X108683457Y-58238571D01*
X108712028Y-58210000D01*
X108769171Y-58181428D01*
X108854885Y-58181428D01*
X108912028Y-58210000D01*
X108940600Y-58238571D01*
X108969171Y-58295714D01*
X108969171Y-58467142D01*
X108940600Y-58524285D01*
X108912028Y-58552857D01*
X108854885Y-58581428D01*
X108769171Y-58581428D01*
X109226314Y-58581428D02*
X109226314Y-58181428D01*
X109226314Y-58295714D02*
X109254885Y-58238571D01*
X109283457Y-58210000D01*
X109340600Y-58181428D01*
X109397742Y-58181428D01*
X109969171Y-57981428D02*
X110312028Y-57981428D01*
X110140600Y-58581428D02*
X110140600Y-57981428D01*
X110769171Y-58581428D02*
X110769171Y-58267142D01*
X110740600Y-58210000D01*
X110683457Y-58181428D01*
X110569171Y-58181428D01*
X110512028Y-58210000D01*
X110769171Y-58552857D02*
X110712028Y-58581428D01*
X110569171Y-58581428D01*
X110512028Y-58552857D01*
X110483457Y-58495714D01*
X110483457Y-58438571D01*
X110512028Y-58381428D01*
X110569171Y-58352857D01*
X110712028Y-58352857D01*
X110769171Y-58324285D01*
X111312028Y-58181428D02*
X111312028Y-58667142D01*
X111283457Y-58724285D01*
X111254885Y-58752857D01*
X111197742Y-58781428D01*
X111112028Y-58781428D01*
X111054885Y-58752857D01*
X111312028Y-58552857D02*
X111254885Y-58581428D01*
X111140600Y-58581428D01*
X111083457Y-58552857D01*
X111054885Y-58524285D01*
X111026314Y-58467142D01*
X111026314Y-58295714D01*
X111054885Y-58238571D01*
X111083457Y-58210000D01*
X111140600Y-58181428D01*
X111254885Y-58181428D01*
X111312028Y-58210000D01*
X109473279Y-70929608D02*
X109491393Y-71018124D01*
X109562821Y-71141842D01*
X109616136Y-71177044D01*
X109655165Y-71187501D01*
X109718938Y-71183674D01*
X109768426Y-71155102D01*
X109803627Y-71101787D01*
X109814085Y-71062758D01*
X109810257Y-70998985D01*
X109777858Y-70885725D01*
X109774030Y-70821952D01*
X109784488Y-70782923D01*
X109819689Y-70729608D01*
X109869176Y-70701036D01*
X109932949Y-70697208D01*
X109971979Y-70707666D01*
X110025294Y-70742868D01*
X110096722Y-70866586D01*
X110114836Y-70955102D01*
X110239579Y-71114022D02*
X109791393Y-71537739D01*
X110219689Y-71422428D01*
X109905678Y-71735688D01*
X110496722Y-71559406D01*
X110248535Y-72329534D02*
X110077107Y-72032611D01*
X110162821Y-72181073D02*
X110682436Y-71881073D01*
X110579634Y-71874443D01*
X110501576Y-71853527D01*
X110448261Y-71818325D01*
X133377949Y-72137393D02*
X133030513Y-72167741D01*
X133206521Y-72434316D02*
X132686905Y-72134316D01*
X132801191Y-71936367D01*
X132854506Y-71901166D01*
X132893535Y-71890708D01*
X132957308Y-71894536D01*
X133031539Y-71937393D01*
X133066741Y-71990708D01*
X133077198Y-72029737D01*
X133073371Y-72093510D01*
X132959085Y-72291459D01*
X133234341Y-71757558D02*
X133334341Y-71584353D01*
X133649378Y-71667265D02*
X133506521Y-71914701D01*
X132986905Y-71614701D01*
X133129763Y-71367265D01*
X133738920Y-71455031D02*
X133806521Y-71395086D01*
X133877949Y-71271368D01*
X133881777Y-71207595D01*
X133871319Y-71168565D01*
X133836118Y-71115250D01*
X133786631Y-71086679D01*
X133722858Y-71082851D01*
X133683828Y-71093309D01*
X133630513Y-71128511D01*
X133548627Y-71213199D01*
X133495312Y-71248401D01*
X133456283Y-71258858D01*
X133392510Y-71255031D01*
X133343023Y-71226459D01*
X133307821Y-71173144D01*
X133297363Y-71134115D01*
X133301191Y-71070342D01*
X133372620Y-70946624D01*
X133440220Y-70886679D01*
X133791484Y-70792558D02*
X133891484Y-70619353D01*
X134206521Y-70702265D02*
X134063664Y-70949701D01*
X133544048Y-70649701D01*
X133686905Y-70402265D01*
X133772620Y-70253804D02*
X133944048Y-69956881D01*
X134377949Y-70405342D02*
X133858334Y-70105342D01*
X104547793Y-62964737D02*
X104323029Y-62408427D01*
X104669012Y-62730870D01*
X104693903Y-62258584D01*
X104918667Y-62814895D01*
X105146382Y-62692076D02*
X105236558Y-62686458D01*
X105369013Y-62632943D01*
X105411292Y-62585046D01*
X105427080Y-62547852D01*
X105432165Y-62484167D01*
X105410759Y-62431185D01*
X105362862Y-62388906D01*
X105325668Y-62373118D01*
X105261983Y-62368033D01*
X105145316Y-62384354D01*
X105081631Y-62379270D01*
X105044437Y-62363482D01*
X104996540Y-62321203D01*
X104975134Y-62268221D01*
X104980219Y-62204536D01*
X104996007Y-62167342D01*
X105038285Y-62119445D01*
X105170740Y-62065930D01*
X105260916Y-62060311D01*
X105664432Y-62143803D02*
X105600747Y-62138718D01*
X105563553Y-62122930D01*
X105515656Y-62080651D01*
X105504953Y-62054160D01*
X105510038Y-61990475D01*
X105525826Y-61953281D01*
X105568105Y-61905384D01*
X105674069Y-61862572D01*
X105737754Y-61867657D01*
X105774948Y-61883444D01*
X105822845Y-61925723D01*
X105833548Y-61952214D01*
X105828463Y-62015899D01*
X105812675Y-62053093D01*
X105770396Y-62100990D01*
X105664432Y-62143803D01*
X105622153Y-62191700D01*
X105606365Y-62228894D01*
X105601281Y-62292579D01*
X105644093Y-62398542D01*
X105691990Y-62440821D01*
X105729184Y-62456609D01*
X105792869Y-62461694D01*
X105898833Y-62418882D01*
X105941112Y-62370985D01*
X105956899Y-62333791D01*
X105961984Y-62270106D01*
X105919172Y-62164142D01*
X105871275Y-62121863D01*
X105834081Y-62106075D01*
X105770396Y-62100990D01*
X106256870Y-61627105D02*
X106150906Y-61669917D01*
X106108627Y-61717814D01*
X106092839Y-61755008D01*
X106071966Y-61855887D01*
X106088288Y-61972554D01*
X106173912Y-62184482D01*
X106221809Y-62226760D01*
X106259003Y-62242548D01*
X106322688Y-62247633D01*
X106428652Y-62204821D01*
X106470931Y-62156924D01*
X106486719Y-62119730D01*
X106491804Y-62056045D01*
X106438288Y-61923590D01*
X106390391Y-61881311D01*
X106353197Y-61865523D01*
X106289512Y-61860438D01*
X106183549Y-61903251D01*
X106141270Y-61951148D01*
X106125482Y-61988342D01*
X106120397Y-62052027D01*
X106654234Y-61466559D02*
X106707216Y-61445153D01*
X106770901Y-61450238D01*
X106808095Y-61466026D01*
X106855992Y-61508305D01*
X106925296Y-61603565D01*
X106978811Y-61736020D01*
X106995132Y-61852687D01*
X106990047Y-61916372D01*
X106974259Y-61953566D01*
X106931980Y-62001463D01*
X106878998Y-62022869D01*
X106815313Y-62017784D01*
X106778119Y-62001996D01*
X106730222Y-61959718D01*
X106660919Y-61864457D01*
X106607404Y-61732002D01*
X106591083Y-61615335D01*
X106596168Y-61551650D01*
X106611956Y-61514456D01*
X106654234Y-61466559D01*
X107025108Y-61316716D02*
X107395982Y-61166874D01*
X107382327Y-61819511D01*
D10*
X116417500Y-75073742D02*
X116417500Y-75548258D01*
X115372500Y-75073742D02*
X115372500Y-75548258D01*
X118450500Y-75073742D02*
X118450500Y-75548258D01*
X117405500Y-75073742D02*
X117405500Y-75548258D01*
X119437500Y-75548258D02*
X119437500Y-75073742D01*
X120482500Y-75548258D02*
X120482500Y-75073742D01*
D12*
X114167000Y-75865000D02*
X114167000Y-75265000D01*
X113367000Y-75865000D02*
X113367000Y-75265000D01*
D10*
X127840000Y-55115000D02*
X130040000Y-52715000D01*
X125640000Y-55115000D02*
X130040000Y-49915000D01*
X123440000Y-55115000D02*
X128240000Y-49515000D01*
X121440000Y-55115000D02*
X123040000Y-53515000D01*
X122440000Y-51115000D02*
X124040000Y-49515000D01*
X117240000Y-55115000D02*
X118640000Y-53715000D01*
X114440000Y-55115000D02*
X120040000Y-49515000D01*
X113440000Y-50715000D02*
X114640000Y-49515000D01*
X113640000Y-52315000D02*
X116440000Y-49515000D01*
X113640000Y-54115000D02*
X118240000Y-49515000D01*
X130440000Y-55515000D02*
X113040000Y-55515000D01*
X113040000Y-56015000D02*
X113040000Y-49015000D01*
X130440000Y-56015000D02*
X130440000Y-49015000D01*
X130440000Y-72215000D02*
X130440000Y-71315000D01*
X113040000Y-71315000D02*
X113040000Y-72215000D01*
X113040000Y-49015000D02*
X130440000Y-49015000D01*
X113040000Y-72215000D02*
X130440000Y-72215000D01*
D13*
X105313632Y-67314638D02*
G75*
G03*
X105313632Y-67314638I-125000J0D01*
G01*
D14*
X109382055Y-63679022D02*
X104746136Y-65552055D01*
X109325864Y-63539945D02*
X109382055Y-63679022D01*
X104689945Y-65412978D02*
X109325864Y-63539945D01*
X104746136Y-65552055D02*
X104689945Y-65412978D01*
X137023000Y-62943000D02*
X137023000Y-62943000D01*
X137023000Y-63143000D02*
X137023000Y-63143000D01*
D12*
X135373000Y-63643000D02*
X135373000Y-65643000D01*
X137373000Y-63643000D02*
X137373000Y-65643000D01*
D14*
X137023000Y-63143000D02*
G75*
G02*
X137023000Y-62943000I0J100000D01*
G01*
X137023000Y-62943000D02*
G75*
G02*
X137023000Y-63143000I0J-100000D01*
G01*
D10*
X136359420Y-61085000D02*
X136640580Y-61085000D01*
X136359420Y-62105000D02*
X136640580Y-62105000D01*
X109508607Y-66318298D02*
X109769294Y-66212974D01*
X109890706Y-67264026D02*
X110151393Y-67158702D01*
X127568500Y-75535558D02*
X127568500Y-75061042D01*
X128613500Y-75535558D02*
X128613500Y-75061042D01*
X121470500Y-75073742D02*
X121470500Y-75548258D01*
X122515500Y-75073742D02*
X122515500Y-75548258D01*
X123503500Y-75548258D02*
X123503500Y-75073742D01*
X124548500Y-75548258D02*
X124548500Y-75073742D01*
X125535500Y-75548258D02*
X125535500Y-75073742D01*
X126580500Y-75548258D02*
X126580500Y-75073742D01*
D12*
X110604423Y-75484897D02*
X110604423Y-75484897D01*
X110691025Y-75434897D02*
X110691025Y-75434897D01*
X106718430Y-76054160D02*
X107714359Y-75479160D01*
X104368430Y-71983840D02*
X106718430Y-76054160D01*
X105364359Y-71408840D02*
X104368430Y-71983840D01*
X110615544Y-73804160D02*
X110485641Y-73879160D01*
X108265544Y-69733840D02*
X110615544Y-73804160D01*
X108135641Y-69808840D02*
X108265544Y-69733840D01*
X110691025Y-75434897D02*
G75*
G02*
X110604423Y-75484897I-43301J-25000D01*
G01*
X110604423Y-75484897D02*
G75*
G02*
X110691025Y-75434897I43301J25000D01*
G01*
X136731577Y-68903103D02*
X136731577Y-68903103D01*
X136644975Y-68853103D02*
X136644975Y-68853103D01*
X139167570Y-71983840D02*
X138171641Y-71408840D01*
X136817570Y-76054160D02*
X139167570Y-71983840D01*
X135821641Y-75479160D02*
X136817570Y-76054160D01*
X135270456Y-69733840D02*
X135400359Y-69808840D01*
X132920456Y-73804160D02*
X135270456Y-69733840D01*
X133050359Y-73879160D02*
X132920456Y-73804160D01*
X136644975Y-68853103D02*
G75*
G02*
X136731577Y-68903103I43301J-25000D01*
G01*
X136731577Y-68903103D02*
G75*
G02*
X136644975Y-68853103I-43301J25000D01*
G01*
D10*
X130634000Y-75157720D02*
X130634000Y-75438880D01*
X129614000Y-75157720D02*
X129614000Y-75438880D01*
D11*
X115795000Y-73550428D02*
X115595000Y-73264714D01*
X115452142Y-73550428D02*
X115452142Y-72950428D01*
X115680714Y-72950428D01*
X115737857Y-72979000D01*
X115766428Y-73007571D01*
X115795000Y-73064714D01*
X115795000Y-73150428D01*
X115766428Y-73207571D01*
X115737857Y-73236142D01*
X115680714Y-73264714D01*
X115452142Y-73264714D01*
X115995000Y-72950428D02*
X116395000Y-72950428D01*
X116137857Y-73550428D01*
X117828000Y-73550428D02*
X117628000Y-73264714D01*
X117485142Y-73550428D02*
X117485142Y-72950428D01*
X117713714Y-72950428D01*
X117770857Y-72979000D01*
X117799428Y-73007571D01*
X117828000Y-73064714D01*
X117828000Y-73150428D01*
X117799428Y-73207571D01*
X117770857Y-73236142D01*
X117713714Y-73264714D01*
X117485142Y-73264714D01*
X118342285Y-72950428D02*
X118228000Y-72950428D01*
X118170857Y-72979000D01*
X118142285Y-73007571D01*
X118085142Y-73093285D01*
X118056571Y-73207571D01*
X118056571Y-73436142D01*
X118085142Y-73493285D01*
X118113714Y-73521857D01*
X118170857Y-73550428D01*
X118285142Y-73550428D01*
X118342285Y-73521857D01*
X118370857Y-73493285D01*
X118399428Y-73436142D01*
X118399428Y-73293285D01*
X118370857Y-73236142D01*
X118342285Y-73207571D01*
X118285142Y-73179000D01*
X118170857Y-73179000D01*
X118113714Y-73207571D01*
X118085142Y-73236142D01*
X118056571Y-73293285D01*
X119860000Y-73550428D02*
X119660000Y-73264714D01*
X119517142Y-73550428D02*
X119517142Y-72950428D01*
X119745714Y-72950428D01*
X119802857Y-72979000D01*
X119831428Y-73007571D01*
X119860000Y-73064714D01*
X119860000Y-73150428D01*
X119831428Y-73207571D01*
X119802857Y-73236142D01*
X119745714Y-73264714D01*
X119517142Y-73264714D01*
X120402857Y-72950428D02*
X120117142Y-72950428D01*
X120088571Y-73236142D01*
X120117142Y-73207571D01*
X120174285Y-73179000D01*
X120317142Y-73179000D01*
X120374285Y-73207571D01*
X120402857Y-73236142D01*
X120431428Y-73293285D01*
X120431428Y-73436142D01*
X120402857Y-73493285D01*
X120374285Y-73521857D01*
X120317142Y-73550428D01*
X120174285Y-73550428D01*
X120117142Y-73521857D01*
X120088571Y-73493285D01*
X120978095Y-65767380D02*
X120978095Y-66576904D01*
X121025714Y-66672142D01*
X121073333Y-66719761D01*
X121168571Y-66767380D01*
X121359047Y-66767380D01*
X121454285Y-66719761D01*
X121501904Y-66672142D01*
X121549523Y-66576904D01*
X121549523Y-65767380D01*
X122549523Y-66767380D02*
X121978095Y-66767380D01*
X122263809Y-66767380D02*
X122263809Y-65767380D01*
X122168571Y-65910238D01*
X122073333Y-66005476D01*
X121978095Y-66053095D01*
X118568571Y-52481666D02*
X119044761Y-52481666D01*
X118473333Y-52767380D02*
X118806666Y-51767380D01*
X119140000Y-52767380D01*
X119473333Y-52767380D02*
X119473333Y-51767380D01*
X120044761Y-52767380D01*
X120044761Y-51767380D01*
X120378095Y-51767380D02*
X120949523Y-51767380D01*
X120663809Y-52767380D02*
X120663809Y-51767380D01*
X121282857Y-52243571D02*
X121616190Y-52243571D01*
X121759047Y-52767380D02*
X121282857Y-52767380D01*
X121282857Y-51767380D01*
X121759047Y-51767380D01*
X122187619Y-52767380D02*
X122187619Y-51767380D01*
X122759047Y-52767380D01*
X122759047Y-51767380D01*
X123235238Y-52767380D02*
X123235238Y-51767380D01*
X123806666Y-52767380D01*
X123806666Y-51767380D01*
X124235238Y-52481666D02*
X124711428Y-52481666D01*
X124140000Y-52767380D02*
X124473333Y-51767380D01*
X124806666Y-52767380D01*
X136273000Y-60793285D02*
X136244428Y-60821857D01*
X136158714Y-60850428D01*
X136101571Y-60850428D01*
X136015857Y-60821857D01*
X135958714Y-60764714D01*
X135930142Y-60707571D01*
X135901571Y-60593285D01*
X135901571Y-60507571D01*
X135930142Y-60393285D01*
X135958714Y-60336142D01*
X136015857Y-60279000D01*
X136101571Y-60250428D01*
X136158714Y-60250428D01*
X136244428Y-60279000D01*
X136273000Y-60307571D01*
X136615857Y-60507571D02*
X136558714Y-60479000D01*
X136530142Y-60450428D01*
X136501571Y-60393285D01*
X136501571Y-60364714D01*
X136530142Y-60307571D01*
X136558714Y-60279000D01*
X136615857Y-60250428D01*
X136730142Y-60250428D01*
X136787285Y-60279000D01*
X136815857Y-60307571D01*
X136844428Y-60364714D01*
X136844428Y-60393285D01*
X136815857Y-60450428D01*
X136787285Y-60479000D01*
X136730142Y-60507571D01*
X136615857Y-60507571D01*
X136558714Y-60536142D01*
X136530142Y-60564714D01*
X136501571Y-60621857D01*
X136501571Y-60736142D01*
X136530142Y-60793285D01*
X136558714Y-60821857D01*
X136615857Y-60850428D01*
X136730142Y-60850428D01*
X136787285Y-60821857D01*
X136815857Y-60793285D01*
X136844428Y-60736142D01*
X136844428Y-60621857D01*
X136815857Y-60564714D01*
X136787285Y-60536142D01*
X136730142Y-60507571D01*
X110642654Y-65387143D02*
X110626866Y-65424337D01*
X110558096Y-65482938D01*
X110505114Y-65504344D01*
X110414938Y-65509962D01*
X110340550Y-65478386D01*
X110292653Y-65436107D01*
X110223350Y-65340846D01*
X110191241Y-65261373D01*
X110174920Y-65144706D01*
X110180005Y-65081021D01*
X110211580Y-65006633D01*
X110280350Y-64948033D01*
X110333332Y-64926627D01*
X110423508Y-64921009D01*
X110460702Y-64936797D01*
X110942624Y-64680457D02*
X110677715Y-64787488D01*
X110758254Y-65063100D01*
X110774042Y-65025906D01*
X110816321Y-64978009D01*
X110948776Y-64924494D01*
X111012461Y-64929579D01*
X111049655Y-64945367D01*
X111097552Y-64987646D01*
X111151067Y-65120101D01*
X111145982Y-65183786D01*
X111130194Y-65220980D01*
X111087916Y-65268877D01*
X110955461Y-65322392D01*
X110891776Y-65317307D01*
X110854582Y-65301519D01*
X128016400Y-73550428D02*
X127816400Y-73264714D01*
X127673542Y-73550428D02*
X127673542Y-72950428D01*
X127902114Y-72950428D01*
X127959257Y-72979000D01*
X127987828Y-73007571D01*
X128016400Y-73064714D01*
X128016400Y-73150428D01*
X127987828Y-73207571D01*
X127959257Y-73236142D01*
X127902114Y-73264714D01*
X127673542Y-73264714D01*
X128530685Y-73150428D02*
X128530685Y-73550428D01*
X128387828Y-72921857D02*
X128244971Y-73350428D01*
X128616400Y-73350428D01*
X121858100Y-73550428D02*
X121658100Y-73264714D01*
X121515242Y-73550428D02*
X121515242Y-72950428D01*
X121743814Y-72950428D01*
X121800957Y-72979000D01*
X121829528Y-73007571D01*
X121858100Y-73064714D01*
X121858100Y-73150428D01*
X121829528Y-73207571D01*
X121800957Y-73236142D01*
X121743814Y-73264714D01*
X121515242Y-73264714D01*
X122058100Y-72950428D02*
X122429528Y-72950428D01*
X122229528Y-73179000D01*
X122315242Y-73179000D01*
X122372385Y-73207571D01*
X122400957Y-73236142D01*
X122429528Y-73293285D01*
X122429528Y-73436142D01*
X122400957Y-73493285D01*
X122372385Y-73521857D01*
X122315242Y-73550428D01*
X122143814Y-73550428D01*
X122086671Y-73521857D01*
X122058100Y-73493285D01*
X123849800Y-73550428D02*
X123649800Y-73264714D01*
X123506942Y-73550428D02*
X123506942Y-72950428D01*
X123735514Y-72950428D01*
X123792657Y-72979000D01*
X123821228Y-73007571D01*
X123849800Y-73064714D01*
X123849800Y-73150428D01*
X123821228Y-73207571D01*
X123792657Y-73236142D01*
X123735514Y-73264714D01*
X123506942Y-73264714D01*
X124078371Y-73007571D02*
X124106942Y-72979000D01*
X124164085Y-72950428D01*
X124306942Y-72950428D01*
X124364085Y-72979000D01*
X124392657Y-73007571D01*
X124421228Y-73064714D01*
X124421228Y-73121857D01*
X124392657Y-73207571D01*
X124049800Y-73550428D01*
X124421228Y-73550428D01*
X125932600Y-73550428D02*
X125732600Y-73264714D01*
X125589742Y-73550428D02*
X125589742Y-72950428D01*
X125818314Y-72950428D01*
X125875457Y-72979000D01*
X125904028Y-73007571D01*
X125932600Y-73064714D01*
X125932600Y-73150428D01*
X125904028Y-73207571D01*
X125875457Y-73236142D01*
X125818314Y-73264714D01*
X125589742Y-73264714D01*
X126504028Y-73550428D02*
X126161171Y-73550428D01*
X126332600Y-73550428D02*
X126332600Y-72950428D01*
X126275457Y-73036142D01*
X126218314Y-73093285D01*
X126161171Y-73121857D01*
X135966833Y-73513392D02*
X136034434Y-73453447D01*
X136105862Y-73329729D01*
X136109690Y-73265957D01*
X136099232Y-73226927D01*
X136064031Y-73173612D01*
X136014544Y-73145041D01*
X135950771Y-73141213D01*
X135911741Y-73151671D01*
X135858426Y-73186872D01*
X135776540Y-73271561D01*
X135723225Y-73306762D01*
X135684196Y-73317220D01*
X135620423Y-73313392D01*
X135570936Y-73284821D01*
X135535734Y-73231506D01*
X135525276Y-73192477D01*
X135529104Y-73128704D01*
X135600533Y-73004986D01*
X135668133Y-72945041D01*
X135743390Y-72757550D02*
X136334434Y-72933832D01*
X136020423Y-72620572D01*
X136448719Y-72735883D01*
X136000533Y-72312166D01*
X136150020Y-72167532D02*
X136139562Y-72128503D01*
X136143390Y-72064730D01*
X136214818Y-71941012D01*
X136268133Y-71905810D01*
X136307163Y-71895352D01*
X136370936Y-71899180D01*
X136420423Y-71927752D01*
X136480368Y-71995352D01*
X136605862Y-72463704D01*
X136791577Y-72142037D01*
X130049400Y-73493285D02*
X130020828Y-73521857D01*
X129935114Y-73550428D01*
X129877971Y-73550428D01*
X129792257Y-73521857D01*
X129735114Y-73464714D01*
X129706542Y-73407571D01*
X129677971Y-73293285D01*
X129677971Y-73207571D01*
X129706542Y-73093285D01*
X129735114Y-73036142D01*
X129792257Y-72979000D01*
X129877971Y-72950428D01*
X129935114Y-72950428D01*
X130020828Y-72979000D01*
X130049400Y-73007571D01*
X130249400Y-72950428D02*
X130649400Y-72950428D01*
X130392257Y-73550428D01*
M02*
