G04 #@! TF.GenerationSoftware,KiCad,Pcbnew,(5.1.10)-1*
G04 #@! TF.CreationDate,2021-09-02T18:37:34+02:00*
G04 #@! TF.ProjectId,nrf52-sensor-tag,6e726635-322d-4736-956e-736f722d7461,rev?*
G04 #@! TF.SameCoordinates,Original*
G04 #@! TF.FileFunction,Copper,L2,Bot*
G04 #@! TF.FilePolarity,Positive*
%FSLAX46Y46*%
G04 Gerber Fmt 4.6, Leading zero omitted, Abs format (unit mm)*
G04 Created by KiCad (PCBNEW (5.1.10)-1) date 2021-09-02 18:37:34*
%MOMM*%
%LPD*%
G01*
G04 APERTURE LIST*
G04 #@! TA.AperFunction,SMDPad,CuDef*
%ADD10C,17.800000*%
G04 #@! TD*
G04 #@! TA.AperFunction,SMDPad,CuDef*
%ADD11R,2.500000X5.100000*%
G04 #@! TD*
G04 #@! TA.AperFunction,ComponentPad*
%ADD12O,1.700000X1.700000*%
G04 #@! TD*
G04 #@! TA.AperFunction,ComponentPad*
%ADD13R,1.700000X1.700000*%
G04 #@! TD*
G04 #@! TA.AperFunction,ViaPad*
%ADD14C,0.800000*%
G04 #@! TD*
G04 #@! TA.AperFunction,Conductor*
%ADD15C,0.250000*%
G04 #@! TD*
G04 #@! TA.AperFunction,Conductor*
%ADD16C,0.400000*%
G04 #@! TD*
G04 #@! TA.AperFunction,Conductor*
%ADD17C,0.254000*%
G04 #@! TD*
G04 #@! TA.AperFunction,Conductor*
%ADD18C,0.100000*%
G04 #@! TD*
G04 APERTURE END LIST*
D10*
X121768000Y-64617600D03*
D11*
X110318000Y-64617600D03*
X133218000Y-64617600D03*
D12*
X114275000Y-79362300D03*
X116815000Y-79362300D03*
X119355000Y-79362300D03*
X121895000Y-79362300D03*
X124435000Y-79362300D03*
X126975000Y-79362300D03*
D13*
X129515000Y-79362300D03*
D14*
X114846000Y-56578500D03*
X107861000Y-67056000D03*
X111735000Y-69723000D03*
X131229100Y-78994000D03*
X132118100Y-78359000D03*
X133070600Y-77660500D03*
X133896100Y-76835000D03*
X112496600Y-79121000D03*
X111544100Y-78486000D03*
X110655100Y-77724000D03*
X109766100Y-76898500D03*
X138404600Y-69088000D03*
X138658600Y-68008500D03*
X138849100Y-66929000D03*
X105130600Y-69151500D03*
X104876600Y-68072000D03*
X104622600Y-66929000D03*
X136690100Y-56197500D03*
X135674100Y-56197500D03*
X134594600Y-56197500D03*
X133515100Y-56197500D03*
X132499100Y-56197500D03*
X106718100Y-56197500D03*
X107734100Y-56197500D03*
X108813600Y-56197500D03*
X109829600Y-56197500D03*
X110909100Y-56197500D03*
X129133600Y-73324900D03*
X127253100Y-56064600D03*
X125004200Y-75316900D03*
X136607100Y-67012800D03*
X110338000Y-67818000D03*
X115138900Y-73068100D03*
X128803200Y-72319500D03*
X135322300Y-66438100D03*
X108879500Y-68511000D03*
X110465400Y-70301700D03*
X133261000Y-67818000D03*
X134150000Y-61468000D03*
X133261000Y-61468000D03*
X132372000Y-61468000D03*
X134150000Y-67818000D03*
X132372000Y-67818000D03*
X111588900Y-60765000D03*
X135637700Y-68076800D03*
X115044400Y-71415800D03*
X122897100Y-76669990D03*
X118724253Y-77919153D03*
X115989100Y-77787500D03*
D15*
X129133600Y-76263500D02*
X129133600Y-73324900D01*
X126975000Y-78422100D02*
X129133600Y-76263500D01*
X126975000Y-79362300D02*
X126975000Y-78422100D01*
X125004200Y-75316900D02*
X125004200Y-75092800D01*
X125004200Y-75092800D02*
X128502800Y-71594200D01*
X128502800Y-71594200D02*
X133148500Y-71594200D01*
X133148500Y-71594200D02*
X136607100Y-68135600D01*
X136607100Y-68135600D02*
X136607100Y-67012800D01*
X131286700Y-56064600D02*
X127253100Y-56064600D01*
X132308600Y-57086500D02*
X131286700Y-56064600D01*
X134277100Y-57086500D02*
X132308600Y-57086500D01*
X136607100Y-59416500D02*
X134277100Y-57086500D01*
X136607100Y-67012800D02*
X136607100Y-59416500D01*
D16*
X110318000Y-64617600D02*
X110318000Y-67798400D01*
X110318000Y-67798400D02*
X110338000Y-67818000D01*
X124435000Y-77718000D02*
X124435000Y-79362300D01*
X128803200Y-72319500D02*
X128792300Y-72319500D01*
X128792300Y-72319500D02*
X126524600Y-74587200D01*
X126524600Y-74587200D02*
X126524600Y-75628400D01*
X126524600Y-75628400D02*
X124435000Y-77718000D01*
D15*
X133173100Y-66336500D02*
X135220700Y-66336500D01*
X135220700Y-66336500D02*
X135322300Y-66438100D01*
D16*
X108879500Y-68511000D02*
X108879500Y-68715800D01*
X108879500Y-68715800D02*
X110465400Y-70301700D01*
X119862600Y-77470000D02*
X115460700Y-73068100D01*
X124187000Y-77470000D02*
X119862600Y-77470000D01*
X124435000Y-77718000D02*
X124187000Y-77470000D01*
X115460700Y-73068100D02*
X115138900Y-73068100D01*
D15*
X114275000Y-79362300D02*
X114275000Y-78187000D01*
X114275000Y-78187000D02*
X112542600Y-76454600D01*
X112542600Y-76454600D02*
X112542600Y-61718700D01*
X112542600Y-61718700D02*
X111588900Y-60765000D01*
X135637700Y-68076800D02*
X132570600Y-71143900D01*
X132570600Y-71143900D02*
X128316200Y-71143900D01*
X128316200Y-71143900D02*
X124868500Y-74591600D01*
X124868500Y-74591600D02*
X124137400Y-74591600D01*
X124137400Y-74591600D02*
X122897100Y-75831900D01*
X115044400Y-71415800D02*
X119460500Y-75831900D01*
X119460500Y-75831900D02*
X122897100Y-75831900D01*
X122897100Y-75831900D02*
X122897100Y-76669990D01*
X116120753Y-77919153D02*
X115989100Y-77787500D01*
X118724253Y-77919153D02*
X116120753Y-77919153D01*
D17*
X137168048Y-56018246D02*
X137895680Y-57479376D01*
X138485236Y-59001469D01*
X138931671Y-60571507D01*
X139231176Y-62176081D01*
X139381183Y-63801440D01*
X139380414Y-65433722D01*
X139228873Y-67058952D01*
X138927854Y-68663242D01*
X138479941Y-70232848D01*
X137888948Y-71754390D01*
X137159940Y-73214829D01*
X136299143Y-74601689D01*
X135313928Y-75903101D01*
X134212717Y-77107940D01*
X133004906Y-78205923D01*
X131700852Y-79187634D01*
X130693582Y-79809081D01*
X130693582Y-78512300D01*
X130687268Y-78448197D01*
X130668570Y-78386557D01*
X130638206Y-78329750D01*
X130597343Y-78279957D01*
X130547550Y-78239094D01*
X130490743Y-78208730D01*
X130429103Y-78190032D01*
X130365000Y-78183718D01*
X128665000Y-78183718D01*
X128600897Y-78190032D01*
X128539257Y-78208730D01*
X128482450Y-78239094D01*
X128432657Y-78279957D01*
X128391794Y-78329750D01*
X128361430Y-78386557D01*
X128342732Y-78448197D01*
X128336418Y-78512300D01*
X128336418Y-80212300D01*
X128342732Y-80276403D01*
X128361430Y-80338043D01*
X128391794Y-80394850D01*
X128432657Y-80444643D01*
X128482450Y-80485506D01*
X128539257Y-80515870D01*
X128600897Y-80534568D01*
X128665000Y-80540882D01*
X129312143Y-80540882D01*
X128924038Y-80733539D01*
X114571236Y-80733539D01*
X114180407Y-80539300D01*
X114390924Y-80539300D01*
X114618318Y-80494069D01*
X114832519Y-80405344D01*
X115025294Y-80276536D01*
X115189236Y-80112594D01*
X115318044Y-79919819D01*
X115406769Y-79705618D01*
X115452000Y-79478224D01*
X115452000Y-79246376D01*
X115406769Y-79018982D01*
X115318044Y-78804781D01*
X115189236Y-78612006D01*
X115025294Y-78448064D01*
X114832519Y-78319256D01*
X114727000Y-78275549D01*
X114727000Y-78209205D01*
X114729187Y-78187000D01*
X114720460Y-78098392D01*
X114694614Y-78013190D01*
X114688893Y-78002486D01*
X114652643Y-77934667D01*
X114596159Y-77865841D01*
X114578905Y-77851681D01*
X112994600Y-76267377D01*
X112994600Y-67715044D01*
X113063283Y-67964306D01*
X113883452Y-69598206D01*
X114149234Y-69995977D01*
X114832118Y-70716831D01*
X114700036Y-70771541D01*
X114580964Y-70851102D01*
X114479702Y-70952364D01*
X114400141Y-71071436D01*
X114345338Y-71203742D01*
X114317400Y-71344197D01*
X114317400Y-71487403D01*
X114345338Y-71627858D01*
X114400141Y-71760164D01*
X114479702Y-71879236D01*
X114580964Y-71980498D01*
X114700036Y-72060059D01*
X114832342Y-72114862D01*
X114972797Y-72142800D01*
X115116003Y-72142800D01*
X115129494Y-72140117D01*
X115363688Y-72374311D01*
X115350958Y-72369038D01*
X115210503Y-72341100D01*
X115067297Y-72341100D01*
X114926842Y-72369038D01*
X114794536Y-72423841D01*
X114675464Y-72503402D01*
X114574202Y-72604664D01*
X114494641Y-72723736D01*
X114439838Y-72856042D01*
X114411900Y-72996497D01*
X114411900Y-73139703D01*
X114439838Y-73280158D01*
X114494641Y-73412464D01*
X114574202Y-73531536D01*
X114675464Y-73632798D01*
X114794536Y-73712359D01*
X114926842Y-73767162D01*
X115067297Y-73795100D01*
X115210503Y-73795100D01*
X115350958Y-73767162D01*
X115395870Y-73748559D01*
X118850290Y-77202980D01*
X118795856Y-77192153D01*
X118652650Y-77192153D01*
X118512195Y-77220091D01*
X118379889Y-77274894D01*
X118260817Y-77354455D01*
X118159555Y-77455717D01*
X118151914Y-77467153D01*
X116643307Y-77467153D01*
X116633359Y-77443136D01*
X116553798Y-77324064D01*
X116452536Y-77222802D01*
X116333464Y-77143241D01*
X116201158Y-77088438D01*
X116060703Y-77060500D01*
X115917497Y-77060500D01*
X115777042Y-77088438D01*
X115644736Y-77143241D01*
X115525664Y-77222802D01*
X115424402Y-77324064D01*
X115344841Y-77443136D01*
X115290038Y-77575442D01*
X115262100Y-77715897D01*
X115262100Y-77859103D01*
X115290038Y-77999558D01*
X115344841Y-78131864D01*
X115424402Y-78250936D01*
X115525664Y-78352198D01*
X115644736Y-78431759D01*
X115777042Y-78486562D01*
X115917497Y-78514500D01*
X115998270Y-78514500D01*
X115900764Y-78612006D01*
X115771956Y-78804781D01*
X115683231Y-79018982D01*
X115638000Y-79246376D01*
X115638000Y-79478224D01*
X115683231Y-79705618D01*
X115771956Y-79919819D01*
X115900764Y-80112594D01*
X116064706Y-80276536D01*
X116257481Y-80405344D01*
X116471682Y-80494069D01*
X116699076Y-80539300D01*
X116930924Y-80539300D01*
X117158318Y-80494069D01*
X117372519Y-80405344D01*
X117565294Y-80276536D01*
X117729236Y-80112594D01*
X117858044Y-79919819D01*
X117946769Y-79705618D01*
X117952007Y-79679281D01*
X118165505Y-79679281D01*
X118250201Y-79905249D01*
X118377353Y-80110352D01*
X118542076Y-80286708D01*
X118738039Y-80427539D01*
X118957712Y-80527434D01*
X119038020Y-80551789D01*
X119228000Y-80490927D01*
X119228000Y-79489300D01*
X119482000Y-79489300D01*
X119482000Y-80490927D01*
X119671980Y-80551789D01*
X119752288Y-80527434D01*
X119971961Y-80427539D01*
X120167924Y-80286708D01*
X120332647Y-80110352D01*
X120459799Y-79905249D01*
X120544495Y-79679281D01*
X120705505Y-79679281D01*
X120790201Y-79905249D01*
X120917353Y-80110352D01*
X121082076Y-80286708D01*
X121278039Y-80427539D01*
X121497712Y-80527434D01*
X121578020Y-80551789D01*
X121768000Y-80490927D01*
X121768000Y-79489300D01*
X122022000Y-79489300D01*
X122022000Y-80490927D01*
X122211980Y-80551789D01*
X122292288Y-80527434D01*
X122511961Y-80427539D01*
X122707924Y-80286708D01*
X122872647Y-80110352D01*
X122999799Y-79905249D01*
X123084495Y-79679281D01*
X123024187Y-79489300D01*
X122022000Y-79489300D01*
X121768000Y-79489300D01*
X120765813Y-79489300D01*
X120705505Y-79679281D01*
X120544495Y-79679281D01*
X120484187Y-79489300D01*
X119482000Y-79489300D01*
X119228000Y-79489300D01*
X118225813Y-79489300D01*
X118165505Y-79679281D01*
X117952007Y-79679281D01*
X117992000Y-79478224D01*
X117992000Y-79246376D01*
X117946769Y-79018982D01*
X117858044Y-78804781D01*
X117729236Y-78612006D01*
X117565294Y-78448064D01*
X117450188Y-78371153D01*
X118151914Y-78371153D01*
X118159555Y-78382589D01*
X118260817Y-78483851D01*
X118379889Y-78563412D01*
X118412297Y-78576836D01*
X118377353Y-78614248D01*
X118250201Y-78819351D01*
X118165505Y-79045319D01*
X118225813Y-79235300D01*
X119228000Y-79235300D01*
X119228000Y-79215300D01*
X119482000Y-79215300D01*
X119482000Y-79235300D01*
X120484187Y-79235300D01*
X120544495Y-79045319D01*
X120705505Y-79045319D01*
X120765813Y-79235300D01*
X121768000Y-79235300D01*
X121768000Y-78233673D01*
X122022000Y-78233673D01*
X122022000Y-79235300D01*
X123024187Y-79235300D01*
X123084495Y-79045319D01*
X122999799Y-78819351D01*
X122872647Y-78614248D01*
X122707924Y-78437892D01*
X122511961Y-78297061D01*
X122292288Y-78197166D01*
X122211980Y-78172811D01*
X122022000Y-78233673D01*
X121768000Y-78233673D01*
X121578020Y-78172811D01*
X121497712Y-78197166D01*
X121278039Y-78297061D01*
X121082076Y-78437892D01*
X120917353Y-78614248D01*
X120790201Y-78819351D01*
X120705505Y-79045319D01*
X120544495Y-79045319D01*
X120459799Y-78819351D01*
X120332647Y-78614248D01*
X120167924Y-78437892D01*
X119971961Y-78297061D01*
X119752288Y-78197166D01*
X119671980Y-78172811D01*
X119482002Y-78233672D01*
X119482002Y-78131300D01*
X119423278Y-78131300D01*
X119423315Y-78131211D01*
X119451253Y-77990756D01*
X119451253Y-77847550D01*
X119440426Y-77793117D01*
X119471653Y-77824344D01*
X119488152Y-77844448D01*
X119568398Y-77910304D01*
X119659950Y-77959239D01*
X119759290Y-77989374D01*
X119862600Y-77999549D01*
X119888481Y-77997000D01*
X123908000Y-77997000D01*
X123908000Y-78306614D01*
X123877481Y-78319256D01*
X123684706Y-78448064D01*
X123520764Y-78612006D01*
X123391956Y-78804781D01*
X123303231Y-79018982D01*
X123258000Y-79246376D01*
X123258000Y-79478224D01*
X123303231Y-79705618D01*
X123391956Y-79919819D01*
X123520764Y-80112594D01*
X123684706Y-80276536D01*
X123877481Y-80405344D01*
X124091682Y-80494069D01*
X124319076Y-80539300D01*
X124550924Y-80539300D01*
X124778318Y-80494069D01*
X124992519Y-80405344D01*
X125185294Y-80276536D01*
X125349236Y-80112594D01*
X125478044Y-79919819D01*
X125566769Y-79705618D01*
X125612000Y-79478224D01*
X125612000Y-79246376D01*
X125566769Y-79018982D01*
X125478044Y-78804781D01*
X125349236Y-78612006D01*
X125185294Y-78448064D01*
X124992519Y-78319256D01*
X124962000Y-78306615D01*
X124962000Y-77936289D01*
X126878944Y-76019346D01*
X126899048Y-76002848D01*
X126964904Y-75922602D01*
X127013839Y-75831050D01*
X127043974Y-75731710D01*
X127051600Y-75654281D01*
X127054149Y-75628400D01*
X127051600Y-75602519D01*
X127051600Y-74805489D01*
X128415557Y-73441533D01*
X128434538Y-73536958D01*
X128489341Y-73669264D01*
X128568902Y-73788336D01*
X128670164Y-73889598D01*
X128681601Y-73897240D01*
X128681600Y-76076275D01*
X126671096Y-78086781D01*
X126653842Y-78100941D01*
X126603630Y-78162125D01*
X126597358Y-78169767D01*
X126555386Y-78248291D01*
X126550583Y-78264123D01*
X126417481Y-78319256D01*
X126224706Y-78448064D01*
X126060764Y-78612006D01*
X125931956Y-78804781D01*
X125843231Y-79018982D01*
X125798000Y-79246376D01*
X125798000Y-79478224D01*
X125843231Y-79705618D01*
X125931956Y-79919819D01*
X126060764Y-80112594D01*
X126224706Y-80276536D01*
X126417481Y-80405344D01*
X126631682Y-80494069D01*
X126859076Y-80539300D01*
X127090924Y-80539300D01*
X127318318Y-80494069D01*
X127532519Y-80405344D01*
X127725294Y-80276536D01*
X127889236Y-80112594D01*
X128018044Y-79919819D01*
X128106769Y-79705618D01*
X128152000Y-79478224D01*
X128152000Y-79246376D01*
X128106769Y-79018982D01*
X128018044Y-78804781D01*
X127889236Y-78612006D01*
X127725294Y-78448064D01*
X127643148Y-78393176D01*
X129437512Y-76598813D01*
X129454759Y-76584659D01*
X129511243Y-76515833D01*
X129553214Y-76437310D01*
X129574848Y-76365993D01*
X129579060Y-76352108D01*
X129587787Y-76263501D01*
X129585600Y-76241296D01*
X129585600Y-73897239D01*
X129597036Y-73889598D01*
X129698298Y-73788336D01*
X129777859Y-73669264D01*
X129832662Y-73536958D01*
X129860600Y-73396503D01*
X129860600Y-73253297D01*
X129832662Y-73112842D01*
X129777859Y-72980536D01*
X129698298Y-72861464D01*
X129597036Y-72760202D01*
X129477964Y-72680641D01*
X129445292Y-72667108D01*
X129447459Y-72663864D01*
X129502262Y-72531558D01*
X129530200Y-72391103D01*
X129530200Y-72247897D01*
X129502262Y-72107442D01*
X129476895Y-72046200D01*
X133126295Y-72046200D01*
X133148500Y-72048387D01*
X133170705Y-72046200D01*
X133237107Y-72039660D01*
X133322310Y-72013814D01*
X133400833Y-71971843D01*
X133469659Y-71915359D01*
X133483823Y-71898100D01*
X136911006Y-68470918D01*
X136928259Y-68456759D01*
X136984743Y-68387933D01*
X137026714Y-68309410D01*
X137044551Y-68250610D01*
X137052560Y-68224208D01*
X137061287Y-68135601D01*
X137059100Y-68113396D01*
X137059100Y-67585139D01*
X137070536Y-67577498D01*
X137171798Y-67476236D01*
X137251359Y-67357164D01*
X137306162Y-67224858D01*
X137334100Y-67084403D01*
X137334100Y-66941197D01*
X137306162Y-66800742D01*
X137251359Y-66668436D01*
X137171798Y-66549364D01*
X137070536Y-66448102D01*
X137059100Y-66440461D01*
X137059100Y-59438705D01*
X137061287Y-59416500D01*
X137052560Y-59327892D01*
X137026714Y-59242690D01*
X137022923Y-59235597D01*
X136984743Y-59164167D01*
X136928259Y-59095341D01*
X136911005Y-59081181D01*
X134612423Y-56782600D01*
X134598259Y-56765341D01*
X134529433Y-56708857D01*
X134450910Y-56666886D01*
X134365707Y-56641040D01*
X134299305Y-56634500D01*
X134277100Y-56632313D01*
X134254895Y-56634500D01*
X132495824Y-56634500D01*
X131622023Y-55760700D01*
X131615704Y-55753000D01*
X137003762Y-55753000D01*
X137168048Y-56018246D01*
G04 #@! TA.AperFunction,Conductor*
D18*
G36*
X137168048Y-56018246D02*
G01*
X137895680Y-57479376D01*
X138485236Y-59001469D01*
X138931671Y-60571507D01*
X139231176Y-62176081D01*
X139381183Y-63801440D01*
X139380414Y-65433722D01*
X139228873Y-67058952D01*
X138927854Y-68663242D01*
X138479941Y-70232848D01*
X137888948Y-71754390D01*
X137159940Y-73214829D01*
X136299143Y-74601689D01*
X135313928Y-75903101D01*
X134212717Y-77107940D01*
X133004906Y-78205923D01*
X131700852Y-79187634D01*
X130693582Y-79809081D01*
X130693582Y-78512300D01*
X130687268Y-78448197D01*
X130668570Y-78386557D01*
X130638206Y-78329750D01*
X130597343Y-78279957D01*
X130547550Y-78239094D01*
X130490743Y-78208730D01*
X130429103Y-78190032D01*
X130365000Y-78183718D01*
X128665000Y-78183718D01*
X128600897Y-78190032D01*
X128539257Y-78208730D01*
X128482450Y-78239094D01*
X128432657Y-78279957D01*
X128391794Y-78329750D01*
X128361430Y-78386557D01*
X128342732Y-78448197D01*
X128336418Y-78512300D01*
X128336418Y-80212300D01*
X128342732Y-80276403D01*
X128361430Y-80338043D01*
X128391794Y-80394850D01*
X128432657Y-80444643D01*
X128482450Y-80485506D01*
X128539257Y-80515870D01*
X128600897Y-80534568D01*
X128665000Y-80540882D01*
X129312143Y-80540882D01*
X128924038Y-80733539D01*
X114571236Y-80733539D01*
X114180407Y-80539300D01*
X114390924Y-80539300D01*
X114618318Y-80494069D01*
X114832519Y-80405344D01*
X115025294Y-80276536D01*
X115189236Y-80112594D01*
X115318044Y-79919819D01*
X115406769Y-79705618D01*
X115452000Y-79478224D01*
X115452000Y-79246376D01*
X115406769Y-79018982D01*
X115318044Y-78804781D01*
X115189236Y-78612006D01*
X115025294Y-78448064D01*
X114832519Y-78319256D01*
X114727000Y-78275549D01*
X114727000Y-78209205D01*
X114729187Y-78187000D01*
X114720460Y-78098392D01*
X114694614Y-78013190D01*
X114688893Y-78002486D01*
X114652643Y-77934667D01*
X114596159Y-77865841D01*
X114578905Y-77851681D01*
X112994600Y-76267377D01*
X112994600Y-67715044D01*
X113063283Y-67964306D01*
X113883452Y-69598206D01*
X114149234Y-69995977D01*
X114832118Y-70716831D01*
X114700036Y-70771541D01*
X114580964Y-70851102D01*
X114479702Y-70952364D01*
X114400141Y-71071436D01*
X114345338Y-71203742D01*
X114317400Y-71344197D01*
X114317400Y-71487403D01*
X114345338Y-71627858D01*
X114400141Y-71760164D01*
X114479702Y-71879236D01*
X114580964Y-71980498D01*
X114700036Y-72060059D01*
X114832342Y-72114862D01*
X114972797Y-72142800D01*
X115116003Y-72142800D01*
X115129494Y-72140117D01*
X115363688Y-72374311D01*
X115350958Y-72369038D01*
X115210503Y-72341100D01*
X115067297Y-72341100D01*
X114926842Y-72369038D01*
X114794536Y-72423841D01*
X114675464Y-72503402D01*
X114574202Y-72604664D01*
X114494641Y-72723736D01*
X114439838Y-72856042D01*
X114411900Y-72996497D01*
X114411900Y-73139703D01*
X114439838Y-73280158D01*
X114494641Y-73412464D01*
X114574202Y-73531536D01*
X114675464Y-73632798D01*
X114794536Y-73712359D01*
X114926842Y-73767162D01*
X115067297Y-73795100D01*
X115210503Y-73795100D01*
X115350958Y-73767162D01*
X115395870Y-73748559D01*
X118850290Y-77202980D01*
X118795856Y-77192153D01*
X118652650Y-77192153D01*
X118512195Y-77220091D01*
X118379889Y-77274894D01*
X118260817Y-77354455D01*
X118159555Y-77455717D01*
X118151914Y-77467153D01*
X116643307Y-77467153D01*
X116633359Y-77443136D01*
X116553798Y-77324064D01*
X116452536Y-77222802D01*
X116333464Y-77143241D01*
X116201158Y-77088438D01*
X116060703Y-77060500D01*
X115917497Y-77060500D01*
X115777042Y-77088438D01*
X115644736Y-77143241D01*
X115525664Y-77222802D01*
X115424402Y-77324064D01*
X115344841Y-77443136D01*
X115290038Y-77575442D01*
X115262100Y-77715897D01*
X115262100Y-77859103D01*
X115290038Y-77999558D01*
X115344841Y-78131864D01*
X115424402Y-78250936D01*
X115525664Y-78352198D01*
X115644736Y-78431759D01*
X115777042Y-78486562D01*
X115917497Y-78514500D01*
X115998270Y-78514500D01*
X115900764Y-78612006D01*
X115771956Y-78804781D01*
X115683231Y-79018982D01*
X115638000Y-79246376D01*
X115638000Y-79478224D01*
X115683231Y-79705618D01*
X115771956Y-79919819D01*
X115900764Y-80112594D01*
X116064706Y-80276536D01*
X116257481Y-80405344D01*
X116471682Y-80494069D01*
X116699076Y-80539300D01*
X116930924Y-80539300D01*
X117158318Y-80494069D01*
X117372519Y-80405344D01*
X117565294Y-80276536D01*
X117729236Y-80112594D01*
X117858044Y-79919819D01*
X117946769Y-79705618D01*
X117952007Y-79679281D01*
X118165505Y-79679281D01*
X118250201Y-79905249D01*
X118377353Y-80110352D01*
X118542076Y-80286708D01*
X118738039Y-80427539D01*
X118957712Y-80527434D01*
X119038020Y-80551789D01*
X119228000Y-80490927D01*
X119228000Y-79489300D01*
X119482000Y-79489300D01*
X119482000Y-80490927D01*
X119671980Y-80551789D01*
X119752288Y-80527434D01*
X119971961Y-80427539D01*
X120167924Y-80286708D01*
X120332647Y-80110352D01*
X120459799Y-79905249D01*
X120544495Y-79679281D01*
X120705505Y-79679281D01*
X120790201Y-79905249D01*
X120917353Y-80110352D01*
X121082076Y-80286708D01*
X121278039Y-80427539D01*
X121497712Y-80527434D01*
X121578020Y-80551789D01*
X121768000Y-80490927D01*
X121768000Y-79489300D01*
X122022000Y-79489300D01*
X122022000Y-80490927D01*
X122211980Y-80551789D01*
X122292288Y-80527434D01*
X122511961Y-80427539D01*
X122707924Y-80286708D01*
X122872647Y-80110352D01*
X122999799Y-79905249D01*
X123084495Y-79679281D01*
X123024187Y-79489300D01*
X122022000Y-79489300D01*
X121768000Y-79489300D01*
X120765813Y-79489300D01*
X120705505Y-79679281D01*
X120544495Y-79679281D01*
X120484187Y-79489300D01*
X119482000Y-79489300D01*
X119228000Y-79489300D01*
X118225813Y-79489300D01*
X118165505Y-79679281D01*
X117952007Y-79679281D01*
X117992000Y-79478224D01*
X117992000Y-79246376D01*
X117946769Y-79018982D01*
X117858044Y-78804781D01*
X117729236Y-78612006D01*
X117565294Y-78448064D01*
X117450188Y-78371153D01*
X118151914Y-78371153D01*
X118159555Y-78382589D01*
X118260817Y-78483851D01*
X118379889Y-78563412D01*
X118412297Y-78576836D01*
X118377353Y-78614248D01*
X118250201Y-78819351D01*
X118165505Y-79045319D01*
X118225813Y-79235300D01*
X119228000Y-79235300D01*
X119228000Y-79215300D01*
X119482000Y-79215300D01*
X119482000Y-79235300D01*
X120484187Y-79235300D01*
X120544495Y-79045319D01*
X120705505Y-79045319D01*
X120765813Y-79235300D01*
X121768000Y-79235300D01*
X121768000Y-78233673D01*
X122022000Y-78233673D01*
X122022000Y-79235300D01*
X123024187Y-79235300D01*
X123084495Y-79045319D01*
X122999799Y-78819351D01*
X122872647Y-78614248D01*
X122707924Y-78437892D01*
X122511961Y-78297061D01*
X122292288Y-78197166D01*
X122211980Y-78172811D01*
X122022000Y-78233673D01*
X121768000Y-78233673D01*
X121578020Y-78172811D01*
X121497712Y-78197166D01*
X121278039Y-78297061D01*
X121082076Y-78437892D01*
X120917353Y-78614248D01*
X120790201Y-78819351D01*
X120705505Y-79045319D01*
X120544495Y-79045319D01*
X120459799Y-78819351D01*
X120332647Y-78614248D01*
X120167924Y-78437892D01*
X119971961Y-78297061D01*
X119752288Y-78197166D01*
X119671980Y-78172811D01*
X119482002Y-78233672D01*
X119482002Y-78131300D01*
X119423278Y-78131300D01*
X119423315Y-78131211D01*
X119451253Y-77990756D01*
X119451253Y-77847550D01*
X119440426Y-77793117D01*
X119471653Y-77824344D01*
X119488152Y-77844448D01*
X119568398Y-77910304D01*
X119659950Y-77959239D01*
X119759290Y-77989374D01*
X119862600Y-77999549D01*
X119888481Y-77997000D01*
X123908000Y-77997000D01*
X123908000Y-78306614D01*
X123877481Y-78319256D01*
X123684706Y-78448064D01*
X123520764Y-78612006D01*
X123391956Y-78804781D01*
X123303231Y-79018982D01*
X123258000Y-79246376D01*
X123258000Y-79478224D01*
X123303231Y-79705618D01*
X123391956Y-79919819D01*
X123520764Y-80112594D01*
X123684706Y-80276536D01*
X123877481Y-80405344D01*
X124091682Y-80494069D01*
X124319076Y-80539300D01*
X124550924Y-80539300D01*
X124778318Y-80494069D01*
X124992519Y-80405344D01*
X125185294Y-80276536D01*
X125349236Y-80112594D01*
X125478044Y-79919819D01*
X125566769Y-79705618D01*
X125612000Y-79478224D01*
X125612000Y-79246376D01*
X125566769Y-79018982D01*
X125478044Y-78804781D01*
X125349236Y-78612006D01*
X125185294Y-78448064D01*
X124992519Y-78319256D01*
X124962000Y-78306615D01*
X124962000Y-77936289D01*
X126878944Y-76019346D01*
X126899048Y-76002848D01*
X126964904Y-75922602D01*
X127013839Y-75831050D01*
X127043974Y-75731710D01*
X127051600Y-75654281D01*
X127054149Y-75628400D01*
X127051600Y-75602519D01*
X127051600Y-74805489D01*
X128415557Y-73441533D01*
X128434538Y-73536958D01*
X128489341Y-73669264D01*
X128568902Y-73788336D01*
X128670164Y-73889598D01*
X128681601Y-73897240D01*
X128681600Y-76076275D01*
X126671096Y-78086781D01*
X126653842Y-78100941D01*
X126603630Y-78162125D01*
X126597358Y-78169767D01*
X126555386Y-78248291D01*
X126550583Y-78264123D01*
X126417481Y-78319256D01*
X126224706Y-78448064D01*
X126060764Y-78612006D01*
X125931956Y-78804781D01*
X125843231Y-79018982D01*
X125798000Y-79246376D01*
X125798000Y-79478224D01*
X125843231Y-79705618D01*
X125931956Y-79919819D01*
X126060764Y-80112594D01*
X126224706Y-80276536D01*
X126417481Y-80405344D01*
X126631682Y-80494069D01*
X126859076Y-80539300D01*
X127090924Y-80539300D01*
X127318318Y-80494069D01*
X127532519Y-80405344D01*
X127725294Y-80276536D01*
X127889236Y-80112594D01*
X128018044Y-79919819D01*
X128106769Y-79705618D01*
X128152000Y-79478224D01*
X128152000Y-79246376D01*
X128106769Y-79018982D01*
X128018044Y-78804781D01*
X127889236Y-78612006D01*
X127725294Y-78448064D01*
X127643148Y-78393176D01*
X129437512Y-76598813D01*
X129454759Y-76584659D01*
X129511243Y-76515833D01*
X129553214Y-76437310D01*
X129574848Y-76365993D01*
X129579060Y-76352108D01*
X129587787Y-76263501D01*
X129585600Y-76241296D01*
X129585600Y-73897239D01*
X129597036Y-73889598D01*
X129698298Y-73788336D01*
X129777859Y-73669264D01*
X129832662Y-73536958D01*
X129860600Y-73396503D01*
X129860600Y-73253297D01*
X129832662Y-73112842D01*
X129777859Y-72980536D01*
X129698298Y-72861464D01*
X129597036Y-72760202D01*
X129477964Y-72680641D01*
X129445292Y-72667108D01*
X129447459Y-72663864D01*
X129502262Y-72531558D01*
X129530200Y-72391103D01*
X129530200Y-72247897D01*
X129502262Y-72107442D01*
X129476895Y-72046200D01*
X133126295Y-72046200D01*
X133148500Y-72048387D01*
X133170705Y-72046200D01*
X133237107Y-72039660D01*
X133322310Y-72013814D01*
X133400833Y-71971843D01*
X133469659Y-71915359D01*
X133483823Y-71898100D01*
X136911006Y-68470918D01*
X136928259Y-68456759D01*
X136984743Y-68387933D01*
X137026714Y-68309410D01*
X137044551Y-68250610D01*
X137052560Y-68224208D01*
X137061287Y-68135601D01*
X137059100Y-68113396D01*
X137059100Y-67585139D01*
X137070536Y-67577498D01*
X137171798Y-67476236D01*
X137251359Y-67357164D01*
X137306162Y-67224858D01*
X137334100Y-67084403D01*
X137334100Y-66941197D01*
X137306162Y-66800742D01*
X137251359Y-66668436D01*
X137171798Y-66549364D01*
X137070536Y-66448102D01*
X137059100Y-66440461D01*
X137059100Y-59438705D01*
X137061287Y-59416500D01*
X137052560Y-59327892D01*
X137026714Y-59242690D01*
X137022923Y-59235597D01*
X136984743Y-59164167D01*
X136928259Y-59095341D01*
X136911005Y-59081181D01*
X134612423Y-56782600D01*
X134598259Y-56765341D01*
X134529433Y-56708857D01*
X134450910Y-56666886D01*
X134365707Y-56641040D01*
X134299305Y-56634500D01*
X134277100Y-56632313D01*
X134254895Y-56634500D01*
X132495824Y-56634500D01*
X131622023Y-55760700D01*
X131615704Y-55753000D01*
X137003762Y-55753000D01*
X137168048Y-56018246D01*
G37*
G04 #@! TD.AperFunction*
D17*
X118421294Y-55912883D02*
X116787394Y-56733052D01*
X116389623Y-56998834D01*
X115331360Y-58001355D01*
X121768000Y-64437995D01*
X128204640Y-58001355D01*
X127146377Y-56998834D01*
X125556686Y-56095957D01*
X124522389Y-55753000D01*
X126595270Y-55753000D01*
X126554038Y-55852542D01*
X126526100Y-55992997D01*
X126526100Y-56136203D01*
X126554038Y-56276658D01*
X126608841Y-56408964D01*
X126688402Y-56528036D01*
X126789664Y-56629298D01*
X126908736Y-56708859D01*
X127041042Y-56763662D01*
X127181497Y-56791600D01*
X127324703Y-56791600D01*
X127465158Y-56763662D01*
X127597464Y-56708859D01*
X127716536Y-56629298D01*
X127817798Y-56528036D01*
X127825439Y-56516600D01*
X131099477Y-56516600D01*
X131973281Y-57390405D01*
X131987441Y-57407659D01*
X132056267Y-57464143D01*
X132134766Y-57506101D01*
X132134790Y-57506114D01*
X132219992Y-57531960D01*
X132308600Y-57540687D01*
X132330805Y-57538500D01*
X134089877Y-57538500D01*
X136155101Y-59603725D01*
X136155100Y-66440461D01*
X136143664Y-66448102D01*
X136042402Y-66549364D01*
X136040991Y-66551476D01*
X136049300Y-66509703D01*
X136049300Y-66366497D01*
X136021362Y-66226042D01*
X135966559Y-66093736D01*
X135886998Y-65974664D01*
X135785736Y-65873402D01*
X135666664Y-65793841D01*
X135534358Y-65739038D01*
X135393903Y-65711100D01*
X135250697Y-65711100D01*
X135110242Y-65739038D01*
X134977936Y-65793841D01*
X134858864Y-65873402D01*
X134858100Y-65874166D01*
X134858100Y-61634621D01*
X134877000Y-61539603D01*
X134877000Y-61396397D01*
X134858100Y-61301379D01*
X134858100Y-61023500D01*
X134851817Y-60959705D01*
X134833209Y-60898363D01*
X134802991Y-60841829D01*
X134762324Y-60792276D01*
X134712771Y-60751609D01*
X134656237Y-60721391D01*
X134594895Y-60702783D01*
X134531100Y-60696500D01*
X131927600Y-60696500D01*
X131863805Y-60702783D01*
X131802463Y-60721391D01*
X131745929Y-60751609D01*
X131696376Y-60792276D01*
X131655709Y-60841829D01*
X131625491Y-60898363D01*
X131606883Y-60959705D01*
X131600600Y-61023500D01*
X131600600Y-68135500D01*
X131606883Y-68199295D01*
X131625491Y-68260637D01*
X131655709Y-68317171D01*
X131696376Y-68366724D01*
X131745929Y-68407391D01*
X131802463Y-68437609D01*
X131863805Y-68456217D01*
X131927600Y-68462500D01*
X132028218Y-68462500D01*
X132159942Y-68517062D01*
X132300397Y-68545000D01*
X132443603Y-68545000D01*
X132584058Y-68517062D01*
X132715782Y-68462500D01*
X132917218Y-68462500D01*
X133048942Y-68517062D01*
X133189397Y-68545000D01*
X133332603Y-68545000D01*
X133473058Y-68517062D01*
X133604782Y-68462500D01*
X133806218Y-68462500D01*
X133937942Y-68517062D01*
X134078397Y-68545000D01*
X134221603Y-68545000D01*
X134362058Y-68517062D01*
X134493782Y-68462500D01*
X134531100Y-68462500D01*
X134594895Y-68456217D01*
X134629580Y-68445695D01*
X132383377Y-70691900D01*
X128727499Y-70691900D01*
X129386766Y-69995977D01*
X130289643Y-68406286D01*
X130865038Y-66670997D01*
X131090839Y-64856798D01*
X130958369Y-63033406D01*
X130472717Y-61270894D01*
X129652548Y-59636994D01*
X129386766Y-59239223D01*
X128384245Y-58180960D01*
X121947605Y-64617600D01*
X121961748Y-64631743D01*
X121782143Y-64811348D01*
X121768000Y-64797205D01*
X121753858Y-64811348D01*
X121574253Y-64631743D01*
X121588395Y-64617600D01*
X115151755Y-58180960D01*
X114149234Y-59239223D01*
X113246357Y-60828914D01*
X112984543Y-61618499D01*
X112962214Y-61544890D01*
X112920243Y-61466367D01*
X112863759Y-61397541D01*
X112846510Y-61383385D01*
X112313217Y-60850093D01*
X112315900Y-60836603D01*
X112315900Y-60693397D01*
X112287962Y-60552942D01*
X112233159Y-60420636D01*
X112153598Y-60301564D01*
X112052336Y-60200302D01*
X111933264Y-60120741D01*
X111800958Y-60065938D01*
X111660503Y-60038000D01*
X111517297Y-60038000D01*
X111376842Y-60065938D01*
X111244536Y-60120741D01*
X111125464Y-60200302D01*
X111024202Y-60301564D01*
X110944641Y-60420636D01*
X110889838Y-60552942D01*
X110861900Y-60693397D01*
X110861900Y-60836603D01*
X110889838Y-60977058D01*
X110944641Y-61109364D01*
X111024202Y-61228436D01*
X111125464Y-61329698D01*
X111244536Y-61409259D01*
X111376842Y-61464062D01*
X111517297Y-61492000D01*
X111660503Y-61492000D01*
X111673993Y-61489317D01*
X112090601Y-61905926D01*
X112090600Y-76432395D01*
X112088413Y-76454600D01*
X112097140Y-76543207D01*
X112113879Y-76598387D01*
X112122986Y-76628409D01*
X112164957Y-76706932D01*
X112221441Y-76775759D01*
X112238700Y-76789923D01*
X113753226Y-78304450D01*
X113717481Y-78319256D01*
X113524706Y-78448064D01*
X113360764Y-78612006D01*
X113231956Y-78804781D01*
X113143231Y-79018982D01*
X113098000Y-79246376D01*
X113098000Y-79478224D01*
X113143231Y-79705618D01*
X113231956Y-79919819D01*
X113360764Y-80112594D01*
X113399232Y-80151062D01*
X113168947Y-80036612D01*
X111780597Y-79178246D01*
X110477460Y-78195299D01*
X109270694Y-77096186D01*
X108170608Y-75890296D01*
X107186619Y-74587953D01*
X106327136Y-73200288D01*
X105599505Y-71739162D01*
X105009950Y-70217068D01*
X104563515Y-68647038D01*
X104524758Y-68439397D01*
X108152500Y-68439397D01*
X108152500Y-68582603D01*
X108180438Y-68723058D01*
X108235241Y-68855364D01*
X108314802Y-68974436D01*
X108416064Y-69075698D01*
X108535136Y-69155259D01*
X108600918Y-69182507D01*
X109738400Y-70319990D01*
X109738400Y-70373303D01*
X109766338Y-70513758D01*
X109821141Y-70646064D01*
X109900702Y-70765136D01*
X110001964Y-70866398D01*
X110121036Y-70945959D01*
X110253342Y-71000762D01*
X110393797Y-71028700D01*
X110537003Y-71028700D01*
X110677458Y-71000762D01*
X110809764Y-70945959D01*
X110928836Y-70866398D01*
X111030098Y-70765136D01*
X111109659Y-70646064D01*
X111164462Y-70513758D01*
X111192400Y-70373303D01*
X111192400Y-70230097D01*
X111164462Y-70089642D01*
X111109659Y-69957336D01*
X111030098Y-69838264D01*
X110928836Y-69737002D01*
X110809764Y-69657441D01*
X110677458Y-69602638D01*
X110537003Y-69574700D01*
X110483690Y-69574700D01*
X109587436Y-68678446D01*
X109606500Y-68582603D01*
X109606500Y-68439397D01*
X109578562Y-68298942D01*
X109523759Y-68166636D01*
X109444198Y-68047564D01*
X109342936Y-67946302D01*
X109223864Y-67866741D01*
X109091558Y-67811938D01*
X108951103Y-67784000D01*
X108807897Y-67784000D01*
X108667442Y-67811938D01*
X108535136Y-67866741D01*
X108416064Y-67946302D01*
X108314802Y-68047564D01*
X108235241Y-68166636D01*
X108180438Y-68298942D01*
X108152500Y-68439397D01*
X104524758Y-68439397D01*
X104264009Y-67042458D01*
X104114002Y-65417099D01*
X104114771Y-63784818D01*
X104266312Y-62159586D01*
X104283571Y-62067600D01*
X108739418Y-62067600D01*
X108739418Y-67167600D01*
X108745732Y-67231703D01*
X108764430Y-67293343D01*
X108794794Y-67350150D01*
X108835657Y-67399943D01*
X108885450Y-67440806D01*
X108942257Y-67471170D01*
X109003897Y-67489868D01*
X109068000Y-67496182D01*
X109684402Y-67496182D01*
X109638938Y-67605942D01*
X109611000Y-67746397D01*
X109611000Y-67889603D01*
X109638938Y-68030058D01*
X109693741Y-68162364D01*
X109773302Y-68281436D01*
X109874564Y-68382698D01*
X109993636Y-68462259D01*
X110125942Y-68517062D01*
X110266397Y-68545000D01*
X110409603Y-68545000D01*
X110550058Y-68517062D01*
X110682364Y-68462259D01*
X110801436Y-68382698D01*
X110902698Y-68281436D01*
X110982259Y-68162364D01*
X111037062Y-68030058D01*
X111065000Y-67889603D01*
X111065000Y-67746397D01*
X111037062Y-67605942D01*
X110991598Y-67496182D01*
X111568000Y-67496182D01*
X111632103Y-67489868D01*
X111693743Y-67471170D01*
X111750550Y-67440806D01*
X111800343Y-67399943D01*
X111841206Y-67350150D01*
X111871570Y-67293343D01*
X111890268Y-67231703D01*
X111896582Y-67167600D01*
X111896582Y-62067600D01*
X111890268Y-62003497D01*
X111871570Y-61941857D01*
X111841206Y-61885050D01*
X111800343Y-61835257D01*
X111750550Y-61794394D01*
X111693743Y-61764030D01*
X111632103Y-61745332D01*
X111568000Y-61739018D01*
X109068000Y-61739018D01*
X109003897Y-61745332D01*
X108942257Y-61764030D01*
X108885450Y-61794394D01*
X108835657Y-61835257D01*
X108794794Y-61885050D01*
X108764430Y-61941857D01*
X108745732Y-62003497D01*
X108739418Y-62067600D01*
X104283571Y-62067600D01*
X104567331Y-60555294D01*
X105015248Y-58985681D01*
X105606235Y-57464153D01*
X106335245Y-56003711D01*
X106490856Y-55753000D01*
X119001536Y-55753000D01*
X118421294Y-55912883D01*
G04 #@! TA.AperFunction,Conductor*
D18*
G36*
X118421294Y-55912883D02*
G01*
X116787394Y-56733052D01*
X116389623Y-56998834D01*
X115331360Y-58001355D01*
X121768000Y-64437995D01*
X128204640Y-58001355D01*
X127146377Y-56998834D01*
X125556686Y-56095957D01*
X124522389Y-55753000D01*
X126595270Y-55753000D01*
X126554038Y-55852542D01*
X126526100Y-55992997D01*
X126526100Y-56136203D01*
X126554038Y-56276658D01*
X126608841Y-56408964D01*
X126688402Y-56528036D01*
X126789664Y-56629298D01*
X126908736Y-56708859D01*
X127041042Y-56763662D01*
X127181497Y-56791600D01*
X127324703Y-56791600D01*
X127465158Y-56763662D01*
X127597464Y-56708859D01*
X127716536Y-56629298D01*
X127817798Y-56528036D01*
X127825439Y-56516600D01*
X131099477Y-56516600D01*
X131973281Y-57390405D01*
X131987441Y-57407659D01*
X132056267Y-57464143D01*
X132134766Y-57506101D01*
X132134790Y-57506114D01*
X132219992Y-57531960D01*
X132308600Y-57540687D01*
X132330805Y-57538500D01*
X134089877Y-57538500D01*
X136155101Y-59603725D01*
X136155100Y-66440461D01*
X136143664Y-66448102D01*
X136042402Y-66549364D01*
X136040991Y-66551476D01*
X136049300Y-66509703D01*
X136049300Y-66366497D01*
X136021362Y-66226042D01*
X135966559Y-66093736D01*
X135886998Y-65974664D01*
X135785736Y-65873402D01*
X135666664Y-65793841D01*
X135534358Y-65739038D01*
X135393903Y-65711100D01*
X135250697Y-65711100D01*
X135110242Y-65739038D01*
X134977936Y-65793841D01*
X134858864Y-65873402D01*
X134858100Y-65874166D01*
X134858100Y-61634621D01*
X134877000Y-61539603D01*
X134877000Y-61396397D01*
X134858100Y-61301379D01*
X134858100Y-61023500D01*
X134851817Y-60959705D01*
X134833209Y-60898363D01*
X134802991Y-60841829D01*
X134762324Y-60792276D01*
X134712771Y-60751609D01*
X134656237Y-60721391D01*
X134594895Y-60702783D01*
X134531100Y-60696500D01*
X131927600Y-60696500D01*
X131863805Y-60702783D01*
X131802463Y-60721391D01*
X131745929Y-60751609D01*
X131696376Y-60792276D01*
X131655709Y-60841829D01*
X131625491Y-60898363D01*
X131606883Y-60959705D01*
X131600600Y-61023500D01*
X131600600Y-68135500D01*
X131606883Y-68199295D01*
X131625491Y-68260637D01*
X131655709Y-68317171D01*
X131696376Y-68366724D01*
X131745929Y-68407391D01*
X131802463Y-68437609D01*
X131863805Y-68456217D01*
X131927600Y-68462500D01*
X132028218Y-68462500D01*
X132159942Y-68517062D01*
X132300397Y-68545000D01*
X132443603Y-68545000D01*
X132584058Y-68517062D01*
X132715782Y-68462500D01*
X132917218Y-68462500D01*
X133048942Y-68517062D01*
X133189397Y-68545000D01*
X133332603Y-68545000D01*
X133473058Y-68517062D01*
X133604782Y-68462500D01*
X133806218Y-68462500D01*
X133937942Y-68517062D01*
X134078397Y-68545000D01*
X134221603Y-68545000D01*
X134362058Y-68517062D01*
X134493782Y-68462500D01*
X134531100Y-68462500D01*
X134594895Y-68456217D01*
X134629580Y-68445695D01*
X132383377Y-70691900D01*
X128727499Y-70691900D01*
X129386766Y-69995977D01*
X130289643Y-68406286D01*
X130865038Y-66670997D01*
X131090839Y-64856798D01*
X130958369Y-63033406D01*
X130472717Y-61270894D01*
X129652548Y-59636994D01*
X129386766Y-59239223D01*
X128384245Y-58180960D01*
X121947605Y-64617600D01*
X121961748Y-64631743D01*
X121782143Y-64811348D01*
X121768000Y-64797205D01*
X121753858Y-64811348D01*
X121574253Y-64631743D01*
X121588395Y-64617600D01*
X115151755Y-58180960D01*
X114149234Y-59239223D01*
X113246357Y-60828914D01*
X112984543Y-61618499D01*
X112962214Y-61544890D01*
X112920243Y-61466367D01*
X112863759Y-61397541D01*
X112846510Y-61383385D01*
X112313217Y-60850093D01*
X112315900Y-60836603D01*
X112315900Y-60693397D01*
X112287962Y-60552942D01*
X112233159Y-60420636D01*
X112153598Y-60301564D01*
X112052336Y-60200302D01*
X111933264Y-60120741D01*
X111800958Y-60065938D01*
X111660503Y-60038000D01*
X111517297Y-60038000D01*
X111376842Y-60065938D01*
X111244536Y-60120741D01*
X111125464Y-60200302D01*
X111024202Y-60301564D01*
X110944641Y-60420636D01*
X110889838Y-60552942D01*
X110861900Y-60693397D01*
X110861900Y-60836603D01*
X110889838Y-60977058D01*
X110944641Y-61109364D01*
X111024202Y-61228436D01*
X111125464Y-61329698D01*
X111244536Y-61409259D01*
X111376842Y-61464062D01*
X111517297Y-61492000D01*
X111660503Y-61492000D01*
X111673993Y-61489317D01*
X112090601Y-61905926D01*
X112090600Y-76432395D01*
X112088413Y-76454600D01*
X112097140Y-76543207D01*
X112113879Y-76598387D01*
X112122986Y-76628409D01*
X112164957Y-76706932D01*
X112221441Y-76775759D01*
X112238700Y-76789923D01*
X113753226Y-78304450D01*
X113717481Y-78319256D01*
X113524706Y-78448064D01*
X113360764Y-78612006D01*
X113231956Y-78804781D01*
X113143231Y-79018982D01*
X113098000Y-79246376D01*
X113098000Y-79478224D01*
X113143231Y-79705618D01*
X113231956Y-79919819D01*
X113360764Y-80112594D01*
X113399232Y-80151062D01*
X113168947Y-80036612D01*
X111780597Y-79178246D01*
X110477460Y-78195299D01*
X109270694Y-77096186D01*
X108170608Y-75890296D01*
X107186619Y-74587953D01*
X106327136Y-73200288D01*
X105599505Y-71739162D01*
X105009950Y-70217068D01*
X104563515Y-68647038D01*
X104524758Y-68439397D01*
X108152500Y-68439397D01*
X108152500Y-68582603D01*
X108180438Y-68723058D01*
X108235241Y-68855364D01*
X108314802Y-68974436D01*
X108416064Y-69075698D01*
X108535136Y-69155259D01*
X108600918Y-69182507D01*
X109738400Y-70319990D01*
X109738400Y-70373303D01*
X109766338Y-70513758D01*
X109821141Y-70646064D01*
X109900702Y-70765136D01*
X110001964Y-70866398D01*
X110121036Y-70945959D01*
X110253342Y-71000762D01*
X110393797Y-71028700D01*
X110537003Y-71028700D01*
X110677458Y-71000762D01*
X110809764Y-70945959D01*
X110928836Y-70866398D01*
X111030098Y-70765136D01*
X111109659Y-70646064D01*
X111164462Y-70513758D01*
X111192400Y-70373303D01*
X111192400Y-70230097D01*
X111164462Y-70089642D01*
X111109659Y-69957336D01*
X111030098Y-69838264D01*
X110928836Y-69737002D01*
X110809764Y-69657441D01*
X110677458Y-69602638D01*
X110537003Y-69574700D01*
X110483690Y-69574700D01*
X109587436Y-68678446D01*
X109606500Y-68582603D01*
X109606500Y-68439397D01*
X109578562Y-68298942D01*
X109523759Y-68166636D01*
X109444198Y-68047564D01*
X109342936Y-67946302D01*
X109223864Y-67866741D01*
X109091558Y-67811938D01*
X108951103Y-67784000D01*
X108807897Y-67784000D01*
X108667442Y-67811938D01*
X108535136Y-67866741D01*
X108416064Y-67946302D01*
X108314802Y-68047564D01*
X108235241Y-68166636D01*
X108180438Y-68298942D01*
X108152500Y-68439397D01*
X104524758Y-68439397D01*
X104264009Y-67042458D01*
X104114002Y-65417099D01*
X104114771Y-63784818D01*
X104266312Y-62159586D01*
X104283571Y-62067600D01*
X108739418Y-62067600D01*
X108739418Y-67167600D01*
X108745732Y-67231703D01*
X108764430Y-67293343D01*
X108794794Y-67350150D01*
X108835657Y-67399943D01*
X108885450Y-67440806D01*
X108942257Y-67471170D01*
X109003897Y-67489868D01*
X109068000Y-67496182D01*
X109684402Y-67496182D01*
X109638938Y-67605942D01*
X109611000Y-67746397D01*
X109611000Y-67889603D01*
X109638938Y-68030058D01*
X109693741Y-68162364D01*
X109773302Y-68281436D01*
X109874564Y-68382698D01*
X109993636Y-68462259D01*
X110125942Y-68517062D01*
X110266397Y-68545000D01*
X110409603Y-68545000D01*
X110550058Y-68517062D01*
X110682364Y-68462259D01*
X110801436Y-68382698D01*
X110902698Y-68281436D01*
X110982259Y-68162364D01*
X111037062Y-68030058D01*
X111065000Y-67889603D01*
X111065000Y-67746397D01*
X111037062Y-67605942D01*
X110991598Y-67496182D01*
X111568000Y-67496182D01*
X111632103Y-67489868D01*
X111693743Y-67471170D01*
X111750550Y-67440806D01*
X111800343Y-67399943D01*
X111841206Y-67350150D01*
X111871570Y-67293343D01*
X111890268Y-67231703D01*
X111896582Y-67167600D01*
X111896582Y-62067600D01*
X111890268Y-62003497D01*
X111871570Y-61941857D01*
X111841206Y-61885050D01*
X111800343Y-61835257D01*
X111750550Y-61794394D01*
X111693743Y-61764030D01*
X111632103Y-61745332D01*
X111568000Y-61739018D01*
X109068000Y-61739018D01*
X109003897Y-61745332D01*
X108942257Y-61764030D01*
X108885450Y-61794394D01*
X108835657Y-61835257D01*
X108794794Y-61885050D01*
X108764430Y-61941857D01*
X108745732Y-62003497D01*
X108739418Y-62067600D01*
X104283571Y-62067600D01*
X104567331Y-60555294D01*
X105015248Y-58985681D01*
X105606235Y-57464153D01*
X106335245Y-56003711D01*
X106490856Y-55753000D01*
X119001536Y-55753000D01*
X118421294Y-55912883D01*
G37*
G04 #@! TD.AperFunction*
D17*
X134404100Y-61429732D02*
X133503750Y-61432600D01*
X133345000Y-61591350D01*
X133345000Y-64490600D01*
X133365000Y-64490600D01*
X133365000Y-64744600D01*
X133345000Y-64744600D01*
X133345000Y-67643850D01*
X133503750Y-67802600D01*
X134404100Y-67805468D01*
X134404100Y-68008500D01*
X132054600Y-68008500D01*
X132054600Y-67805396D01*
X132932250Y-67802600D01*
X133091000Y-67643850D01*
X133091000Y-64744600D01*
X133071000Y-64744600D01*
X133071000Y-64490600D01*
X133091000Y-64490600D01*
X133091000Y-61591350D01*
X132932250Y-61432600D01*
X132054600Y-61429804D01*
X132054600Y-61150500D01*
X134404100Y-61150500D01*
X134404100Y-61429732D01*
G04 #@! TA.AperFunction,Conductor*
D18*
G36*
X134404100Y-61429732D02*
G01*
X133503750Y-61432600D01*
X133345000Y-61591350D01*
X133345000Y-64490600D01*
X133365000Y-64490600D01*
X133365000Y-64744600D01*
X133345000Y-64744600D01*
X133345000Y-67643850D01*
X133503750Y-67802600D01*
X134404100Y-67805468D01*
X134404100Y-68008500D01*
X132054600Y-68008500D01*
X132054600Y-67805396D01*
X132932250Y-67802600D01*
X133091000Y-67643850D01*
X133091000Y-64744600D01*
X133071000Y-64744600D01*
X133071000Y-64490600D01*
X133091000Y-64490600D01*
X133091000Y-61591350D01*
X132932250Y-61432600D01*
X132054600Y-61429804D01*
X132054600Y-61150500D01*
X134404100Y-61150500D01*
X134404100Y-61429732D01*
G37*
G04 #@! TD.AperFunction*
M02*
