M48
; DRILL file {KiCad (5.1.10)-1} date 08/29/21 10:51:29
; FORMAT={-:-/ absolute / inch / decimal}
; #@! TF.CreationDate,2021-08-29T10:51:29+02:00
; #@! TF.GenerationSoftware,Kicad,Pcbnew,(5.1.10)-1
; #@! TF.FileFunction,Plated,1,2,PTH
FMAT,2
INCH
T1C0.0157
T2C0.0394
%
G90
G05
T1
X4.119Y-2.635
X4.129Y-2.68
X4.139Y-2.7225
X4.2015Y-2.2125
X4.2415Y-2.2125
X4.2465Y-2.64
X4.284Y-2.2125
X4.2866Y-2.6973
X4.3215Y-3.0275
X4.324Y-2.2125
X4.344Y-2.67
X4.349Y-2.7678
X4.3565Y-3.06
X4.3665Y-2.2125
X4.3915Y-3.09
X4.3933Y-2.3923
X4.399Y-2.745
X4.429Y-3.115
X4.5215Y-2.2275
X4.5293Y-2.8116
X4.533Y-2.8767
X4.5665Y-3.0625
X4.6742Y-3.0677
X4.8385Y-3.0305
X4.9214Y-2.9652
X5.01Y-2.2073
X5.071Y-2.8472
X5.0714Y-2.8868
X5.1665Y-3.11
X5.2015Y-3.085
X5.2115Y-2.42
X5.2115Y-2.67
X5.2165Y-2.2125
X5.239Y-3.0575
X5.2465Y-2.42
X5.2465Y-2.67
X5.2565Y-2.2125
X5.2715Y-3.025
X5.2815Y-2.42
X5.2815Y-2.67
X5.299Y-2.2125
X5.3276Y-2.6157
X5.3401Y-2.6802
X5.3415Y-2.2125
X5.3782Y-2.6383
X5.3815Y-2.2125
X5.449Y-2.72
X5.459Y-2.6775
X5.4665Y-2.635
T2
X4.499Y-3.1245
X4.599Y-3.1245
X4.699Y-3.1245
X4.799Y-3.1245
X4.899Y-3.1245
X4.999Y-3.1245
X5.099Y-3.1245
T0
M30
