G04 #@! TF.GenerationSoftware,KiCad,Pcbnew,(5.1.8)-1*
G04 #@! TF.CreationDate,2021-06-05T10:41:31+02:00*
G04 #@! TF.ProjectId,nrf52-sensor-tag,6e726635-322d-4736-956e-736f722d7461,rev?*
G04 #@! TF.SameCoordinates,Original*
G04 #@! TF.FileFunction,Soldermask,Top*
G04 #@! TF.FilePolarity,Negative*
%FSLAX46Y46*%
G04 Gerber Fmt 4.6, Leading zero omitted, Abs format (unit mm)*
G04 Created by KiCad (PCBNEW (5.1.8)-1) date 2021-06-05 10:41:31*
%MOMM*%
%LPD*%
G01*
G04 APERTURE LIST*
%ADD10R,0.400000X0.500000*%
%ADD11R,1.700000X0.800000*%
%ADD12C,0.100000*%
%ADD13R,0.300000X0.550000*%
%ADD14O,1.700000X1.700000*%
%ADD15R,1.700000X1.700000*%
G04 APERTURE END LIST*
G36*
G01*
X115523600Y-75736000D02*
X116073600Y-75736000D01*
G75*
G02*
X116273600Y-75936000I0J-200000D01*
G01*
X116273600Y-76336000D01*
G75*
G02*
X116073600Y-76536000I-200000J0D01*
G01*
X115523600Y-76536000D01*
G75*
G02*
X115323600Y-76336000I0J200000D01*
G01*
X115323600Y-75936000D01*
G75*
G02*
X115523600Y-75736000I200000J0D01*
G01*
G37*
G36*
G01*
X115523600Y-74086000D02*
X116073600Y-74086000D01*
G75*
G02*
X116273600Y-74286000I0J-200000D01*
G01*
X116273600Y-74686000D01*
G75*
G02*
X116073600Y-74886000I-200000J0D01*
G01*
X115523600Y-74886000D01*
G75*
G02*
X115323600Y-74686000I0J200000D01*
G01*
X115323600Y-74286000D01*
G75*
G02*
X115523600Y-74086000I200000J0D01*
G01*
G37*
G36*
G01*
X117301600Y-75736000D02*
X117851600Y-75736000D01*
G75*
G02*
X118051600Y-75936000I0J-200000D01*
G01*
X118051600Y-76336000D01*
G75*
G02*
X117851600Y-76536000I-200000J0D01*
G01*
X117301600Y-76536000D01*
G75*
G02*
X117101600Y-76336000I0J200000D01*
G01*
X117101600Y-75936000D01*
G75*
G02*
X117301600Y-75736000I200000J0D01*
G01*
G37*
G36*
G01*
X117301600Y-74086000D02*
X117851600Y-74086000D01*
G75*
G02*
X118051600Y-74286000I0J-200000D01*
G01*
X118051600Y-74686000D01*
G75*
G02*
X117851600Y-74886000I-200000J0D01*
G01*
X117301600Y-74886000D01*
G75*
G02*
X117101600Y-74686000I0J200000D01*
G01*
X117101600Y-74286000D01*
G75*
G02*
X117301600Y-74086000I200000J0D01*
G01*
G37*
G36*
G01*
X119629600Y-74886000D02*
X119079600Y-74886000D01*
G75*
G02*
X118879600Y-74686000I0J200000D01*
G01*
X118879600Y-74286000D01*
G75*
G02*
X119079600Y-74086000I200000J0D01*
G01*
X119629600Y-74086000D01*
G75*
G02*
X119829600Y-74286000I0J-200000D01*
G01*
X119829600Y-74686000D01*
G75*
G02*
X119629600Y-74886000I-200000J0D01*
G01*
G37*
G36*
G01*
X119629600Y-76536000D02*
X119079600Y-76536000D01*
G75*
G02*
X118879600Y-76336000I0J200000D01*
G01*
X118879600Y-75936000D01*
G75*
G02*
X119079600Y-75736000I200000J0D01*
G01*
X119629600Y-75736000D01*
G75*
G02*
X119829600Y-75936000I0J-200000D01*
G01*
X119829600Y-76336000D01*
G75*
G02*
X119629600Y-76536000I-200000J0D01*
G01*
G37*
D10*
X113416600Y-74915000D03*
X114116600Y-74915000D03*
X114116600Y-76215000D03*
X113416600Y-76215000D03*
D11*
X130339600Y-70815000D03*
X130339600Y-69715000D03*
X130339600Y-68615000D03*
X130339600Y-67515000D03*
X130339600Y-66415000D03*
X130339600Y-65315000D03*
X130339600Y-64215000D03*
X130339600Y-63115000D03*
X130339600Y-62015000D03*
X130339600Y-60915000D03*
X130339600Y-59815000D03*
X130339600Y-58715000D03*
X130339600Y-57615000D03*
X130339600Y-56515000D03*
X113139600Y-70815000D03*
X113139600Y-69715000D03*
X113139600Y-68615000D03*
X113139600Y-67515000D03*
X113139600Y-66415000D03*
X113139600Y-65315000D03*
X113139600Y-64215000D03*
X113139600Y-63115000D03*
X113139600Y-62015000D03*
X113139600Y-60915000D03*
X113139600Y-59815000D03*
X113139600Y-58715000D03*
X113139600Y-57615000D03*
X113139600Y-56515000D03*
D12*
G36*
X109128763Y-65722560D02*
G01*
X108585583Y-64378143D01*
X109280971Y-64097188D01*
X109824151Y-65441605D01*
X109128763Y-65722560D01*
G37*
G36*
X107969783Y-66190818D02*
G01*
X107426603Y-64846401D01*
X108121991Y-64565446D01*
X108665171Y-65909863D01*
X107969783Y-66190818D01*
G37*
G36*
X106810804Y-66659077D02*
G01*
X106267624Y-65314660D01*
X106963012Y-65033705D01*
X107506192Y-66378122D01*
X106810804Y-66659077D01*
G37*
G36*
X105651824Y-67127335D02*
G01*
X105108644Y-65782918D01*
X105804032Y-65501963D01*
X106347212Y-66846380D01*
X105651824Y-67127335D01*
G37*
G36*
X104790229Y-64994812D02*
G01*
X104247049Y-63650395D01*
X104942437Y-63369440D01*
X105485617Y-64713857D01*
X104790229Y-64994812D01*
G37*
G36*
X105949209Y-64526554D02*
G01*
X105406029Y-63182137D01*
X106101417Y-62901182D01*
X106644597Y-64245599D01*
X105949209Y-64526554D01*
G37*
G36*
X107108188Y-64058295D02*
G01*
X106565008Y-62713878D01*
X107260396Y-62432923D01*
X107803576Y-63777340D01*
X107108188Y-64058295D01*
G37*
G36*
X108267168Y-63590037D02*
G01*
X107723988Y-62245620D01*
X108419376Y-61964665D01*
X108962556Y-63309082D01*
X108267168Y-63590037D01*
G37*
D13*
X135722600Y-63768000D03*
X136372600Y-63768000D03*
X137022600Y-63768000D03*
X137022600Y-65518000D03*
X136372600Y-65518000D03*
X135722600Y-65518000D03*
G36*
G01*
X136824600Y-61845000D02*
X136824600Y-61345000D01*
G75*
G02*
X137049600Y-61120000I225000J0D01*
G01*
X137499600Y-61120000D01*
G75*
G02*
X137724600Y-61345000I0J-225000D01*
G01*
X137724600Y-61845000D01*
G75*
G02*
X137499600Y-62070000I-225000J0D01*
G01*
X137049600Y-62070000D01*
G75*
G02*
X136824600Y-61845000I0J225000D01*
G01*
G37*
G36*
G01*
X135274600Y-61845000D02*
X135274600Y-61345000D01*
G75*
G02*
X135499600Y-61120000I225000J0D01*
G01*
X135949600Y-61120000D01*
G75*
G02*
X136174600Y-61345000I0J-225000D01*
G01*
X136174600Y-61845000D01*
G75*
G02*
X135949600Y-62070000I-225000J0D01*
G01*
X135499600Y-62070000D01*
G75*
G02*
X135274600Y-61845000I0J225000D01*
G01*
G37*
G36*
G01*
X106344600Y-61210000D02*
X106344600Y-60710000D01*
G75*
G02*
X106569600Y-60485000I225000J0D01*
G01*
X107019600Y-60485000D01*
G75*
G02*
X107244600Y-60710000I0J-225000D01*
G01*
X107244600Y-61210000D01*
G75*
G02*
X107019600Y-61435000I-225000J0D01*
G01*
X106569600Y-61435000D01*
G75*
G02*
X106344600Y-61210000I0J225000D01*
G01*
G37*
G36*
G01*
X104794600Y-61210000D02*
X104794600Y-60710000D01*
G75*
G02*
X105019600Y-60485000I225000J0D01*
G01*
X105469600Y-60485000D01*
G75*
G02*
X105694600Y-60710000I0J-225000D01*
G01*
X105694600Y-61210000D01*
G75*
G02*
X105469600Y-61435000I-225000J0D01*
G01*
X105019600Y-61435000D01*
G75*
G02*
X104794600Y-61210000I0J225000D01*
G01*
G37*
D14*
X114274600Y-79362300D03*
X116814600Y-79362300D03*
X119354600Y-79362300D03*
X121894600Y-79362300D03*
X124434600Y-79362300D03*
X126974600Y-79362300D03*
D15*
X129514600Y-79362300D03*
G36*
G01*
X128748200Y-74873300D02*
X128198200Y-74873300D01*
G75*
G02*
X127998200Y-74673300I0J200000D01*
G01*
X127998200Y-74273300D01*
G75*
G02*
X128198200Y-74073300I200000J0D01*
G01*
X128748200Y-74073300D01*
G75*
G02*
X128948200Y-74273300I0J-200000D01*
G01*
X128948200Y-74673300D01*
G75*
G02*
X128748200Y-74873300I-200000J0D01*
G01*
G37*
G36*
G01*
X128748200Y-76523300D02*
X128198200Y-76523300D01*
G75*
G02*
X127998200Y-76323300I0J200000D01*
G01*
X127998200Y-75923300D01*
G75*
G02*
X128198200Y-75723300I200000J0D01*
G01*
X128748200Y-75723300D01*
G75*
G02*
X128948200Y-75923300I0J-200000D01*
G01*
X128948200Y-76323300D01*
G75*
G02*
X128748200Y-76523300I-200000J0D01*
G01*
G37*
G36*
G01*
X121661600Y-74886000D02*
X121111600Y-74886000D01*
G75*
G02*
X120911600Y-74686000I0J200000D01*
G01*
X120911600Y-74286000D01*
G75*
G02*
X121111600Y-74086000I200000J0D01*
G01*
X121661600Y-74086000D01*
G75*
G02*
X121861600Y-74286000I0J-200000D01*
G01*
X121861600Y-74686000D01*
G75*
G02*
X121661600Y-74886000I-200000J0D01*
G01*
G37*
G36*
G01*
X121661600Y-76536000D02*
X121111600Y-76536000D01*
G75*
G02*
X120911600Y-76336000I0J200000D01*
G01*
X120911600Y-75936000D01*
G75*
G02*
X121111600Y-75736000I200000J0D01*
G01*
X121661600Y-75736000D01*
G75*
G02*
X121861600Y-75936000I0J-200000D01*
G01*
X121861600Y-76336000D01*
G75*
G02*
X121661600Y-76536000I-200000J0D01*
G01*
G37*
G36*
G01*
X123312600Y-74886000D02*
X122762600Y-74886000D01*
G75*
G02*
X122562600Y-74686000I0J200000D01*
G01*
X122562600Y-74286000D01*
G75*
G02*
X122762600Y-74086000I200000J0D01*
G01*
X123312600Y-74086000D01*
G75*
G02*
X123512600Y-74286000I0J-200000D01*
G01*
X123512600Y-74686000D01*
G75*
G02*
X123312600Y-74886000I-200000J0D01*
G01*
G37*
G36*
G01*
X123312600Y-76536000D02*
X122762600Y-76536000D01*
G75*
G02*
X122562600Y-76336000I0J200000D01*
G01*
X122562600Y-75936000D01*
G75*
G02*
X122762600Y-75736000I200000J0D01*
G01*
X123312600Y-75736000D01*
G75*
G02*
X123512600Y-75936000I0J-200000D01*
G01*
X123512600Y-76336000D01*
G75*
G02*
X123312600Y-76536000I-200000J0D01*
G01*
G37*
G36*
G01*
X124963600Y-74886000D02*
X124413600Y-74886000D01*
G75*
G02*
X124213600Y-74686000I0J200000D01*
G01*
X124213600Y-74286000D01*
G75*
G02*
X124413600Y-74086000I200000J0D01*
G01*
X124963600Y-74086000D01*
G75*
G02*
X125163600Y-74286000I0J-200000D01*
G01*
X125163600Y-74686000D01*
G75*
G02*
X124963600Y-74886000I-200000J0D01*
G01*
G37*
G36*
G01*
X124963600Y-76536000D02*
X124413600Y-76536000D01*
G75*
G02*
X124213600Y-76336000I0J200000D01*
G01*
X124213600Y-75936000D01*
G75*
G02*
X124413600Y-75736000I200000J0D01*
G01*
X124963600Y-75736000D01*
G75*
G02*
X125163600Y-75936000I0J-200000D01*
G01*
X125163600Y-76336000D01*
G75*
G02*
X124963600Y-76536000I-200000J0D01*
G01*
G37*
D12*
G36*
X105830465Y-71716853D02*
G01*
X105055465Y-70374513D01*
X105921491Y-69874513D01*
X106696491Y-71216853D01*
X105830465Y-71716853D01*
G37*
G36*
X107302709Y-70866853D02*
G01*
X106527709Y-69524513D01*
X107393735Y-69024513D01*
X108168735Y-70366853D01*
X107302709Y-70866853D01*
G37*
G36*
X108455465Y-76263487D02*
G01*
X107680465Y-74921147D01*
X108546491Y-74421147D01*
X109321491Y-75763487D01*
X108455465Y-76263487D01*
G37*
G36*
X109927709Y-75413487D02*
G01*
X109152709Y-74071147D01*
X110018735Y-73571147D01*
X110793735Y-74913487D01*
X109927709Y-75413487D01*
G37*
G36*
X135854735Y-74921147D02*
G01*
X135079735Y-76263487D01*
X134213709Y-75763487D01*
X134988709Y-74421147D01*
X135854735Y-74921147D01*
G37*
G36*
X134382491Y-74071147D02*
G01*
X133607491Y-75413487D01*
X132741465Y-74913487D01*
X133516465Y-73571147D01*
X134382491Y-74071147D01*
G37*
G36*
X138479735Y-70374513D02*
G01*
X137704735Y-71716853D01*
X136838709Y-71216853D01*
X137613709Y-69874513D01*
X138479735Y-70374513D01*
G37*
G36*
X137007491Y-69524513D02*
G01*
X136232491Y-70866853D01*
X135366465Y-70366853D01*
X136141465Y-69024513D01*
X137007491Y-69524513D01*
G37*
G36*
G01*
X129874200Y-75623300D02*
X130374200Y-75623300D01*
G75*
G02*
X130599200Y-75848300I0J-225000D01*
G01*
X130599200Y-76298300D01*
G75*
G02*
X130374200Y-76523300I-225000J0D01*
G01*
X129874200Y-76523300D01*
G75*
G02*
X129649200Y-76298300I0J225000D01*
G01*
X129649200Y-75848300D01*
G75*
G02*
X129874200Y-75623300I225000J0D01*
G01*
G37*
G36*
G01*
X129874200Y-74073300D02*
X130374200Y-74073300D01*
G75*
G02*
X130599200Y-74298300I0J-225000D01*
G01*
X130599200Y-74748300D01*
G75*
G02*
X130374200Y-74973300I-225000J0D01*
G01*
X129874200Y-74973300D01*
G75*
G02*
X129649200Y-74748300I0J225000D01*
G01*
X129649200Y-74298300D01*
G75*
G02*
X129874200Y-74073300I225000J0D01*
G01*
G37*
M02*
