G04 #@! TF.GenerationSoftware,KiCad,Pcbnew,(5.1.8)-1*
G04 #@! TF.CreationDate,2021-02-10T00:21:19+01:00*
G04 #@! TF.ProjectId,nrf52-sensor-tag,6e726635-322d-4736-956e-736f722d7461,rev?*
G04 #@! TF.SameCoordinates,Original*
G04 #@! TF.FileFunction,Soldermask,Top*
G04 #@! TF.FilePolarity,Negative*
%FSLAX46Y46*%
G04 Gerber Fmt 4.6, Leading zero omitted, Abs format (unit mm)*
G04 Created by KiCad (PCBNEW (5.1.8)-1) date 2021-02-10 00:21:19*
%MOMM*%
%LPD*%
G01*
G04 APERTURE LIST*
%ADD10R,1.700000X0.800000*%
%ADD11C,0.100000*%
%ADD12R,1.000000X1.500000*%
%ADD13R,1.450000X0.750000*%
%ADD14R,0.300000X0.550000*%
%ADD15O,1.700000X1.700000*%
%ADD16R,1.700000X1.700000*%
G04 APERTURE END LIST*
D10*
X130539600Y-70815000D03*
X130539600Y-69715000D03*
X130539600Y-68615000D03*
X130539600Y-67515000D03*
X130539600Y-66415000D03*
X130539600Y-65315000D03*
X130539600Y-64215000D03*
X130539600Y-63115000D03*
X130539600Y-62015000D03*
X130539600Y-60915000D03*
X130539600Y-59815000D03*
X130539600Y-58715000D03*
X130539600Y-57615000D03*
X130539600Y-56515000D03*
X112939600Y-70815000D03*
X112939600Y-69715000D03*
X112939600Y-68615000D03*
X112939600Y-67515000D03*
X112939600Y-66415000D03*
X112939600Y-65315000D03*
X112939600Y-64215000D03*
X112939600Y-63115000D03*
X112939600Y-62015000D03*
X112939600Y-60915000D03*
X112939600Y-59815000D03*
X112939600Y-58715000D03*
X112939600Y-57615000D03*
X112939600Y-56515000D03*
D11*
G36*
X133971600Y-57138000D02*
G01*
X133421600Y-57138000D01*
X133421600Y-57137398D01*
X133397066Y-57137398D01*
X133348235Y-57132588D01*
X133300110Y-57123016D01*
X133253155Y-57108772D01*
X133207822Y-57089995D01*
X133164549Y-57066864D01*
X133123750Y-57039604D01*
X133085821Y-57008476D01*
X133051124Y-56973779D01*
X133019996Y-56935850D01*
X132992736Y-56895051D01*
X132969605Y-56851778D01*
X132950828Y-56806445D01*
X132936584Y-56759490D01*
X132927012Y-56711365D01*
X132922202Y-56662534D01*
X132922202Y-56638000D01*
X132921600Y-56638000D01*
X132921600Y-56138000D01*
X132922202Y-56138000D01*
X132922202Y-56113466D01*
X132927012Y-56064635D01*
X132936584Y-56016510D01*
X132950828Y-55969555D01*
X132969605Y-55924222D01*
X132992736Y-55880949D01*
X133019996Y-55840150D01*
X133051124Y-55802221D01*
X133085821Y-55767524D01*
X133123750Y-55736396D01*
X133164549Y-55709136D01*
X133207822Y-55686005D01*
X133253155Y-55667228D01*
X133300110Y-55652984D01*
X133348235Y-55643412D01*
X133397066Y-55638602D01*
X133421600Y-55638602D01*
X133421600Y-55638000D01*
X133971600Y-55638000D01*
X133971600Y-57138000D01*
G37*
D12*
X134721600Y-56388000D03*
D11*
G36*
X136021600Y-55638602D02*
G01*
X136046134Y-55638602D01*
X136094965Y-55643412D01*
X136143090Y-55652984D01*
X136190045Y-55667228D01*
X136235378Y-55686005D01*
X136278651Y-55709136D01*
X136319450Y-55736396D01*
X136357379Y-55767524D01*
X136392076Y-55802221D01*
X136423204Y-55840150D01*
X136450464Y-55880949D01*
X136473595Y-55924222D01*
X136492372Y-55969555D01*
X136506616Y-56016510D01*
X136516188Y-56064635D01*
X136520998Y-56113466D01*
X136520998Y-56138000D01*
X136521600Y-56138000D01*
X136521600Y-56638000D01*
X136520998Y-56638000D01*
X136520998Y-56662534D01*
X136516188Y-56711365D01*
X136506616Y-56759490D01*
X136492372Y-56806445D01*
X136473595Y-56851778D01*
X136450464Y-56895051D01*
X136423204Y-56935850D01*
X136392076Y-56973779D01*
X136357379Y-57008476D01*
X136319450Y-57039604D01*
X136278651Y-57066864D01*
X136235378Y-57089995D01*
X136190045Y-57108772D01*
X136143090Y-57123016D01*
X136094965Y-57132588D01*
X136046134Y-57137398D01*
X136021600Y-57137398D01*
X136021600Y-57138000D01*
X135471600Y-57138000D01*
X135471600Y-55638000D01*
X136021600Y-55638000D01*
X136021600Y-55638602D01*
G37*
G36*
X108293600Y-58178000D02*
G01*
X108843600Y-58178000D01*
X108843600Y-58178602D01*
X108868134Y-58178602D01*
X108916965Y-58183412D01*
X108965090Y-58192984D01*
X109012045Y-58207228D01*
X109057378Y-58226005D01*
X109100651Y-58249136D01*
X109141450Y-58276396D01*
X109179379Y-58307524D01*
X109214076Y-58342221D01*
X109245204Y-58380150D01*
X109272464Y-58420949D01*
X109295595Y-58464222D01*
X109314372Y-58509555D01*
X109328616Y-58556510D01*
X109338188Y-58604635D01*
X109342998Y-58653466D01*
X109342998Y-58678000D01*
X109343600Y-58678000D01*
X109343600Y-59178000D01*
X109342998Y-59178000D01*
X109342998Y-59202534D01*
X109338188Y-59251365D01*
X109328616Y-59299490D01*
X109314372Y-59346445D01*
X109295595Y-59391778D01*
X109272464Y-59435051D01*
X109245204Y-59475850D01*
X109214076Y-59513779D01*
X109179379Y-59548476D01*
X109141450Y-59579604D01*
X109100651Y-59606864D01*
X109057378Y-59629995D01*
X109012045Y-59648772D01*
X108965090Y-59663016D01*
X108916965Y-59672588D01*
X108868134Y-59677398D01*
X108843600Y-59677398D01*
X108843600Y-59678000D01*
X108293600Y-59678000D01*
X108293600Y-58178000D01*
G37*
D12*
X107543600Y-58928000D03*
D11*
G36*
X106243600Y-59677398D02*
G01*
X106219066Y-59677398D01*
X106170235Y-59672588D01*
X106122110Y-59663016D01*
X106075155Y-59648772D01*
X106029822Y-59629995D01*
X105986549Y-59606864D01*
X105945750Y-59579604D01*
X105907821Y-59548476D01*
X105873124Y-59513779D01*
X105841996Y-59475850D01*
X105814736Y-59435051D01*
X105791605Y-59391778D01*
X105772828Y-59346445D01*
X105758584Y-59299490D01*
X105749012Y-59251365D01*
X105744202Y-59202534D01*
X105744202Y-59178000D01*
X105743600Y-59178000D01*
X105743600Y-58678000D01*
X105744202Y-58678000D01*
X105744202Y-58653466D01*
X105749012Y-58604635D01*
X105758584Y-58556510D01*
X105772828Y-58509555D01*
X105791605Y-58464222D01*
X105814736Y-58420949D01*
X105841996Y-58380150D01*
X105873124Y-58342221D01*
X105907821Y-58307524D01*
X105945750Y-58276396D01*
X105986549Y-58249136D01*
X106029822Y-58226005D01*
X106075155Y-58207228D01*
X106122110Y-58192984D01*
X106170235Y-58183412D01*
X106219066Y-58178602D01*
X106243600Y-58178602D01*
X106243600Y-58178000D01*
X106793600Y-58178000D01*
X106793600Y-59678000D01*
X106243600Y-59678000D01*
X106243600Y-59677398D01*
G37*
G36*
G01*
X136924600Y-61870000D02*
X136924600Y-61320000D01*
G75*
G02*
X137124600Y-61120000I200000J0D01*
G01*
X137524600Y-61120000D01*
G75*
G02*
X137724600Y-61320000I0J-200000D01*
G01*
X137724600Y-61870000D01*
G75*
G02*
X137524600Y-62070000I-200000J0D01*
G01*
X137124600Y-62070000D01*
G75*
G02*
X136924600Y-61870000I0J200000D01*
G01*
G37*
G36*
G01*
X135274600Y-61870000D02*
X135274600Y-61320000D01*
G75*
G02*
X135474600Y-61120000I200000J0D01*
G01*
X135874600Y-61120000D01*
G75*
G02*
X136074600Y-61320000I0J-200000D01*
G01*
X136074600Y-61870000D01*
G75*
G02*
X135874600Y-62070000I-200000J0D01*
G01*
X135474600Y-62070000D01*
G75*
G02*
X135274600Y-61870000I0J200000D01*
G01*
G37*
D13*
X107797600Y-62671000D03*
X107797600Y-63921000D03*
X107797600Y-65171000D03*
X107797600Y-66421000D03*
X105497600Y-66421000D03*
X105497600Y-65171000D03*
X105497600Y-63921000D03*
X105497600Y-62671000D03*
D14*
X135722600Y-63768000D03*
X136372600Y-63768000D03*
X137022600Y-63768000D03*
X137022600Y-65518000D03*
X136372600Y-65518000D03*
X135722600Y-65518000D03*
G36*
G01*
X136824600Y-60321000D02*
X136824600Y-59821000D01*
G75*
G02*
X137049600Y-59596000I225000J0D01*
G01*
X137499600Y-59596000D01*
G75*
G02*
X137724600Y-59821000I0J-225000D01*
G01*
X137724600Y-60321000D01*
G75*
G02*
X137499600Y-60546000I-225000J0D01*
G01*
X137049600Y-60546000D01*
G75*
G02*
X136824600Y-60321000I0J225000D01*
G01*
G37*
G36*
G01*
X135274600Y-60321000D02*
X135274600Y-59821000D01*
G75*
G02*
X135499600Y-59596000I225000J0D01*
G01*
X135949600Y-59596000D01*
G75*
G02*
X136174600Y-59821000I0J-225000D01*
G01*
X136174600Y-60321000D01*
G75*
G02*
X135949600Y-60546000I-225000J0D01*
G01*
X135499600Y-60546000D01*
G75*
G02*
X135274600Y-60321000I0J225000D01*
G01*
G37*
G36*
G01*
X136824600Y-58797000D02*
X136824600Y-58297000D01*
G75*
G02*
X137049600Y-58072000I225000J0D01*
G01*
X137499600Y-58072000D01*
G75*
G02*
X137724600Y-58297000I0J-225000D01*
G01*
X137724600Y-58797000D01*
G75*
G02*
X137499600Y-59022000I-225000J0D01*
G01*
X137049600Y-59022000D01*
G75*
G02*
X136824600Y-58797000I0J225000D01*
G01*
G37*
G36*
G01*
X135274600Y-58797000D02*
X135274600Y-58297000D01*
G75*
G02*
X135499600Y-58072000I225000J0D01*
G01*
X135949600Y-58072000D01*
G75*
G02*
X136174600Y-58297000I0J-225000D01*
G01*
X136174600Y-58797000D01*
G75*
G02*
X135949600Y-59022000I-225000J0D01*
G01*
X135499600Y-59022000D01*
G75*
G02*
X135274600Y-58797000I0J225000D01*
G01*
G37*
G36*
G01*
X106344600Y-61210000D02*
X106344600Y-60710000D01*
G75*
G02*
X106569600Y-60485000I225000J0D01*
G01*
X107019600Y-60485000D01*
G75*
G02*
X107244600Y-60710000I0J-225000D01*
G01*
X107244600Y-61210000D01*
G75*
G02*
X107019600Y-61435000I-225000J0D01*
G01*
X106569600Y-61435000D01*
G75*
G02*
X106344600Y-61210000I0J225000D01*
G01*
G37*
G36*
G01*
X104794600Y-61210000D02*
X104794600Y-60710000D01*
G75*
G02*
X105019600Y-60485000I225000J0D01*
G01*
X105469600Y-60485000D01*
G75*
G02*
X105694600Y-60710000I0J-225000D01*
G01*
X105694600Y-61210000D01*
G75*
G02*
X105469600Y-61435000I-225000J0D01*
G01*
X105019600Y-61435000D01*
G75*
G02*
X104794600Y-61210000I0J225000D01*
G01*
G37*
D15*
X114274600Y-79362300D03*
X116814600Y-79362300D03*
X119354600Y-79362300D03*
X121894600Y-79362300D03*
X124434600Y-79362300D03*
X126974600Y-79362300D03*
D16*
X129514600Y-79362300D03*
G36*
G01*
X128748200Y-74873300D02*
X128198200Y-74873300D01*
G75*
G02*
X127998200Y-74673300I0J200000D01*
G01*
X127998200Y-74273300D01*
G75*
G02*
X128198200Y-74073300I200000J0D01*
G01*
X128748200Y-74073300D01*
G75*
G02*
X128948200Y-74273300I0J-200000D01*
G01*
X128948200Y-74673300D01*
G75*
G02*
X128748200Y-74873300I-200000J0D01*
G01*
G37*
G36*
G01*
X128748200Y-76523300D02*
X128198200Y-76523300D01*
G75*
G02*
X127998200Y-76323300I0J200000D01*
G01*
X127998200Y-75923300D01*
G75*
G02*
X128198200Y-75723300I200000J0D01*
G01*
X128748200Y-75723300D01*
G75*
G02*
X128948200Y-75923300I0J-200000D01*
G01*
X128948200Y-76323300D01*
G75*
G02*
X128748200Y-76523300I-200000J0D01*
G01*
G37*
G36*
G01*
X120137600Y-74886000D02*
X119587600Y-74886000D01*
G75*
G02*
X119387600Y-74686000I0J200000D01*
G01*
X119387600Y-74286000D01*
G75*
G02*
X119587600Y-74086000I200000J0D01*
G01*
X120137600Y-74086000D01*
G75*
G02*
X120337600Y-74286000I0J-200000D01*
G01*
X120337600Y-74686000D01*
G75*
G02*
X120137600Y-74886000I-200000J0D01*
G01*
G37*
G36*
G01*
X120137600Y-76536000D02*
X119587600Y-76536000D01*
G75*
G02*
X119387600Y-76336000I0J200000D01*
G01*
X119387600Y-75936000D01*
G75*
G02*
X119587600Y-75736000I200000J0D01*
G01*
X120137600Y-75736000D01*
G75*
G02*
X120337600Y-75936000I0J-200000D01*
G01*
X120337600Y-76336000D01*
G75*
G02*
X120137600Y-76536000I-200000J0D01*
G01*
G37*
G36*
G01*
X121788600Y-74886000D02*
X121238600Y-74886000D01*
G75*
G02*
X121038600Y-74686000I0J200000D01*
G01*
X121038600Y-74286000D01*
G75*
G02*
X121238600Y-74086000I200000J0D01*
G01*
X121788600Y-74086000D01*
G75*
G02*
X121988600Y-74286000I0J-200000D01*
G01*
X121988600Y-74686000D01*
G75*
G02*
X121788600Y-74886000I-200000J0D01*
G01*
G37*
G36*
G01*
X121788600Y-76536000D02*
X121238600Y-76536000D01*
G75*
G02*
X121038600Y-76336000I0J200000D01*
G01*
X121038600Y-75936000D01*
G75*
G02*
X121238600Y-75736000I200000J0D01*
G01*
X121788600Y-75736000D01*
G75*
G02*
X121988600Y-75936000I0J-200000D01*
G01*
X121988600Y-76336000D01*
G75*
G02*
X121788600Y-76536000I-200000J0D01*
G01*
G37*
G36*
G01*
X123439600Y-74886000D02*
X122889600Y-74886000D01*
G75*
G02*
X122689600Y-74686000I0J200000D01*
G01*
X122689600Y-74286000D01*
G75*
G02*
X122889600Y-74086000I200000J0D01*
G01*
X123439600Y-74086000D01*
G75*
G02*
X123639600Y-74286000I0J-200000D01*
G01*
X123639600Y-74686000D01*
G75*
G02*
X123439600Y-74886000I-200000J0D01*
G01*
G37*
G36*
G01*
X123439600Y-76536000D02*
X122889600Y-76536000D01*
G75*
G02*
X122689600Y-76336000I0J200000D01*
G01*
X122689600Y-75936000D01*
G75*
G02*
X122889600Y-75736000I200000J0D01*
G01*
X123439600Y-75736000D01*
G75*
G02*
X123639600Y-75936000I0J-200000D01*
G01*
X123639600Y-76336000D01*
G75*
G02*
X123439600Y-76536000I-200000J0D01*
G01*
G37*
D11*
G36*
X105830465Y-71716853D02*
G01*
X105055465Y-70374513D01*
X105921491Y-69874513D01*
X106696491Y-71216853D01*
X105830465Y-71716853D01*
G37*
G36*
X107302709Y-70866853D02*
G01*
X106527709Y-69524513D01*
X107393735Y-69024513D01*
X108168735Y-70366853D01*
X107302709Y-70866853D01*
G37*
G36*
X108455465Y-76263487D02*
G01*
X107680465Y-74921147D01*
X108546491Y-74421147D01*
X109321491Y-75763487D01*
X108455465Y-76263487D01*
G37*
G36*
X109927709Y-75413487D02*
G01*
X109152709Y-74071147D01*
X110018735Y-73571147D01*
X110793735Y-74913487D01*
X109927709Y-75413487D01*
G37*
G36*
X135854735Y-74921147D02*
G01*
X135079735Y-76263487D01*
X134213709Y-75763487D01*
X134988709Y-74421147D01*
X135854735Y-74921147D01*
G37*
G36*
X134382491Y-74071147D02*
G01*
X133607491Y-75413487D01*
X132741465Y-74913487D01*
X133516465Y-73571147D01*
X134382491Y-74071147D01*
G37*
G36*
X138479735Y-70374513D02*
G01*
X137704735Y-71716853D01*
X136838709Y-71216853D01*
X137613709Y-69874513D01*
X138479735Y-70374513D01*
G37*
G36*
X137007491Y-69524513D02*
G01*
X136232491Y-70866853D01*
X135366465Y-70366853D01*
X136141465Y-69024513D01*
X137007491Y-69524513D01*
G37*
G36*
G01*
X129874200Y-75623300D02*
X130374200Y-75623300D01*
G75*
G02*
X130599200Y-75848300I0J-225000D01*
G01*
X130599200Y-76298300D01*
G75*
G02*
X130374200Y-76523300I-225000J0D01*
G01*
X129874200Y-76523300D01*
G75*
G02*
X129649200Y-76298300I0J225000D01*
G01*
X129649200Y-75848300D01*
G75*
G02*
X129874200Y-75623300I225000J0D01*
G01*
G37*
G36*
G01*
X129874200Y-74073300D02*
X130374200Y-74073300D01*
G75*
G02*
X130599200Y-74298300I0J-225000D01*
G01*
X130599200Y-74748300D01*
G75*
G02*
X130374200Y-74973300I-225000J0D01*
G01*
X129874200Y-74973300D01*
G75*
G02*
X129649200Y-74748300I0J225000D01*
G01*
X129649200Y-74298300D01*
G75*
G02*
X129874200Y-74073300I225000J0D01*
G01*
G37*
G36*
G01*
X110214600Y-67381000D02*
X110714600Y-67381000D01*
G75*
G02*
X110939600Y-67606000I0J-225000D01*
G01*
X110939600Y-68056000D01*
G75*
G02*
X110714600Y-68281000I-225000J0D01*
G01*
X110214600Y-68281000D01*
G75*
G02*
X109989600Y-68056000I0J225000D01*
G01*
X109989600Y-67606000D01*
G75*
G02*
X110214600Y-67381000I225000J0D01*
G01*
G37*
G36*
G01*
X110214600Y-65831000D02*
X110714600Y-65831000D01*
G75*
G02*
X110939600Y-66056000I0J-225000D01*
G01*
X110939600Y-66506000D01*
G75*
G02*
X110714600Y-66731000I-225000J0D01*
G01*
X110214600Y-66731000D01*
G75*
G02*
X109989600Y-66506000I0J225000D01*
G01*
X109989600Y-66056000D01*
G75*
G02*
X110214600Y-65831000I225000J0D01*
G01*
G37*
G36*
G01*
X110714600Y-61524000D02*
X110214600Y-61524000D01*
G75*
G02*
X109989600Y-61299000I0J225000D01*
G01*
X109989600Y-60849000D01*
G75*
G02*
X110214600Y-60624000I225000J0D01*
G01*
X110714600Y-60624000D01*
G75*
G02*
X110939600Y-60849000I0J-225000D01*
G01*
X110939600Y-61299000D01*
G75*
G02*
X110714600Y-61524000I-225000J0D01*
G01*
G37*
G36*
G01*
X110714600Y-63074000D02*
X110214600Y-63074000D01*
G75*
G02*
X109989600Y-62849000I0J225000D01*
G01*
X109989600Y-62399000D01*
G75*
G02*
X110214600Y-62174000I225000J0D01*
G01*
X110714600Y-62174000D01*
G75*
G02*
X110939600Y-62399000I0J-225000D01*
G01*
X110939600Y-62849000D01*
G75*
G02*
X110714600Y-63074000I-225000J0D01*
G01*
G37*
M02*
