G04 #@! TF.GenerationSoftware,KiCad,Pcbnew,(5.1.8)-1*
G04 #@! TF.CreationDate,2021-04-15T21:20:39+02:00*
G04 #@! TF.ProjectId,nrf52-sensor-tag,6e726635-322d-4736-956e-736f722d7461,rev?*
G04 #@! TF.SameCoordinates,Original*
G04 #@! TF.FileFunction,Copper,L1,Top*
G04 #@! TF.FilePolarity,Positive*
%FSLAX46Y46*%
G04 Gerber Fmt 4.6, Leading zero omitted, Abs format (unit mm)*
G04 Created by KiCad (PCBNEW (5.1.8)-1) date 2021-04-15 21:20:39*
%MOMM*%
%LPD*%
G01*
G04 APERTURE LIST*
G04 #@! TA.AperFunction,SMDPad,CuDef*
%ADD10R,0.400000X0.500000*%
G04 #@! TD*
G04 #@! TA.AperFunction,SMDPad,CuDef*
%ADD11R,1.700000X0.800000*%
G04 #@! TD*
G04 #@! TA.AperFunction,SMDPad,CuDef*
%ADD12R,1.450000X0.750000*%
G04 #@! TD*
G04 #@! TA.AperFunction,SMDPad,CuDef*
%ADD13R,0.300000X0.550000*%
G04 #@! TD*
G04 #@! TA.AperFunction,ComponentPad*
%ADD14O,1.700000X1.700000*%
G04 #@! TD*
G04 #@! TA.AperFunction,ComponentPad*
%ADD15R,1.700000X1.700000*%
G04 #@! TD*
G04 #@! TA.AperFunction,SMDPad,CuDef*
%ADD16C,0.100000*%
G04 #@! TD*
G04 #@! TA.AperFunction,ViaPad*
%ADD17C,0.600000*%
G04 #@! TD*
G04 #@! TA.AperFunction,Conductor*
%ADD18C,0.250000*%
G04 #@! TD*
G04 #@! TA.AperFunction,Conductor*
%ADD19C,0.254000*%
G04 #@! TD*
G04 #@! TA.AperFunction,Conductor*
%ADD20C,0.100000*%
G04 #@! TD*
G04 APERTURE END LIST*
G04 #@! TA.AperFunction,SMDPad,CuDef*
G36*
G01*
X115523600Y-75736000D02*
X116073600Y-75736000D01*
G75*
G02*
X116273600Y-75936000I0J-200000D01*
G01*
X116273600Y-76336000D01*
G75*
G02*
X116073600Y-76536000I-200000J0D01*
G01*
X115523600Y-76536000D01*
G75*
G02*
X115323600Y-76336000I0J200000D01*
G01*
X115323600Y-75936000D01*
G75*
G02*
X115523600Y-75736000I200000J0D01*
G01*
G37*
G04 #@! TD.AperFunction*
G04 #@! TA.AperFunction,SMDPad,CuDef*
G36*
G01*
X115523600Y-74086000D02*
X116073600Y-74086000D01*
G75*
G02*
X116273600Y-74286000I0J-200000D01*
G01*
X116273600Y-74686000D01*
G75*
G02*
X116073600Y-74886000I-200000J0D01*
G01*
X115523600Y-74886000D01*
G75*
G02*
X115323600Y-74686000I0J200000D01*
G01*
X115323600Y-74286000D01*
G75*
G02*
X115523600Y-74086000I200000J0D01*
G01*
G37*
G04 #@! TD.AperFunction*
G04 #@! TA.AperFunction,SMDPad,CuDef*
G36*
G01*
X117301600Y-75736000D02*
X117851600Y-75736000D01*
G75*
G02*
X118051600Y-75936000I0J-200000D01*
G01*
X118051600Y-76336000D01*
G75*
G02*
X117851600Y-76536000I-200000J0D01*
G01*
X117301600Y-76536000D01*
G75*
G02*
X117101600Y-76336000I0J200000D01*
G01*
X117101600Y-75936000D01*
G75*
G02*
X117301600Y-75736000I200000J0D01*
G01*
G37*
G04 #@! TD.AperFunction*
G04 #@! TA.AperFunction,SMDPad,CuDef*
G36*
G01*
X117301600Y-74086000D02*
X117851600Y-74086000D01*
G75*
G02*
X118051600Y-74286000I0J-200000D01*
G01*
X118051600Y-74686000D01*
G75*
G02*
X117851600Y-74886000I-200000J0D01*
G01*
X117301600Y-74886000D01*
G75*
G02*
X117101600Y-74686000I0J200000D01*
G01*
X117101600Y-74286000D01*
G75*
G02*
X117301600Y-74086000I200000J0D01*
G01*
G37*
G04 #@! TD.AperFunction*
G04 #@! TA.AperFunction,SMDPad,CuDef*
G36*
G01*
X119629600Y-74886000D02*
X119079600Y-74886000D01*
G75*
G02*
X118879600Y-74686000I0J200000D01*
G01*
X118879600Y-74286000D01*
G75*
G02*
X119079600Y-74086000I200000J0D01*
G01*
X119629600Y-74086000D01*
G75*
G02*
X119829600Y-74286000I0J-200000D01*
G01*
X119829600Y-74686000D01*
G75*
G02*
X119629600Y-74886000I-200000J0D01*
G01*
G37*
G04 #@! TD.AperFunction*
G04 #@! TA.AperFunction,SMDPad,CuDef*
G36*
G01*
X119629600Y-76536000D02*
X119079600Y-76536000D01*
G75*
G02*
X118879600Y-76336000I0J200000D01*
G01*
X118879600Y-75936000D01*
G75*
G02*
X119079600Y-75736000I200000J0D01*
G01*
X119629600Y-75736000D01*
G75*
G02*
X119829600Y-75936000I0J-200000D01*
G01*
X119829600Y-76336000D01*
G75*
G02*
X119629600Y-76536000I-200000J0D01*
G01*
G37*
G04 #@! TD.AperFunction*
D10*
X113416600Y-74915000D03*
X114116600Y-74915000D03*
X114116600Y-76215000D03*
X113416600Y-76215000D03*
D11*
X130339600Y-70815000D03*
X130339600Y-69715000D03*
X130339600Y-68615000D03*
X130339600Y-67515000D03*
X130339600Y-66415000D03*
X130339600Y-65315000D03*
X130339600Y-64215000D03*
X130339600Y-63115000D03*
X130339600Y-62015000D03*
X130339600Y-60915000D03*
X130339600Y-59815000D03*
X130339600Y-58715000D03*
X130339600Y-57615000D03*
X130339600Y-56515000D03*
X113139600Y-70815000D03*
X113139600Y-69715000D03*
X113139600Y-68615000D03*
X113139600Y-67515000D03*
X113139600Y-66415000D03*
X113139600Y-65315000D03*
X113139600Y-64215000D03*
X113139600Y-63115000D03*
X113139600Y-62015000D03*
X113139600Y-60915000D03*
X113139600Y-59815000D03*
X113139600Y-58715000D03*
X113139600Y-57615000D03*
X113139600Y-56515000D03*
D12*
X107797600Y-62671000D03*
X107797600Y-63921000D03*
X107797600Y-65171000D03*
X107797600Y-66421000D03*
X105497600Y-66421000D03*
X105497600Y-65171000D03*
X105497600Y-63921000D03*
X105497600Y-62671000D03*
D13*
X135722600Y-63768000D03*
X136372600Y-63768000D03*
X137022600Y-63768000D03*
X137022600Y-65518000D03*
X136372600Y-65518000D03*
X135722600Y-65518000D03*
G04 #@! TA.AperFunction,SMDPad,CuDef*
G36*
G01*
X136824600Y-61845000D02*
X136824600Y-61345000D01*
G75*
G02*
X137049600Y-61120000I225000J0D01*
G01*
X137499600Y-61120000D01*
G75*
G02*
X137724600Y-61345000I0J-225000D01*
G01*
X137724600Y-61845000D01*
G75*
G02*
X137499600Y-62070000I-225000J0D01*
G01*
X137049600Y-62070000D01*
G75*
G02*
X136824600Y-61845000I0J225000D01*
G01*
G37*
G04 #@! TD.AperFunction*
G04 #@! TA.AperFunction,SMDPad,CuDef*
G36*
G01*
X135274600Y-61845000D02*
X135274600Y-61345000D01*
G75*
G02*
X135499600Y-61120000I225000J0D01*
G01*
X135949600Y-61120000D01*
G75*
G02*
X136174600Y-61345000I0J-225000D01*
G01*
X136174600Y-61845000D01*
G75*
G02*
X135949600Y-62070000I-225000J0D01*
G01*
X135499600Y-62070000D01*
G75*
G02*
X135274600Y-61845000I0J225000D01*
G01*
G37*
G04 #@! TD.AperFunction*
G04 #@! TA.AperFunction,SMDPad,CuDef*
G36*
G01*
X106344600Y-61210000D02*
X106344600Y-60710000D01*
G75*
G02*
X106569600Y-60485000I225000J0D01*
G01*
X107019600Y-60485000D01*
G75*
G02*
X107244600Y-60710000I0J-225000D01*
G01*
X107244600Y-61210000D01*
G75*
G02*
X107019600Y-61435000I-225000J0D01*
G01*
X106569600Y-61435000D01*
G75*
G02*
X106344600Y-61210000I0J225000D01*
G01*
G37*
G04 #@! TD.AperFunction*
G04 #@! TA.AperFunction,SMDPad,CuDef*
G36*
G01*
X104794600Y-61210000D02*
X104794600Y-60710000D01*
G75*
G02*
X105019600Y-60485000I225000J0D01*
G01*
X105469600Y-60485000D01*
G75*
G02*
X105694600Y-60710000I0J-225000D01*
G01*
X105694600Y-61210000D01*
G75*
G02*
X105469600Y-61435000I-225000J0D01*
G01*
X105019600Y-61435000D01*
G75*
G02*
X104794600Y-61210000I0J225000D01*
G01*
G37*
G04 #@! TD.AperFunction*
D14*
X114274600Y-79362300D03*
X116814600Y-79362300D03*
X119354600Y-79362300D03*
X121894600Y-79362300D03*
X124434600Y-79362300D03*
X126974600Y-79362300D03*
D15*
X129514600Y-79362300D03*
G04 #@! TA.AperFunction,SMDPad,CuDef*
G36*
G01*
X128748200Y-74873300D02*
X128198200Y-74873300D01*
G75*
G02*
X127998200Y-74673300I0J200000D01*
G01*
X127998200Y-74273300D01*
G75*
G02*
X128198200Y-74073300I200000J0D01*
G01*
X128748200Y-74073300D01*
G75*
G02*
X128948200Y-74273300I0J-200000D01*
G01*
X128948200Y-74673300D01*
G75*
G02*
X128748200Y-74873300I-200000J0D01*
G01*
G37*
G04 #@! TD.AperFunction*
G04 #@! TA.AperFunction,SMDPad,CuDef*
G36*
G01*
X128748200Y-76523300D02*
X128198200Y-76523300D01*
G75*
G02*
X127998200Y-76323300I0J200000D01*
G01*
X127998200Y-75923300D01*
G75*
G02*
X128198200Y-75723300I200000J0D01*
G01*
X128748200Y-75723300D01*
G75*
G02*
X128948200Y-75923300I0J-200000D01*
G01*
X128948200Y-76323300D01*
G75*
G02*
X128748200Y-76523300I-200000J0D01*
G01*
G37*
G04 #@! TD.AperFunction*
G04 #@! TA.AperFunction,SMDPad,CuDef*
G36*
G01*
X121661600Y-74886000D02*
X121111600Y-74886000D01*
G75*
G02*
X120911600Y-74686000I0J200000D01*
G01*
X120911600Y-74286000D01*
G75*
G02*
X121111600Y-74086000I200000J0D01*
G01*
X121661600Y-74086000D01*
G75*
G02*
X121861600Y-74286000I0J-200000D01*
G01*
X121861600Y-74686000D01*
G75*
G02*
X121661600Y-74886000I-200000J0D01*
G01*
G37*
G04 #@! TD.AperFunction*
G04 #@! TA.AperFunction,SMDPad,CuDef*
G36*
G01*
X121661600Y-76536000D02*
X121111600Y-76536000D01*
G75*
G02*
X120911600Y-76336000I0J200000D01*
G01*
X120911600Y-75936000D01*
G75*
G02*
X121111600Y-75736000I200000J0D01*
G01*
X121661600Y-75736000D01*
G75*
G02*
X121861600Y-75936000I0J-200000D01*
G01*
X121861600Y-76336000D01*
G75*
G02*
X121661600Y-76536000I-200000J0D01*
G01*
G37*
G04 #@! TD.AperFunction*
G04 #@! TA.AperFunction,SMDPad,CuDef*
G36*
G01*
X123312600Y-74886000D02*
X122762600Y-74886000D01*
G75*
G02*
X122562600Y-74686000I0J200000D01*
G01*
X122562600Y-74286000D01*
G75*
G02*
X122762600Y-74086000I200000J0D01*
G01*
X123312600Y-74086000D01*
G75*
G02*
X123512600Y-74286000I0J-200000D01*
G01*
X123512600Y-74686000D01*
G75*
G02*
X123312600Y-74886000I-200000J0D01*
G01*
G37*
G04 #@! TD.AperFunction*
G04 #@! TA.AperFunction,SMDPad,CuDef*
G36*
G01*
X123312600Y-76536000D02*
X122762600Y-76536000D01*
G75*
G02*
X122562600Y-76336000I0J200000D01*
G01*
X122562600Y-75936000D01*
G75*
G02*
X122762600Y-75736000I200000J0D01*
G01*
X123312600Y-75736000D01*
G75*
G02*
X123512600Y-75936000I0J-200000D01*
G01*
X123512600Y-76336000D01*
G75*
G02*
X123312600Y-76536000I-200000J0D01*
G01*
G37*
G04 #@! TD.AperFunction*
G04 #@! TA.AperFunction,SMDPad,CuDef*
G36*
G01*
X124963600Y-74886000D02*
X124413600Y-74886000D01*
G75*
G02*
X124213600Y-74686000I0J200000D01*
G01*
X124213600Y-74286000D01*
G75*
G02*
X124413600Y-74086000I200000J0D01*
G01*
X124963600Y-74086000D01*
G75*
G02*
X125163600Y-74286000I0J-200000D01*
G01*
X125163600Y-74686000D01*
G75*
G02*
X124963600Y-74886000I-200000J0D01*
G01*
G37*
G04 #@! TD.AperFunction*
G04 #@! TA.AperFunction,SMDPad,CuDef*
G36*
G01*
X124963600Y-76536000D02*
X124413600Y-76536000D01*
G75*
G02*
X124213600Y-76336000I0J200000D01*
G01*
X124213600Y-75936000D01*
G75*
G02*
X124413600Y-75736000I200000J0D01*
G01*
X124963600Y-75736000D01*
G75*
G02*
X125163600Y-75936000I0J-200000D01*
G01*
X125163600Y-76336000D01*
G75*
G02*
X124963600Y-76536000I-200000J0D01*
G01*
G37*
G04 #@! TD.AperFunction*
G04 #@! TA.AperFunction,SMDPad,CuDef*
D16*
G36*
X105830465Y-71716853D02*
G01*
X105055465Y-70374513D01*
X105921491Y-69874513D01*
X106696491Y-71216853D01*
X105830465Y-71716853D01*
G37*
G04 #@! TD.AperFunction*
G04 #@! TA.AperFunction,SMDPad,CuDef*
G36*
X107302709Y-70866853D02*
G01*
X106527709Y-69524513D01*
X107393735Y-69024513D01*
X108168735Y-70366853D01*
X107302709Y-70866853D01*
G37*
G04 #@! TD.AperFunction*
G04 #@! TA.AperFunction,SMDPad,CuDef*
G36*
X108455465Y-76263487D02*
G01*
X107680465Y-74921147D01*
X108546491Y-74421147D01*
X109321491Y-75763487D01*
X108455465Y-76263487D01*
G37*
G04 #@! TD.AperFunction*
G04 #@! TA.AperFunction,SMDPad,CuDef*
G36*
X109927709Y-75413487D02*
G01*
X109152709Y-74071147D01*
X110018735Y-73571147D01*
X110793735Y-74913487D01*
X109927709Y-75413487D01*
G37*
G04 #@! TD.AperFunction*
G04 #@! TA.AperFunction,SMDPad,CuDef*
G36*
X135854735Y-74921147D02*
G01*
X135079735Y-76263487D01*
X134213709Y-75763487D01*
X134988709Y-74421147D01*
X135854735Y-74921147D01*
G37*
G04 #@! TD.AperFunction*
G04 #@! TA.AperFunction,SMDPad,CuDef*
G36*
X134382491Y-74071147D02*
G01*
X133607491Y-75413487D01*
X132741465Y-74913487D01*
X133516465Y-73571147D01*
X134382491Y-74071147D01*
G37*
G04 #@! TD.AperFunction*
G04 #@! TA.AperFunction,SMDPad,CuDef*
G36*
X138479735Y-70374513D02*
G01*
X137704735Y-71716853D01*
X136838709Y-71216853D01*
X137613709Y-69874513D01*
X138479735Y-70374513D01*
G37*
G04 #@! TD.AperFunction*
G04 #@! TA.AperFunction,SMDPad,CuDef*
G36*
X137007491Y-69524513D02*
G01*
X136232491Y-70866853D01*
X135366465Y-70366853D01*
X136141465Y-69024513D01*
X137007491Y-69524513D01*
G37*
G04 #@! TD.AperFunction*
G04 #@! TA.AperFunction,SMDPad,CuDef*
G36*
G01*
X129874200Y-75623300D02*
X130374200Y-75623300D01*
G75*
G02*
X130599200Y-75848300I0J-225000D01*
G01*
X130599200Y-76298300D01*
G75*
G02*
X130374200Y-76523300I-225000J0D01*
G01*
X129874200Y-76523300D01*
G75*
G02*
X129649200Y-76298300I0J225000D01*
G01*
X129649200Y-75848300D01*
G75*
G02*
X129874200Y-75623300I225000J0D01*
G01*
G37*
G04 #@! TD.AperFunction*
G04 #@! TA.AperFunction,SMDPad,CuDef*
G36*
G01*
X129874200Y-74073300D02*
X130374200Y-74073300D01*
G75*
G02*
X130599200Y-74298300I0J-225000D01*
G01*
X130599200Y-74748300D01*
G75*
G02*
X130374200Y-74973300I-225000J0D01*
G01*
X129874200Y-74973300D01*
G75*
G02*
X129649200Y-74748300I0J225000D01*
G01*
X129649200Y-74298300D01*
G75*
G02*
X129874200Y-74073300I225000J0D01*
G01*
G37*
G04 #@! TD.AperFunction*
D17*
X107670600Y-61468000D03*
X104490931Y-64709115D03*
X108051600Y-74041000D03*
X106654600Y-71755000D03*
X135610600Y-74041000D03*
X136753600Y-71755000D03*
X138277600Y-61722000D03*
X134594600Y-65405000D03*
X130403600Y-77089000D03*
X115036610Y-56642000D03*
X111734600Y-69723000D03*
X127355600Y-73152000D03*
X121513600Y-67691000D03*
X133197600Y-66294000D03*
X109321600Y-62992000D03*
X115544600Y-60325000D03*
X126720600Y-72390000D03*
X123164600Y-66740000D03*
X133197600Y-65024000D03*
X109321600Y-61849000D03*
X115004100Y-58579500D03*
X109321600Y-64008000D03*
X109321600Y-64643000D03*
X109321600Y-65278000D03*
X109321600Y-65913000D03*
X105638600Y-59817000D03*
X134594600Y-61595000D03*
X111099600Y-69215000D03*
X108559600Y-72136000D03*
X115544600Y-67691000D03*
X116941600Y-68199000D03*
X136372600Y-67818000D03*
X120878600Y-71501000D03*
X114782600Y-64897000D03*
X119354600Y-73533000D03*
X114919600Y-66167000D03*
X116306600Y-73279000D03*
X114782600Y-67945000D03*
X114782600Y-73533000D03*
D18*
X107162600Y-60960000D02*
X107670600Y-61468000D01*
X106794600Y-60960000D02*
X107162600Y-60960000D01*
X104952816Y-65171000D02*
X104490931Y-64709115D01*
X105497600Y-65171000D02*
X104952816Y-65171000D01*
X108500978Y-74490378D02*
X108051600Y-74041000D01*
X108500978Y-75342317D02*
X108500978Y-74490378D01*
X105875978Y-70976378D02*
X106654600Y-71755000D01*
X105875978Y-70795683D02*
X105875978Y-70976378D01*
X135034222Y-74617378D02*
X135610600Y-74041000D01*
X135034222Y-75342317D02*
X135034222Y-74617378D01*
X137659222Y-70849378D02*
X136753600Y-71755000D01*
X137659222Y-70795683D02*
X137659222Y-70849378D01*
X138150600Y-61595000D02*
X138277600Y-61722000D01*
X137274600Y-61595000D02*
X138150600Y-61595000D01*
X134707600Y-65518000D02*
X134594600Y-65405000D01*
X135722600Y-65518000D02*
X134707600Y-65518000D01*
X130124200Y-76809600D02*
X130403600Y-77089000D01*
X130124200Y-76073300D02*
X130124200Y-76809600D01*
X112939600Y-56515000D02*
X114909610Y-56515000D01*
X114909610Y-56515000D02*
X115036610Y-56642000D01*
X111742600Y-69715000D02*
X111734600Y-69723000D01*
X113139600Y-69715000D02*
X111742600Y-69715000D01*
X126557598Y-73152000D02*
X127355600Y-73152000D01*
X126095599Y-72690001D02*
X126557598Y-73152000D01*
X126095599Y-62059001D02*
X126095599Y-72690001D01*
X129439600Y-58715000D02*
X126095599Y-62059001D01*
X130539600Y-58715000D02*
X129439600Y-58715000D01*
X136372600Y-66043000D02*
X136372600Y-65518000D01*
X136121600Y-66294000D02*
X136372600Y-66043000D01*
X133197600Y-66294000D02*
X136121600Y-66294000D01*
X108392600Y-63921000D02*
X109321600Y-62992000D01*
X107797600Y-63921000D02*
X108392600Y-63921000D01*
X121513600Y-72962000D02*
X123037600Y-74486000D01*
X121513600Y-67691000D02*
X121513600Y-72962000D01*
X112939600Y-58715000D02*
X113934600Y-58715000D01*
X113934600Y-58715000D02*
X115544600Y-60325000D01*
X121513600Y-67691000D02*
X121513600Y-66294000D01*
X121513600Y-66294000D02*
X115544600Y-60325000D01*
X126720600Y-62534000D02*
X126720600Y-72390000D01*
X129439600Y-59815000D02*
X126720600Y-62534000D01*
X130539600Y-59815000D02*
X129439600Y-59815000D01*
X114039600Y-57615000D02*
X123164600Y-66740000D01*
X136372600Y-64293000D02*
X136372600Y-63768000D01*
X136297599Y-64368001D02*
X136372600Y-64293000D01*
X133853599Y-64368001D02*
X136297599Y-64368001D01*
X133197600Y-65024000D02*
X133853599Y-64368001D01*
X107797600Y-62671000D02*
X108499600Y-62671000D01*
X108499600Y-62671000D02*
X109321600Y-61849000D01*
X114039600Y-57615000D02*
X115004100Y-58579500D01*
X112939600Y-57615000D02*
X114039600Y-57615000D01*
X123164600Y-72962000D02*
X124688600Y-74486000D01*
X123164600Y-66740000D02*
X123164600Y-72962000D01*
X133561978Y-72570683D02*
X136186978Y-69945683D01*
X133561978Y-74492317D02*
X133561978Y-72570683D01*
X135905285Y-69945683D02*
X131274602Y-65315000D01*
X131274602Y-65315000D02*
X130539600Y-65315000D01*
X136186978Y-69945683D02*
X135905285Y-69945683D01*
X130155183Y-74492317D02*
X130124200Y-74523300D01*
X133561978Y-74492317D02*
X130155183Y-74492317D01*
X128523200Y-74523300D02*
X128473200Y-74473300D01*
X130124200Y-74523300D02*
X128523200Y-74523300D01*
X105497600Y-61213000D02*
X105244600Y-60960000D01*
X105497600Y-62671000D02*
X105497600Y-61213000D01*
X105244600Y-60211000D02*
X105638600Y-59817000D01*
X105244600Y-60960000D02*
X105244600Y-60211000D01*
X135797601Y-63167999D02*
X135722600Y-63243000D01*
X136947599Y-63167999D02*
X135797601Y-63167999D01*
X137022600Y-63243000D02*
X136947599Y-63167999D01*
X135722600Y-63243000D02*
X135722600Y-63768000D01*
X137022600Y-63768000D02*
X137022600Y-63243000D01*
X135724600Y-63766000D02*
X135722600Y-63768000D01*
X135724600Y-61595000D02*
X135724600Y-63766000D01*
X135724600Y-61595000D02*
X134594600Y-61595000D01*
X112939600Y-67515000D02*
X112033434Y-67515000D01*
X111099600Y-68448834D02*
X111099600Y-69215000D01*
X112033434Y-67515000D02*
X111099600Y-68448834D01*
X108559600Y-71157061D02*
X107348222Y-69945683D01*
X108559600Y-72136000D02*
X108559600Y-71157061D01*
X108559600Y-73078695D02*
X109973222Y-74492317D01*
X108559600Y-72136000D02*
X108559600Y-73078695D01*
X115544600Y-62420000D02*
X115544600Y-67691000D01*
X114039600Y-60915000D02*
X115544600Y-62420000D01*
X112939600Y-60915000D02*
X114039600Y-60915000D01*
X113973601Y-59815000D02*
X116941600Y-62782999D01*
X116941600Y-62782999D02*
X116941600Y-68199000D01*
X112939600Y-59815000D02*
X113973601Y-59815000D01*
X137022600Y-67168000D02*
X136372600Y-67818000D01*
X137022600Y-65518000D02*
X137022600Y-67168000D01*
X120878600Y-73978000D02*
X120878600Y-71501000D01*
X121386600Y-74486000D02*
X120878600Y-73978000D01*
X112939600Y-68615000D02*
X114472602Y-68615000D01*
X114472602Y-68615000D02*
X117358602Y-71501000D01*
X117358602Y-71501000D02*
X120878600Y-71501000D01*
X113416600Y-74415000D02*
X113416600Y-74915000D01*
X113536600Y-74295000D02*
X113416600Y-74415000D01*
X114531602Y-74295000D02*
X113536600Y-74295000D01*
X114830601Y-74593999D02*
X114531602Y-74295000D01*
X114830601Y-74851001D02*
X114830601Y-74593999D01*
X115291191Y-75311591D02*
X114830601Y-74851001D01*
X116752191Y-75311591D02*
X115291191Y-75311591D01*
X117576600Y-76136000D02*
X116752191Y-75311591D01*
X115337600Y-76136000D02*
X114116600Y-74915000D01*
X115798600Y-76136000D02*
X115337600Y-76136000D01*
X114990600Y-77089000D02*
X114116600Y-76215000D01*
X118401600Y-77089000D02*
X114990600Y-77089000D01*
X119354600Y-76136000D02*
X118401600Y-77089000D01*
X114100600Y-64215000D02*
X114782600Y-64897000D01*
X113139600Y-64215000D02*
X114100600Y-64215000D01*
X119354600Y-73533000D02*
X119354600Y-74486000D01*
X114067600Y-65315000D02*
X114919600Y-66167000D01*
X113139600Y-65315000D02*
X114067600Y-65315000D01*
X116369600Y-73279000D02*
X117576600Y-74486000D01*
X116306600Y-73279000D02*
X116369600Y-73279000D01*
X114782600Y-66958000D02*
X114782600Y-67945000D01*
X114239600Y-66415000D02*
X114782600Y-66958000D01*
X113139600Y-66415000D02*
X114239600Y-66415000D01*
X115798600Y-74486000D02*
X114845600Y-73533000D01*
X114845600Y-73533000D02*
X114782600Y-73533000D01*
D19*
X137123589Y-55936508D02*
X137871404Y-57412722D01*
X138477697Y-58952476D01*
X138937142Y-60542239D01*
X139245700Y-62168039D01*
X139400660Y-63815589D01*
X139400660Y-65470411D01*
X139245700Y-67117961D01*
X138937142Y-68743761D01*
X138561808Y-70042484D01*
X137778000Y-69589953D01*
X137719328Y-69563369D01*
X137656597Y-69548742D01*
X137592219Y-69546635D01*
X137528666Y-69557127D01*
X137468381Y-69579817D01*
X137413681Y-69613831D01*
X137366668Y-69657864D01*
X137329149Y-69710222D01*
X136554149Y-71052562D01*
X136527565Y-71111234D01*
X136512938Y-71173965D01*
X136512870Y-71176054D01*
X136456604Y-71199360D01*
X136353911Y-71267977D01*
X136266577Y-71355311D01*
X136197960Y-71458004D01*
X136150695Y-71572111D01*
X136126600Y-71693246D01*
X136126600Y-71816754D01*
X136150695Y-71937889D01*
X136197960Y-72051996D01*
X136266577Y-72154689D01*
X136353911Y-72242023D01*
X136456604Y-72310640D01*
X136570711Y-72357905D01*
X136691846Y-72382000D01*
X136815354Y-72382000D01*
X136936489Y-72357905D01*
X137050596Y-72310640D01*
X137153289Y-72242023D01*
X137240623Y-72154689D01*
X137309240Y-72051996D01*
X137356505Y-71937889D01*
X137364119Y-71899612D01*
X137540444Y-72001413D01*
X137599116Y-72027997D01*
X137661847Y-72042624D01*
X137726225Y-72044731D01*
X137789778Y-72034239D01*
X137789885Y-72034199D01*
X137123589Y-73349492D01*
X136240826Y-74749194D01*
X136172429Y-74837971D01*
X136172121Y-74836104D01*
X136149431Y-74775819D01*
X136115417Y-74721119D01*
X136071384Y-74674106D01*
X136019026Y-74636587D01*
X135927176Y-74583557D01*
X136010289Y-74528023D01*
X136097623Y-74440689D01*
X136166240Y-74337996D01*
X136213505Y-74223889D01*
X136237600Y-74102754D01*
X136237600Y-73979246D01*
X136213505Y-73858111D01*
X136166240Y-73744004D01*
X136097623Y-73641311D01*
X136010289Y-73553977D01*
X135907596Y-73485360D01*
X135793489Y-73438095D01*
X135672354Y-73414000D01*
X135548846Y-73414000D01*
X135427711Y-73438095D01*
X135313604Y-73485360D01*
X135210911Y-73553977D01*
X135123577Y-73641311D01*
X135054960Y-73744004D01*
X135007695Y-73858111D01*
X134983600Y-73979246D01*
X134983600Y-74028777D01*
X134909594Y-74102782D01*
X134903666Y-74103761D01*
X134843381Y-74126451D01*
X134788681Y-74160465D01*
X134741668Y-74204498D01*
X134704149Y-74256856D01*
X133929149Y-75599196D01*
X133902565Y-75657868D01*
X133887938Y-75720599D01*
X133885831Y-75784977D01*
X133896323Y-75848530D01*
X133919013Y-75908815D01*
X133953027Y-75963515D01*
X133997060Y-76010528D01*
X134049418Y-76048047D01*
X134824832Y-76495732D01*
X134102601Y-77270635D01*
X132865930Y-78370217D01*
X131531727Y-79349163D01*
X130693182Y-79850933D01*
X130693182Y-78512300D01*
X130686868Y-78448197D01*
X130668170Y-78386557D01*
X130637806Y-78329750D01*
X130596943Y-78279957D01*
X130547150Y-78239094D01*
X130490343Y-78208730D01*
X130428703Y-78190032D01*
X130364600Y-78183718D01*
X128664600Y-78183718D01*
X128600497Y-78190032D01*
X128538857Y-78208730D01*
X128482050Y-78239094D01*
X128432257Y-78279957D01*
X128391394Y-78329750D01*
X128361030Y-78386557D01*
X128342332Y-78448197D01*
X128336018Y-78512300D01*
X128336018Y-80212300D01*
X128342332Y-80276403D01*
X128361030Y-80338043D01*
X128391394Y-80394850D01*
X128432257Y-80444643D01*
X128482050Y-80485506D01*
X128538857Y-80515870D01*
X128600497Y-80534568D01*
X128664600Y-80540882D01*
X129395397Y-80540882D01*
X128618377Y-80911874D01*
X127064833Y-81481906D01*
X125464736Y-81903956D01*
X123832149Y-82174316D01*
X122181419Y-82290611D01*
X120527052Y-82251818D01*
X118883587Y-82058277D01*
X117265467Y-81711691D01*
X115686912Y-81215105D01*
X114161794Y-80572882D01*
X114064125Y-80520493D01*
X114158676Y-80539300D01*
X114390524Y-80539300D01*
X114617918Y-80494069D01*
X114832119Y-80405344D01*
X115024894Y-80276536D01*
X115188836Y-80112594D01*
X115317644Y-79919819D01*
X115406369Y-79705618D01*
X115451600Y-79478224D01*
X115451600Y-79246376D01*
X115637600Y-79246376D01*
X115637600Y-79478224D01*
X115682831Y-79705618D01*
X115771556Y-79919819D01*
X115900364Y-80112594D01*
X116064306Y-80276536D01*
X116257081Y-80405344D01*
X116471282Y-80494069D01*
X116698676Y-80539300D01*
X116930524Y-80539300D01*
X117157918Y-80494069D01*
X117372119Y-80405344D01*
X117564894Y-80276536D01*
X117728836Y-80112594D01*
X117857644Y-79919819D01*
X117946369Y-79705618D01*
X117991600Y-79478224D01*
X117991600Y-79246376D01*
X118177600Y-79246376D01*
X118177600Y-79478224D01*
X118222831Y-79705618D01*
X118311556Y-79919819D01*
X118440364Y-80112594D01*
X118604306Y-80276536D01*
X118797081Y-80405344D01*
X119011282Y-80494069D01*
X119238676Y-80539300D01*
X119470524Y-80539300D01*
X119697918Y-80494069D01*
X119912119Y-80405344D01*
X120104894Y-80276536D01*
X120268836Y-80112594D01*
X120397644Y-79919819D01*
X120486369Y-79705618D01*
X120531600Y-79478224D01*
X120531600Y-79246376D01*
X120717600Y-79246376D01*
X120717600Y-79478224D01*
X120762831Y-79705618D01*
X120851556Y-79919819D01*
X120980364Y-80112594D01*
X121144306Y-80276536D01*
X121337081Y-80405344D01*
X121551282Y-80494069D01*
X121778676Y-80539300D01*
X122010524Y-80539300D01*
X122237918Y-80494069D01*
X122452119Y-80405344D01*
X122644894Y-80276536D01*
X122808836Y-80112594D01*
X122937644Y-79919819D01*
X123005864Y-79755121D01*
X123090443Y-79993552D01*
X123239422Y-80243655D01*
X123434331Y-80459888D01*
X123667680Y-80633941D01*
X123930501Y-80759125D01*
X124077710Y-80803776D01*
X124307600Y-80682455D01*
X124307600Y-79489300D01*
X124287600Y-79489300D01*
X124287600Y-79235300D01*
X124307600Y-79235300D01*
X124307600Y-78042145D01*
X124561600Y-78042145D01*
X124561600Y-79235300D01*
X124581600Y-79235300D01*
X124581600Y-79489300D01*
X124561600Y-79489300D01*
X124561600Y-80682455D01*
X124791490Y-80803776D01*
X124938699Y-80759125D01*
X125201520Y-80633941D01*
X125434869Y-80459888D01*
X125629778Y-80243655D01*
X125778757Y-79993552D01*
X125863336Y-79755121D01*
X125931556Y-79919819D01*
X126060364Y-80112594D01*
X126224306Y-80276536D01*
X126417081Y-80405344D01*
X126631282Y-80494069D01*
X126858676Y-80539300D01*
X127090524Y-80539300D01*
X127317918Y-80494069D01*
X127532119Y-80405344D01*
X127724894Y-80276536D01*
X127888836Y-80112594D01*
X128017644Y-79919819D01*
X128106369Y-79705618D01*
X128151600Y-79478224D01*
X128151600Y-79246376D01*
X128106369Y-79018982D01*
X128017644Y-78804781D01*
X127888836Y-78612006D01*
X127724894Y-78448064D01*
X127532119Y-78319256D01*
X127317918Y-78230531D01*
X127090524Y-78185300D01*
X126858676Y-78185300D01*
X126631282Y-78230531D01*
X126417081Y-78319256D01*
X126224306Y-78448064D01*
X126060364Y-78612006D01*
X125931556Y-78804781D01*
X125863336Y-78969479D01*
X125778757Y-78731048D01*
X125629778Y-78480945D01*
X125434869Y-78264712D01*
X125201520Y-78090659D01*
X124938699Y-77965475D01*
X124791490Y-77920824D01*
X124561600Y-78042145D01*
X124307600Y-78042145D01*
X124077710Y-77920824D01*
X123930501Y-77965475D01*
X123667680Y-78090659D01*
X123434331Y-78264712D01*
X123239422Y-78480945D01*
X123090443Y-78731048D01*
X123005864Y-78969479D01*
X122937644Y-78804781D01*
X122808836Y-78612006D01*
X122644894Y-78448064D01*
X122452119Y-78319256D01*
X122237918Y-78230531D01*
X122010524Y-78185300D01*
X121778676Y-78185300D01*
X121551282Y-78230531D01*
X121337081Y-78319256D01*
X121144306Y-78448064D01*
X120980364Y-78612006D01*
X120851556Y-78804781D01*
X120762831Y-79018982D01*
X120717600Y-79246376D01*
X120531600Y-79246376D01*
X120486369Y-79018982D01*
X120397644Y-78804781D01*
X120268836Y-78612006D01*
X120104894Y-78448064D01*
X119912119Y-78319256D01*
X119697918Y-78230531D01*
X119470524Y-78185300D01*
X119238676Y-78185300D01*
X119011282Y-78230531D01*
X118797081Y-78319256D01*
X118604306Y-78448064D01*
X118440364Y-78612006D01*
X118311556Y-78804781D01*
X118222831Y-79018982D01*
X118177600Y-79246376D01*
X117991600Y-79246376D01*
X117946369Y-79018982D01*
X117857644Y-78804781D01*
X117728836Y-78612006D01*
X117564894Y-78448064D01*
X117372119Y-78319256D01*
X117157918Y-78230531D01*
X116930524Y-78185300D01*
X116698676Y-78185300D01*
X116471282Y-78230531D01*
X116257081Y-78319256D01*
X116064306Y-78448064D01*
X115900364Y-78612006D01*
X115771556Y-78804781D01*
X115682831Y-79018982D01*
X115637600Y-79246376D01*
X115451600Y-79246376D01*
X115406369Y-79018982D01*
X115317644Y-78804781D01*
X115188836Y-78612006D01*
X115024894Y-78448064D01*
X114832119Y-78319256D01*
X114617918Y-78230531D01*
X114390524Y-78185300D01*
X114158676Y-78185300D01*
X113931282Y-78230531D01*
X113717081Y-78319256D01*
X113524306Y-78448064D01*
X113360364Y-78612006D01*
X113231556Y-78804781D01*
X113142831Y-79018982D01*
X113097600Y-79246376D01*
X113097600Y-79478224D01*
X113142831Y-79705618D01*
X113231556Y-79919819D01*
X113360364Y-80112594D01*
X113425946Y-80178176D01*
X112703516Y-79790667D01*
X111324894Y-78875333D01*
X110038043Y-77834925D01*
X108854271Y-76678587D01*
X108702875Y-76500058D01*
X108708604Y-76496750D01*
X112581600Y-76496750D01*
X112587552Y-76571934D01*
X112620501Y-76692600D01*
X112676357Y-76804520D01*
X112752975Y-76903392D01*
X112847410Y-76985417D01*
X112956032Y-77047443D01*
X113074668Y-77087086D01*
X113184850Y-77100000D01*
X113343600Y-76941250D01*
X113343600Y-76338000D01*
X112740350Y-76338000D01*
X112581600Y-76496750D01*
X108708604Y-76496750D01*
X109485782Y-76048047D01*
X109538140Y-76010528D01*
X109582173Y-75963515D01*
X109600992Y-75933250D01*
X112581600Y-75933250D01*
X112740350Y-76092000D01*
X113343600Y-76092000D01*
X113343600Y-76068000D01*
X113489600Y-76068000D01*
X113489600Y-76092000D01*
X113563600Y-76092000D01*
X113563600Y-76338000D01*
X113489600Y-76338000D01*
X113489600Y-76941250D01*
X113648350Y-77100000D01*
X113758532Y-77087086D01*
X113877168Y-77047443D01*
X113985790Y-76985417D01*
X114080225Y-76903392D01*
X114117573Y-76855196D01*
X114655281Y-77392905D01*
X114669441Y-77410159D01*
X114738267Y-77466643D01*
X114779513Y-77488689D01*
X114816790Y-77508614D01*
X114901992Y-77534460D01*
X114990600Y-77543187D01*
X115012805Y-77541000D01*
X118379395Y-77541000D01*
X118401600Y-77543187D01*
X118423805Y-77541000D01*
X118490207Y-77534460D01*
X118575410Y-77508614D01*
X118653933Y-77466643D01*
X118722759Y-77410159D01*
X118736923Y-77392900D01*
X119265242Y-76864582D01*
X119629600Y-76864582D01*
X119732721Y-76854425D01*
X119831880Y-76824346D01*
X119923264Y-76775500D01*
X120003364Y-76709764D01*
X120069100Y-76629664D01*
X120117946Y-76538280D01*
X120118637Y-76536000D01*
X120273528Y-76536000D01*
X120285788Y-76660482D01*
X120322098Y-76780180D01*
X120381063Y-76890494D01*
X120460415Y-76987185D01*
X120557106Y-77066537D01*
X120667420Y-77125502D01*
X120787118Y-77161812D01*
X120911600Y-77174072D01*
X121100850Y-77171000D01*
X121259600Y-77012250D01*
X121259600Y-76263000D01*
X121513600Y-76263000D01*
X121513600Y-77012250D01*
X121672350Y-77171000D01*
X121861600Y-77174072D01*
X121986082Y-77161812D01*
X122105780Y-77125502D01*
X122212100Y-77068672D01*
X122318420Y-77125502D01*
X122438118Y-77161812D01*
X122562600Y-77174072D01*
X122751850Y-77171000D01*
X122910600Y-77012250D01*
X122910600Y-76263000D01*
X123164600Y-76263000D01*
X123164600Y-77012250D01*
X123323350Y-77171000D01*
X123512600Y-77174072D01*
X123637082Y-77161812D01*
X123756780Y-77125502D01*
X123863100Y-77068672D01*
X123969420Y-77125502D01*
X124089118Y-77161812D01*
X124213600Y-77174072D01*
X124402850Y-77171000D01*
X124561600Y-77012250D01*
X124561600Y-76263000D01*
X124815600Y-76263000D01*
X124815600Y-77012250D01*
X124974350Y-77171000D01*
X125163600Y-77174072D01*
X125288082Y-77161812D01*
X125407780Y-77125502D01*
X125518094Y-77066537D01*
X125614785Y-76987185D01*
X125694137Y-76890494D01*
X125753102Y-76780180D01*
X125789412Y-76660482D01*
X125801672Y-76536000D01*
X125801331Y-76523300D01*
X127360128Y-76523300D01*
X127372388Y-76647782D01*
X127408698Y-76767480D01*
X127467663Y-76877794D01*
X127547015Y-76974485D01*
X127643706Y-77053837D01*
X127754020Y-77112802D01*
X127873718Y-77149112D01*
X127998200Y-77161372D01*
X128187450Y-77158300D01*
X128346200Y-76999550D01*
X128346200Y-76250300D01*
X127521950Y-76250300D01*
X127363200Y-76409050D01*
X127360128Y-76523300D01*
X125801331Y-76523300D01*
X125798600Y-76421750D01*
X125639850Y-76263000D01*
X124815600Y-76263000D01*
X124561600Y-76263000D01*
X123164600Y-76263000D01*
X122910600Y-76263000D01*
X121513600Y-76263000D01*
X121259600Y-76263000D01*
X120435350Y-76263000D01*
X120276600Y-76421750D01*
X120273528Y-76536000D01*
X120118637Y-76536000D01*
X120148025Y-76439121D01*
X120158182Y-76336000D01*
X120158182Y-75936000D01*
X120148025Y-75832879D01*
X120117946Y-75733720D01*
X120069100Y-75642336D01*
X120003364Y-75562236D01*
X119923264Y-75496500D01*
X119831880Y-75447654D01*
X119732721Y-75417575D01*
X119629600Y-75407418D01*
X119079600Y-75407418D01*
X118976479Y-75417575D01*
X118877320Y-75447654D01*
X118785936Y-75496500D01*
X118705836Y-75562236D01*
X118640100Y-75642336D01*
X118591254Y-75733720D01*
X118561175Y-75832879D01*
X118551018Y-75936000D01*
X118551018Y-76300359D01*
X118351637Y-76499740D01*
X118370025Y-76439121D01*
X118380182Y-76336000D01*
X118380182Y-75936000D01*
X118370025Y-75832879D01*
X118339946Y-75733720D01*
X118291100Y-75642336D01*
X118225364Y-75562236D01*
X118145264Y-75496500D01*
X118053880Y-75447654D01*
X117954721Y-75417575D01*
X117851600Y-75407418D01*
X117487242Y-75407418D01*
X117293620Y-75213796D01*
X117301600Y-75214582D01*
X117851600Y-75214582D01*
X117954721Y-75204425D01*
X118053880Y-75174346D01*
X118145264Y-75125500D01*
X118225364Y-75059764D01*
X118291100Y-74979664D01*
X118339946Y-74888280D01*
X118370025Y-74789121D01*
X118380182Y-74686000D01*
X118380182Y-74286000D01*
X118551018Y-74286000D01*
X118551018Y-74686000D01*
X118561175Y-74789121D01*
X118591254Y-74888280D01*
X118640100Y-74979664D01*
X118705836Y-75059764D01*
X118785936Y-75125500D01*
X118877320Y-75174346D01*
X118976479Y-75204425D01*
X119079600Y-75214582D01*
X119629600Y-75214582D01*
X119732721Y-75204425D01*
X119831880Y-75174346D01*
X119923264Y-75125500D01*
X120003364Y-75059764D01*
X120069100Y-74979664D01*
X120117946Y-74888280D01*
X120148025Y-74789121D01*
X120158182Y-74686000D01*
X120158182Y-74286000D01*
X120148025Y-74182879D01*
X120117946Y-74083720D01*
X120069100Y-73992336D01*
X120003364Y-73912236D01*
X119923264Y-73846500D01*
X119905542Y-73837027D01*
X119910240Y-73829996D01*
X119957505Y-73715889D01*
X119981600Y-73594754D01*
X119981600Y-73471246D01*
X119957505Y-73350111D01*
X119910240Y-73236004D01*
X119841623Y-73133311D01*
X119754289Y-73045977D01*
X119651596Y-72977360D01*
X119537489Y-72930095D01*
X119416354Y-72906000D01*
X119292846Y-72906000D01*
X119171711Y-72930095D01*
X119057604Y-72977360D01*
X118954911Y-73045977D01*
X118867577Y-73133311D01*
X118798960Y-73236004D01*
X118751695Y-73350111D01*
X118727600Y-73471246D01*
X118727600Y-73594754D01*
X118751695Y-73715889D01*
X118798960Y-73829996D01*
X118803658Y-73837027D01*
X118785936Y-73846500D01*
X118705836Y-73912236D01*
X118640100Y-73992336D01*
X118591254Y-74083720D01*
X118561175Y-74182879D01*
X118551018Y-74286000D01*
X118380182Y-74286000D01*
X118370025Y-74182879D01*
X118339946Y-74083720D01*
X118291100Y-73992336D01*
X118225364Y-73912236D01*
X118145264Y-73846500D01*
X118053880Y-73797654D01*
X117954721Y-73767575D01*
X117851600Y-73757418D01*
X117487242Y-73757418D01*
X116930256Y-73200432D01*
X116909505Y-73096111D01*
X116862240Y-72982004D01*
X116793623Y-72879311D01*
X116706289Y-72791977D01*
X116603596Y-72723360D01*
X116489489Y-72676095D01*
X116368354Y-72652000D01*
X116244846Y-72652000D01*
X116123711Y-72676095D01*
X116009604Y-72723360D01*
X115906911Y-72791977D01*
X115819577Y-72879311D01*
X115750960Y-72982004D01*
X115703695Y-73096111D01*
X115679600Y-73217246D01*
X115679600Y-73340754D01*
X115703695Y-73461889D01*
X115750960Y-73575996D01*
X115819577Y-73678689D01*
X115898306Y-73757418D01*
X115709242Y-73757418D01*
X115406256Y-73454432D01*
X115385505Y-73350111D01*
X115338240Y-73236004D01*
X115269623Y-73133311D01*
X115182289Y-73045977D01*
X115079596Y-72977360D01*
X114965489Y-72930095D01*
X114844354Y-72906000D01*
X114720846Y-72906000D01*
X114599711Y-72930095D01*
X114485604Y-72977360D01*
X114382911Y-73045977D01*
X114295577Y-73133311D01*
X114226960Y-73236004D01*
X114179695Y-73350111D01*
X114155600Y-73471246D01*
X114155600Y-73594754D01*
X114179695Y-73715889D01*
X114226960Y-73829996D01*
X114235649Y-73843000D01*
X113558805Y-73843000D01*
X113536600Y-73840813D01*
X113447992Y-73849540D01*
X113432766Y-73854159D01*
X113362790Y-73875386D01*
X113284267Y-73917357D01*
X113215441Y-73973841D01*
X113201277Y-73991100D01*
X113112700Y-74079677D01*
X113095441Y-74093841D01*
X113038957Y-74162668D01*
X113008639Y-74219390D01*
X112996986Y-74241191D01*
X112971140Y-74326393D01*
X112962413Y-74415000D01*
X112964600Y-74437206D01*
X112964600Y-74456610D01*
X112943394Y-74482450D01*
X112913030Y-74539257D01*
X112894332Y-74600897D01*
X112888018Y-74665000D01*
X112888018Y-75165000D01*
X112894332Y-75229103D01*
X112913030Y-75290743D01*
X112943394Y-75347550D01*
X112968660Y-75378337D01*
X112956032Y-75382557D01*
X112847410Y-75444583D01*
X112752975Y-75526608D01*
X112676357Y-75625480D01*
X112620501Y-75737400D01*
X112587552Y-75858066D01*
X112581600Y-75933250D01*
X109600992Y-75933250D01*
X109616187Y-75908815D01*
X109638877Y-75848530D01*
X109649369Y-75784977D01*
X109647262Y-75720599D01*
X109632635Y-75657868D01*
X109606051Y-75599196D01*
X108952962Y-74468012D01*
X108950785Y-74445910D01*
X108946438Y-74401771D01*
X108926795Y-74337015D01*
X109643149Y-75577778D01*
X109680668Y-75630136D01*
X109727681Y-75674169D01*
X109782381Y-75708183D01*
X109842666Y-75730873D01*
X109906219Y-75741365D01*
X109970597Y-75739258D01*
X110033328Y-75724631D01*
X110092000Y-75698047D01*
X110958026Y-75198047D01*
X111010384Y-75160528D01*
X111054417Y-75113515D01*
X111088431Y-75058815D01*
X111111121Y-74998530D01*
X111121613Y-74934977D01*
X111119506Y-74870599D01*
X111104879Y-74807868D01*
X111078295Y-74749196D01*
X110303295Y-73406856D01*
X110265776Y-73354498D01*
X110218763Y-73310465D01*
X110164063Y-73276451D01*
X110103778Y-73253761D01*
X110040225Y-73243269D01*
X109975847Y-73245376D01*
X109913116Y-73260003D01*
X109854444Y-73286587D01*
X109570596Y-73450467D01*
X109011600Y-72891472D01*
X109011600Y-72570712D01*
X109046623Y-72535689D01*
X109115240Y-72432996D01*
X109162505Y-72318889D01*
X109186600Y-72197754D01*
X109186600Y-72074246D01*
X109162505Y-71953111D01*
X109115240Y-71839004D01*
X109046623Y-71736311D01*
X109011600Y-71701288D01*
X109011600Y-71215000D01*
X111651528Y-71215000D01*
X111663788Y-71339482D01*
X111700098Y-71459180D01*
X111759063Y-71569494D01*
X111838415Y-71666185D01*
X111935106Y-71745537D01*
X112045420Y-71804502D01*
X112165118Y-71840812D01*
X112289600Y-71853072D01*
X112853850Y-71850000D01*
X113012600Y-71691250D01*
X113012600Y-70942000D01*
X113266600Y-70942000D01*
X113266600Y-71691250D01*
X113425350Y-71850000D01*
X113989600Y-71853072D01*
X114114082Y-71840812D01*
X114233780Y-71804502D01*
X114344094Y-71745537D01*
X114440785Y-71666185D01*
X114520137Y-71569494D01*
X114579102Y-71459180D01*
X114615412Y-71339482D01*
X114627672Y-71215000D01*
X114624600Y-71100750D01*
X114465850Y-70942000D01*
X113266600Y-70942000D01*
X113012600Y-70942000D01*
X111813350Y-70942000D01*
X111654600Y-71100750D01*
X111651528Y-71215000D01*
X109011600Y-71215000D01*
X109011600Y-71179265D01*
X109013787Y-71157060D01*
X109005060Y-71068453D01*
X108993742Y-71031144D01*
X108979214Y-70983251D01*
X108937243Y-70904728D01*
X108880759Y-70835902D01*
X108863510Y-70821746D01*
X108487189Y-70445426D01*
X108496613Y-70388343D01*
X108494506Y-70323965D01*
X108479879Y-70261234D01*
X108453295Y-70202562D01*
X107847473Y-69153246D01*
X110472600Y-69153246D01*
X110472600Y-69276754D01*
X110496695Y-69397889D01*
X110543960Y-69511996D01*
X110612577Y-69614689D01*
X110699911Y-69702023D01*
X110802604Y-69770640D01*
X110916711Y-69817905D01*
X111037846Y-69842000D01*
X111118987Y-69842000D01*
X111131695Y-69905889D01*
X111178960Y-70019996D01*
X111247577Y-70122689D01*
X111334911Y-70210023D01*
X111437604Y-70278640D01*
X111551711Y-70325905D01*
X111658216Y-70347090D01*
X111651528Y-70415000D01*
X111654600Y-70529250D01*
X111813350Y-70688000D01*
X113012600Y-70688000D01*
X113012600Y-70668000D01*
X113266600Y-70668000D01*
X113266600Y-70688000D01*
X114465850Y-70688000D01*
X114624600Y-70529250D01*
X114627672Y-70415000D01*
X114615412Y-70290518D01*
X114579102Y-70170820D01*
X114520137Y-70060506D01*
X114440785Y-69963815D01*
X114344094Y-69884463D01*
X114318182Y-69870613D01*
X114318182Y-69315000D01*
X114311868Y-69250897D01*
X114293170Y-69189257D01*
X114280204Y-69165000D01*
X114293170Y-69140743D01*
X114308520Y-69090141D01*
X117023288Y-71804911D01*
X117037443Y-71822159D01*
X117106269Y-71878643D01*
X117184792Y-71920614D01*
X117250164Y-71940444D01*
X117269994Y-71946460D01*
X117358601Y-71955187D01*
X117380806Y-71953000D01*
X120426601Y-71953000D01*
X120426600Y-73955795D01*
X120424413Y-73978000D01*
X120433140Y-74066607D01*
X120449698Y-74121190D01*
X120458986Y-74151809D01*
X120500957Y-74230332D01*
X120557441Y-74299159D01*
X120574700Y-74313323D01*
X120583018Y-74321641D01*
X120583018Y-74686000D01*
X120593175Y-74789121D01*
X120623254Y-74888280D01*
X120672100Y-74979664D01*
X120737836Y-75059764D01*
X120797975Y-75109119D01*
X120787118Y-75110188D01*
X120667420Y-75146498D01*
X120557106Y-75205463D01*
X120460415Y-75284815D01*
X120381063Y-75381506D01*
X120322098Y-75491820D01*
X120285788Y-75611518D01*
X120273528Y-75736000D01*
X120276600Y-75850250D01*
X120435350Y-76009000D01*
X121259600Y-76009000D01*
X121259600Y-75989000D01*
X121513600Y-75989000D01*
X121513600Y-76009000D01*
X122910600Y-76009000D01*
X122910600Y-75989000D01*
X123164600Y-75989000D01*
X123164600Y-76009000D01*
X124561600Y-76009000D01*
X124561600Y-75989000D01*
X124815600Y-75989000D01*
X124815600Y-76009000D01*
X125639850Y-76009000D01*
X125798600Y-75850250D01*
X125801672Y-75736000D01*
X125789412Y-75611518D01*
X125753102Y-75491820D01*
X125694137Y-75381506D01*
X125614785Y-75284815D01*
X125518094Y-75205463D01*
X125407780Y-75146498D01*
X125288082Y-75110188D01*
X125277225Y-75109119D01*
X125337364Y-75059764D01*
X125403100Y-74979664D01*
X125451946Y-74888280D01*
X125482025Y-74789121D01*
X125492182Y-74686000D01*
X125492182Y-74286000D01*
X125482025Y-74182879D01*
X125451946Y-74083720D01*
X125403100Y-73992336D01*
X125337364Y-73912236D01*
X125257264Y-73846500D01*
X125165880Y-73797654D01*
X125066721Y-73767575D01*
X124963600Y-73757418D01*
X124599242Y-73757418D01*
X123616600Y-72774777D01*
X123616600Y-67174712D01*
X123651623Y-67139689D01*
X123720240Y-67036996D01*
X123767505Y-66922889D01*
X123791600Y-66801754D01*
X123791600Y-66678246D01*
X123767505Y-66557111D01*
X123720240Y-66443004D01*
X123651623Y-66340311D01*
X123564289Y-66252977D01*
X123461596Y-66184360D01*
X123347489Y-66137095D01*
X123226354Y-66113000D01*
X123176824Y-66113000D01*
X119122825Y-62059001D01*
X125641412Y-62059001D01*
X125643599Y-62081206D01*
X125643600Y-72667786D01*
X125641412Y-72690001D01*
X125650139Y-72778608D01*
X125675985Y-72863810D01*
X125696055Y-72901358D01*
X125717957Y-72942334D01*
X125774441Y-73011160D01*
X125791694Y-73025319D01*
X126222283Y-73455910D01*
X126236439Y-73473159D01*
X126305265Y-73529643D01*
X126383788Y-73571614D01*
X126449160Y-73591444D01*
X126468990Y-73597460D01*
X126557597Y-73606187D01*
X126579802Y-73604000D01*
X126920888Y-73604000D01*
X126955911Y-73639023D01*
X127058604Y-73707640D01*
X127172711Y-73754905D01*
X127293846Y-73779000D01*
X127417354Y-73779000D01*
X127538489Y-73754905D01*
X127652596Y-73707640D01*
X127755289Y-73639023D01*
X127842623Y-73551689D01*
X127911240Y-73448996D01*
X127958505Y-73334889D01*
X127982600Y-73213754D01*
X127982600Y-73090246D01*
X127958505Y-72969111D01*
X127911240Y-72855004D01*
X127842623Y-72752311D01*
X127755289Y-72664977D01*
X127652596Y-72596360D01*
X127538489Y-72549095D01*
X127417354Y-72525000D01*
X127333031Y-72525000D01*
X127347600Y-72451754D01*
X127347600Y-72328246D01*
X127323505Y-72207111D01*
X127276240Y-72093004D01*
X127207623Y-71990311D01*
X127172600Y-71955288D01*
X127172600Y-71215000D01*
X128851528Y-71215000D01*
X128863788Y-71339482D01*
X128900098Y-71459180D01*
X128959063Y-71569494D01*
X129038415Y-71666185D01*
X129135106Y-71745537D01*
X129245420Y-71804502D01*
X129365118Y-71840812D01*
X129489600Y-71853072D01*
X130053850Y-71850000D01*
X130212600Y-71691250D01*
X130212600Y-70942000D01*
X130466600Y-70942000D01*
X130466600Y-71691250D01*
X130625350Y-71850000D01*
X131189600Y-71853072D01*
X131314082Y-71840812D01*
X131433780Y-71804502D01*
X131544094Y-71745537D01*
X131640785Y-71666185D01*
X131720137Y-71569494D01*
X131779102Y-71459180D01*
X131815412Y-71339482D01*
X131827672Y-71215000D01*
X131824600Y-71100750D01*
X131665850Y-70942000D01*
X130466600Y-70942000D01*
X130212600Y-70942000D01*
X129013350Y-70942000D01*
X128854600Y-71100750D01*
X128851528Y-71215000D01*
X127172600Y-71215000D01*
X127172600Y-62721223D01*
X129161018Y-60732806D01*
X129161018Y-61315000D01*
X129167332Y-61379103D01*
X129186030Y-61440743D01*
X129198996Y-61465000D01*
X129186030Y-61489257D01*
X129167332Y-61550897D01*
X129161018Y-61615000D01*
X129161018Y-62415000D01*
X129167332Y-62479103D01*
X129186030Y-62540743D01*
X129198996Y-62565000D01*
X129186030Y-62589257D01*
X129167332Y-62650897D01*
X129161018Y-62715000D01*
X129161018Y-63515000D01*
X129167332Y-63579103D01*
X129186030Y-63640743D01*
X129198996Y-63665000D01*
X129186030Y-63689257D01*
X129167332Y-63750897D01*
X129161018Y-63815000D01*
X129161018Y-64615000D01*
X129167332Y-64679103D01*
X129186030Y-64740743D01*
X129198996Y-64765000D01*
X129186030Y-64789257D01*
X129167332Y-64850897D01*
X129161018Y-64915000D01*
X129161018Y-65715000D01*
X129167332Y-65779103D01*
X129186030Y-65840743D01*
X129198996Y-65865000D01*
X129186030Y-65889257D01*
X129167332Y-65950897D01*
X129161018Y-66015000D01*
X129161018Y-66815000D01*
X129167332Y-66879103D01*
X129186030Y-66940743D01*
X129198996Y-66965000D01*
X129186030Y-66989257D01*
X129167332Y-67050897D01*
X129161018Y-67115000D01*
X129161018Y-67915000D01*
X129167332Y-67979103D01*
X129186030Y-68040743D01*
X129198996Y-68065000D01*
X129186030Y-68089257D01*
X129167332Y-68150897D01*
X129161018Y-68215000D01*
X129161018Y-69015000D01*
X129167332Y-69079103D01*
X129186030Y-69140743D01*
X129198996Y-69165000D01*
X129186030Y-69189257D01*
X129167332Y-69250897D01*
X129161018Y-69315000D01*
X129161018Y-69870613D01*
X129135106Y-69884463D01*
X129038415Y-69963815D01*
X128959063Y-70060506D01*
X128900098Y-70170820D01*
X128863788Y-70290518D01*
X128851528Y-70415000D01*
X128854600Y-70529250D01*
X129013350Y-70688000D01*
X130212600Y-70688000D01*
X130212600Y-70668000D01*
X130466600Y-70668000D01*
X130466600Y-70688000D01*
X131665850Y-70688000D01*
X131824600Y-70529250D01*
X131827672Y-70415000D01*
X131815412Y-70290518D01*
X131779102Y-70170820D01*
X131720137Y-70060506D01*
X131640785Y-69963815D01*
X131544094Y-69884463D01*
X131518182Y-69870613D01*
X131518182Y-69315000D01*
X131511868Y-69250897D01*
X131493170Y-69189257D01*
X131480204Y-69165000D01*
X131493170Y-69140743D01*
X131511868Y-69079103D01*
X131518182Y-69015000D01*
X131518182Y-68215000D01*
X131511868Y-68150897D01*
X131493170Y-68089257D01*
X131480204Y-68065000D01*
X131493170Y-68040743D01*
X131511868Y-67979103D01*
X131518182Y-67915000D01*
X131518182Y-67115000D01*
X131511868Y-67050897D01*
X131493170Y-66989257D01*
X131480204Y-66965000D01*
X131493170Y-66940743D01*
X131511868Y-66879103D01*
X131518182Y-66815000D01*
X131518182Y-66197803D01*
X135243335Y-69922957D01*
X135081905Y-70202562D01*
X135055321Y-70261234D01*
X135040694Y-70323965D01*
X135038587Y-70388343D01*
X135048011Y-70445426D01*
X133258074Y-72235364D01*
X133240820Y-72249524D01*
X133189253Y-72312359D01*
X133184336Y-72318350D01*
X133142364Y-72396874D01*
X133116518Y-72482076D01*
X133107791Y-72570683D01*
X133109979Y-72592898D01*
X133109978Y-73618039D01*
X132866176Y-74040317D01*
X130860983Y-74040317D01*
X130834487Y-73990746D01*
X130765642Y-73906858D01*
X130681754Y-73838013D01*
X130586047Y-73786857D01*
X130482198Y-73755355D01*
X130374200Y-73744718D01*
X129874200Y-73744718D01*
X129766202Y-73755355D01*
X129662353Y-73786857D01*
X129566646Y-73838013D01*
X129482758Y-73906858D01*
X129413913Y-73990746D01*
X129370856Y-74071300D01*
X129236631Y-74071300D01*
X129236546Y-74071020D01*
X129187700Y-73979636D01*
X129121964Y-73899536D01*
X129041864Y-73833800D01*
X128950480Y-73784954D01*
X128851321Y-73754875D01*
X128748200Y-73744718D01*
X128198200Y-73744718D01*
X128095079Y-73754875D01*
X127995920Y-73784954D01*
X127904536Y-73833800D01*
X127824436Y-73899536D01*
X127758700Y-73979636D01*
X127709854Y-74071020D01*
X127679775Y-74170179D01*
X127669618Y-74273300D01*
X127669618Y-74673300D01*
X127679775Y-74776421D01*
X127709854Y-74875580D01*
X127758700Y-74966964D01*
X127824436Y-75047064D01*
X127884575Y-75096419D01*
X127873718Y-75097488D01*
X127754020Y-75133798D01*
X127643706Y-75192763D01*
X127547015Y-75272115D01*
X127467663Y-75368806D01*
X127408698Y-75479120D01*
X127372388Y-75598818D01*
X127360128Y-75723300D01*
X127363200Y-75837550D01*
X127521950Y-75996300D01*
X128346200Y-75996300D01*
X128346200Y-75976300D01*
X128600200Y-75976300D01*
X128600200Y-75996300D01*
X128620200Y-75996300D01*
X128620200Y-76250300D01*
X128600200Y-76250300D01*
X128600200Y-76999550D01*
X128758950Y-77158300D01*
X128948200Y-77161372D01*
X129072682Y-77149112D01*
X129192380Y-77112802D01*
X129302694Y-77053837D01*
X129399385Y-76974485D01*
X129478737Y-76877794D01*
X129537702Y-76767480D01*
X129545631Y-76741341D01*
X129566646Y-76758587D01*
X129662353Y-76809743D01*
X129670263Y-76812143D01*
X129678740Y-76898207D01*
X129704586Y-76983409D01*
X129738813Y-77047443D01*
X129746558Y-77061933D01*
X129776600Y-77098539D01*
X129776600Y-77150754D01*
X129800695Y-77271889D01*
X129847960Y-77385996D01*
X129916577Y-77488689D01*
X130003911Y-77576023D01*
X130106604Y-77644640D01*
X130220711Y-77691905D01*
X130341846Y-77716000D01*
X130465354Y-77716000D01*
X130586489Y-77691905D01*
X130700596Y-77644640D01*
X130803289Y-77576023D01*
X130890623Y-77488689D01*
X130959240Y-77385996D01*
X131006505Y-77271889D01*
X131030600Y-77150754D01*
X131030600Y-77027246D01*
X131006505Y-76906111D01*
X130959240Y-76792004D01*
X130890623Y-76689311D01*
X130822172Y-76620860D01*
X130834487Y-76605854D01*
X130885643Y-76510147D01*
X130917145Y-76406298D01*
X130927782Y-76298300D01*
X130927782Y-75848300D01*
X130917145Y-75740302D01*
X130885643Y-75636453D01*
X130834487Y-75540746D01*
X130765642Y-75456858D01*
X130681754Y-75388013D01*
X130586047Y-75336857D01*
X130482198Y-75305355D01*
X130410568Y-75298300D01*
X130482198Y-75291245D01*
X130586047Y-75259743D01*
X130681754Y-75208587D01*
X130765642Y-75139742D01*
X130834487Y-75055854D01*
X130885643Y-74960147D01*
X130890445Y-74944317D01*
X132415129Y-74944317D01*
X132424079Y-74998530D01*
X132446769Y-75058815D01*
X132480783Y-75113515D01*
X132524816Y-75160528D01*
X132577174Y-75198047D01*
X133443200Y-75698047D01*
X133501872Y-75724631D01*
X133564603Y-75739258D01*
X133628981Y-75741365D01*
X133692534Y-75730873D01*
X133752819Y-75708183D01*
X133807519Y-75674169D01*
X133854532Y-75630136D01*
X133892051Y-75577778D01*
X134667051Y-74235438D01*
X134693635Y-74176766D01*
X134708262Y-74114035D01*
X134710369Y-74049657D01*
X134699877Y-73986104D01*
X134677187Y-73925819D01*
X134643173Y-73871119D01*
X134599140Y-73824106D01*
X134546782Y-73786587D01*
X134013978Y-73478973D01*
X134013978Y-72757906D01*
X135784352Y-70987533D01*
X136068200Y-71151413D01*
X136126872Y-71177997D01*
X136189603Y-71192624D01*
X136253981Y-71194731D01*
X136317534Y-71184239D01*
X136377819Y-71161549D01*
X136432519Y-71127535D01*
X136479532Y-71083502D01*
X136517051Y-71031144D01*
X137292051Y-69688804D01*
X137318635Y-69630132D01*
X137333262Y-69567401D01*
X137335369Y-69503023D01*
X137324877Y-69439470D01*
X137302187Y-69379185D01*
X137268173Y-69324485D01*
X137224140Y-69277472D01*
X137171782Y-69239953D01*
X136305756Y-68739953D01*
X136247084Y-68713369D01*
X136184353Y-68698742D01*
X136119975Y-68696635D01*
X136056422Y-68707127D01*
X135996137Y-68729817D01*
X135941437Y-68763831D01*
X135894424Y-68807864D01*
X135856905Y-68860222D01*
X135711279Y-69112453D01*
X133461977Y-66863151D01*
X133494596Y-66849640D01*
X133597289Y-66781023D01*
X133632312Y-66746000D01*
X136099395Y-66746000D01*
X136121600Y-66748187D01*
X136143805Y-66746000D01*
X136210207Y-66739460D01*
X136295410Y-66713614D01*
X136373933Y-66671643D01*
X136442759Y-66615159D01*
X136456923Y-66597900D01*
X136570601Y-66484222D01*
X136570601Y-66980775D01*
X136360377Y-67191000D01*
X136310846Y-67191000D01*
X136189711Y-67215095D01*
X136075604Y-67262360D01*
X135972911Y-67330977D01*
X135885577Y-67418311D01*
X135816960Y-67521004D01*
X135769695Y-67635111D01*
X135745600Y-67756246D01*
X135745600Y-67879754D01*
X135769695Y-68000889D01*
X135816960Y-68114996D01*
X135885577Y-68217689D01*
X135972911Y-68305023D01*
X136075604Y-68373640D01*
X136189711Y-68420905D01*
X136310846Y-68445000D01*
X136434354Y-68445000D01*
X136555489Y-68420905D01*
X136669596Y-68373640D01*
X136772289Y-68305023D01*
X136859623Y-68217689D01*
X136928240Y-68114996D01*
X136975505Y-68000889D01*
X136999600Y-67879754D01*
X136999600Y-67830223D01*
X137326505Y-67503319D01*
X137343759Y-67489159D01*
X137400243Y-67420333D01*
X137442214Y-67341810D01*
X137450845Y-67313357D01*
X137468060Y-67256608D01*
X137476787Y-67168000D01*
X137474600Y-67145795D01*
X137474600Y-65921680D01*
X137476170Y-65918743D01*
X137494868Y-65857103D01*
X137501182Y-65793000D01*
X137501182Y-65243000D01*
X137494868Y-65178897D01*
X137476170Y-65117257D01*
X137445806Y-65060450D01*
X137404943Y-65010657D01*
X137355150Y-64969794D01*
X137298343Y-64939430D01*
X137236703Y-64920732D01*
X137172600Y-64914418D01*
X136872600Y-64914418D01*
X136808497Y-64920732D01*
X136746857Y-64939430D01*
X136697600Y-64965758D01*
X136648343Y-64939430D01*
X136586703Y-64920732D01*
X136522600Y-64914418D01*
X136222600Y-64914418D01*
X136158497Y-64920732D01*
X136096857Y-64939430D01*
X136047600Y-64965758D01*
X135998343Y-64939430D01*
X135936703Y-64920732D01*
X135872600Y-64914418D01*
X135572600Y-64914418D01*
X135508497Y-64920732D01*
X135446857Y-64939430D01*
X135390050Y-64969794D01*
X135340257Y-65010657D01*
X135299394Y-65060450D01*
X135296427Y-65066000D01*
X135122174Y-65066000D01*
X135081623Y-65005311D01*
X134994289Y-64917977D01*
X134891596Y-64849360D01*
X134820718Y-64820001D01*
X136275394Y-64820001D01*
X136297599Y-64822188D01*
X136319804Y-64820001D01*
X136386206Y-64813461D01*
X136471409Y-64787615D01*
X136549932Y-64745644D01*
X136618758Y-64689160D01*
X136632921Y-64671902D01*
X136662503Y-64642321D01*
X136731401Y-64665253D01*
X136840850Y-64678000D01*
X136999600Y-64519250D01*
X136999600Y-63895000D01*
X137045600Y-63895000D01*
X137045600Y-64519250D01*
X137204350Y-64678000D01*
X137313799Y-64665253D01*
X137432481Y-64625750D01*
X137541176Y-64563853D01*
X137635708Y-64481939D01*
X137712442Y-64383157D01*
X137768430Y-64271303D01*
X137801521Y-64150676D01*
X137807600Y-64053750D01*
X137648850Y-63895000D01*
X137045600Y-63895000D01*
X136999600Y-63895000D01*
X136875600Y-63895000D01*
X136875600Y-63641000D01*
X136999600Y-63641000D01*
X136999600Y-63016750D01*
X137045600Y-63016750D01*
X137045600Y-63641000D01*
X137648850Y-63641000D01*
X137807600Y-63482250D01*
X137801521Y-63385324D01*
X137768430Y-63264697D01*
X137712442Y-63152843D01*
X137635708Y-63054061D01*
X137541176Y-62972147D01*
X137432481Y-62910250D01*
X137313799Y-62870747D01*
X137204350Y-62858000D01*
X137045600Y-63016750D01*
X136999600Y-63016750D01*
X136840850Y-62858000D01*
X136731401Y-62870747D01*
X136612719Y-62910250D01*
X136504024Y-62972147D01*
X136409492Y-63054061D01*
X136372600Y-63101553D01*
X136335708Y-63054061D01*
X136241176Y-62972147D01*
X136132481Y-62910250D01*
X136013799Y-62870747D01*
X135904350Y-62858000D01*
X135745600Y-63016750D01*
X135745600Y-63641000D01*
X135869600Y-63641000D01*
X135869600Y-63895000D01*
X135745600Y-63895000D01*
X135745600Y-63915000D01*
X135699600Y-63915000D01*
X135699600Y-63895000D01*
X135096350Y-63895000D01*
X135075349Y-63916001D01*
X133875804Y-63916001D01*
X133853599Y-63913814D01*
X133764991Y-63922541D01*
X133679789Y-63948387D01*
X133601266Y-63990358D01*
X133532440Y-64046842D01*
X133518280Y-64064096D01*
X133185377Y-64397000D01*
X133135846Y-64397000D01*
X133014711Y-64421095D01*
X132900604Y-64468360D01*
X132797911Y-64536977D01*
X132710577Y-64624311D01*
X132641960Y-64727004D01*
X132594695Y-64841111D01*
X132570600Y-64962246D01*
X132570600Y-65085754D01*
X132594695Y-65206889D01*
X132641960Y-65320996D01*
X132710577Y-65423689D01*
X132797911Y-65511023D01*
X132900604Y-65579640D01*
X133014711Y-65626905D01*
X133135846Y-65651000D01*
X133259354Y-65651000D01*
X133380489Y-65626905D01*
X133494596Y-65579640D01*
X133597289Y-65511023D01*
X133684623Y-65423689D01*
X133753240Y-65320996D01*
X133800505Y-65206889D01*
X133824600Y-65085754D01*
X133824600Y-65036223D01*
X134040823Y-64820001D01*
X134368482Y-64820001D01*
X134297604Y-64849360D01*
X134194911Y-64917977D01*
X134107577Y-65005311D01*
X134038960Y-65108004D01*
X133991695Y-65222111D01*
X133967600Y-65343246D01*
X133967600Y-65466754D01*
X133991695Y-65587889D01*
X134038960Y-65701996D01*
X134107577Y-65804689D01*
X134144888Y-65842000D01*
X133632312Y-65842000D01*
X133597289Y-65806977D01*
X133494596Y-65738360D01*
X133380489Y-65691095D01*
X133259354Y-65667000D01*
X133135846Y-65667000D01*
X133014711Y-65691095D01*
X132900604Y-65738360D01*
X132797911Y-65806977D01*
X132710577Y-65894311D01*
X132641960Y-65997004D01*
X132628449Y-66029623D01*
X131609925Y-65011100D01*
X131595761Y-64993841D01*
X131526935Y-64937357D01*
X131518182Y-64932678D01*
X131518182Y-64915000D01*
X131511868Y-64850897D01*
X131493170Y-64789257D01*
X131480204Y-64765000D01*
X131493170Y-64740743D01*
X131511868Y-64679103D01*
X131518182Y-64615000D01*
X131518182Y-63815000D01*
X131511868Y-63750897D01*
X131493170Y-63689257D01*
X131480204Y-63665000D01*
X131493170Y-63640743D01*
X131511868Y-63579103D01*
X131518182Y-63515000D01*
X131518182Y-63482250D01*
X134937600Y-63482250D01*
X135096350Y-63641000D01*
X135699600Y-63641000D01*
X135699600Y-63016750D01*
X135540850Y-62858000D01*
X135431401Y-62870747D01*
X135312719Y-62910250D01*
X135204024Y-62972147D01*
X135109492Y-63054061D01*
X135032758Y-63152843D01*
X134976770Y-63264697D01*
X134943679Y-63385324D01*
X134937600Y-63482250D01*
X131518182Y-63482250D01*
X131518182Y-62715000D01*
X131511868Y-62650897D01*
X131493170Y-62589257D01*
X131480204Y-62565000D01*
X131493170Y-62540743D01*
X131511868Y-62479103D01*
X131518182Y-62415000D01*
X131518182Y-62070000D01*
X134636528Y-62070000D01*
X134648788Y-62194482D01*
X134685098Y-62314180D01*
X134744063Y-62424494D01*
X134823415Y-62521185D01*
X134920106Y-62600537D01*
X135030420Y-62659502D01*
X135150118Y-62695812D01*
X135274600Y-62708072D01*
X135438850Y-62705000D01*
X135597600Y-62546250D01*
X135597600Y-61722000D01*
X134798350Y-61722000D01*
X134639600Y-61880750D01*
X134636528Y-62070000D01*
X131518182Y-62070000D01*
X131518182Y-61615000D01*
X131511868Y-61550897D01*
X131493170Y-61489257D01*
X131480204Y-61465000D01*
X131493170Y-61440743D01*
X131511868Y-61379103D01*
X131518182Y-61315000D01*
X131518182Y-61120000D01*
X134636528Y-61120000D01*
X134639600Y-61309250D01*
X134798350Y-61468000D01*
X135597600Y-61468000D01*
X135597600Y-60643750D01*
X135851600Y-60643750D01*
X135851600Y-61468000D01*
X135871600Y-61468000D01*
X135871600Y-61722000D01*
X135851600Y-61722000D01*
X135851600Y-62546250D01*
X136010350Y-62705000D01*
X136174600Y-62708072D01*
X136299082Y-62695812D01*
X136418780Y-62659502D01*
X136529094Y-62600537D01*
X136625785Y-62521185D01*
X136705137Y-62424494D01*
X136762898Y-62316433D01*
X136837753Y-62356443D01*
X136941602Y-62387945D01*
X137049600Y-62398582D01*
X137499600Y-62398582D01*
X137607598Y-62387945D01*
X137711447Y-62356443D01*
X137807154Y-62305287D01*
X137891042Y-62236442D01*
X137900925Y-62224400D01*
X137980604Y-62277640D01*
X138094711Y-62324905D01*
X138215846Y-62349000D01*
X138339354Y-62349000D01*
X138460489Y-62324905D01*
X138574596Y-62277640D01*
X138677289Y-62209023D01*
X138764623Y-62121689D01*
X138833240Y-62018996D01*
X138880505Y-61904889D01*
X138904600Y-61783754D01*
X138904600Y-61660246D01*
X138880505Y-61539111D01*
X138833240Y-61425004D01*
X138764623Y-61322311D01*
X138677289Y-61234977D01*
X138574596Y-61166360D01*
X138460489Y-61119095D01*
X138339354Y-61095000D01*
X138215846Y-61095000D01*
X138094711Y-61119095D01*
X138037000Y-61143000D01*
X138014030Y-61143000D01*
X138011043Y-61133153D01*
X137959887Y-61037446D01*
X137891042Y-60953558D01*
X137807154Y-60884713D01*
X137711447Y-60833557D01*
X137607598Y-60802055D01*
X137499600Y-60791418D01*
X137049600Y-60791418D01*
X136941602Y-60802055D01*
X136837753Y-60833557D01*
X136762898Y-60873567D01*
X136705137Y-60765506D01*
X136625785Y-60668815D01*
X136529094Y-60589463D01*
X136418780Y-60530498D01*
X136299082Y-60494188D01*
X136174600Y-60481928D01*
X136010350Y-60485000D01*
X135851600Y-60643750D01*
X135597600Y-60643750D01*
X135438850Y-60485000D01*
X135274600Y-60481928D01*
X135150118Y-60494188D01*
X135030420Y-60530498D01*
X134920106Y-60589463D01*
X134823415Y-60668815D01*
X134744063Y-60765506D01*
X134685098Y-60875820D01*
X134648788Y-60995518D01*
X134636528Y-61120000D01*
X131518182Y-61120000D01*
X131518182Y-60515000D01*
X131511868Y-60450897D01*
X131493170Y-60389257D01*
X131480204Y-60365000D01*
X131493170Y-60340743D01*
X131511868Y-60279103D01*
X131518182Y-60215000D01*
X131518182Y-59415000D01*
X131511868Y-59350897D01*
X131493170Y-59289257D01*
X131480204Y-59265000D01*
X131493170Y-59240743D01*
X131511868Y-59179103D01*
X131518182Y-59115000D01*
X131518182Y-58315000D01*
X131511868Y-58250897D01*
X131493170Y-58189257D01*
X131480204Y-58165000D01*
X131493170Y-58140743D01*
X131511868Y-58079103D01*
X131518182Y-58015000D01*
X131518182Y-57215000D01*
X131511868Y-57150897D01*
X131493170Y-57089257D01*
X131480204Y-57065000D01*
X131493170Y-57040743D01*
X131511868Y-56979103D01*
X131518182Y-56915000D01*
X131518182Y-56115000D01*
X131511868Y-56050897D01*
X131493170Y-55989257D01*
X131462806Y-55932450D01*
X131421943Y-55882657D01*
X131372150Y-55841794D01*
X131315343Y-55811430D01*
X131253703Y-55792732D01*
X131189600Y-55786418D01*
X129489600Y-55786418D01*
X129425497Y-55792732D01*
X129363857Y-55811430D01*
X129307050Y-55841794D01*
X129257257Y-55882657D01*
X129216394Y-55932450D01*
X129186030Y-55989257D01*
X129167332Y-56050897D01*
X129161018Y-56115000D01*
X129161018Y-56915000D01*
X129167332Y-56979103D01*
X129186030Y-57040743D01*
X129198996Y-57065000D01*
X129186030Y-57089257D01*
X129167332Y-57150897D01*
X129161018Y-57215000D01*
X129161018Y-58015000D01*
X129167332Y-58079103D01*
X129186030Y-58140743D01*
X129198996Y-58165000D01*
X129186030Y-58189257D01*
X129167332Y-58250897D01*
X129161018Y-58315000D01*
X129161018Y-58358899D01*
X129118441Y-58393841D01*
X129104281Y-58411095D01*
X125791699Y-61723678D01*
X125774440Y-61737842D01*
X125717956Y-61806669D01*
X125678359Y-61880750D01*
X125675985Y-61885192D01*
X125650139Y-61970394D01*
X125641412Y-62059001D01*
X119122825Y-62059001D01*
X115631100Y-58567277D01*
X115631100Y-58517746D01*
X115607005Y-58396611D01*
X115559740Y-58282504D01*
X115491123Y-58179811D01*
X115403789Y-58092477D01*
X115301096Y-58023860D01*
X115186989Y-57976595D01*
X115065854Y-57952500D01*
X115016324Y-57952500D01*
X114374923Y-57311100D01*
X114360759Y-57293841D01*
X114318182Y-57258899D01*
X114318182Y-57215000D01*
X114311868Y-57150897D01*
X114293170Y-57089257D01*
X114280204Y-57065000D01*
X114293170Y-57040743D01*
X114311868Y-56979103D01*
X114313060Y-56967000D01*
X114499682Y-56967000D01*
X114549587Y-57041689D01*
X114636921Y-57129023D01*
X114739614Y-57197640D01*
X114853721Y-57244905D01*
X114974856Y-57269000D01*
X115098364Y-57269000D01*
X115219499Y-57244905D01*
X115333606Y-57197640D01*
X115436299Y-57129023D01*
X115523633Y-57041689D01*
X115592250Y-56938996D01*
X115639515Y-56824889D01*
X115663610Y-56703754D01*
X115663610Y-56580246D01*
X115639515Y-56459111D01*
X115592250Y-56345004D01*
X115523633Y-56242311D01*
X115436299Y-56154977D01*
X115333606Y-56086360D01*
X115219499Y-56039095D01*
X115098364Y-56015000D01*
X114974856Y-56015000D01*
X114853721Y-56039095D01*
X114796010Y-56063000D01*
X114313060Y-56063000D01*
X114311868Y-56050897D01*
X114293170Y-55989257D01*
X114262806Y-55932450D01*
X114221943Y-55882657D01*
X114172150Y-55841794D01*
X114115343Y-55811430D01*
X114053703Y-55792732D01*
X113989600Y-55786418D01*
X112289600Y-55786418D01*
X112225497Y-55792732D01*
X112163857Y-55811430D01*
X112107050Y-55841794D01*
X112057257Y-55882657D01*
X112016394Y-55932450D01*
X111986030Y-55989257D01*
X111967332Y-56050897D01*
X111961018Y-56115000D01*
X111961018Y-56915000D01*
X111967332Y-56979103D01*
X111986030Y-57040743D01*
X111998996Y-57065000D01*
X111986030Y-57089257D01*
X111967332Y-57150897D01*
X111961018Y-57215000D01*
X111961018Y-58015000D01*
X111967332Y-58079103D01*
X111986030Y-58140743D01*
X111998996Y-58165000D01*
X111986030Y-58189257D01*
X111967332Y-58250897D01*
X111961018Y-58315000D01*
X111961018Y-59115000D01*
X111967332Y-59179103D01*
X111986030Y-59240743D01*
X111998996Y-59265000D01*
X111986030Y-59289257D01*
X111967332Y-59350897D01*
X111961018Y-59415000D01*
X111961018Y-60215000D01*
X111967332Y-60279103D01*
X111986030Y-60340743D01*
X111998996Y-60365000D01*
X111986030Y-60389257D01*
X111967332Y-60450897D01*
X111961018Y-60515000D01*
X111961018Y-61315000D01*
X111967332Y-61379103D01*
X111986030Y-61440743D01*
X111998996Y-61465000D01*
X111986030Y-61489257D01*
X111967332Y-61550897D01*
X111961018Y-61615000D01*
X111961018Y-62415000D01*
X111967332Y-62479103D01*
X111986030Y-62540743D01*
X111998996Y-62565000D01*
X111986030Y-62589257D01*
X111967332Y-62650897D01*
X111961018Y-62715000D01*
X111961018Y-63515000D01*
X111967332Y-63579103D01*
X111986030Y-63640743D01*
X111998996Y-63665000D01*
X111986030Y-63689257D01*
X111967332Y-63750897D01*
X111961018Y-63815000D01*
X111961018Y-64615000D01*
X111967332Y-64679103D01*
X111986030Y-64740743D01*
X111998996Y-64765000D01*
X111986030Y-64789257D01*
X111967332Y-64850897D01*
X111961018Y-64915000D01*
X111961018Y-65715000D01*
X111967332Y-65779103D01*
X111986030Y-65840743D01*
X111998996Y-65865000D01*
X111986030Y-65889257D01*
X111967332Y-65950897D01*
X111961018Y-66015000D01*
X111961018Y-66815000D01*
X111967332Y-66879103D01*
X111986030Y-66940743D01*
X111998996Y-66965000D01*
X111986030Y-66989257D01*
X111967332Y-67050897D01*
X111965698Y-67067484D01*
X111944826Y-67069540D01*
X111883659Y-67088095D01*
X111859624Y-67095386D01*
X111781101Y-67137357D01*
X111712275Y-67193841D01*
X111698115Y-67211095D01*
X110795700Y-68113511D01*
X110778441Y-68127675D01*
X110721957Y-68196502D01*
X110695158Y-68246640D01*
X110679986Y-68275025D01*
X110654140Y-68360227D01*
X110645413Y-68448834D01*
X110647600Y-68471040D01*
X110647600Y-68780288D01*
X110612577Y-68815311D01*
X110543960Y-68918004D01*
X110496695Y-69032111D01*
X110472600Y-69153246D01*
X107847473Y-69153246D01*
X107678295Y-68860222D01*
X107640776Y-68807864D01*
X107593763Y-68763831D01*
X107539063Y-68729817D01*
X107478778Y-68707127D01*
X107415225Y-68696635D01*
X107350847Y-68698742D01*
X107288116Y-68713369D01*
X107229444Y-68739953D01*
X106363418Y-69239953D01*
X106311060Y-69277472D01*
X106267027Y-69324485D01*
X106233013Y-69379185D01*
X106210323Y-69439470D01*
X106199831Y-69503023D01*
X106201938Y-69567401D01*
X106216565Y-69630132D01*
X106243149Y-69688804D01*
X107018149Y-71031144D01*
X107055668Y-71083502D01*
X107102681Y-71127535D01*
X107157381Y-71161549D01*
X107217666Y-71184239D01*
X107281219Y-71194731D01*
X107345597Y-71192624D01*
X107408328Y-71177997D01*
X107467000Y-71151413D01*
X107750848Y-70987533D01*
X108107601Y-71344287D01*
X108107600Y-71701288D01*
X108072577Y-71736311D01*
X108003960Y-71839004D01*
X107956695Y-71953111D01*
X107932600Y-72074246D01*
X107932600Y-72197754D01*
X107956695Y-72318889D01*
X108003960Y-72432996D01*
X108072577Y-72535689D01*
X108107600Y-72570712D01*
X108107601Y-73056480D01*
X108105413Y-73078695D01*
X108114140Y-73167302D01*
X108139986Y-73252504D01*
X108158204Y-73286587D01*
X108181958Y-73331028D01*
X108238442Y-73399854D01*
X108255696Y-73414014D01*
X108311801Y-73470119D01*
X108234489Y-73438095D01*
X108113354Y-73414000D01*
X107989846Y-73414000D01*
X107868711Y-73438095D01*
X107754604Y-73485360D01*
X107651911Y-73553977D01*
X107564577Y-73641311D01*
X107495960Y-73744004D01*
X107448695Y-73858111D01*
X107424600Y-73979246D01*
X107424600Y-74102754D01*
X107448695Y-74223889D01*
X107495960Y-74337996D01*
X107564577Y-74440689D01*
X107651911Y-74528023D01*
X107676155Y-74544222D01*
X107516174Y-74636587D01*
X107463816Y-74674106D01*
X107419783Y-74721119D01*
X107385769Y-74775819D01*
X107368559Y-74821545D01*
X106836582Y-74059693D01*
X106020396Y-72620153D01*
X105758286Y-72036363D01*
X105808975Y-72044731D01*
X105873353Y-72042624D01*
X105936084Y-72027997D01*
X105994756Y-72001413D01*
X106061941Y-71962624D01*
X106098960Y-72051996D01*
X106167577Y-72154689D01*
X106254911Y-72242023D01*
X106357604Y-72310640D01*
X106471711Y-72357905D01*
X106592846Y-72382000D01*
X106716354Y-72382000D01*
X106837489Y-72357905D01*
X106951596Y-72310640D01*
X107054289Y-72242023D01*
X107141623Y-72154689D01*
X107210240Y-72051996D01*
X107257505Y-71937889D01*
X107281600Y-71816754D01*
X107281600Y-71693246D01*
X107257505Y-71572111D01*
X107210240Y-71458004D01*
X107141623Y-71355311D01*
X107054289Y-71267977D01*
X107022935Y-71247027D01*
X107024369Y-71238343D01*
X107022262Y-71173965D01*
X107007635Y-71111234D01*
X106981051Y-71052562D01*
X106206051Y-69710222D01*
X106168532Y-69657864D01*
X106121519Y-69613831D01*
X106066819Y-69579817D01*
X106006534Y-69557127D01*
X105942981Y-69546635D01*
X105878603Y-69548742D01*
X105815872Y-69563369D01*
X105757200Y-69589953D01*
X104977984Y-70039833D01*
X104809141Y-69544030D01*
X104424717Y-67934479D01*
X104192703Y-66296003D01*
X104142707Y-65230526D01*
X104193935Y-65264755D01*
X104308042Y-65312020D01*
X104429177Y-65336115D01*
X104444018Y-65336115D01*
X104444018Y-65546000D01*
X104450332Y-65610103D01*
X104469030Y-65671743D01*
X104499394Y-65728550D01*
X104540257Y-65778343D01*
X104561773Y-65796000D01*
X104540257Y-65813657D01*
X104499394Y-65863450D01*
X104469030Y-65920257D01*
X104450332Y-65981897D01*
X104444018Y-66046000D01*
X104444018Y-66796000D01*
X104450332Y-66860103D01*
X104469030Y-66921743D01*
X104499394Y-66978550D01*
X104540257Y-67028343D01*
X104590050Y-67069206D01*
X104646857Y-67099570D01*
X104708497Y-67118268D01*
X104772600Y-67124582D01*
X106222600Y-67124582D01*
X106286703Y-67118268D01*
X106348343Y-67099570D01*
X106405150Y-67069206D01*
X106454943Y-67028343D01*
X106495806Y-66978550D01*
X106526170Y-66921743D01*
X106544868Y-66860103D01*
X106551182Y-66796000D01*
X106551182Y-66046000D01*
X106544868Y-65981897D01*
X106526170Y-65920257D01*
X106495806Y-65863450D01*
X106454943Y-65813657D01*
X106433427Y-65796000D01*
X106454943Y-65778343D01*
X106495806Y-65728550D01*
X106526170Y-65671743D01*
X106544868Y-65610103D01*
X106551182Y-65546000D01*
X106551182Y-64796000D01*
X106544868Y-64731897D01*
X106526170Y-64670257D01*
X106495806Y-64613450D01*
X106454943Y-64563657D01*
X106433427Y-64546000D01*
X106454943Y-64528343D01*
X106495806Y-64478550D01*
X106526170Y-64421743D01*
X106544868Y-64360103D01*
X106551182Y-64296000D01*
X106551182Y-63590387D01*
X106577094Y-63576537D01*
X106673785Y-63497185D01*
X106753137Y-63400494D01*
X106812102Y-63290180D01*
X106822322Y-63256489D01*
X106840257Y-63278343D01*
X106861773Y-63296000D01*
X106840257Y-63313657D01*
X106799394Y-63363450D01*
X106769030Y-63420257D01*
X106750332Y-63481897D01*
X106744018Y-63546000D01*
X106744018Y-64296000D01*
X106750332Y-64360103D01*
X106769030Y-64421743D01*
X106799394Y-64478550D01*
X106840257Y-64528343D01*
X106861773Y-64546000D01*
X106840257Y-64563657D01*
X106799394Y-64613450D01*
X106769030Y-64670257D01*
X106750332Y-64731897D01*
X106744018Y-64796000D01*
X106744018Y-65546000D01*
X106750332Y-65610103D01*
X106769030Y-65671743D01*
X106799394Y-65728550D01*
X106840257Y-65778343D01*
X106861773Y-65796000D01*
X106840257Y-65813657D01*
X106799394Y-65863450D01*
X106769030Y-65920257D01*
X106750332Y-65981897D01*
X106744018Y-66046000D01*
X106744018Y-66796000D01*
X106750332Y-66860103D01*
X106769030Y-66921743D01*
X106799394Y-66978550D01*
X106840257Y-67028343D01*
X106890050Y-67069206D01*
X106946857Y-67099570D01*
X107008497Y-67118268D01*
X107072600Y-67124582D01*
X108522600Y-67124582D01*
X108586703Y-67118268D01*
X108648343Y-67099570D01*
X108705150Y-67069206D01*
X108754943Y-67028343D01*
X108795806Y-66978550D01*
X108826170Y-66921743D01*
X108844868Y-66860103D01*
X108851182Y-66796000D01*
X108851182Y-66046000D01*
X108844868Y-65981897D01*
X108826170Y-65920257D01*
X108795806Y-65863450D01*
X108754943Y-65813657D01*
X108733427Y-65796000D01*
X108754943Y-65778343D01*
X108795806Y-65728550D01*
X108826170Y-65671743D01*
X108844868Y-65610103D01*
X108851182Y-65546000D01*
X108851182Y-64796000D01*
X108844868Y-64731897D01*
X108826170Y-64670257D01*
X108795806Y-64613450D01*
X108754943Y-64563657D01*
X108733427Y-64546000D01*
X108754943Y-64528343D01*
X108795806Y-64478550D01*
X108826170Y-64421743D01*
X108844868Y-64360103D01*
X108851182Y-64296000D01*
X108851182Y-64101641D01*
X109333824Y-63619000D01*
X109383354Y-63619000D01*
X109504489Y-63594905D01*
X109618596Y-63547640D01*
X109721289Y-63479023D01*
X109808623Y-63391689D01*
X109877240Y-63288996D01*
X109924505Y-63174889D01*
X109948600Y-63053754D01*
X109948600Y-62930246D01*
X109924505Y-62809111D01*
X109877240Y-62695004D01*
X109808623Y-62592311D01*
X109721289Y-62504977D01*
X109618596Y-62436360D01*
X109580307Y-62420500D01*
X109618596Y-62404640D01*
X109721289Y-62336023D01*
X109808623Y-62248689D01*
X109877240Y-62145996D01*
X109924505Y-62031889D01*
X109948600Y-61910754D01*
X109948600Y-61787246D01*
X109924505Y-61666111D01*
X109877240Y-61552004D01*
X109808623Y-61449311D01*
X109721289Y-61361977D01*
X109618596Y-61293360D01*
X109504489Y-61246095D01*
X109383354Y-61222000D01*
X109259846Y-61222000D01*
X109138711Y-61246095D01*
X109024604Y-61293360D01*
X108921911Y-61361977D01*
X108834577Y-61449311D01*
X108765960Y-61552004D01*
X108718695Y-61666111D01*
X108694600Y-61787246D01*
X108694600Y-61836776D01*
X108560250Y-61971126D01*
X108522600Y-61967418D01*
X108051738Y-61967418D01*
X108070289Y-61955023D01*
X108157623Y-61867689D01*
X108226240Y-61764996D01*
X108273505Y-61650889D01*
X108297600Y-61529754D01*
X108297600Y-61406246D01*
X108273505Y-61285111D01*
X108226240Y-61171004D01*
X108157623Y-61068311D01*
X108070289Y-60980977D01*
X107967596Y-60912360D01*
X107853489Y-60865095D01*
X107732354Y-60841000D01*
X107682824Y-60841000D01*
X107573182Y-60731359D01*
X107573182Y-60710000D01*
X107562545Y-60602002D01*
X107531043Y-60498153D01*
X107479887Y-60402446D01*
X107411042Y-60318558D01*
X107327154Y-60249713D01*
X107231447Y-60198557D01*
X107127598Y-60167055D01*
X107019600Y-60156418D01*
X106569600Y-60156418D01*
X106461602Y-60167055D01*
X106357753Y-60198557D01*
X106282898Y-60238567D01*
X106225137Y-60130506D01*
X106145785Y-60033815D01*
X106049094Y-59954463D01*
X105938780Y-59895498D01*
X105819082Y-59859188D01*
X105694600Y-59846928D01*
X105530350Y-59850000D01*
X105371600Y-60008750D01*
X105371600Y-60833000D01*
X105391600Y-60833000D01*
X105391600Y-61087000D01*
X105371600Y-61087000D01*
X105371600Y-61107000D01*
X105117600Y-61107000D01*
X105117600Y-61087000D01*
X105097600Y-61087000D01*
X105097600Y-60833000D01*
X105117600Y-60833000D01*
X105117600Y-60008750D01*
X104958850Y-59850000D01*
X104794600Y-59846928D01*
X104783819Y-59847990D01*
X104809141Y-59741970D01*
X105342597Y-58175490D01*
X106020396Y-56665847D01*
X106537959Y-55753000D01*
X137007854Y-55753000D01*
X137123589Y-55936508D01*
G04 #@! TA.AperFunction,Conductor*
D20*
G36*
X137123589Y-55936508D02*
G01*
X137871404Y-57412722D01*
X138477697Y-58952476D01*
X138937142Y-60542239D01*
X139245700Y-62168039D01*
X139400660Y-63815589D01*
X139400660Y-65470411D01*
X139245700Y-67117961D01*
X138937142Y-68743761D01*
X138561808Y-70042484D01*
X137778000Y-69589953D01*
X137719328Y-69563369D01*
X137656597Y-69548742D01*
X137592219Y-69546635D01*
X137528666Y-69557127D01*
X137468381Y-69579817D01*
X137413681Y-69613831D01*
X137366668Y-69657864D01*
X137329149Y-69710222D01*
X136554149Y-71052562D01*
X136527565Y-71111234D01*
X136512938Y-71173965D01*
X136512870Y-71176054D01*
X136456604Y-71199360D01*
X136353911Y-71267977D01*
X136266577Y-71355311D01*
X136197960Y-71458004D01*
X136150695Y-71572111D01*
X136126600Y-71693246D01*
X136126600Y-71816754D01*
X136150695Y-71937889D01*
X136197960Y-72051996D01*
X136266577Y-72154689D01*
X136353911Y-72242023D01*
X136456604Y-72310640D01*
X136570711Y-72357905D01*
X136691846Y-72382000D01*
X136815354Y-72382000D01*
X136936489Y-72357905D01*
X137050596Y-72310640D01*
X137153289Y-72242023D01*
X137240623Y-72154689D01*
X137309240Y-72051996D01*
X137356505Y-71937889D01*
X137364119Y-71899612D01*
X137540444Y-72001413D01*
X137599116Y-72027997D01*
X137661847Y-72042624D01*
X137726225Y-72044731D01*
X137789778Y-72034239D01*
X137789885Y-72034199D01*
X137123589Y-73349492D01*
X136240826Y-74749194D01*
X136172429Y-74837971D01*
X136172121Y-74836104D01*
X136149431Y-74775819D01*
X136115417Y-74721119D01*
X136071384Y-74674106D01*
X136019026Y-74636587D01*
X135927176Y-74583557D01*
X136010289Y-74528023D01*
X136097623Y-74440689D01*
X136166240Y-74337996D01*
X136213505Y-74223889D01*
X136237600Y-74102754D01*
X136237600Y-73979246D01*
X136213505Y-73858111D01*
X136166240Y-73744004D01*
X136097623Y-73641311D01*
X136010289Y-73553977D01*
X135907596Y-73485360D01*
X135793489Y-73438095D01*
X135672354Y-73414000D01*
X135548846Y-73414000D01*
X135427711Y-73438095D01*
X135313604Y-73485360D01*
X135210911Y-73553977D01*
X135123577Y-73641311D01*
X135054960Y-73744004D01*
X135007695Y-73858111D01*
X134983600Y-73979246D01*
X134983600Y-74028777D01*
X134909594Y-74102782D01*
X134903666Y-74103761D01*
X134843381Y-74126451D01*
X134788681Y-74160465D01*
X134741668Y-74204498D01*
X134704149Y-74256856D01*
X133929149Y-75599196D01*
X133902565Y-75657868D01*
X133887938Y-75720599D01*
X133885831Y-75784977D01*
X133896323Y-75848530D01*
X133919013Y-75908815D01*
X133953027Y-75963515D01*
X133997060Y-76010528D01*
X134049418Y-76048047D01*
X134824832Y-76495732D01*
X134102601Y-77270635D01*
X132865930Y-78370217D01*
X131531727Y-79349163D01*
X130693182Y-79850933D01*
X130693182Y-78512300D01*
X130686868Y-78448197D01*
X130668170Y-78386557D01*
X130637806Y-78329750D01*
X130596943Y-78279957D01*
X130547150Y-78239094D01*
X130490343Y-78208730D01*
X130428703Y-78190032D01*
X130364600Y-78183718D01*
X128664600Y-78183718D01*
X128600497Y-78190032D01*
X128538857Y-78208730D01*
X128482050Y-78239094D01*
X128432257Y-78279957D01*
X128391394Y-78329750D01*
X128361030Y-78386557D01*
X128342332Y-78448197D01*
X128336018Y-78512300D01*
X128336018Y-80212300D01*
X128342332Y-80276403D01*
X128361030Y-80338043D01*
X128391394Y-80394850D01*
X128432257Y-80444643D01*
X128482050Y-80485506D01*
X128538857Y-80515870D01*
X128600497Y-80534568D01*
X128664600Y-80540882D01*
X129395397Y-80540882D01*
X128618377Y-80911874D01*
X127064833Y-81481906D01*
X125464736Y-81903956D01*
X123832149Y-82174316D01*
X122181419Y-82290611D01*
X120527052Y-82251818D01*
X118883587Y-82058277D01*
X117265467Y-81711691D01*
X115686912Y-81215105D01*
X114161794Y-80572882D01*
X114064125Y-80520493D01*
X114158676Y-80539300D01*
X114390524Y-80539300D01*
X114617918Y-80494069D01*
X114832119Y-80405344D01*
X115024894Y-80276536D01*
X115188836Y-80112594D01*
X115317644Y-79919819D01*
X115406369Y-79705618D01*
X115451600Y-79478224D01*
X115451600Y-79246376D01*
X115637600Y-79246376D01*
X115637600Y-79478224D01*
X115682831Y-79705618D01*
X115771556Y-79919819D01*
X115900364Y-80112594D01*
X116064306Y-80276536D01*
X116257081Y-80405344D01*
X116471282Y-80494069D01*
X116698676Y-80539300D01*
X116930524Y-80539300D01*
X117157918Y-80494069D01*
X117372119Y-80405344D01*
X117564894Y-80276536D01*
X117728836Y-80112594D01*
X117857644Y-79919819D01*
X117946369Y-79705618D01*
X117991600Y-79478224D01*
X117991600Y-79246376D01*
X118177600Y-79246376D01*
X118177600Y-79478224D01*
X118222831Y-79705618D01*
X118311556Y-79919819D01*
X118440364Y-80112594D01*
X118604306Y-80276536D01*
X118797081Y-80405344D01*
X119011282Y-80494069D01*
X119238676Y-80539300D01*
X119470524Y-80539300D01*
X119697918Y-80494069D01*
X119912119Y-80405344D01*
X120104894Y-80276536D01*
X120268836Y-80112594D01*
X120397644Y-79919819D01*
X120486369Y-79705618D01*
X120531600Y-79478224D01*
X120531600Y-79246376D01*
X120717600Y-79246376D01*
X120717600Y-79478224D01*
X120762831Y-79705618D01*
X120851556Y-79919819D01*
X120980364Y-80112594D01*
X121144306Y-80276536D01*
X121337081Y-80405344D01*
X121551282Y-80494069D01*
X121778676Y-80539300D01*
X122010524Y-80539300D01*
X122237918Y-80494069D01*
X122452119Y-80405344D01*
X122644894Y-80276536D01*
X122808836Y-80112594D01*
X122937644Y-79919819D01*
X123005864Y-79755121D01*
X123090443Y-79993552D01*
X123239422Y-80243655D01*
X123434331Y-80459888D01*
X123667680Y-80633941D01*
X123930501Y-80759125D01*
X124077710Y-80803776D01*
X124307600Y-80682455D01*
X124307600Y-79489300D01*
X124287600Y-79489300D01*
X124287600Y-79235300D01*
X124307600Y-79235300D01*
X124307600Y-78042145D01*
X124561600Y-78042145D01*
X124561600Y-79235300D01*
X124581600Y-79235300D01*
X124581600Y-79489300D01*
X124561600Y-79489300D01*
X124561600Y-80682455D01*
X124791490Y-80803776D01*
X124938699Y-80759125D01*
X125201520Y-80633941D01*
X125434869Y-80459888D01*
X125629778Y-80243655D01*
X125778757Y-79993552D01*
X125863336Y-79755121D01*
X125931556Y-79919819D01*
X126060364Y-80112594D01*
X126224306Y-80276536D01*
X126417081Y-80405344D01*
X126631282Y-80494069D01*
X126858676Y-80539300D01*
X127090524Y-80539300D01*
X127317918Y-80494069D01*
X127532119Y-80405344D01*
X127724894Y-80276536D01*
X127888836Y-80112594D01*
X128017644Y-79919819D01*
X128106369Y-79705618D01*
X128151600Y-79478224D01*
X128151600Y-79246376D01*
X128106369Y-79018982D01*
X128017644Y-78804781D01*
X127888836Y-78612006D01*
X127724894Y-78448064D01*
X127532119Y-78319256D01*
X127317918Y-78230531D01*
X127090524Y-78185300D01*
X126858676Y-78185300D01*
X126631282Y-78230531D01*
X126417081Y-78319256D01*
X126224306Y-78448064D01*
X126060364Y-78612006D01*
X125931556Y-78804781D01*
X125863336Y-78969479D01*
X125778757Y-78731048D01*
X125629778Y-78480945D01*
X125434869Y-78264712D01*
X125201520Y-78090659D01*
X124938699Y-77965475D01*
X124791490Y-77920824D01*
X124561600Y-78042145D01*
X124307600Y-78042145D01*
X124077710Y-77920824D01*
X123930501Y-77965475D01*
X123667680Y-78090659D01*
X123434331Y-78264712D01*
X123239422Y-78480945D01*
X123090443Y-78731048D01*
X123005864Y-78969479D01*
X122937644Y-78804781D01*
X122808836Y-78612006D01*
X122644894Y-78448064D01*
X122452119Y-78319256D01*
X122237918Y-78230531D01*
X122010524Y-78185300D01*
X121778676Y-78185300D01*
X121551282Y-78230531D01*
X121337081Y-78319256D01*
X121144306Y-78448064D01*
X120980364Y-78612006D01*
X120851556Y-78804781D01*
X120762831Y-79018982D01*
X120717600Y-79246376D01*
X120531600Y-79246376D01*
X120486369Y-79018982D01*
X120397644Y-78804781D01*
X120268836Y-78612006D01*
X120104894Y-78448064D01*
X119912119Y-78319256D01*
X119697918Y-78230531D01*
X119470524Y-78185300D01*
X119238676Y-78185300D01*
X119011282Y-78230531D01*
X118797081Y-78319256D01*
X118604306Y-78448064D01*
X118440364Y-78612006D01*
X118311556Y-78804781D01*
X118222831Y-79018982D01*
X118177600Y-79246376D01*
X117991600Y-79246376D01*
X117946369Y-79018982D01*
X117857644Y-78804781D01*
X117728836Y-78612006D01*
X117564894Y-78448064D01*
X117372119Y-78319256D01*
X117157918Y-78230531D01*
X116930524Y-78185300D01*
X116698676Y-78185300D01*
X116471282Y-78230531D01*
X116257081Y-78319256D01*
X116064306Y-78448064D01*
X115900364Y-78612006D01*
X115771556Y-78804781D01*
X115682831Y-79018982D01*
X115637600Y-79246376D01*
X115451600Y-79246376D01*
X115406369Y-79018982D01*
X115317644Y-78804781D01*
X115188836Y-78612006D01*
X115024894Y-78448064D01*
X114832119Y-78319256D01*
X114617918Y-78230531D01*
X114390524Y-78185300D01*
X114158676Y-78185300D01*
X113931282Y-78230531D01*
X113717081Y-78319256D01*
X113524306Y-78448064D01*
X113360364Y-78612006D01*
X113231556Y-78804781D01*
X113142831Y-79018982D01*
X113097600Y-79246376D01*
X113097600Y-79478224D01*
X113142831Y-79705618D01*
X113231556Y-79919819D01*
X113360364Y-80112594D01*
X113425946Y-80178176D01*
X112703516Y-79790667D01*
X111324894Y-78875333D01*
X110038043Y-77834925D01*
X108854271Y-76678587D01*
X108702875Y-76500058D01*
X108708604Y-76496750D01*
X112581600Y-76496750D01*
X112587552Y-76571934D01*
X112620501Y-76692600D01*
X112676357Y-76804520D01*
X112752975Y-76903392D01*
X112847410Y-76985417D01*
X112956032Y-77047443D01*
X113074668Y-77087086D01*
X113184850Y-77100000D01*
X113343600Y-76941250D01*
X113343600Y-76338000D01*
X112740350Y-76338000D01*
X112581600Y-76496750D01*
X108708604Y-76496750D01*
X109485782Y-76048047D01*
X109538140Y-76010528D01*
X109582173Y-75963515D01*
X109600992Y-75933250D01*
X112581600Y-75933250D01*
X112740350Y-76092000D01*
X113343600Y-76092000D01*
X113343600Y-76068000D01*
X113489600Y-76068000D01*
X113489600Y-76092000D01*
X113563600Y-76092000D01*
X113563600Y-76338000D01*
X113489600Y-76338000D01*
X113489600Y-76941250D01*
X113648350Y-77100000D01*
X113758532Y-77087086D01*
X113877168Y-77047443D01*
X113985790Y-76985417D01*
X114080225Y-76903392D01*
X114117573Y-76855196D01*
X114655281Y-77392905D01*
X114669441Y-77410159D01*
X114738267Y-77466643D01*
X114779513Y-77488689D01*
X114816790Y-77508614D01*
X114901992Y-77534460D01*
X114990600Y-77543187D01*
X115012805Y-77541000D01*
X118379395Y-77541000D01*
X118401600Y-77543187D01*
X118423805Y-77541000D01*
X118490207Y-77534460D01*
X118575410Y-77508614D01*
X118653933Y-77466643D01*
X118722759Y-77410159D01*
X118736923Y-77392900D01*
X119265242Y-76864582D01*
X119629600Y-76864582D01*
X119732721Y-76854425D01*
X119831880Y-76824346D01*
X119923264Y-76775500D01*
X120003364Y-76709764D01*
X120069100Y-76629664D01*
X120117946Y-76538280D01*
X120118637Y-76536000D01*
X120273528Y-76536000D01*
X120285788Y-76660482D01*
X120322098Y-76780180D01*
X120381063Y-76890494D01*
X120460415Y-76987185D01*
X120557106Y-77066537D01*
X120667420Y-77125502D01*
X120787118Y-77161812D01*
X120911600Y-77174072D01*
X121100850Y-77171000D01*
X121259600Y-77012250D01*
X121259600Y-76263000D01*
X121513600Y-76263000D01*
X121513600Y-77012250D01*
X121672350Y-77171000D01*
X121861600Y-77174072D01*
X121986082Y-77161812D01*
X122105780Y-77125502D01*
X122212100Y-77068672D01*
X122318420Y-77125502D01*
X122438118Y-77161812D01*
X122562600Y-77174072D01*
X122751850Y-77171000D01*
X122910600Y-77012250D01*
X122910600Y-76263000D01*
X123164600Y-76263000D01*
X123164600Y-77012250D01*
X123323350Y-77171000D01*
X123512600Y-77174072D01*
X123637082Y-77161812D01*
X123756780Y-77125502D01*
X123863100Y-77068672D01*
X123969420Y-77125502D01*
X124089118Y-77161812D01*
X124213600Y-77174072D01*
X124402850Y-77171000D01*
X124561600Y-77012250D01*
X124561600Y-76263000D01*
X124815600Y-76263000D01*
X124815600Y-77012250D01*
X124974350Y-77171000D01*
X125163600Y-77174072D01*
X125288082Y-77161812D01*
X125407780Y-77125502D01*
X125518094Y-77066537D01*
X125614785Y-76987185D01*
X125694137Y-76890494D01*
X125753102Y-76780180D01*
X125789412Y-76660482D01*
X125801672Y-76536000D01*
X125801331Y-76523300D01*
X127360128Y-76523300D01*
X127372388Y-76647782D01*
X127408698Y-76767480D01*
X127467663Y-76877794D01*
X127547015Y-76974485D01*
X127643706Y-77053837D01*
X127754020Y-77112802D01*
X127873718Y-77149112D01*
X127998200Y-77161372D01*
X128187450Y-77158300D01*
X128346200Y-76999550D01*
X128346200Y-76250300D01*
X127521950Y-76250300D01*
X127363200Y-76409050D01*
X127360128Y-76523300D01*
X125801331Y-76523300D01*
X125798600Y-76421750D01*
X125639850Y-76263000D01*
X124815600Y-76263000D01*
X124561600Y-76263000D01*
X123164600Y-76263000D01*
X122910600Y-76263000D01*
X121513600Y-76263000D01*
X121259600Y-76263000D01*
X120435350Y-76263000D01*
X120276600Y-76421750D01*
X120273528Y-76536000D01*
X120118637Y-76536000D01*
X120148025Y-76439121D01*
X120158182Y-76336000D01*
X120158182Y-75936000D01*
X120148025Y-75832879D01*
X120117946Y-75733720D01*
X120069100Y-75642336D01*
X120003364Y-75562236D01*
X119923264Y-75496500D01*
X119831880Y-75447654D01*
X119732721Y-75417575D01*
X119629600Y-75407418D01*
X119079600Y-75407418D01*
X118976479Y-75417575D01*
X118877320Y-75447654D01*
X118785936Y-75496500D01*
X118705836Y-75562236D01*
X118640100Y-75642336D01*
X118591254Y-75733720D01*
X118561175Y-75832879D01*
X118551018Y-75936000D01*
X118551018Y-76300359D01*
X118351637Y-76499740D01*
X118370025Y-76439121D01*
X118380182Y-76336000D01*
X118380182Y-75936000D01*
X118370025Y-75832879D01*
X118339946Y-75733720D01*
X118291100Y-75642336D01*
X118225364Y-75562236D01*
X118145264Y-75496500D01*
X118053880Y-75447654D01*
X117954721Y-75417575D01*
X117851600Y-75407418D01*
X117487242Y-75407418D01*
X117293620Y-75213796D01*
X117301600Y-75214582D01*
X117851600Y-75214582D01*
X117954721Y-75204425D01*
X118053880Y-75174346D01*
X118145264Y-75125500D01*
X118225364Y-75059764D01*
X118291100Y-74979664D01*
X118339946Y-74888280D01*
X118370025Y-74789121D01*
X118380182Y-74686000D01*
X118380182Y-74286000D01*
X118551018Y-74286000D01*
X118551018Y-74686000D01*
X118561175Y-74789121D01*
X118591254Y-74888280D01*
X118640100Y-74979664D01*
X118705836Y-75059764D01*
X118785936Y-75125500D01*
X118877320Y-75174346D01*
X118976479Y-75204425D01*
X119079600Y-75214582D01*
X119629600Y-75214582D01*
X119732721Y-75204425D01*
X119831880Y-75174346D01*
X119923264Y-75125500D01*
X120003364Y-75059764D01*
X120069100Y-74979664D01*
X120117946Y-74888280D01*
X120148025Y-74789121D01*
X120158182Y-74686000D01*
X120158182Y-74286000D01*
X120148025Y-74182879D01*
X120117946Y-74083720D01*
X120069100Y-73992336D01*
X120003364Y-73912236D01*
X119923264Y-73846500D01*
X119905542Y-73837027D01*
X119910240Y-73829996D01*
X119957505Y-73715889D01*
X119981600Y-73594754D01*
X119981600Y-73471246D01*
X119957505Y-73350111D01*
X119910240Y-73236004D01*
X119841623Y-73133311D01*
X119754289Y-73045977D01*
X119651596Y-72977360D01*
X119537489Y-72930095D01*
X119416354Y-72906000D01*
X119292846Y-72906000D01*
X119171711Y-72930095D01*
X119057604Y-72977360D01*
X118954911Y-73045977D01*
X118867577Y-73133311D01*
X118798960Y-73236004D01*
X118751695Y-73350111D01*
X118727600Y-73471246D01*
X118727600Y-73594754D01*
X118751695Y-73715889D01*
X118798960Y-73829996D01*
X118803658Y-73837027D01*
X118785936Y-73846500D01*
X118705836Y-73912236D01*
X118640100Y-73992336D01*
X118591254Y-74083720D01*
X118561175Y-74182879D01*
X118551018Y-74286000D01*
X118380182Y-74286000D01*
X118370025Y-74182879D01*
X118339946Y-74083720D01*
X118291100Y-73992336D01*
X118225364Y-73912236D01*
X118145264Y-73846500D01*
X118053880Y-73797654D01*
X117954721Y-73767575D01*
X117851600Y-73757418D01*
X117487242Y-73757418D01*
X116930256Y-73200432D01*
X116909505Y-73096111D01*
X116862240Y-72982004D01*
X116793623Y-72879311D01*
X116706289Y-72791977D01*
X116603596Y-72723360D01*
X116489489Y-72676095D01*
X116368354Y-72652000D01*
X116244846Y-72652000D01*
X116123711Y-72676095D01*
X116009604Y-72723360D01*
X115906911Y-72791977D01*
X115819577Y-72879311D01*
X115750960Y-72982004D01*
X115703695Y-73096111D01*
X115679600Y-73217246D01*
X115679600Y-73340754D01*
X115703695Y-73461889D01*
X115750960Y-73575996D01*
X115819577Y-73678689D01*
X115898306Y-73757418D01*
X115709242Y-73757418D01*
X115406256Y-73454432D01*
X115385505Y-73350111D01*
X115338240Y-73236004D01*
X115269623Y-73133311D01*
X115182289Y-73045977D01*
X115079596Y-72977360D01*
X114965489Y-72930095D01*
X114844354Y-72906000D01*
X114720846Y-72906000D01*
X114599711Y-72930095D01*
X114485604Y-72977360D01*
X114382911Y-73045977D01*
X114295577Y-73133311D01*
X114226960Y-73236004D01*
X114179695Y-73350111D01*
X114155600Y-73471246D01*
X114155600Y-73594754D01*
X114179695Y-73715889D01*
X114226960Y-73829996D01*
X114235649Y-73843000D01*
X113558805Y-73843000D01*
X113536600Y-73840813D01*
X113447992Y-73849540D01*
X113432766Y-73854159D01*
X113362790Y-73875386D01*
X113284267Y-73917357D01*
X113215441Y-73973841D01*
X113201277Y-73991100D01*
X113112700Y-74079677D01*
X113095441Y-74093841D01*
X113038957Y-74162668D01*
X113008639Y-74219390D01*
X112996986Y-74241191D01*
X112971140Y-74326393D01*
X112962413Y-74415000D01*
X112964600Y-74437206D01*
X112964600Y-74456610D01*
X112943394Y-74482450D01*
X112913030Y-74539257D01*
X112894332Y-74600897D01*
X112888018Y-74665000D01*
X112888018Y-75165000D01*
X112894332Y-75229103D01*
X112913030Y-75290743D01*
X112943394Y-75347550D01*
X112968660Y-75378337D01*
X112956032Y-75382557D01*
X112847410Y-75444583D01*
X112752975Y-75526608D01*
X112676357Y-75625480D01*
X112620501Y-75737400D01*
X112587552Y-75858066D01*
X112581600Y-75933250D01*
X109600992Y-75933250D01*
X109616187Y-75908815D01*
X109638877Y-75848530D01*
X109649369Y-75784977D01*
X109647262Y-75720599D01*
X109632635Y-75657868D01*
X109606051Y-75599196D01*
X108952962Y-74468012D01*
X108950785Y-74445910D01*
X108946438Y-74401771D01*
X108926795Y-74337015D01*
X109643149Y-75577778D01*
X109680668Y-75630136D01*
X109727681Y-75674169D01*
X109782381Y-75708183D01*
X109842666Y-75730873D01*
X109906219Y-75741365D01*
X109970597Y-75739258D01*
X110033328Y-75724631D01*
X110092000Y-75698047D01*
X110958026Y-75198047D01*
X111010384Y-75160528D01*
X111054417Y-75113515D01*
X111088431Y-75058815D01*
X111111121Y-74998530D01*
X111121613Y-74934977D01*
X111119506Y-74870599D01*
X111104879Y-74807868D01*
X111078295Y-74749196D01*
X110303295Y-73406856D01*
X110265776Y-73354498D01*
X110218763Y-73310465D01*
X110164063Y-73276451D01*
X110103778Y-73253761D01*
X110040225Y-73243269D01*
X109975847Y-73245376D01*
X109913116Y-73260003D01*
X109854444Y-73286587D01*
X109570596Y-73450467D01*
X109011600Y-72891472D01*
X109011600Y-72570712D01*
X109046623Y-72535689D01*
X109115240Y-72432996D01*
X109162505Y-72318889D01*
X109186600Y-72197754D01*
X109186600Y-72074246D01*
X109162505Y-71953111D01*
X109115240Y-71839004D01*
X109046623Y-71736311D01*
X109011600Y-71701288D01*
X109011600Y-71215000D01*
X111651528Y-71215000D01*
X111663788Y-71339482D01*
X111700098Y-71459180D01*
X111759063Y-71569494D01*
X111838415Y-71666185D01*
X111935106Y-71745537D01*
X112045420Y-71804502D01*
X112165118Y-71840812D01*
X112289600Y-71853072D01*
X112853850Y-71850000D01*
X113012600Y-71691250D01*
X113012600Y-70942000D01*
X113266600Y-70942000D01*
X113266600Y-71691250D01*
X113425350Y-71850000D01*
X113989600Y-71853072D01*
X114114082Y-71840812D01*
X114233780Y-71804502D01*
X114344094Y-71745537D01*
X114440785Y-71666185D01*
X114520137Y-71569494D01*
X114579102Y-71459180D01*
X114615412Y-71339482D01*
X114627672Y-71215000D01*
X114624600Y-71100750D01*
X114465850Y-70942000D01*
X113266600Y-70942000D01*
X113012600Y-70942000D01*
X111813350Y-70942000D01*
X111654600Y-71100750D01*
X111651528Y-71215000D01*
X109011600Y-71215000D01*
X109011600Y-71179265D01*
X109013787Y-71157060D01*
X109005060Y-71068453D01*
X108993742Y-71031144D01*
X108979214Y-70983251D01*
X108937243Y-70904728D01*
X108880759Y-70835902D01*
X108863510Y-70821746D01*
X108487189Y-70445426D01*
X108496613Y-70388343D01*
X108494506Y-70323965D01*
X108479879Y-70261234D01*
X108453295Y-70202562D01*
X107847473Y-69153246D01*
X110472600Y-69153246D01*
X110472600Y-69276754D01*
X110496695Y-69397889D01*
X110543960Y-69511996D01*
X110612577Y-69614689D01*
X110699911Y-69702023D01*
X110802604Y-69770640D01*
X110916711Y-69817905D01*
X111037846Y-69842000D01*
X111118987Y-69842000D01*
X111131695Y-69905889D01*
X111178960Y-70019996D01*
X111247577Y-70122689D01*
X111334911Y-70210023D01*
X111437604Y-70278640D01*
X111551711Y-70325905D01*
X111658216Y-70347090D01*
X111651528Y-70415000D01*
X111654600Y-70529250D01*
X111813350Y-70688000D01*
X113012600Y-70688000D01*
X113012600Y-70668000D01*
X113266600Y-70668000D01*
X113266600Y-70688000D01*
X114465850Y-70688000D01*
X114624600Y-70529250D01*
X114627672Y-70415000D01*
X114615412Y-70290518D01*
X114579102Y-70170820D01*
X114520137Y-70060506D01*
X114440785Y-69963815D01*
X114344094Y-69884463D01*
X114318182Y-69870613D01*
X114318182Y-69315000D01*
X114311868Y-69250897D01*
X114293170Y-69189257D01*
X114280204Y-69165000D01*
X114293170Y-69140743D01*
X114308520Y-69090141D01*
X117023288Y-71804911D01*
X117037443Y-71822159D01*
X117106269Y-71878643D01*
X117184792Y-71920614D01*
X117250164Y-71940444D01*
X117269994Y-71946460D01*
X117358601Y-71955187D01*
X117380806Y-71953000D01*
X120426601Y-71953000D01*
X120426600Y-73955795D01*
X120424413Y-73978000D01*
X120433140Y-74066607D01*
X120449698Y-74121190D01*
X120458986Y-74151809D01*
X120500957Y-74230332D01*
X120557441Y-74299159D01*
X120574700Y-74313323D01*
X120583018Y-74321641D01*
X120583018Y-74686000D01*
X120593175Y-74789121D01*
X120623254Y-74888280D01*
X120672100Y-74979664D01*
X120737836Y-75059764D01*
X120797975Y-75109119D01*
X120787118Y-75110188D01*
X120667420Y-75146498D01*
X120557106Y-75205463D01*
X120460415Y-75284815D01*
X120381063Y-75381506D01*
X120322098Y-75491820D01*
X120285788Y-75611518D01*
X120273528Y-75736000D01*
X120276600Y-75850250D01*
X120435350Y-76009000D01*
X121259600Y-76009000D01*
X121259600Y-75989000D01*
X121513600Y-75989000D01*
X121513600Y-76009000D01*
X122910600Y-76009000D01*
X122910600Y-75989000D01*
X123164600Y-75989000D01*
X123164600Y-76009000D01*
X124561600Y-76009000D01*
X124561600Y-75989000D01*
X124815600Y-75989000D01*
X124815600Y-76009000D01*
X125639850Y-76009000D01*
X125798600Y-75850250D01*
X125801672Y-75736000D01*
X125789412Y-75611518D01*
X125753102Y-75491820D01*
X125694137Y-75381506D01*
X125614785Y-75284815D01*
X125518094Y-75205463D01*
X125407780Y-75146498D01*
X125288082Y-75110188D01*
X125277225Y-75109119D01*
X125337364Y-75059764D01*
X125403100Y-74979664D01*
X125451946Y-74888280D01*
X125482025Y-74789121D01*
X125492182Y-74686000D01*
X125492182Y-74286000D01*
X125482025Y-74182879D01*
X125451946Y-74083720D01*
X125403100Y-73992336D01*
X125337364Y-73912236D01*
X125257264Y-73846500D01*
X125165880Y-73797654D01*
X125066721Y-73767575D01*
X124963600Y-73757418D01*
X124599242Y-73757418D01*
X123616600Y-72774777D01*
X123616600Y-67174712D01*
X123651623Y-67139689D01*
X123720240Y-67036996D01*
X123767505Y-66922889D01*
X123791600Y-66801754D01*
X123791600Y-66678246D01*
X123767505Y-66557111D01*
X123720240Y-66443004D01*
X123651623Y-66340311D01*
X123564289Y-66252977D01*
X123461596Y-66184360D01*
X123347489Y-66137095D01*
X123226354Y-66113000D01*
X123176824Y-66113000D01*
X119122825Y-62059001D01*
X125641412Y-62059001D01*
X125643599Y-62081206D01*
X125643600Y-72667786D01*
X125641412Y-72690001D01*
X125650139Y-72778608D01*
X125675985Y-72863810D01*
X125696055Y-72901358D01*
X125717957Y-72942334D01*
X125774441Y-73011160D01*
X125791694Y-73025319D01*
X126222283Y-73455910D01*
X126236439Y-73473159D01*
X126305265Y-73529643D01*
X126383788Y-73571614D01*
X126449160Y-73591444D01*
X126468990Y-73597460D01*
X126557597Y-73606187D01*
X126579802Y-73604000D01*
X126920888Y-73604000D01*
X126955911Y-73639023D01*
X127058604Y-73707640D01*
X127172711Y-73754905D01*
X127293846Y-73779000D01*
X127417354Y-73779000D01*
X127538489Y-73754905D01*
X127652596Y-73707640D01*
X127755289Y-73639023D01*
X127842623Y-73551689D01*
X127911240Y-73448996D01*
X127958505Y-73334889D01*
X127982600Y-73213754D01*
X127982600Y-73090246D01*
X127958505Y-72969111D01*
X127911240Y-72855004D01*
X127842623Y-72752311D01*
X127755289Y-72664977D01*
X127652596Y-72596360D01*
X127538489Y-72549095D01*
X127417354Y-72525000D01*
X127333031Y-72525000D01*
X127347600Y-72451754D01*
X127347600Y-72328246D01*
X127323505Y-72207111D01*
X127276240Y-72093004D01*
X127207623Y-71990311D01*
X127172600Y-71955288D01*
X127172600Y-71215000D01*
X128851528Y-71215000D01*
X128863788Y-71339482D01*
X128900098Y-71459180D01*
X128959063Y-71569494D01*
X129038415Y-71666185D01*
X129135106Y-71745537D01*
X129245420Y-71804502D01*
X129365118Y-71840812D01*
X129489600Y-71853072D01*
X130053850Y-71850000D01*
X130212600Y-71691250D01*
X130212600Y-70942000D01*
X130466600Y-70942000D01*
X130466600Y-71691250D01*
X130625350Y-71850000D01*
X131189600Y-71853072D01*
X131314082Y-71840812D01*
X131433780Y-71804502D01*
X131544094Y-71745537D01*
X131640785Y-71666185D01*
X131720137Y-71569494D01*
X131779102Y-71459180D01*
X131815412Y-71339482D01*
X131827672Y-71215000D01*
X131824600Y-71100750D01*
X131665850Y-70942000D01*
X130466600Y-70942000D01*
X130212600Y-70942000D01*
X129013350Y-70942000D01*
X128854600Y-71100750D01*
X128851528Y-71215000D01*
X127172600Y-71215000D01*
X127172600Y-62721223D01*
X129161018Y-60732806D01*
X129161018Y-61315000D01*
X129167332Y-61379103D01*
X129186030Y-61440743D01*
X129198996Y-61465000D01*
X129186030Y-61489257D01*
X129167332Y-61550897D01*
X129161018Y-61615000D01*
X129161018Y-62415000D01*
X129167332Y-62479103D01*
X129186030Y-62540743D01*
X129198996Y-62565000D01*
X129186030Y-62589257D01*
X129167332Y-62650897D01*
X129161018Y-62715000D01*
X129161018Y-63515000D01*
X129167332Y-63579103D01*
X129186030Y-63640743D01*
X129198996Y-63665000D01*
X129186030Y-63689257D01*
X129167332Y-63750897D01*
X129161018Y-63815000D01*
X129161018Y-64615000D01*
X129167332Y-64679103D01*
X129186030Y-64740743D01*
X129198996Y-64765000D01*
X129186030Y-64789257D01*
X129167332Y-64850897D01*
X129161018Y-64915000D01*
X129161018Y-65715000D01*
X129167332Y-65779103D01*
X129186030Y-65840743D01*
X129198996Y-65865000D01*
X129186030Y-65889257D01*
X129167332Y-65950897D01*
X129161018Y-66015000D01*
X129161018Y-66815000D01*
X129167332Y-66879103D01*
X129186030Y-66940743D01*
X129198996Y-66965000D01*
X129186030Y-66989257D01*
X129167332Y-67050897D01*
X129161018Y-67115000D01*
X129161018Y-67915000D01*
X129167332Y-67979103D01*
X129186030Y-68040743D01*
X129198996Y-68065000D01*
X129186030Y-68089257D01*
X129167332Y-68150897D01*
X129161018Y-68215000D01*
X129161018Y-69015000D01*
X129167332Y-69079103D01*
X129186030Y-69140743D01*
X129198996Y-69165000D01*
X129186030Y-69189257D01*
X129167332Y-69250897D01*
X129161018Y-69315000D01*
X129161018Y-69870613D01*
X129135106Y-69884463D01*
X129038415Y-69963815D01*
X128959063Y-70060506D01*
X128900098Y-70170820D01*
X128863788Y-70290518D01*
X128851528Y-70415000D01*
X128854600Y-70529250D01*
X129013350Y-70688000D01*
X130212600Y-70688000D01*
X130212600Y-70668000D01*
X130466600Y-70668000D01*
X130466600Y-70688000D01*
X131665850Y-70688000D01*
X131824600Y-70529250D01*
X131827672Y-70415000D01*
X131815412Y-70290518D01*
X131779102Y-70170820D01*
X131720137Y-70060506D01*
X131640785Y-69963815D01*
X131544094Y-69884463D01*
X131518182Y-69870613D01*
X131518182Y-69315000D01*
X131511868Y-69250897D01*
X131493170Y-69189257D01*
X131480204Y-69165000D01*
X131493170Y-69140743D01*
X131511868Y-69079103D01*
X131518182Y-69015000D01*
X131518182Y-68215000D01*
X131511868Y-68150897D01*
X131493170Y-68089257D01*
X131480204Y-68065000D01*
X131493170Y-68040743D01*
X131511868Y-67979103D01*
X131518182Y-67915000D01*
X131518182Y-67115000D01*
X131511868Y-67050897D01*
X131493170Y-66989257D01*
X131480204Y-66965000D01*
X131493170Y-66940743D01*
X131511868Y-66879103D01*
X131518182Y-66815000D01*
X131518182Y-66197803D01*
X135243335Y-69922957D01*
X135081905Y-70202562D01*
X135055321Y-70261234D01*
X135040694Y-70323965D01*
X135038587Y-70388343D01*
X135048011Y-70445426D01*
X133258074Y-72235364D01*
X133240820Y-72249524D01*
X133189253Y-72312359D01*
X133184336Y-72318350D01*
X133142364Y-72396874D01*
X133116518Y-72482076D01*
X133107791Y-72570683D01*
X133109979Y-72592898D01*
X133109978Y-73618039D01*
X132866176Y-74040317D01*
X130860983Y-74040317D01*
X130834487Y-73990746D01*
X130765642Y-73906858D01*
X130681754Y-73838013D01*
X130586047Y-73786857D01*
X130482198Y-73755355D01*
X130374200Y-73744718D01*
X129874200Y-73744718D01*
X129766202Y-73755355D01*
X129662353Y-73786857D01*
X129566646Y-73838013D01*
X129482758Y-73906858D01*
X129413913Y-73990746D01*
X129370856Y-74071300D01*
X129236631Y-74071300D01*
X129236546Y-74071020D01*
X129187700Y-73979636D01*
X129121964Y-73899536D01*
X129041864Y-73833800D01*
X128950480Y-73784954D01*
X128851321Y-73754875D01*
X128748200Y-73744718D01*
X128198200Y-73744718D01*
X128095079Y-73754875D01*
X127995920Y-73784954D01*
X127904536Y-73833800D01*
X127824436Y-73899536D01*
X127758700Y-73979636D01*
X127709854Y-74071020D01*
X127679775Y-74170179D01*
X127669618Y-74273300D01*
X127669618Y-74673300D01*
X127679775Y-74776421D01*
X127709854Y-74875580D01*
X127758700Y-74966964D01*
X127824436Y-75047064D01*
X127884575Y-75096419D01*
X127873718Y-75097488D01*
X127754020Y-75133798D01*
X127643706Y-75192763D01*
X127547015Y-75272115D01*
X127467663Y-75368806D01*
X127408698Y-75479120D01*
X127372388Y-75598818D01*
X127360128Y-75723300D01*
X127363200Y-75837550D01*
X127521950Y-75996300D01*
X128346200Y-75996300D01*
X128346200Y-75976300D01*
X128600200Y-75976300D01*
X128600200Y-75996300D01*
X128620200Y-75996300D01*
X128620200Y-76250300D01*
X128600200Y-76250300D01*
X128600200Y-76999550D01*
X128758950Y-77158300D01*
X128948200Y-77161372D01*
X129072682Y-77149112D01*
X129192380Y-77112802D01*
X129302694Y-77053837D01*
X129399385Y-76974485D01*
X129478737Y-76877794D01*
X129537702Y-76767480D01*
X129545631Y-76741341D01*
X129566646Y-76758587D01*
X129662353Y-76809743D01*
X129670263Y-76812143D01*
X129678740Y-76898207D01*
X129704586Y-76983409D01*
X129738813Y-77047443D01*
X129746558Y-77061933D01*
X129776600Y-77098539D01*
X129776600Y-77150754D01*
X129800695Y-77271889D01*
X129847960Y-77385996D01*
X129916577Y-77488689D01*
X130003911Y-77576023D01*
X130106604Y-77644640D01*
X130220711Y-77691905D01*
X130341846Y-77716000D01*
X130465354Y-77716000D01*
X130586489Y-77691905D01*
X130700596Y-77644640D01*
X130803289Y-77576023D01*
X130890623Y-77488689D01*
X130959240Y-77385996D01*
X131006505Y-77271889D01*
X131030600Y-77150754D01*
X131030600Y-77027246D01*
X131006505Y-76906111D01*
X130959240Y-76792004D01*
X130890623Y-76689311D01*
X130822172Y-76620860D01*
X130834487Y-76605854D01*
X130885643Y-76510147D01*
X130917145Y-76406298D01*
X130927782Y-76298300D01*
X130927782Y-75848300D01*
X130917145Y-75740302D01*
X130885643Y-75636453D01*
X130834487Y-75540746D01*
X130765642Y-75456858D01*
X130681754Y-75388013D01*
X130586047Y-75336857D01*
X130482198Y-75305355D01*
X130410568Y-75298300D01*
X130482198Y-75291245D01*
X130586047Y-75259743D01*
X130681754Y-75208587D01*
X130765642Y-75139742D01*
X130834487Y-75055854D01*
X130885643Y-74960147D01*
X130890445Y-74944317D01*
X132415129Y-74944317D01*
X132424079Y-74998530D01*
X132446769Y-75058815D01*
X132480783Y-75113515D01*
X132524816Y-75160528D01*
X132577174Y-75198047D01*
X133443200Y-75698047D01*
X133501872Y-75724631D01*
X133564603Y-75739258D01*
X133628981Y-75741365D01*
X133692534Y-75730873D01*
X133752819Y-75708183D01*
X133807519Y-75674169D01*
X133854532Y-75630136D01*
X133892051Y-75577778D01*
X134667051Y-74235438D01*
X134693635Y-74176766D01*
X134708262Y-74114035D01*
X134710369Y-74049657D01*
X134699877Y-73986104D01*
X134677187Y-73925819D01*
X134643173Y-73871119D01*
X134599140Y-73824106D01*
X134546782Y-73786587D01*
X134013978Y-73478973D01*
X134013978Y-72757906D01*
X135784352Y-70987533D01*
X136068200Y-71151413D01*
X136126872Y-71177997D01*
X136189603Y-71192624D01*
X136253981Y-71194731D01*
X136317534Y-71184239D01*
X136377819Y-71161549D01*
X136432519Y-71127535D01*
X136479532Y-71083502D01*
X136517051Y-71031144D01*
X137292051Y-69688804D01*
X137318635Y-69630132D01*
X137333262Y-69567401D01*
X137335369Y-69503023D01*
X137324877Y-69439470D01*
X137302187Y-69379185D01*
X137268173Y-69324485D01*
X137224140Y-69277472D01*
X137171782Y-69239953D01*
X136305756Y-68739953D01*
X136247084Y-68713369D01*
X136184353Y-68698742D01*
X136119975Y-68696635D01*
X136056422Y-68707127D01*
X135996137Y-68729817D01*
X135941437Y-68763831D01*
X135894424Y-68807864D01*
X135856905Y-68860222D01*
X135711279Y-69112453D01*
X133461977Y-66863151D01*
X133494596Y-66849640D01*
X133597289Y-66781023D01*
X133632312Y-66746000D01*
X136099395Y-66746000D01*
X136121600Y-66748187D01*
X136143805Y-66746000D01*
X136210207Y-66739460D01*
X136295410Y-66713614D01*
X136373933Y-66671643D01*
X136442759Y-66615159D01*
X136456923Y-66597900D01*
X136570601Y-66484222D01*
X136570601Y-66980775D01*
X136360377Y-67191000D01*
X136310846Y-67191000D01*
X136189711Y-67215095D01*
X136075604Y-67262360D01*
X135972911Y-67330977D01*
X135885577Y-67418311D01*
X135816960Y-67521004D01*
X135769695Y-67635111D01*
X135745600Y-67756246D01*
X135745600Y-67879754D01*
X135769695Y-68000889D01*
X135816960Y-68114996D01*
X135885577Y-68217689D01*
X135972911Y-68305023D01*
X136075604Y-68373640D01*
X136189711Y-68420905D01*
X136310846Y-68445000D01*
X136434354Y-68445000D01*
X136555489Y-68420905D01*
X136669596Y-68373640D01*
X136772289Y-68305023D01*
X136859623Y-68217689D01*
X136928240Y-68114996D01*
X136975505Y-68000889D01*
X136999600Y-67879754D01*
X136999600Y-67830223D01*
X137326505Y-67503319D01*
X137343759Y-67489159D01*
X137400243Y-67420333D01*
X137442214Y-67341810D01*
X137450845Y-67313357D01*
X137468060Y-67256608D01*
X137476787Y-67168000D01*
X137474600Y-67145795D01*
X137474600Y-65921680D01*
X137476170Y-65918743D01*
X137494868Y-65857103D01*
X137501182Y-65793000D01*
X137501182Y-65243000D01*
X137494868Y-65178897D01*
X137476170Y-65117257D01*
X137445806Y-65060450D01*
X137404943Y-65010657D01*
X137355150Y-64969794D01*
X137298343Y-64939430D01*
X137236703Y-64920732D01*
X137172600Y-64914418D01*
X136872600Y-64914418D01*
X136808497Y-64920732D01*
X136746857Y-64939430D01*
X136697600Y-64965758D01*
X136648343Y-64939430D01*
X136586703Y-64920732D01*
X136522600Y-64914418D01*
X136222600Y-64914418D01*
X136158497Y-64920732D01*
X136096857Y-64939430D01*
X136047600Y-64965758D01*
X135998343Y-64939430D01*
X135936703Y-64920732D01*
X135872600Y-64914418D01*
X135572600Y-64914418D01*
X135508497Y-64920732D01*
X135446857Y-64939430D01*
X135390050Y-64969794D01*
X135340257Y-65010657D01*
X135299394Y-65060450D01*
X135296427Y-65066000D01*
X135122174Y-65066000D01*
X135081623Y-65005311D01*
X134994289Y-64917977D01*
X134891596Y-64849360D01*
X134820718Y-64820001D01*
X136275394Y-64820001D01*
X136297599Y-64822188D01*
X136319804Y-64820001D01*
X136386206Y-64813461D01*
X136471409Y-64787615D01*
X136549932Y-64745644D01*
X136618758Y-64689160D01*
X136632921Y-64671902D01*
X136662503Y-64642321D01*
X136731401Y-64665253D01*
X136840850Y-64678000D01*
X136999600Y-64519250D01*
X136999600Y-63895000D01*
X137045600Y-63895000D01*
X137045600Y-64519250D01*
X137204350Y-64678000D01*
X137313799Y-64665253D01*
X137432481Y-64625750D01*
X137541176Y-64563853D01*
X137635708Y-64481939D01*
X137712442Y-64383157D01*
X137768430Y-64271303D01*
X137801521Y-64150676D01*
X137807600Y-64053750D01*
X137648850Y-63895000D01*
X137045600Y-63895000D01*
X136999600Y-63895000D01*
X136875600Y-63895000D01*
X136875600Y-63641000D01*
X136999600Y-63641000D01*
X136999600Y-63016750D01*
X137045600Y-63016750D01*
X137045600Y-63641000D01*
X137648850Y-63641000D01*
X137807600Y-63482250D01*
X137801521Y-63385324D01*
X137768430Y-63264697D01*
X137712442Y-63152843D01*
X137635708Y-63054061D01*
X137541176Y-62972147D01*
X137432481Y-62910250D01*
X137313799Y-62870747D01*
X137204350Y-62858000D01*
X137045600Y-63016750D01*
X136999600Y-63016750D01*
X136840850Y-62858000D01*
X136731401Y-62870747D01*
X136612719Y-62910250D01*
X136504024Y-62972147D01*
X136409492Y-63054061D01*
X136372600Y-63101553D01*
X136335708Y-63054061D01*
X136241176Y-62972147D01*
X136132481Y-62910250D01*
X136013799Y-62870747D01*
X135904350Y-62858000D01*
X135745600Y-63016750D01*
X135745600Y-63641000D01*
X135869600Y-63641000D01*
X135869600Y-63895000D01*
X135745600Y-63895000D01*
X135745600Y-63915000D01*
X135699600Y-63915000D01*
X135699600Y-63895000D01*
X135096350Y-63895000D01*
X135075349Y-63916001D01*
X133875804Y-63916001D01*
X133853599Y-63913814D01*
X133764991Y-63922541D01*
X133679789Y-63948387D01*
X133601266Y-63990358D01*
X133532440Y-64046842D01*
X133518280Y-64064096D01*
X133185377Y-64397000D01*
X133135846Y-64397000D01*
X133014711Y-64421095D01*
X132900604Y-64468360D01*
X132797911Y-64536977D01*
X132710577Y-64624311D01*
X132641960Y-64727004D01*
X132594695Y-64841111D01*
X132570600Y-64962246D01*
X132570600Y-65085754D01*
X132594695Y-65206889D01*
X132641960Y-65320996D01*
X132710577Y-65423689D01*
X132797911Y-65511023D01*
X132900604Y-65579640D01*
X133014711Y-65626905D01*
X133135846Y-65651000D01*
X133259354Y-65651000D01*
X133380489Y-65626905D01*
X133494596Y-65579640D01*
X133597289Y-65511023D01*
X133684623Y-65423689D01*
X133753240Y-65320996D01*
X133800505Y-65206889D01*
X133824600Y-65085754D01*
X133824600Y-65036223D01*
X134040823Y-64820001D01*
X134368482Y-64820001D01*
X134297604Y-64849360D01*
X134194911Y-64917977D01*
X134107577Y-65005311D01*
X134038960Y-65108004D01*
X133991695Y-65222111D01*
X133967600Y-65343246D01*
X133967600Y-65466754D01*
X133991695Y-65587889D01*
X134038960Y-65701996D01*
X134107577Y-65804689D01*
X134144888Y-65842000D01*
X133632312Y-65842000D01*
X133597289Y-65806977D01*
X133494596Y-65738360D01*
X133380489Y-65691095D01*
X133259354Y-65667000D01*
X133135846Y-65667000D01*
X133014711Y-65691095D01*
X132900604Y-65738360D01*
X132797911Y-65806977D01*
X132710577Y-65894311D01*
X132641960Y-65997004D01*
X132628449Y-66029623D01*
X131609925Y-65011100D01*
X131595761Y-64993841D01*
X131526935Y-64937357D01*
X131518182Y-64932678D01*
X131518182Y-64915000D01*
X131511868Y-64850897D01*
X131493170Y-64789257D01*
X131480204Y-64765000D01*
X131493170Y-64740743D01*
X131511868Y-64679103D01*
X131518182Y-64615000D01*
X131518182Y-63815000D01*
X131511868Y-63750897D01*
X131493170Y-63689257D01*
X131480204Y-63665000D01*
X131493170Y-63640743D01*
X131511868Y-63579103D01*
X131518182Y-63515000D01*
X131518182Y-63482250D01*
X134937600Y-63482250D01*
X135096350Y-63641000D01*
X135699600Y-63641000D01*
X135699600Y-63016750D01*
X135540850Y-62858000D01*
X135431401Y-62870747D01*
X135312719Y-62910250D01*
X135204024Y-62972147D01*
X135109492Y-63054061D01*
X135032758Y-63152843D01*
X134976770Y-63264697D01*
X134943679Y-63385324D01*
X134937600Y-63482250D01*
X131518182Y-63482250D01*
X131518182Y-62715000D01*
X131511868Y-62650897D01*
X131493170Y-62589257D01*
X131480204Y-62565000D01*
X131493170Y-62540743D01*
X131511868Y-62479103D01*
X131518182Y-62415000D01*
X131518182Y-62070000D01*
X134636528Y-62070000D01*
X134648788Y-62194482D01*
X134685098Y-62314180D01*
X134744063Y-62424494D01*
X134823415Y-62521185D01*
X134920106Y-62600537D01*
X135030420Y-62659502D01*
X135150118Y-62695812D01*
X135274600Y-62708072D01*
X135438850Y-62705000D01*
X135597600Y-62546250D01*
X135597600Y-61722000D01*
X134798350Y-61722000D01*
X134639600Y-61880750D01*
X134636528Y-62070000D01*
X131518182Y-62070000D01*
X131518182Y-61615000D01*
X131511868Y-61550897D01*
X131493170Y-61489257D01*
X131480204Y-61465000D01*
X131493170Y-61440743D01*
X131511868Y-61379103D01*
X131518182Y-61315000D01*
X131518182Y-61120000D01*
X134636528Y-61120000D01*
X134639600Y-61309250D01*
X134798350Y-61468000D01*
X135597600Y-61468000D01*
X135597600Y-60643750D01*
X135851600Y-60643750D01*
X135851600Y-61468000D01*
X135871600Y-61468000D01*
X135871600Y-61722000D01*
X135851600Y-61722000D01*
X135851600Y-62546250D01*
X136010350Y-62705000D01*
X136174600Y-62708072D01*
X136299082Y-62695812D01*
X136418780Y-62659502D01*
X136529094Y-62600537D01*
X136625785Y-62521185D01*
X136705137Y-62424494D01*
X136762898Y-62316433D01*
X136837753Y-62356443D01*
X136941602Y-62387945D01*
X137049600Y-62398582D01*
X137499600Y-62398582D01*
X137607598Y-62387945D01*
X137711447Y-62356443D01*
X137807154Y-62305287D01*
X137891042Y-62236442D01*
X137900925Y-62224400D01*
X137980604Y-62277640D01*
X138094711Y-62324905D01*
X138215846Y-62349000D01*
X138339354Y-62349000D01*
X138460489Y-62324905D01*
X138574596Y-62277640D01*
X138677289Y-62209023D01*
X138764623Y-62121689D01*
X138833240Y-62018996D01*
X138880505Y-61904889D01*
X138904600Y-61783754D01*
X138904600Y-61660246D01*
X138880505Y-61539111D01*
X138833240Y-61425004D01*
X138764623Y-61322311D01*
X138677289Y-61234977D01*
X138574596Y-61166360D01*
X138460489Y-61119095D01*
X138339354Y-61095000D01*
X138215846Y-61095000D01*
X138094711Y-61119095D01*
X138037000Y-61143000D01*
X138014030Y-61143000D01*
X138011043Y-61133153D01*
X137959887Y-61037446D01*
X137891042Y-60953558D01*
X137807154Y-60884713D01*
X137711447Y-60833557D01*
X137607598Y-60802055D01*
X137499600Y-60791418D01*
X137049600Y-60791418D01*
X136941602Y-60802055D01*
X136837753Y-60833557D01*
X136762898Y-60873567D01*
X136705137Y-60765506D01*
X136625785Y-60668815D01*
X136529094Y-60589463D01*
X136418780Y-60530498D01*
X136299082Y-60494188D01*
X136174600Y-60481928D01*
X136010350Y-60485000D01*
X135851600Y-60643750D01*
X135597600Y-60643750D01*
X135438850Y-60485000D01*
X135274600Y-60481928D01*
X135150118Y-60494188D01*
X135030420Y-60530498D01*
X134920106Y-60589463D01*
X134823415Y-60668815D01*
X134744063Y-60765506D01*
X134685098Y-60875820D01*
X134648788Y-60995518D01*
X134636528Y-61120000D01*
X131518182Y-61120000D01*
X131518182Y-60515000D01*
X131511868Y-60450897D01*
X131493170Y-60389257D01*
X131480204Y-60365000D01*
X131493170Y-60340743D01*
X131511868Y-60279103D01*
X131518182Y-60215000D01*
X131518182Y-59415000D01*
X131511868Y-59350897D01*
X131493170Y-59289257D01*
X131480204Y-59265000D01*
X131493170Y-59240743D01*
X131511868Y-59179103D01*
X131518182Y-59115000D01*
X131518182Y-58315000D01*
X131511868Y-58250897D01*
X131493170Y-58189257D01*
X131480204Y-58165000D01*
X131493170Y-58140743D01*
X131511868Y-58079103D01*
X131518182Y-58015000D01*
X131518182Y-57215000D01*
X131511868Y-57150897D01*
X131493170Y-57089257D01*
X131480204Y-57065000D01*
X131493170Y-57040743D01*
X131511868Y-56979103D01*
X131518182Y-56915000D01*
X131518182Y-56115000D01*
X131511868Y-56050897D01*
X131493170Y-55989257D01*
X131462806Y-55932450D01*
X131421943Y-55882657D01*
X131372150Y-55841794D01*
X131315343Y-55811430D01*
X131253703Y-55792732D01*
X131189600Y-55786418D01*
X129489600Y-55786418D01*
X129425497Y-55792732D01*
X129363857Y-55811430D01*
X129307050Y-55841794D01*
X129257257Y-55882657D01*
X129216394Y-55932450D01*
X129186030Y-55989257D01*
X129167332Y-56050897D01*
X129161018Y-56115000D01*
X129161018Y-56915000D01*
X129167332Y-56979103D01*
X129186030Y-57040743D01*
X129198996Y-57065000D01*
X129186030Y-57089257D01*
X129167332Y-57150897D01*
X129161018Y-57215000D01*
X129161018Y-58015000D01*
X129167332Y-58079103D01*
X129186030Y-58140743D01*
X129198996Y-58165000D01*
X129186030Y-58189257D01*
X129167332Y-58250897D01*
X129161018Y-58315000D01*
X129161018Y-58358899D01*
X129118441Y-58393841D01*
X129104281Y-58411095D01*
X125791699Y-61723678D01*
X125774440Y-61737842D01*
X125717956Y-61806669D01*
X125678359Y-61880750D01*
X125675985Y-61885192D01*
X125650139Y-61970394D01*
X125641412Y-62059001D01*
X119122825Y-62059001D01*
X115631100Y-58567277D01*
X115631100Y-58517746D01*
X115607005Y-58396611D01*
X115559740Y-58282504D01*
X115491123Y-58179811D01*
X115403789Y-58092477D01*
X115301096Y-58023860D01*
X115186989Y-57976595D01*
X115065854Y-57952500D01*
X115016324Y-57952500D01*
X114374923Y-57311100D01*
X114360759Y-57293841D01*
X114318182Y-57258899D01*
X114318182Y-57215000D01*
X114311868Y-57150897D01*
X114293170Y-57089257D01*
X114280204Y-57065000D01*
X114293170Y-57040743D01*
X114311868Y-56979103D01*
X114313060Y-56967000D01*
X114499682Y-56967000D01*
X114549587Y-57041689D01*
X114636921Y-57129023D01*
X114739614Y-57197640D01*
X114853721Y-57244905D01*
X114974856Y-57269000D01*
X115098364Y-57269000D01*
X115219499Y-57244905D01*
X115333606Y-57197640D01*
X115436299Y-57129023D01*
X115523633Y-57041689D01*
X115592250Y-56938996D01*
X115639515Y-56824889D01*
X115663610Y-56703754D01*
X115663610Y-56580246D01*
X115639515Y-56459111D01*
X115592250Y-56345004D01*
X115523633Y-56242311D01*
X115436299Y-56154977D01*
X115333606Y-56086360D01*
X115219499Y-56039095D01*
X115098364Y-56015000D01*
X114974856Y-56015000D01*
X114853721Y-56039095D01*
X114796010Y-56063000D01*
X114313060Y-56063000D01*
X114311868Y-56050897D01*
X114293170Y-55989257D01*
X114262806Y-55932450D01*
X114221943Y-55882657D01*
X114172150Y-55841794D01*
X114115343Y-55811430D01*
X114053703Y-55792732D01*
X113989600Y-55786418D01*
X112289600Y-55786418D01*
X112225497Y-55792732D01*
X112163857Y-55811430D01*
X112107050Y-55841794D01*
X112057257Y-55882657D01*
X112016394Y-55932450D01*
X111986030Y-55989257D01*
X111967332Y-56050897D01*
X111961018Y-56115000D01*
X111961018Y-56915000D01*
X111967332Y-56979103D01*
X111986030Y-57040743D01*
X111998996Y-57065000D01*
X111986030Y-57089257D01*
X111967332Y-57150897D01*
X111961018Y-57215000D01*
X111961018Y-58015000D01*
X111967332Y-58079103D01*
X111986030Y-58140743D01*
X111998996Y-58165000D01*
X111986030Y-58189257D01*
X111967332Y-58250897D01*
X111961018Y-58315000D01*
X111961018Y-59115000D01*
X111967332Y-59179103D01*
X111986030Y-59240743D01*
X111998996Y-59265000D01*
X111986030Y-59289257D01*
X111967332Y-59350897D01*
X111961018Y-59415000D01*
X111961018Y-60215000D01*
X111967332Y-60279103D01*
X111986030Y-60340743D01*
X111998996Y-60365000D01*
X111986030Y-60389257D01*
X111967332Y-60450897D01*
X111961018Y-60515000D01*
X111961018Y-61315000D01*
X111967332Y-61379103D01*
X111986030Y-61440743D01*
X111998996Y-61465000D01*
X111986030Y-61489257D01*
X111967332Y-61550897D01*
X111961018Y-61615000D01*
X111961018Y-62415000D01*
X111967332Y-62479103D01*
X111986030Y-62540743D01*
X111998996Y-62565000D01*
X111986030Y-62589257D01*
X111967332Y-62650897D01*
X111961018Y-62715000D01*
X111961018Y-63515000D01*
X111967332Y-63579103D01*
X111986030Y-63640743D01*
X111998996Y-63665000D01*
X111986030Y-63689257D01*
X111967332Y-63750897D01*
X111961018Y-63815000D01*
X111961018Y-64615000D01*
X111967332Y-64679103D01*
X111986030Y-64740743D01*
X111998996Y-64765000D01*
X111986030Y-64789257D01*
X111967332Y-64850897D01*
X111961018Y-64915000D01*
X111961018Y-65715000D01*
X111967332Y-65779103D01*
X111986030Y-65840743D01*
X111998996Y-65865000D01*
X111986030Y-65889257D01*
X111967332Y-65950897D01*
X111961018Y-66015000D01*
X111961018Y-66815000D01*
X111967332Y-66879103D01*
X111986030Y-66940743D01*
X111998996Y-66965000D01*
X111986030Y-66989257D01*
X111967332Y-67050897D01*
X111965698Y-67067484D01*
X111944826Y-67069540D01*
X111883659Y-67088095D01*
X111859624Y-67095386D01*
X111781101Y-67137357D01*
X111712275Y-67193841D01*
X111698115Y-67211095D01*
X110795700Y-68113511D01*
X110778441Y-68127675D01*
X110721957Y-68196502D01*
X110695158Y-68246640D01*
X110679986Y-68275025D01*
X110654140Y-68360227D01*
X110645413Y-68448834D01*
X110647600Y-68471040D01*
X110647600Y-68780288D01*
X110612577Y-68815311D01*
X110543960Y-68918004D01*
X110496695Y-69032111D01*
X110472600Y-69153246D01*
X107847473Y-69153246D01*
X107678295Y-68860222D01*
X107640776Y-68807864D01*
X107593763Y-68763831D01*
X107539063Y-68729817D01*
X107478778Y-68707127D01*
X107415225Y-68696635D01*
X107350847Y-68698742D01*
X107288116Y-68713369D01*
X107229444Y-68739953D01*
X106363418Y-69239953D01*
X106311060Y-69277472D01*
X106267027Y-69324485D01*
X106233013Y-69379185D01*
X106210323Y-69439470D01*
X106199831Y-69503023D01*
X106201938Y-69567401D01*
X106216565Y-69630132D01*
X106243149Y-69688804D01*
X107018149Y-71031144D01*
X107055668Y-71083502D01*
X107102681Y-71127535D01*
X107157381Y-71161549D01*
X107217666Y-71184239D01*
X107281219Y-71194731D01*
X107345597Y-71192624D01*
X107408328Y-71177997D01*
X107467000Y-71151413D01*
X107750848Y-70987533D01*
X108107601Y-71344287D01*
X108107600Y-71701288D01*
X108072577Y-71736311D01*
X108003960Y-71839004D01*
X107956695Y-71953111D01*
X107932600Y-72074246D01*
X107932600Y-72197754D01*
X107956695Y-72318889D01*
X108003960Y-72432996D01*
X108072577Y-72535689D01*
X108107600Y-72570712D01*
X108107601Y-73056480D01*
X108105413Y-73078695D01*
X108114140Y-73167302D01*
X108139986Y-73252504D01*
X108158204Y-73286587D01*
X108181958Y-73331028D01*
X108238442Y-73399854D01*
X108255696Y-73414014D01*
X108311801Y-73470119D01*
X108234489Y-73438095D01*
X108113354Y-73414000D01*
X107989846Y-73414000D01*
X107868711Y-73438095D01*
X107754604Y-73485360D01*
X107651911Y-73553977D01*
X107564577Y-73641311D01*
X107495960Y-73744004D01*
X107448695Y-73858111D01*
X107424600Y-73979246D01*
X107424600Y-74102754D01*
X107448695Y-74223889D01*
X107495960Y-74337996D01*
X107564577Y-74440689D01*
X107651911Y-74528023D01*
X107676155Y-74544222D01*
X107516174Y-74636587D01*
X107463816Y-74674106D01*
X107419783Y-74721119D01*
X107385769Y-74775819D01*
X107368559Y-74821545D01*
X106836582Y-74059693D01*
X106020396Y-72620153D01*
X105758286Y-72036363D01*
X105808975Y-72044731D01*
X105873353Y-72042624D01*
X105936084Y-72027997D01*
X105994756Y-72001413D01*
X106061941Y-71962624D01*
X106098960Y-72051996D01*
X106167577Y-72154689D01*
X106254911Y-72242023D01*
X106357604Y-72310640D01*
X106471711Y-72357905D01*
X106592846Y-72382000D01*
X106716354Y-72382000D01*
X106837489Y-72357905D01*
X106951596Y-72310640D01*
X107054289Y-72242023D01*
X107141623Y-72154689D01*
X107210240Y-72051996D01*
X107257505Y-71937889D01*
X107281600Y-71816754D01*
X107281600Y-71693246D01*
X107257505Y-71572111D01*
X107210240Y-71458004D01*
X107141623Y-71355311D01*
X107054289Y-71267977D01*
X107022935Y-71247027D01*
X107024369Y-71238343D01*
X107022262Y-71173965D01*
X107007635Y-71111234D01*
X106981051Y-71052562D01*
X106206051Y-69710222D01*
X106168532Y-69657864D01*
X106121519Y-69613831D01*
X106066819Y-69579817D01*
X106006534Y-69557127D01*
X105942981Y-69546635D01*
X105878603Y-69548742D01*
X105815872Y-69563369D01*
X105757200Y-69589953D01*
X104977984Y-70039833D01*
X104809141Y-69544030D01*
X104424717Y-67934479D01*
X104192703Y-66296003D01*
X104142707Y-65230526D01*
X104193935Y-65264755D01*
X104308042Y-65312020D01*
X104429177Y-65336115D01*
X104444018Y-65336115D01*
X104444018Y-65546000D01*
X104450332Y-65610103D01*
X104469030Y-65671743D01*
X104499394Y-65728550D01*
X104540257Y-65778343D01*
X104561773Y-65796000D01*
X104540257Y-65813657D01*
X104499394Y-65863450D01*
X104469030Y-65920257D01*
X104450332Y-65981897D01*
X104444018Y-66046000D01*
X104444018Y-66796000D01*
X104450332Y-66860103D01*
X104469030Y-66921743D01*
X104499394Y-66978550D01*
X104540257Y-67028343D01*
X104590050Y-67069206D01*
X104646857Y-67099570D01*
X104708497Y-67118268D01*
X104772600Y-67124582D01*
X106222600Y-67124582D01*
X106286703Y-67118268D01*
X106348343Y-67099570D01*
X106405150Y-67069206D01*
X106454943Y-67028343D01*
X106495806Y-66978550D01*
X106526170Y-66921743D01*
X106544868Y-66860103D01*
X106551182Y-66796000D01*
X106551182Y-66046000D01*
X106544868Y-65981897D01*
X106526170Y-65920257D01*
X106495806Y-65863450D01*
X106454943Y-65813657D01*
X106433427Y-65796000D01*
X106454943Y-65778343D01*
X106495806Y-65728550D01*
X106526170Y-65671743D01*
X106544868Y-65610103D01*
X106551182Y-65546000D01*
X106551182Y-64796000D01*
X106544868Y-64731897D01*
X106526170Y-64670257D01*
X106495806Y-64613450D01*
X106454943Y-64563657D01*
X106433427Y-64546000D01*
X106454943Y-64528343D01*
X106495806Y-64478550D01*
X106526170Y-64421743D01*
X106544868Y-64360103D01*
X106551182Y-64296000D01*
X106551182Y-63590387D01*
X106577094Y-63576537D01*
X106673785Y-63497185D01*
X106753137Y-63400494D01*
X106812102Y-63290180D01*
X106822322Y-63256489D01*
X106840257Y-63278343D01*
X106861773Y-63296000D01*
X106840257Y-63313657D01*
X106799394Y-63363450D01*
X106769030Y-63420257D01*
X106750332Y-63481897D01*
X106744018Y-63546000D01*
X106744018Y-64296000D01*
X106750332Y-64360103D01*
X106769030Y-64421743D01*
X106799394Y-64478550D01*
X106840257Y-64528343D01*
X106861773Y-64546000D01*
X106840257Y-64563657D01*
X106799394Y-64613450D01*
X106769030Y-64670257D01*
X106750332Y-64731897D01*
X106744018Y-64796000D01*
X106744018Y-65546000D01*
X106750332Y-65610103D01*
X106769030Y-65671743D01*
X106799394Y-65728550D01*
X106840257Y-65778343D01*
X106861773Y-65796000D01*
X106840257Y-65813657D01*
X106799394Y-65863450D01*
X106769030Y-65920257D01*
X106750332Y-65981897D01*
X106744018Y-66046000D01*
X106744018Y-66796000D01*
X106750332Y-66860103D01*
X106769030Y-66921743D01*
X106799394Y-66978550D01*
X106840257Y-67028343D01*
X106890050Y-67069206D01*
X106946857Y-67099570D01*
X107008497Y-67118268D01*
X107072600Y-67124582D01*
X108522600Y-67124582D01*
X108586703Y-67118268D01*
X108648343Y-67099570D01*
X108705150Y-67069206D01*
X108754943Y-67028343D01*
X108795806Y-66978550D01*
X108826170Y-66921743D01*
X108844868Y-66860103D01*
X108851182Y-66796000D01*
X108851182Y-66046000D01*
X108844868Y-65981897D01*
X108826170Y-65920257D01*
X108795806Y-65863450D01*
X108754943Y-65813657D01*
X108733427Y-65796000D01*
X108754943Y-65778343D01*
X108795806Y-65728550D01*
X108826170Y-65671743D01*
X108844868Y-65610103D01*
X108851182Y-65546000D01*
X108851182Y-64796000D01*
X108844868Y-64731897D01*
X108826170Y-64670257D01*
X108795806Y-64613450D01*
X108754943Y-64563657D01*
X108733427Y-64546000D01*
X108754943Y-64528343D01*
X108795806Y-64478550D01*
X108826170Y-64421743D01*
X108844868Y-64360103D01*
X108851182Y-64296000D01*
X108851182Y-64101641D01*
X109333824Y-63619000D01*
X109383354Y-63619000D01*
X109504489Y-63594905D01*
X109618596Y-63547640D01*
X109721289Y-63479023D01*
X109808623Y-63391689D01*
X109877240Y-63288996D01*
X109924505Y-63174889D01*
X109948600Y-63053754D01*
X109948600Y-62930246D01*
X109924505Y-62809111D01*
X109877240Y-62695004D01*
X109808623Y-62592311D01*
X109721289Y-62504977D01*
X109618596Y-62436360D01*
X109580307Y-62420500D01*
X109618596Y-62404640D01*
X109721289Y-62336023D01*
X109808623Y-62248689D01*
X109877240Y-62145996D01*
X109924505Y-62031889D01*
X109948600Y-61910754D01*
X109948600Y-61787246D01*
X109924505Y-61666111D01*
X109877240Y-61552004D01*
X109808623Y-61449311D01*
X109721289Y-61361977D01*
X109618596Y-61293360D01*
X109504489Y-61246095D01*
X109383354Y-61222000D01*
X109259846Y-61222000D01*
X109138711Y-61246095D01*
X109024604Y-61293360D01*
X108921911Y-61361977D01*
X108834577Y-61449311D01*
X108765960Y-61552004D01*
X108718695Y-61666111D01*
X108694600Y-61787246D01*
X108694600Y-61836776D01*
X108560250Y-61971126D01*
X108522600Y-61967418D01*
X108051738Y-61967418D01*
X108070289Y-61955023D01*
X108157623Y-61867689D01*
X108226240Y-61764996D01*
X108273505Y-61650889D01*
X108297600Y-61529754D01*
X108297600Y-61406246D01*
X108273505Y-61285111D01*
X108226240Y-61171004D01*
X108157623Y-61068311D01*
X108070289Y-60980977D01*
X107967596Y-60912360D01*
X107853489Y-60865095D01*
X107732354Y-60841000D01*
X107682824Y-60841000D01*
X107573182Y-60731359D01*
X107573182Y-60710000D01*
X107562545Y-60602002D01*
X107531043Y-60498153D01*
X107479887Y-60402446D01*
X107411042Y-60318558D01*
X107327154Y-60249713D01*
X107231447Y-60198557D01*
X107127598Y-60167055D01*
X107019600Y-60156418D01*
X106569600Y-60156418D01*
X106461602Y-60167055D01*
X106357753Y-60198557D01*
X106282898Y-60238567D01*
X106225137Y-60130506D01*
X106145785Y-60033815D01*
X106049094Y-59954463D01*
X105938780Y-59895498D01*
X105819082Y-59859188D01*
X105694600Y-59846928D01*
X105530350Y-59850000D01*
X105371600Y-60008750D01*
X105371600Y-60833000D01*
X105391600Y-60833000D01*
X105391600Y-61087000D01*
X105371600Y-61087000D01*
X105371600Y-61107000D01*
X105117600Y-61107000D01*
X105117600Y-61087000D01*
X105097600Y-61087000D01*
X105097600Y-60833000D01*
X105117600Y-60833000D01*
X105117600Y-60008750D01*
X104958850Y-59850000D01*
X104794600Y-59846928D01*
X104783819Y-59847990D01*
X104809141Y-59741970D01*
X105342597Y-58175490D01*
X106020396Y-56665847D01*
X106537959Y-55753000D01*
X137007854Y-55753000D01*
X137123589Y-55936508D01*
G37*
G04 #@! TD.AperFunction*
D19*
X105624600Y-62544000D02*
X105644600Y-62544000D01*
X105644600Y-62798000D01*
X105624600Y-62798000D01*
X105624600Y-62818000D01*
X105370600Y-62818000D01*
X105370600Y-62798000D01*
X105350600Y-62798000D01*
X105350600Y-62544000D01*
X105370600Y-62544000D01*
X105370600Y-62524000D01*
X105624600Y-62524000D01*
X105624600Y-62544000D01*
G04 #@! TA.AperFunction,Conductor*
D20*
G36*
X105624600Y-62544000D02*
G01*
X105644600Y-62544000D01*
X105644600Y-62798000D01*
X105624600Y-62798000D01*
X105624600Y-62818000D01*
X105370600Y-62818000D01*
X105370600Y-62798000D01*
X105350600Y-62798000D01*
X105350600Y-62544000D01*
X105370600Y-62544000D01*
X105370600Y-62524000D01*
X105624600Y-62524000D01*
X105624600Y-62544000D01*
G37*
G04 #@! TD.AperFunction*
M02*
