G04 #@! TF.GenerationSoftware,KiCad,Pcbnew,(5.1.8)-1*
G04 #@! TF.CreationDate,2021-04-04T20:56:17+02:00*
G04 #@! TF.ProjectId,nrf52-sensor-tag,6e726635-322d-4736-956e-736f722d7461,rev?*
G04 #@! TF.SameCoordinates,Original*
G04 #@! TF.FileFunction,Legend,Top*
G04 #@! TF.FilePolarity,Positive*
%FSLAX46Y46*%
G04 Gerber Fmt 4.6, Leading zero omitted, Abs format (unit mm)*
G04 Created by KiCad (PCBNEW (5.1.8)-1) date 2021-04-04 20:56:17*
%MOMM*%
%LPD*%
G01*
G04 APERTURE LIST*
%ADD10C,0.150000*%
%ADD11C,0.300000*%
%ADD12C,0.120000*%
%ADD13C,0.100000*%
%ADD14C,0.200000*%
%ADD15C,0.254000*%
G04 APERTURE END LIST*
D10*
X134299600Y-66981428D02*
X134499600Y-67581428D01*
X134699600Y-66981428D01*
X134899600Y-67267142D02*
X135099600Y-67267142D01*
X135185314Y-67581428D02*
X134899600Y-67581428D01*
X134899600Y-66981428D01*
X135185314Y-66981428D01*
X135442457Y-67581428D02*
X135442457Y-66981428D01*
X135642457Y-67410000D01*
X135842457Y-66981428D01*
X135842457Y-67581428D01*
X136413885Y-67581428D02*
X136128171Y-67581428D01*
X136128171Y-66981428D01*
X136871028Y-66981428D02*
X136756742Y-66981428D01*
X136699600Y-67010000D01*
X136671028Y-67038571D01*
X136613885Y-67124285D01*
X136585314Y-67238571D01*
X136585314Y-67467142D01*
X136613885Y-67524285D01*
X136642457Y-67552857D01*
X136699600Y-67581428D01*
X136813885Y-67581428D01*
X136871028Y-67552857D01*
X136899600Y-67524285D01*
X136928171Y-67467142D01*
X136928171Y-67324285D01*
X136899600Y-67267142D01*
X136871028Y-67238571D01*
X136813885Y-67210000D01*
X136699600Y-67210000D01*
X136642457Y-67238571D01*
X136613885Y-67267142D01*
X136585314Y-67324285D01*
X137299600Y-66981428D02*
X137356742Y-66981428D01*
X137413885Y-67010000D01*
X137442457Y-67038571D01*
X137471028Y-67095714D01*
X137499600Y-67210000D01*
X137499600Y-67352857D01*
X137471028Y-67467142D01*
X137442457Y-67524285D01*
X137413885Y-67552857D01*
X137356742Y-67581428D01*
X137299600Y-67581428D01*
X137242457Y-67552857D01*
X137213885Y-67524285D01*
X137185314Y-67467142D01*
X137156742Y-67352857D01*
X137156742Y-67210000D01*
X137185314Y-67095714D01*
X137213885Y-67038571D01*
X137242457Y-67010000D01*
X137299600Y-66981428D01*
X137699600Y-66981428D02*
X138071028Y-66981428D01*
X137871028Y-67210000D01*
X137956742Y-67210000D01*
X138013885Y-67238571D01*
X138042457Y-67267142D01*
X138071028Y-67324285D01*
X138071028Y-67467142D01*
X138042457Y-67524285D01*
X138013885Y-67552857D01*
X137956742Y-67581428D01*
X137785314Y-67581428D01*
X137728171Y-67552857D01*
X137699600Y-67524285D01*
X138442457Y-66981428D02*
X138499600Y-66981428D01*
X138556742Y-67010000D01*
X138585314Y-67038571D01*
X138613885Y-67095714D01*
X138642457Y-67210000D01*
X138642457Y-67352857D01*
X138613885Y-67467142D01*
X138585314Y-67524285D01*
X138556742Y-67552857D01*
X138499600Y-67581428D01*
X138442457Y-67581428D01*
X138385314Y-67552857D01*
X138356742Y-67524285D01*
X138328171Y-67467142D01*
X138299600Y-67352857D01*
X138299600Y-67210000D01*
X138328171Y-67095714D01*
X138356742Y-67038571D01*
X138385314Y-67010000D01*
X138442457Y-66981428D01*
D11*
X139413746Y-64516000D02*
G75*
G03*
X139413746Y-64516000I-17646146J0D01*
G01*
D10*
X109520715Y-70440340D02*
X109620715Y-70613546D01*
X109391393Y-70844919D02*
X109248535Y-70597483D01*
X109768151Y-70297483D01*
X109911008Y-70544919D01*
X109996722Y-70693381D02*
X109577107Y-71166586D01*
X110196722Y-71039791D01*
X110049286Y-71355853D02*
X110149286Y-71529058D01*
X109919964Y-71760432D02*
X109777107Y-71512996D01*
X110296722Y-71212996D01*
X110439579Y-71460432D01*
X110048535Y-71983124D02*
X110568151Y-71683124D01*
X110219964Y-72280047D01*
X110739579Y-71980047D01*
X110839579Y-72153252D02*
X111011008Y-72450175D01*
X110405678Y-72601714D02*
X110925294Y-72301714D01*
X133377949Y-72137393D02*
X133030513Y-72167741D01*
X133206521Y-72434316D02*
X132686905Y-72134316D01*
X132801191Y-71936367D01*
X132854506Y-71901166D01*
X132893535Y-71890708D01*
X132957308Y-71894536D01*
X133031539Y-71937393D01*
X133066741Y-71990708D01*
X133077198Y-72029737D01*
X133073371Y-72093510D01*
X132959085Y-72291459D01*
X133234341Y-71757558D02*
X133334341Y-71584353D01*
X133649378Y-71667265D02*
X133506521Y-71914701D01*
X132986905Y-71614701D01*
X133129763Y-71367265D01*
X133738920Y-71455031D02*
X133806521Y-71395086D01*
X133877949Y-71271368D01*
X133881777Y-71207595D01*
X133871319Y-71168565D01*
X133836118Y-71115250D01*
X133786631Y-71086679D01*
X133722858Y-71082851D01*
X133683828Y-71093309D01*
X133630513Y-71128511D01*
X133548627Y-71213199D01*
X133495312Y-71248401D01*
X133456283Y-71258858D01*
X133392510Y-71255031D01*
X133343023Y-71226459D01*
X133307821Y-71173144D01*
X133297363Y-71134115D01*
X133301191Y-71070342D01*
X133372620Y-70946624D01*
X133440220Y-70886679D01*
X133791484Y-70792558D02*
X133891484Y-70619353D01*
X134206521Y-70702265D02*
X134063664Y-70949701D01*
X133544048Y-70649701D01*
X133686905Y-70402265D01*
X133772620Y-70253804D02*
X133944048Y-69956881D01*
X134377949Y-70405342D02*
X133858334Y-70105342D01*
X104899028Y-68089428D02*
X104899028Y-67489428D01*
X105099028Y-67918000D01*
X105299028Y-67489428D01*
X105299028Y-68089428D01*
X105556171Y-68060857D02*
X105641885Y-68089428D01*
X105784742Y-68089428D01*
X105841885Y-68060857D01*
X105870457Y-68032285D01*
X105899028Y-67975142D01*
X105899028Y-67918000D01*
X105870457Y-67860857D01*
X105841885Y-67832285D01*
X105784742Y-67803714D01*
X105670457Y-67775142D01*
X105613314Y-67746571D01*
X105584742Y-67718000D01*
X105556171Y-67660857D01*
X105556171Y-67603714D01*
X105584742Y-67546571D01*
X105613314Y-67518000D01*
X105670457Y-67489428D01*
X105813314Y-67489428D01*
X105899028Y-67518000D01*
X106241885Y-67746571D02*
X106184742Y-67718000D01*
X106156171Y-67689428D01*
X106127600Y-67632285D01*
X106127600Y-67603714D01*
X106156171Y-67546571D01*
X106184742Y-67518000D01*
X106241885Y-67489428D01*
X106356171Y-67489428D01*
X106413314Y-67518000D01*
X106441885Y-67546571D01*
X106470457Y-67603714D01*
X106470457Y-67632285D01*
X106441885Y-67689428D01*
X106413314Y-67718000D01*
X106356171Y-67746571D01*
X106241885Y-67746571D01*
X106184742Y-67775142D01*
X106156171Y-67803714D01*
X106127600Y-67860857D01*
X106127600Y-67975142D01*
X106156171Y-68032285D01*
X106184742Y-68060857D01*
X106241885Y-68089428D01*
X106356171Y-68089428D01*
X106413314Y-68060857D01*
X106441885Y-68032285D01*
X106470457Y-67975142D01*
X106470457Y-67860857D01*
X106441885Y-67803714D01*
X106413314Y-67775142D01*
X106356171Y-67746571D01*
X106984742Y-67489428D02*
X106870457Y-67489428D01*
X106813314Y-67518000D01*
X106784742Y-67546571D01*
X106727600Y-67632285D01*
X106699028Y-67746571D01*
X106699028Y-67975142D01*
X106727600Y-68032285D01*
X106756171Y-68060857D01*
X106813314Y-68089428D01*
X106927600Y-68089428D01*
X106984742Y-68060857D01*
X107013314Y-68032285D01*
X107041885Y-67975142D01*
X107041885Y-67832285D01*
X107013314Y-67775142D01*
X106984742Y-67746571D01*
X106927600Y-67718000D01*
X106813314Y-67718000D01*
X106756171Y-67746571D01*
X106727600Y-67775142D01*
X106699028Y-67832285D01*
X107413314Y-67489428D02*
X107470457Y-67489428D01*
X107527600Y-67518000D01*
X107556171Y-67546571D01*
X107584742Y-67603714D01*
X107613314Y-67718000D01*
X107613314Y-67860857D01*
X107584742Y-67975142D01*
X107556171Y-68032285D01*
X107527600Y-68060857D01*
X107470457Y-68089428D01*
X107413314Y-68089428D01*
X107356171Y-68060857D01*
X107327600Y-68032285D01*
X107299028Y-67975142D01*
X107270457Y-67860857D01*
X107270457Y-67718000D01*
X107299028Y-67603714D01*
X107327600Y-67546571D01*
X107356171Y-67518000D01*
X107413314Y-67489428D01*
X107813314Y-67489428D02*
X108213314Y-67489428D01*
X107956171Y-68089428D01*
D12*
X115276100Y-75073742D02*
X115276100Y-75548258D01*
X116321100Y-75073742D02*
X116321100Y-75548258D01*
X117054100Y-75073742D02*
X117054100Y-75548258D01*
X118099100Y-75073742D02*
X118099100Y-75548258D01*
X119877100Y-75548258D02*
X119877100Y-75073742D01*
X118832100Y-75548258D02*
X118832100Y-75073742D01*
D13*
X113620600Y-76373000D02*
X113620600Y-75773000D01*
X114420600Y-76373000D02*
X114420600Y-75773000D01*
D12*
X113039600Y-72215000D02*
X130439600Y-72215000D01*
X113039600Y-49015000D02*
X130439600Y-49015000D01*
X113039600Y-71315000D02*
X113039600Y-72215000D01*
X130439600Y-72215000D02*
X130439600Y-71315000D01*
X130439600Y-56015000D02*
X130439600Y-49015000D01*
X113039600Y-56015000D02*
X113039600Y-49015000D01*
X130439600Y-55515000D02*
X113039600Y-55515000D01*
X113639600Y-54115000D02*
X118239600Y-49515000D01*
X113639600Y-52315000D02*
X116439600Y-49515000D01*
X113439600Y-50715000D02*
X114639600Y-49515000D01*
X114439600Y-55115000D02*
X120039600Y-49515000D01*
X117239600Y-55115000D02*
X118639600Y-53715000D01*
X122439600Y-51115000D02*
X124039600Y-49515000D01*
X121439600Y-55115000D02*
X123039600Y-53515000D01*
X123439600Y-55115000D02*
X128239600Y-49515000D01*
X125639600Y-55115000D02*
X130039600Y-49915000D01*
X127839600Y-55115000D02*
X130039600Y-52715000D01*
X134664600Y-60128000D02*
X134964600Y-60428000D01*
X134364600Y-60428000D02*
X134964600Y-60428000D01*
X134664600Y-60128000D02*
X134364600Y-60428000D01*
X133814600Y-59228000D02*
X133814600Y-58628000D01*
X137264600Y-59928000D02*
X134464600Y-59928000D01*
X137914600Y-58628000D02*
X137914600Y-59228000D01*
X134464600Y-57928000D02*
X137264600Y-57928000D01*
X133814600Y-58628000D02*
G75*
G02*
X134514600Y-57928000I700000J0D01*
G01*
X134514600Y-59928000D02*
G75*
G02*
X133814600Y-59228000I0J700000D01*
G01*
X137914600Y-59228000D02*
G75*
G02*
X137214600Y-59928000I-700000J0D01*
G01*
X137214600Y-57928000D02*
G75*
G02*
X137914600Y-58628000I0J-700000D01*
G01*
X108743600Y-57728000D02*
X108443600Y-57428000D01*
X109043600Y-57428000D02*
X108443600Y-57428000D01*
X108743600Y-57728000D02*
X109043600Y-57428000D01*
X109593600Y-58628000D02*
X109593600Y-59228000D01*
X106143600Y-57928000D02*
X108943600Y-57928000D01*
X105493600Y-59228000D02*
X105493600Y-58628000D01*
X108943600Y-59928000D02*
X106143600Y-59928000D01*
X109593600Y-59228000D02*
G75*
G02*
X108893600Y-59928000I-700000J0D01*
G01*
X108893600Y-57928000D02*
G75*
G02*
X109593600Y-58628000I0J-700000D01*
G01*
X105493600Y-58628000D02*
G75*
G02*
X106193600Y-57928000I700000J0D01*
G01*
X106193600Y-59928000D02*
G75*
G02*
X105493600Y-59228000I0J700000D01*
G01*
D14*
X106572600Y-62046000D02*
X106722600Y-62046000D01*
X106722600Y-62046000D02*
X106722600Y-67046000D01*
X106722600Y-67046000D02*
X106572600Y-67046000D01*
X106572600Y-67046000D02*
X106572600Y-62046000D01*
D15*
X104897600Y-61796000D02*
G75*
G03*
X104897600Y-61796000I-125000J0D01*
G01*
D13*
X135372600Y-65643000D02*
X135372600Y-63643000D01*
X137372600Y-65643000D02*
X137372600Y-63643000D01*
D14*
X135722600Y-66143000D02*
X135722600Y-66143000D01*
X135722600Y-66343000D02*
X135722600Y-66343000D01*
X135722600Y-66143000D02*
G75*
G02*
X135722600Y-66343000I0J-100000D01*
G01*
X135722600Y-66343000D02*
G75*
G02*
X135722600Y-66143000I0J100000D01*
G01*
D12*
X136359020Y-62105000D02*
X136640180Y-62105000D01*
X136359020Y-61085000D02*
X136640180Y-61085000D01*
X105879020Y-61470000D02*
X106160180Y-61470000D01*
X105879020Y-60450000D02*
X106160180Y-60450000D01*
X128995700Y-75535558D02*
X128995700Y-75061042D01*
X127950700Y-75535558D02*
X127950700Y-75061042D01*
X121909100Y-75548258D02*
X121909100Y-75073742D01*
X120864100Y-75548258D02*
X120864100Y-75073742D01*
X123560100Y-75548258D02*
X123560100Y-75073742D01*
X122515100Y-75548258D02*
X122515100Y-75073742D01*
X125211100Y-75548258D02*
X125211100Y-75073742D01*
X124166100Y-75548258D02*
X124166100Y-75073742D01*
D13*
X108135241Y-69808840D02*
X108265144Y-69733840D01*
X108265144Y-69733840D02*
X110615144Y-73804160D01*
X110615144Y-73804160D02*
X110485241Y-73879160D01*
X105363959Y-71408840D02*
X104368030Y-71983840D01*
X104368030Y-71983840D02*
X106718030Y-76054160D01*
X106718030Y-76054160D02*
X107713959Y-75479160D01*
X110690625Y-75434897D02*
X110690625Y-75434897D01*
X110604023Y-75484897D02*
X110604023Y-75484897D01*
X110690625Y-75434897D02*
G75*
G02*
X110604023Y-75484897I-43301J-25000D01*
G01*
X110604023Y-75484897D02*
G75*
G02*
X110690625Y-75434897I43301J25000D01*
G01*
X133049959Y-73879160D02*
X132920056Y-73804160D01*
X132920056Y-73804160D02*
X135270056Y-69733840D01*
X135270056Y-69733840D02*
X135399959Y-69808840D01*
X135821241Y-75479160D02*
X136817170Y-76054160D01*
X136817170Y-76054160D02*
X139167170Y-71983840D01*
X139167170Y-71983840D02*
X138171241Y-71408840D01*
X136644575Y-68853103D02*
X136644575Y-68853103D01*
X136731177Y-68903103D02*
X136731177Y-68903103D01*
X136644575Y-68853103D02*
G75*
G02*
X136731177Y-68903103I43301J-25000D01*
G01*
X136731177Y-68903103D02*
G75*
G02*
X136644575Y-68853103I-43301J25000D01*
G01*
D12*
X129614200Y-75157720D02*
X129614200Y-75438880D01*
X130634200Y-75157720D02*
X130634200Y-75438880D01*
D10*
X115698600Y-73550428D02*
X115498600Y-73264714D01*
X115355742Y-73550428D02*
X115355742Y-72950428D01*
X115584314Y-72950428D01*
X115641457Y-72979000D01*
X115670028Y-73007571D01*
X115698600Y-73064714D01*
X115698600Y-73150428D01*
X115670028Y-73207571D01*
X115641457Y-73236142D01*
X115584314Y-73264714D01*
X115355742Y-73264714D01*
X115898600Y-72950428D02*
X116298600Y-72950428D01*
X116041457Y-73550428D01*
X117476600Y-73550428D02*
X117276600Y-73264714D01*
X117133742Y-73550428D02*
X117133742Y-72950428D01*
X117362314Y-72950428D01*
X117419457Y-72979000D01*
X117448028Y-73007571D01*
X117476600Y-73064714D01*
X117476600Y-73150428D01*
X117448028Y-73207571D01*
X117419457Y-73236142D01*
X117362314Y-73264714D01*
X117133742Y-73264714D01*
X117990885Y-72950428D02*
X117876600Y-72950428D01*
X117819457Y-72979000D01*
X117790885Y-73007571D01*
X117733742Y-73093285D01*
X117705171Y-73207571D01*
X117705171Y-73436142D01*
X117733742Y-73493285D01*
X117762314Y-73521857D01*
X117819457Y-73550428D01*
X117933742Y-73550428D01*
X117990885Y-73521857D01*
X118019457Y-73493285D01*
X118048028Y-73436142D01*
X118048028Y-73293285D01*
X118019457Y-73236142D01*
X117990885Y-73207571D01*
X117933742Y-73179000D01*
X117819457Y-73179000D01*
X117762314Y-73207571D01*
X117733742Y-73236142D01*
X117705171Y-73293285D01*
X119254600Y-73550428D02*
X119054600Y-73264714D01*
X118911742Y-73550428D02*
X118911742Y-72950428D01*
X119140314Y-72950428D01*
X119197457Y-72979000D01*
X119226028Y-73007571D01*
X119254600Y-73064714D01*
X119254600Y-73150428D01*
X119226028Y-73207571D01*
X119197457Y-73236142D01*
X119140314Y-73264714D01*
X118911742Y-73264714D01*
X119797457Y-72950428D02*
X119511742Y-72950428D01*
X119483171Y-73236142D01*
X119511742Y-73207571D01*
X119568885Y-73179000D01*
X119711742Y-73179000D01*
X119768885Y-73207571D01*
X119797457Y-73236142D01*
X119826028Y-73293285D01*
X119826028Y-73436142D01*
X119797457Y-73493285D01*
X119768885Y-73521857D01*
X119711742Y-73550428D01*
X119568885Y-73550428D01*
X119511742Y-73521857D01*
X119483171Y-73493285D01*
X120977695Y-65767380D02*
X120977695Y-66576904D01*
X121025314Y-66672142D01*
X121072933Y-66719761D01*
X121168171Y-66767380D01*
X121358647Y-66767380D01*
X121453885Y-66719761D01*
X121501504Y-66672142D01*
X121549123Y-66576904D01*
X121549123Y-65767380D01*
X122549123Y-66767380D02*
X121977695Y-66767380D01*
X122263409Y-66767380D02*
X122263409Y-65767380D01*
X122168171Y-65910238D01*
X122072933Y-66005476D01*
X121977695Y-66053095D01*
X118568171Y-52481666D02*
X119044361Y-52481666D01*
X118472933Y-52767380D02*
X118806266Y-51767380D01*
X119139600Y-52767380D01*
X119472933Y-52767380D02*
X119472933Y-51767380D01*
X120044361Y-52767380D01*
X120044361Y-51767380D01*
X120377695Y-51767380D02*
X120949123Y-51767380D01*
X120663409Y-52767380D02*
X120663409Y-51767380D01*
X121282457Y-52243571D02*
X121615790Y-52243571D01*
X121758647Y-52767380D02*
X121282457Y-52767380D01*
X121282457Y-51767380D01*
X121758647Y-51767380D01*
X122187219Y-52767380D02*
X122187219Y-51767380D01*
X122758647Y-52767380D01*
X122758647Y-51767380D01*
X123234838Y-52767380D02*
X123234838Y-51767380D01*
X123806266Y-52767380D01*
X123806266Y-51767380D01*
X124234838Y-52481666D02*
X124711028Y-52481666D01*
X124139600Y-52767380D02*
X124472933Y-51767380D01*
X124806266Y-52767380D01*
X134494600Y-61809285D02*
X134466028Y-61837857D01*
X134380314Y-61866428D01*
X134323171Y-61866428D01*
X134237457Y-61837857D01*
X134180314Y-61780714D01*
X134151742Y-61723571D01*
X134123171Y-61609285D01*
X134123171Y-61523571D01*
X134151742Y-61409285D01*
X134180314Y-61352142D01*
X134237457Y-61295000D01*
X134323171Y-61266428D01*
X134380314Y-61266428D01*
X134466028Y-61295000D01*
X134494600Y-61323571D01*
X134837457Y-61523571D02*
X134780314Y-61495000D01*
X134751742Y-61466428D01*
X134723171Y-61409285D01*
X134723171Y-61380714D01*
X134751742Y-61323571D01*
X134780314Y-61295000D01*
X134837457Y-61266428D01*
X134951742Y-61266428D01*
X135008885Y-61295000D01*
X135037457Y-61323571D01*
X135066028Y-61380714D01*
X135066028Y-61409285D01*
X135037457Y-61466428D01*
X135008885Y-61495000D01*
X134951742Y-61523571D01*
X134837457Y-61523571D01*
X134780314Y-61552142D01*
X134751742Y-61580714D01*
X134723171Y-61637857D01*
X134723171Y-61752142D01*
X134751742Y-61809285D01*
X134780314Y-61837857D01*
X134837457Y-61866428D01*
X134951742Y-61866428D01*
X135008885Y-61837857D01*
X135037457Y-61809285D01*
X135066028Y-61752142D01*
X135066028Y-61637857D01*
X135037457Y-61580714D01*
X135008885Y-61552142D01*
X134951742Y-61523571D01*
X108078600Y-61174285D02*
X108050028Y-61202857D01*
X107964314Y-61231428D01*
X107907171Y-61231428D01*
X107821457Y-61202857D01*
X107764314Y-61145714D01*
X107735742Y-61088571D01*
X107707171Y-60974285D01*
X107707171Y-60888571D01*
X107735742Y-60774285D01*
X107764314Y-60717142D01*
X107821457Y-60660000D01*
X107907171Y-60631428D01*
X107964314Y-60631428D01*
X108050028Y-60660000D01*
X108078600Y-60688571D01*
X108621457Y-60631428D02*
X108335742Y-60631428D01*
X108307171Y-60917142D01*
X108335742Y-60888571D01*
X108392885Y-60860000D01*
X108535742Y-60860000D01*
X108592885Y-60888571D01*
X108621457Y-60917142D01*
X108650028Y-60974285D01*
X108650028Y-61117142D01*
X108621457Y-61174285D01*
X108592885Y-61202857D01*
X108535742Y-61231428D01*
X108392885Y-61231428D01*
X108335742Y-61202857D01*
X108307171Y-61174285D01*
X128398600Y-73550428D02*
X128198600Y-73264714D01*
X128055742Y-73550428D02*
X128055742Y-72950428D01*
X128284314Y-72950428D01*
X128341457Y-72979000D01*
X128370028Y-73007571D01*
X128398600Y-73064714D01*
X128398600Y-73150428D01*
X128370028Y-73207571D01*
X128341457Y-73236142D01*
X128284314Y-73264714D01*
X128055742Y-73264714D01*
X128912885Y-73150428D02*
X128912885Y-73550428D01*
X128770028Y-72921857D02*
X128627171Y-73350428D01*
X128998600Y-73350428D01*
X121286600Y-73550428D02*
X121086600Y-73264714D01*
X120943742Y-73550428D02*
X120943742Y-72950428D01*
X121172314Y-72950428D01*
X121229457Y-72979000D01*
X121258028Y-73007571D01*
X121286600Y-73064714D01*
X121286600Y-73150428D01*
X121258028Y-73207571D01*
X121229457Y-73236142D01*
X121172314Y-73264714D01*
X120943742Y-73264714D01*
X121486600Y-72950428D02*
X121858028Y-72950428D01*
X121658028Y-73179000D01*
X121743742Y-73179000D01*
X121800885Y-73207571D01*
X121829457Y-73236142D01*
X121858028Y-73293285D01*
X121858028Y-73436142D01*
X121829457Y-73493285D01*
X121800885Y-73521857D01*
X121743742Y-73550428D01*
X121572314Y-73550428D01*
X121515171Y-73521857D01*
X121486600Y-73493285D01*
X122861400Y-73550428D02*
X122661400Y-73264714D01*
X122518542Y-73550428D02*
X122518542Y-72950428D01*
X122747114Y-72950428D01*
X122804257Y-72979000D01*
X122832828Y-73007571D01*
X122861400Y-73064714D01*
X122861400Y-73150428D01*
X122832828Y-73207571D01*
X122804257Y-73236142D01*
X122747114Y-73264714D01*
X122518542Y-73264714D01*
X123089971Y-73007571D02*
X123118542Y-72979000D01*
X123175685Y-72950428D01*
X123318542Y-72950428D01*
X123375685Y-72979000D01*
X123404257Y-73007571D01*
X123432828Y-73064714D01*
X123432828Y-73121857D01*
X123404257Y-73207571D01*
X123061400Y-73550428D01*
X123432828Y-73550428D01*
X124563200Y-73550428D02*
X124363200Y-73264714D01*
X124220342Y-73550428D02*
X124220342Y-72950428D01*
X124448914Y-72950428D01*
X124506057Y-72979000D01*
X124534628Y-73007571D01*
X124563200Y-73064714D01*
X124563200Y-73150428D01*
X124534628Y-73207571D01*
X124506057Y-73236142D01*
X124448914Y-73264714D01*
X124220342Y-73264714D01*
X125134628Y-73550428D02*
X124791771Y-73550428D01*
X124963200Y-73550428D02*
X124963200Y-72950428D01*
X124906057Y-73036142D01*
X124848914Y-73093285D01*
X124791771Y-73121857D01*
D15*
X106675099Y-72507897D02*
X106713439Y-72695256D01*
X106864630Y-72957126D01*
X106977480Y-73031636D01*
X107060092Y-73053772D01*
X107195078Y-73045669D01*
X107299825Y-72985193D01*
X107374335Y-72872343D01*
X107396471Y-72789731D01*
X107388369Y-72654745D01*
X107319790Y-72415011D01*
X107311688Y-72280025D01*
X107333824Y-72197413D01*
X107408334Y-72084563D01*
X107513081Y-72024087D01*
X107648067Y-72015985D01*
X107730679Y-72038121D01*
X107843529Y-72112630D01*
X107994720Y-72374500D01*
X108033060Y-72561860D01*
X108222591Y-73011089D02*
X108305203Y-73033225D01*
X108418053Y-73107735D01*
X108569244Y-73369604D01*
X108577346Y-73504590D01*
X108555210Y-73587202D01*
X108480700Y-73700052D01*
X108375953Y-73760529D01*
X108188593Y-73798869D01*
X107197249Y-73533239D01*
X107590344Y-74214100D01*
X136117481Y-73794150D02*
X136260569Y-73667266D01*
X136411760Y-73405397D01*
X136419862Y-73270411D01*
X136397726Y-73187799D01*
X136323217Y-73074949D01*
X136218469Y-73014473D01*
X136083483Y-73006370D01*
X136000871Y-73028506D01*
X135888021Y-73103016D01*
X135714694Y-73282273D01*
X135601844Y-73356783D01*
X135519232Y-73378919D01*
X135384246Y-73370817D01*
X135279499Y-73310340D01*
X135204989Y-73197490D01*
X135182853Y-73114878D01*
X135190955Y-72979892D01*
X135342146Y-72718023D01*
X135485234Y-72591139D01*
X137137474Y-72148423D02*
X136774617Y-72776910D01*
X136956046Y-72462666D02*
X135856193Y-71827666D01*
X135952839Y-72023128D01*
X135997111Y-72188352D01*
X135989008Y-72323338D01*
D10*
X130049600Y-73493285D02*
X130021028Y-73521857D01*
X129935314Y-73550428D01*
X129878171Y-73550428D01*
X129792457Y-73521857D01*
X129735314Y-73464714D01*
X129706742Y-73407571D01*
X129678171Y-73293285D01*
X129678171Y-73207571D01*
X129706742Y-73093285D01*
X129735314Y-73036142D01*
X129792457Y-72979000D01*
X129878171Y-72950428D01*
X129935314Y-72950428D01*
X130021028Y-72979000D01*
X130049600Y-73007571D01*
X130249600Y-72950428D02*
X130649600Y-72950428D01*
X130392457Y-73550428D01*
M02*
