G04 #@! TF.GenerationSoftware,KiCad,Pcbnew,(5.1.8)-1*
G04 #@! TF.CreationDate,2021-04-04T20:56:17+02:00*
G04 #@! TF.ProjectId,nrf52-sensor-tag,6e726635-322d-4736-956e-736f722d7461,rev?*
G04 #@! TF.SameCoordinates,Original*
G04 #@! TF.FileFunction,Soldermask,Top*
G04 #@! TF.FilePolarity,Negative*
%FSLAX46Y46*%
G04 Gerber Fmt 4.6, Leading zero omitted, Abs format (unit mm)*
G04 Created by KiCad (PCBNEW (5.1.8)-1) date 2021-04-04 20:56:17*
%MOMM*%
%LPD*%
G01*
G04 APERTURE LIST*
%ADD10R,0.400000X0.500000*%
%ADD11R,1.700000X0.800000*%
%ADD12C,0.100000*%
%ADD13R,1.000000X1.500000*%
%ADD14R,1.450000X0.750000*%
%ADD15R,0.300000X0.550000*%
%ADD16O,1.700000X1.700000*%
%ADD17R,1.700000X1.700000*%
G04 APERTURE END LIST*
G36*
G01*
X115523600Y-75736000D02*
X116073600Y-75736000D01*
G75*
G02*
X116273600Y-75936000I0J-200000D01*
G01*
X116273600Y-76336000D01*
G75*
G02*
X116073600Y-76536000I-200000J0D01*
G01*
X115523600Y-76536000D01*
G75*
G02*
X115323600Y-76336000I0J200000D01*
G01*
X115323600Y-75936000D01*
G75*
G02*
X115523600Y-75736000I200000J0D01*
G01*
G37*
G36*
G01*
X115523600Y-74086000D02*
X116073600Y-74086000D01*
G75*
G02*
X116273600Y-74286000I0J-200000D01*
G01*
X116273600Y-74686000D01*
G75*
G02*
X116073600Y-74886000I-200000J0D01*
G01*
X115523600Y-74886000D01*
G75*
G02*
X115323600Y-74686000I0J200000D01*
G01*
X115323600Y-74286000D01*
G75*
G02*
X115523600Y-74086000I200000J0D01*
G01*
G37*
G36*
G01*
X117301600Y-75736000D02*
X117851600Y-75736000D01*
G75*
G02*
X118051600Y-75936000I0J-200000D01*
G01*
X118051600Y-76336000D01*
G75*
G02*
X117851600Y-76536000I-200000J0D01*
G01*
X117301600Y-76536000D01*
G75*
G02*
X117101600Y-76336000I0J200000D01*
G01*
X117101600Y-75936000D01*
G75*
G02*
X117301600Y-75736000I200000J0D01*
G01*
G37*
G36*
G01*
X117301600Y-74086000D02*
X117851600Y-74086000D01*
G75*
G02*
X118051600Y-74286000I0J-200000D01*
G01*
X118051600Y-74686000D01*
G75*
G02*
X117851600Y-74886000I-200000J0D01*
G01*
X117301600Y-74886000D01*
G75*
G02*
X117101600Y-74686000I0J200000D01*
G01*
X117101600Y-74286000D01*
G75*
G02*
X117301600Y-74086000I200000J0D01*
G01*
G37*
G36*
G01*
X119629600Y-74886000D02*
X119079600Y-74886000D01*
G75*
G02*
X118879600Y-74686000I0J200000D01*
G01*
X118879600Y-74286000D01*
G75*
G02*
X119079600Y-74086000I200000J0D01*
G01*
X119629600Y-74086000D01*
G75*
G02*
X119829600Y-74286000I0J-200000D01*
G01*
X119829600Y-74686000D01*
G75*
G02*
X119629600Y-74886000I-200000J0D01*
G01*
G37*
G36*
G01*
X119629600Y-76536000D02*
X119079600Y-76536000D01*
G75*
G02*
X118879600Y-76336000I0J200000D01*
G01*
X118879600Y-75936000D01*
G75*
G02*
X119079600Y-75736000I200000J0D01*
G01*
X119629600Y-75736000D01*
G75*
G02*
X119829600Y-75936000I0J-200000D01*
G01*
X119829600Y-76336000D01*
G75*
G02*
X119629600Y-76536000I-200000J0D01*
G01*
G37*
D10*
X113670600Y-75423000D03*
X114370600Y-75423000D03*
X114370600Y-76723000D03*
X113670600Y-76723000D03*
D11*
X130339600Y-70815000D03*
X130339600Y-69715000D03*
X130339600Y-68615000D03*
X130339600Y-67515000D03*
X130339600Y-66415000D03*
X130339600Y-65315000D03*
X130339600Y-64215000D03*
X130339600Y-63115000D03*
X130339600Y-62015000D03*
X130339600Y-60915000D03*
X130339600Y-59815000D03*
X130339600Y-58715000D03*
X130339600Y-57615000D03*
X130339600Y-56515000D03*
X113139600Y-70815000D03*
X113139600Y-69715000D03*
X113139600Y-68615000D03*
X113139600Y-67515000D03*
X113139600Y-66415000D03*
X113139600Y-65315000D03*
X113139600Y-64215000D03*
X113139600Y-63115000D03*
X113139600Y-62015000D03*
X113139600Y-60915000D03*
X113139600Y-59815000D03*
X113139600Y-58715000D03*
X113139600Y-57615000D03*
X113139600Y-56515000D03*
D12*
G36*
X135114600Y-59678000D02*
G01*
X134564600Y-59678000D01*
X134564600Y-59677398D01*
X134540066Y-59677398D01*
X134491235Y-59672588D01*
X134443110Y-59663016D01*
X134396155Y-59648772D01*
X134350822Y-59629995D01*
X134307549Y-59606864D01*
X134266750Y-59579604D01*
X134228821Y-59548476D01*
X134194124Y-59513779D01*
X134162996Y-59475850D01*
X134135736Y-59435051D01*
X134112605Y-59391778D01*
X134093828Y-59346445D01*
X134079584Y-59299490D01*
X134070012Y-59251365D01*
X134065202Y-59202534D01*
X134065202Y-59178000D01*
X134064600Y-59178000D01*
X134064600Y-58678000D01*
X134065202Y-58678000D01*
X134065202Y-58653466D01*
X134070012Y-58604635D01*
X134079584Y-58556510D01*
X134093828Y-58509555D01*
X134112605Y-58464222D01*
X134135736Y-58420949D01*
X134162996Y-58380150D01*
X134194124Y-58342221D01*
X134228821Y-58307524D01*
X134266750Y-58276396D01*
X134307549Y-58249136D01*
X134350822Y-58226005D01*
X134396155Y-58207228D01*
X134443110Y-58192984D01*
X134491235Y-58183412D01*
X134540066Y-58178602D01*
X134564600Y-58178602D01*
X134564600Y-58178000D01*
X135114600Y-58178000D01*
X135114600Y-59678000D01*
G37*
D13*
X135864600Y-58928000D03*
D12*
G36*
X137164600Y-58178602D02*
G01*
X137189134Y-58178602D01*
X137237965Y-58183412D01*
X137286090Y-58192984D01*
X137333045Y-58207228D01*
X137378378Y-58226005D01*
X137421651Y-58249136D01*
X137462450Y-58276396D01*
X137500379Y-58307524D01*
X137535076Y-58342221D01*
X137566204Y-58380150D01*
X137593464Y-58420949D01*
X137616595Y-58464222D01*
X137635372Y-58509555D01*
X137649616Y-58556510D01*
X137659188Y-58604635D01*
X137663998Y-58653466D01*
X137663998Y-58678000D01*
X137664600Y-58678000D01*
X137664600Y-59178000D01*
X137663998Y-59178000D01*
X137663998Y-59202534D01*
X137659188Y-59251365D01*
X137649616Y-59299490D01*
X137635372Y-59346445D01*
X137616595Y-59391778D01*
X137593464Y-59435051D01*
X137566204Y-59475850D01*
X137535076Y-59513779D01*
X137500379Y-59548476D01*
X137462450Y-59579604D01*
X137421651Y-59606864D01*
X137378378Y-59629995D01*
X137333045Y-59648772D01*
X137286090Y-59663016D01*
X137237965Y-59672588D01*
X137189134Y-59677398D01*
X137164600Y-59677398D01*
X137164600Y-59678000D01*
X136614600Y-59678000D01*
X136614600Y-58178000D01*
X137164600Y-58178000D01*
X137164600Y-58178602D01*
G37*
G36*
X108293600Y-58178000D02*
G01*
X108843600Y-58178000D01*
X108843600Y-58178602D01*
X108868134Y-58178602D01*
X108916965Y-58183412D01*
X108965090Y-58192984D01*
X109012045Y-58207228D01*
X109057378Y-58226005D01*
X109100651Y-58249136D01*
X109141450Y-58276396D01*
X109179379Y-58307524D01*
X109214076Y-58342221D01*
X109245204Y-58380150D01*
X109272464Y-58420949D01*
X109295595Y-58464222D01*
X109314372Y-58509555D01*
X109328616Y-58556510D01*
X109338188Y-58604635D01*
X109342998Y-58653466D01*
X109342998Y-58678000D01*
X109343600Y-58678000D01*
X109343600Y-59178000D01*
X109342998Y-59178000D01*
X109342998Y-59202534D01*
X109338188Y-59251365D01*
X109328616Y-59299490D01*
X109314372Y-59346445D01*
X109295595Y-59391778D01*
X109272464Y-59435051D01*
X109245204Y-59475850D01*
X109214076Y-59513779D01*
X109179379Y-59548476D01*
X109141450Y-59579604D01*
X109100651Y-59606864D01*
X109057378Y-59629995D01*
X109012045Y-59648772D01*
X108965090Y-59663016D01*
X108916965Y-59672588D01*
X108868134Y-59677398D01*
X108843600Y-59677398D01*
X108843600Y-59678000D01*
X108293600Y-59678000D01*
X108293600Y-58178000D01*
G37*
D13*
X107543600Y-58928000D03*
D12*
G36*
X106243600Y-59677398D02*
G01*
X106219066Y-59677398D01*
X106170235Y-59672588D01*
X106122110Y-59663016D01*
X106075155Y-59648772D01*
X106029822Y-59629995D01*
X105986549Y-59606864D01*
X105945750Y-59579604D01*
X105907821Y-59548476D01*
X105873124Y-59513779D01*
X105841996Y-59475850D01*
X105814736Y-59435051D01*
X105791605Y-59391778D01*
X105772828Y-59346445D01*
X105758584Y-59299490D01*
X105749012Y-59251365D01*
X105744202Y-59202534D01*
X105744202Y-59178000D01*
X105743600Y-59178000D01*
X105743600Y-58678000D01*
X105744202Y-58678000D01*
X105744202Y-58653466D01*
X105749012Y-58604635D01*
X105758584Y-58556510D01*
X105772828Y-58509555D01*
X105791605Y-58464222D01*
X105814736Y-58420949D01*
X105841996Y-58380150D01*
X105873124Y-58342221D01*
X105907821Y-58307524D01*
X105945750Y-58276396D01*
X105986549Y-58249136D01*
X106029822Y-58226005D01*
X106075155Y-58207228D01*
X106122110Y-58192984D01*
X106170235Y-58183412D01*
X106219066Y-58178602D01*
X106243600Y-58178602D01*
X106243600Y-58178000D01*
X106793600Y-58178000D01*
X106793600Y-59678000D01*
X106243600Y-59678000D01*
X106243600Y-59677398D01*
G37*
D14*
X107797600Y-62671000D03*
X107797600Y-63921000D03*
X107797600Y-65171000D03*
X107797600Y-66421000D03*
X105497600Y-66421000D03*
X105497600Y-65171000D03*
X105497600Y-63921000D03*
X105497600Y-62671000D03*
D15*
X135722600Y-63768000D03*
X136372600Y-63768000D03*
X137022600Y-63768000D03*
X137022600Y-65518000D03*
X136372600Y-65518000D03*
X135722600Y-65518000D03*
G36*
G01*
X136824600Y-61845000D02*
X136824600Y-61345000D01*
G75*
G02*
X137049600Y-61120000I225000J0D01*
G01*
X137499600Y-61120000D01*
G75*
G02*
X137724600Y-61345000I0J-225000D01*
G01*
X137724600Y-61845000D01*
G75*
G02*
X137499600Y-62070000I-225000J0D01*
G01*
X137049600Y-62070000D01*
G75*
G02*
X136824600Y-61845000I0J225000D01*
G01*
G37*
G36*
G01*
X135274600Y-61845000D02*
X135274600Y-61345000D01*
G75*
G02*
X135499600Y-61120000I225000J0D01*
G01*
X135949600Y-61120000D01*
G75*
G02*
X136174600Y-61345000I0J-225000D01*
G01*
X136174600Y-61845000D01*
G75*
G02*
X135949600Y-62070000I-225000J0D01*
G01*
X135499600Y-62070000D01*
G75*
G02*
X135274600Y-61845000I0J225000D01*
G01*
G37*
G36*
G01*
X106344600Y-61210000D02*
X106344600Y-60710000D01*
G75*
G02*
X106569600Y-60485000I225000J0D01*
G01*
X107019600Y-60485000D01*
G75*
G02*
X107244600Y-60710000I0J-225000D01*
G01*
X107244600Y-61210000D01*
G75*
G02*
X107019600Y-61435000I-225000J0D01*
G01*
X106569600Y-61435000D01*
G75*
G02*
X106344600Y-61210000I0J225000D01*
G01*
G37*
G36*
G01*
X104794600Y-61210000D02*
X104794600Y-60710000D01*
G75*
G02*
X105019600Y-60485000I225000J0D01*
G01*
X105469600Y-60485000D01*
G75*
G02*
X105694600Y-60710000I0J-225000D01*
G01*
X105694600Y-61210000D01*
G75*
G02*
X105469600Y-61435000I-225000J0D01*
G01*
X105019600Y-61435000D01*
G75*
G02*
X104794600Y-61210000I0J225000D01*
G01*
G37*
D16*
X114274600Y-79362300D03*
X116814600Y-79362300D03*
X119354600Y-79362300D03*
X121894600Y-79362300D03*
X124434600Y-79362300D03*
X126974600Y-79362300D03*
D17*
X129514600Y-79362300D03*
G36*
G01*
X128748200Y-74873300D02*
X128198200Y-74873300D01*
G75*
G02*
X127998200Y-74673300I0J200000D01*
G01*
X127998200Y-74273300D01*
G75*
G02*
X128198200Y-74073300I200000J0D01*
G01*
X128748200Y-74073300D01*
G75*
G02*
X128948200Y-74273300I0J-200000D01*
G01*
X128948200Y-74673300D01*
G75*
G02*
X128748200Y-74873300I-200000J0D01*
G01*
G37*
G36*
G01*
X128748200Y-76523300D02*
X128198200Y-76523300D01*
G75*
G02*
X127998200Y-76323300I0J200000D01*
G01*
X127998200Y-75923300D01*
G75*
G02*
X128198200Y-75723300I200000J0D01*
G01*
X128748200Y-75723300D01*
G75*
G02*
X128948200Y-75923300I0J-200000D01*
G01*
X128948200Y-76323300D01*
G75*
G02*
X128748200Y-76523300I-200000J0D01*
G01*
G37*
G36*
G01*
X121661600Y-74886000D02*
X121111600Y-74886000D01*
G75*
G02*
X120911600Y-74686000I0J200000D01*
G01*
X120911600Y-74286000D01*
G75*
G02*
X121111600Y-74086000I200000J0D01*
G01*
X121661600Y-74086000D01*
G75*
G02*
X121861600Y-74286000I0J-200000D01*
G01*
X121861600Y-74686000D01*
G75*
G02*
X121661600Y-74886000I-200000J0D01*
G01*
G37*
G36*
G01*
X121661600Y-76536000D02*
X121111600Y-76536000D01*
G75*
G02*
X120911600Y-76336000I0J200000D01*
G01*
X120911600Y-75936000D01*
G75*
G02*
X121111600Y-75736000I200000J0D01*
G01*
X121661600Y-75736000D01*
G75*
G02*
X121861600Y-75936000I0J-200000D01*
G01*
X121861600Y-76336000D01*
G75*
G02*
X121661600Y-76536000I-200000J0D01*
G01*
G37*
G36*
G01*
X123312600Y-74886000D02*
X122762600Y-74886000D01*
G75*
G02*
X122562600Y-74686000I0J200000D01*
G01*
X122562600Y-74286000D01*
G75*
G02*
X122762600Y-74086000I200000J0D01*
G01*
X123312600Y-74086000D01*
G75*
G02*
X123512600Y-74286000I0J-200000D01*
G01*
X123512600Y-74686000D01*
G75*
G02*
X123312600Y-74886000I-200000J0D01*
G01*
G37*
G36*
G01*
X123312600Y-76536000D02*
X122762600Y-76536000D01*
G75*
G02*
X122562600Y-76336000I0J200000D01*
G01*
X122562600Y-75936000D01*
G75*
G02*
X122762600Y-75736000I200000J0D01*
G01*
X123312600Y-75736000D01*
G75*
G02*
X123512600Y-75936000I0J-200000D01*
G01*
X123512600Y-76336000D01*
G75*
G02*
X123312600Y-76536000I-200000J0D01*
G01*
G37*
G36*
G01*
X124963600Y-74886000D02*
X124413600Y-74886000D01*
G75*
G02*
X124213600Y-74686000I0J200000D01*
G01*
X124213600Y-74286000D01*
G75*
G02*
X124413600Y-74086000I200000J0D01*
G01*
X124963600Y-74086000D01*
G75*
G02*
X125163600Y-74286000I0J-200000D01*
G01*
X125163600Y-74686000D01*
G75*
G02*
X124963600Y-74886000I-200000J0D01*
G01*
G37*
G36*
G01*
X124963600Y-76536000D02*
X124413600Y-76536000D01*
G75*
G02*
X124213600Y-76336000I0J200000D01*
G01*
X124213600Y-75936000D01*
G75*
G02*
X124413600Y-75736000I200000J0D01*
G01*
X124963600Y-75736000D01*
G75*
G02*
X125163600Y-75936000I0J-200000D01*
G01*
X125163600Y-76336000D01*
G75*
G02*
X124963600Y-76536000I-200000J0D01*
G01*
G37*
D12*
G36*
X105830465Y-71716853D02*
G01*
X105055465Y-70374513D01*
X105921491Y-69874513D01*
X106696491Y-71216853D01*
X105830465Y-71716853D01*
G37*
G36*
X107302709Y-70866853D02*
G01*
X106527709Y-69524513D01*
X107393735Y-69024513D01*
X108168735Y-70366853D01*
X107302709Y-70866853D01*
G37*
G36*
X108455465Y-76263487D02*
G01*
X107680465Y-74921147D01*
X108546491Y-74421147D01*
X109321491Y-75763487D01*
X108455465Y-76263487D01*
G37*
G36*
X109927709Y-75413487D02*
G01*
X109152709Y-74071147D01*
X110018735Y-73571147D01*
X110793735Y-74913487D01*
X109927709Y-75413487D01*
G37*
G36*
X135854735Y-74921147D02*
G01*
X135079735Y-76263487D01*
X134213709Y-75763487D01*
X134988709Y-74421147D01*
X135854735Y-74921147D01*
G37*
G36*
X134382491Y-74071147D02*
G01*
X133607491Y-75413487D01*
X132741465Y-74913487D01*
X133516465Y-73571147D01*
X134382491Y-74071147D01*
G37*
G36*
X138479735Y-70374513D02*
G01*
X137704735Y-71716853D01*
X136838709Y-71216853D01*
X137613709Y-69874513D01*
X138479735Y-70374513D01*
G37*
G36*
X137007491Y-69524513D02*
G01*
X136232491Y-70866853D01*
X135366465Y-70366853D01*
X136141465Y-69024513D01*
X137007491Y-69524513D01*
G37*
G36*
G01*
X129874200Y-75623300D02*
X130374200Y-75623300D01*
G75*
G02*
X130599200Y-75848300I0J-225000D01*
G01*
X130599200Y-76298300D01*
G75*
G02*
X130374200Y-76523300I-225000J0D01*
G01*
X129874200Y-76523300D01*
G75*
G02*
X129649200Y-76298300I0J225000D01*
G01*
X129649200Y-75848300D01*
G75*
G02*
X129874200Y-75623300I225000J0D01*
G01*
G37*
G36*
G01*
X129874200Y-74073300D02*
X130374200Y-74073300D01*
G75*
G02*
X130599200Y-74298300I0J-225000D01*
G01*
X130599200Y-74748300D01*
G75*
G02*
X130374200Y-74973300I-225000J0D01*
G01*
X129874200Y-74973300D01*
G75*
G02*
X129649200Y-74748300I0J225000D01*
G01*
X129649200Y-74298300D01*
G75*
G02*
X129874200Y-74073300I225000J0D01*
G01*
G37*
M02*
