M48
; DRILL file {KiCad (5.1.8)-1} date 02/10/21 00:21:22
; FORMAT={-:-/ absolute / inch / decimal}
; #@! TF.CreationDate,2021-02-10T00:21:22+01:00
; #@! TF.GenerationSoftware,Kicad,Pcbnew,(5.1.8)-1
; #@! TF.FileFunction,Plated,1,2,PTH
FMAT,2
INCH
T1C0.0118
T2C0.0394
%
G90
G05
T1
X4.1138Y-2.5476
X4.199Y-2.825
X4.239Y-2.42
X4.254Y-2.915
X4.274Y-2.84
X4.304Y-2.435
X4.304Y-2.48
X4.304Y-2.52
X4.304Y-2.545
X4.304Y-2.57
X4.304Y-2.595
X4.309Y-2.67
X4.314Y-2.385
X4.374Y-2.725
X4.514Y-2.745
X4.5277Y-2.3063
X4.529Y-2.23
X4.5414Y-2.3776
X4.549Y-2.665
X4.604Y-2.685
X4.724Y-2.815
X4.784Y-2.665
X4.849Y-2.6276
X4.989Y-2.85
X5.014Y-2.88
X5.134Y-3.035
X5.204Y-2.22
X5.244Y-2.56
X5.244Y-2.61
X5.299Y-2.575
X5.339Y-2.915
X5.369Y-2.67
X5.384Y-2.825
X5.394Y-2.22
X5.444Y-2.32
X5.444Y-2.37
T2
X4.499Y-3.1245
X4.599Y-3.1245
X4.699Y-3.1245
X4.799Y-3.1245
X4.899Y-3.1245
X4.999Y-3.1245
X5.099Y-3.1245
T0
M30
