G04 #@! TF.GenerationSoftware,KiCad,Pcbnew,(5.1.8)-1*
G04 #@! TF.CreationDate,2021-04-04T20:56:17+02:00*
G04 #@! TF.ProjectId,nrf52-sensor-tag,6e726635-322d-4736-956e-736f722d7461,rev?*
G04 #@! TF.SameCoordinates,Original*
G04 #@! TF.FileFunction,Legend,Bot*
G04 #@! TF.FilePolarity,Positive*
%FSLAX46Y46*%
G04 Gerber Fmt 4.6, Leading zero omitted, Abs format (unit mm)*
G04 Created by KiCad (PCBNEW (5.1.8)-1) date 2021-04-04 20:56:17*
%MOMM*%
%LPD*%
G01*
G04 APERTURE LIST*
%ADD10C,0.120000*%
%ADD11C,0.150000*%
%ADD12C,0.100000*%
%ADD13C,0.200000*%
%ADD14C,0.254000*%
G04 APERTURE END LIST*
D10*
X113004600Y-80264000D02*
X113004600Y-78105000D01*
X120624600Y-78105000D02*
X130784600Y-78105000D01*
X120624600Y-78105000D02*
X120624600Y-82550000D01*
X113004600Y-78105000D02*
X120624600Y-78105000D01*
X130784600Y-78105000D02*
X130784600Y-80264000D01*
D11*
X124701076Y-81641904D02*
X124701076Y-80841904D01*
X124510600Y-80841904D01*
X124396314Y-80880000D01*
X124320123Y-80956190D01*
X124282028Y-81032380D01*
X124243933Y-81184761D01*
X124243933Y-81299047D01*
X124282028Y-81451428D01*
X124320123Y-81527619D01*
X124396314Y-81603809D01*
X124510600Y-81641904D01*
X124701076Y-81641904D01*
X123901076Y-81222857D02*
X123634409Y-81222857D01*
X123520123Y-81641904D02*
X123901076Y-81641904D01*
X123901076Y-80841904D01*
X123520123Y-80841904D01*
X122910600Y-81222857D02*
X122796314Y-81260952D01*
X122758219Y-81299047D01*
X122720123Y-81375238D01*
X122720123Y-81489523D01*
X122758219Y-81565714D01*
X122796314Y-81603809D01*
X122872504Y-81641904D01*
X123177266Y-81641904D01*
X123177266Y-80841904D01*
X122910600Y-80841904D01*
X122834409Y-80880000D01*
X122796314Y-80918095D01*
X122758219Y-80994285D01*
X122758219Y-81070476D01*
X122796314Y-81146666D01*
X122834409Y-81184761D01*
X122910600Y-81222857D01*
X123177266Y-81222857D01*
X122377266Y-80841904D02*
X122377266Y-81489523D01*
X122339171Y-81565714D01*
X122301076Y-81603809D01*
X122224885Y-81641904D01*
X122072504Y-81641904D01*
X121996314Y-81603809D01*
X121958219Y-81565714D01*
X121920123Y-81489523D01*
X121920123Y-80841904D01*
X121120123Y-80880000D02*
X121196314Y-80841904D01*
X121310600Y-80841904D01*
X121424885Y-80880000D01*
X121501076Y-80956190D01*
X121539171Y-81032380D01*
X121577266Y-81184761D01*
X121577266Y-81299047D01*
X121539171Y-81451428D01*
X121501076Y-81527619D01*
X121424885Y-81603809D01*
X121310600Y-81641904D01*
X121234409Y-81641904D01*
X121120123Y-81603809D01*
X121082028Y-81565714D01*
X121082028Y-81299047D01*
X121234409Y-81299047D01*
X120122790Y-80841904D02*
X120122790Y-81489523D01*
X120084695Y-81565714D01*
X120046600Y-81603809D01*
X119970409Y-81641904D01*
X119818028Y-81641904D01*
X119741838Y-81603809D01*
X119703742Y-81565714D01*
X119665647Y-81489523D01*
X119665647Y-80841904D01*
X119322790Y-81413333D02*
X118941838Y-81413333D01*
X119398980Y-81641904D02*
X119132314Y-80841904D01*
X118865647Y-81641904D01*
X118141838Y-81641904D02*
X118408504Y-81260952D01*
X118598980Y-81641904D02*
X118598980Y-80841904D01*
X118294219Y-80841904D01*
X118218028Y-80880000D01*
X118179933Y-80918095D01*
X118141838Y-80994285D01*
X118141838Y-81108571D01*
X118179933Y-81184761D01*
X118218028Y-81222857D01*
X118294219Y-81260952D01*
X118598980Y-81260952D01*
X117913266Y-80841904D02*
X117456123Y-80841904D01*
X117684695Y-81641904D02*
X117684695Y-80841904D01*
X119654600Y-77454047D02*
X119683171Y-77511190D01*
X119683171Y-77596905D01*
X119654600Y-77682619D01*
X119597457Y-77739762D01*
X119540314Y-77768333D01*
X119426028Y-77796905D01*
X119340314Y-77796905D01*
X119226028Y-77768333D01*
X119168885Y-77739762D01*
X119111742Y-77682619D01*
X119083171Y-77596905D01*
X119083171Y-77539762D01*
X119111742Y-77454047D01*
X119140314Y-77425476D01*
X119340314Y-77425476D01*
X119340314Y-77539762D01*
X119083171Y-77168333D02*
X119683171Y-77168333D01*
X119083171Y-76825476D01*
X119683171Y-76825476D01*
X119083171Y-76539762D02*
X119683171Y-76539762D01*
X119683171Y-76396905D01*
X119654600Y-76311190D01*
X119597457Y-76254047D01*
X119540314Y-76225476D01*
X119426028Y-76196905D01*
X119340314Y-76196905D01*
X119226028Y-76225476D01*
X119168885Y-76254047D01*
X119111742Y-76311190D01*
X119083171Y-76396905D01*
X119083171Y-76539762D01*
X114603171Y-77854047D02*
X114603171Y-77511190D01*
X114003171Y-77682619D02*
X114603171Y-77682619D01*
X114003171Y-77368333D02*
X114403171Y-77054047D01*
X114403171Y-77368333D02*
X114003171Y-77054047D01*
X116543171Y-77425475D02*
X116828885Y-77625475D01*
X116543171Y-77768333D02*
X117143171Y-77768333D01*
X117143171Y-77539761D01*
X117114600Y-77482618D01*
X117086028Y-77454047D01*
X117028885Y-77425475D01*
X116943171Y-77425475D01*
X116886028Y-77454047D01*
X116857457Y-77482618D01*
X116828885Y-77539761D01*
X116828885Y-77768333D01*
X116543171Y-77225475D02*
X116943171Y-76911190D01*
X116943171Y-77225475D02*
X116543171Y-76911190D01*
X122194600Y-77454047D02*
X122223171Y-77511190D01*
X122223171Y-77596905D01*
X122194600Y-77682619D01*
X122137457Y-77739762D01*
X122080314Y-77768333D01*
X121966028Y-77796905D01*
X121880314Y-77796905D01*
X121766028Y-77768333D01*
X121708885Y-77739762D01*
X121651742Y-77682619D01*
X121623171Y-77596905D01*
X121623171Y-77539762D01*
X121651742Y-77454047D01*
X121680314Y-77425476D01*
X121880314Y-77425476D01*
X121880314Y-77539762D01*
X121623171Y-77168333D02*
X122223171Y-77168333D01*
X121623171Y-76825476D01*
X122223171Y-76825476D01*
X121623171Y-76539762D02*
X122223171Y-76539762D01*
X122223171Y-76396905D01*
X122194600Y-76311190D01*
X122137457Y-76254047D01*
X122080314Y-76225476D01*
X121966028Y-76196905D01*
X121880314Y-76196905D01*
X121766028Y-76225476D01*
X121708885Y-76254047D01*
X121651742Y-76311190D01*
X121623171Y-76396905D01*
X121623171Y-76539762D01*
X124763171Y-77825476D02*
X124763171Y-77454047D01*
X124534600Y-77654047D01*
X124534600Y-77568333D01*
X124506028Y-77511190D01*
X124477457Y-77482619D01*
X124420314Y-77454047D01*
X124277457Y-77454047D01*
X124220314Y-77482619D01*
X124191742Y-77511190D01*
X124163171Y-77568333D01*
X124163171Y-77739761D01*
X124191742Y-77796904D01*
X124220314Y-77825476D01*
X124763171Y-77282619D02*
X124163171Y-77082619D01*
X124763171Y-76882619D01*
X124763171Y-76739761D02*
X124763171Y-76368333D01*
X124534600Y-76568333D01*
X124534600Y-76482619D01*
X124506028Y-76425476D01*
X124477457Y-76396904D01*
X124420314Y-76368333D01*
X124277457Y-76368333D01*
X124220314Y-76396904D01*
X124191742Y-76425476D01*
X124163171Y-76482619D01*
X124163171Y-76654047D01*
X124191742Y-76711190D01*
X124220314Y-76739761D01*
X126731742Y-77796904D02*
X126703171Y-77711190D01*
X126703171Y-77568333D01*
X126731742Y-77511190D01*
X126760314Y-77482618D01*
X126817457Y-77454047D01*
X126874600Y-77454047D01*
X126931742Y-77482618D01*
X126960314Y-77511190D01*
X126988885Y-77568333D01*
X127017457Y-77682618D01*
X127046028Y-77739761D01*
X127074600Y-77768333D01*
X127131742Y-77796904D01*
X127188885Y-77796904D01*
X127246028Y-77768333D01*
X127274600Y-77739761D01*
X127303171Y-77682618D01*
X127303171Y-77539761D01*
X127274600Y-77454047D01*
X127303171Y-77254047D02*
X126703171Y-77111190D01*
X127131742Y-76996904D01*
X126703171Y-76882618D01*
X127303171Y-76739761D01*
X126703171Y-76511190D02*
X127303171Y-76511190D01*
X127303171Y-76368333D01*
X127274600Y-76282618D01*
X127217457Y-76225476D01*
X127160314Y-76196904D01*
X127046028Y-76168333D01*
X126960314Y-76168333D01*
X126846028Y-76196904D01*
X126788885Y-76225476D01*
X126731742Y-76282618D01*
X126703171Y-76368333D01*
X126703171Y-76511190D01*
X126703171Y-75911190D02*
X127303171Y-75911190D01*
X127303171Y-75511190D02*
X127303171Y-75396904D01*
X127274600Y-75339761D01*
X127217457Y-75282618D01*
X127103171Y-75254047D01*
X126903171Y-75254047D01*
X126788885Y-75282618D01*
X126731742Y-75339761D01*
X126703171Y-75396904D01*
X126703171Y-75511190D01*
X126731742Y-75568333D01*
X126788885Y-75625476D01*
X126903171Y-75654047D01*
X127103171Y-75654047D01*
X127217457Y-75625476D01*
X127274600Y-75568333D01*
X127303171Y-75511190D01*
X129271742Y-77796904D02*
X129243171Y-77711190D01*
X129243171Y-77568333D01*
X129271742Y-77511190D01*
X129300314Y-77482619D01*
X129357457Y-77454047D01*
X129414600Y-77454047D01*
X129471742Y-77482619D01*
X129500314Y-77511190D01*
X129528885Y-77568333D01*
X129557457Y-77682619D01*
X129586028Y-77739762D01*
X129614600Y-77768333D01*
X129671742Y-77796904D01*
X129728885Y-77796904D01*
X129786028Y-77768333D01*
X129814600Y-77739762D01*
X129843171Y-77682619D01*
X129843171Y-77539762D01*
X129814600Y-77454047D01*
X129843171Y-77254047D02*
X129243171Y-77111190D01*
X129671742Y-76996904D01*
X129243171Y-76882619D01*
X129843171Y-76739762D01*
X129243171Y-76511190D02*
X129843171Y-76511190D01*
X129843171Y-76368333D01*
X129814600Y-76282619D01*
X129757457Y-76225476D01*
X129700314Y-76196904D01*
X129586028Y-76168333D01*
X129500314Y-76168333D01*
X129386028Y-76196904D01*
X129328885Y-76225476D01*
X129271742Y-76282619D01*
X129243171Y-76368333D01*
X129243171Y-76511190D01*
X129300314Y-75568333D02*
X129271742Y-75596904D01*
X129243171Y-75682619D01*
X129243171Y-75739762D01*
X129271742Y-75825476D01*
X129328885Y-75882619D01*
X129386028Y-75911190D01*
X129500314Y-75939762D01*
X129586028Y-75939762D01*
X129700314Y-75911190D01*
X129757457Y-75882619D01*
X129814600Y-75825476D01*
X129843171Y-75739762D01*
X129843171Y-75682619D01*
X129814600Y-75596904D01*
X129786028Y-75568333D01*
X129243171Y-75025476D02*
X129243171Y-75311190D01*
X129843171Y-75311190D01*
X129243171Y-74825476D02*
X129843171Y-74825476D01*
X129243171Y-74482619D02*
X129586028Y-74739762D01*
X129843171Y-74482619D02*
X129500314Y-74825476D01*
X122497742Y-50290428D02*
X122354885Y-50690428D01*
X122212028Y-50290428D01*
X121669171Y-50690428D02*
X122012028Y-50690428D01*
X121840600Y-50690428D02*
X121840600Y-50090428D01*
X121897742Y-50176142D01*
X121954885Y-50233285D01*
X122012028Y-50261857D01*
X121412028Y-50633285D02*
X121383457Y-50661857D01*
X121412028Y-50690428D01*
X121440600Y-50661857D01*
X121412028Y-50633285D01*
X121412028Y-50690428D01*
X120812028Y-50690428D02*
X121154885Y-50690428D01*
X120983457Y-50690428D02*
X120983457Y-50090428D01*
X121040600Y-50176142D01*
X121097742Y-50233285D01*
X121154885Y-50261857D01*
X123069171Y-47787428D02*
X122726314Y-47787428D01*
X122897742Y-48387428D02*
X122897742Y-47787428D01*
X122526314Y-48387428D02*
X122526314Y-47787428D01*
X122269171Y-48387428D02*
X122269171Y-48073142D01*
X122297742Y-48016000D01*
X122354885Y-47987428D01*
X122440600Y-47987428D01*
X122497742Y-48016000D01*
X122526314Y-48044571D01*
X121983457Y-48387428D02*
X121983457Y-47987428D01*
X121983457Y-48101714D02*
X121954885Y-48044571D01*
X121926314Y-48016000D01*
X121869171Y-47987428D01*
X121812028Y-47987428D01*
X121383457Y-48358857D02*
X121440600Y-48387428D01*
X121554885Y-48387428D01*
X121612028Y-48358857D01*
X121640600Y-48301714D01*
X121640600Y-48073142D01*
X121612028Y-48016000D01*
X121554885Y-47987428D01*
X121440600Y-47987428D01*
X121383457Y-48016000D01*
X121354885Y-48073142D01*
X121354885Y-48130285D01*
X121640600Y-48187428D01*
X120840600Y-48387428D02*
X120840600Y-48073142D01*
X120869171Y-48016000D01*
X120926314Y-47987428D01*
X121040600Y-47987428D01*
X121097742Y-48016000D01*
X120840600Y-48358857D02*
X120897742Y-48387428D01*
X121040600Y-48387428D01*
X121097742Y-48358857D01*
X121126314Y-48301714D01*
X121126314Y-48244571D01*
X121097742Y-48187428D01*
X121040600Y-48158857D01*
X120897742Y-48158857D01*
X120840600Y-48130285D01*
X120297742Y-48387428D02*
X120297742Y-47787428D01*
X120297742Y-48358857D02*
X120354885Y-48387428D01*
X120469171Y-48387428D01*
X120526314Y-48358857D01*
X120554885Y-48330285D01*
X120583457Y-48273142D01*
X120583457Y-48101714D01*
X120554885Y-48044571D01*
X120526314Y-48016000D01*
X120469171Y-47987428D01*
X120354885Y-47987428D01*
X120297742Y-48016000D01*
X124040600Y-49408857D02*
X123954885Y-49437428D01*
X123812028Y-49437428D01*
X123754885Y-49408857D01*
X123726314Y-49380285D01*
X123697742Y-49323142D01*
X123697742Y-49266000D01*
X123726314Y-49208857D01*
X123754885Y-49180285D01*
X123812028Y-49151714D01*
X123926314Y-49123142D01*
X123983457Y-49094571D01*
X124012028Y-49066000D01*
X124040600Y-49008857D01*
X124040600Y-48951714D01*
X124012028Y-48894571D01*
X123983457Y-48866000D01*
X123926314Y-48837428D01*
X123783457Y-48837428D01*
X123697742Y-48866000D01*
X123212028Y-49408857D02*
X123269171Y-49437428D01*
X123383457Y-49437428D01*
X123440600Y-49408857D01*
X123469171Y-49351714D01*
X123469171Y-49123142D01*
X123440600Y-49066000D01*
X123383457Y-49037428D01*
X123269171Y-49037428D01*
X123212028Y-49066000D01*
X123183457Y-49123142D01*
X123183457Y-49180285D01*
X123469171Y-49237428D01*
X122926314Y-49037428D02*
X122926314Y-49437428D01*
X122926314Y-49094571D02*
X122897742Y-49066000D01*
X122840600Y-49037428D01*
X122754885Y-49037428D01*
X122697742Y-49066000D01*
X122669171Y-49123142D01*
X122669171Y-49437428D01*
X122412028Y-49408857D02*
X122354885Y-49437428D01*
X122240600Y-49437428D01*
X122183457Y-49408857D01*
X122154885Y-49351714D01*
X122154885Y-49323142D01*
X122183457Y-49266000D01*
X122240600Y-49237428D01*
X122326314Y-49237428D01*
X122383457Y-49208857D01*
X122412028Y-49151714D01*
X122412028Y-49123142D01*
X122383457Y-49066000D01*
X122326314Y-49037428D01*
X122240600Y-49037428D01*
X122183457Y-49066000D01*
X121812028Y-49437428D02*
X121869171Y-49408857D01*
X121897742Y-49380285D01*
X121926314Y-49323142D01*
X121926314Y-49151714D01*
X121897742Y-49094571D01*
X121869171Y-49066000D01*
X121812028Y-49037428D01*
X121726314Y-49037428D01*
X121669171Y-49066000D01*
X121640600Y-49094571D01*
X121612028Y-49151714D01*
X121612028Y-49323142D01*
X121640600Y-49380285D01*
X121669171Y-49408857D01*
X121726314Y-49437428D01*
X121812028Y-49437428D01*
X121354885Y-49437428D02*
X121354885Y-49037428D01*
X121354885Y-49151714D02*
X121326314Y-49094571D01*
X121297742Y-49066000D01*
X121240600Y-49037428D01*
X121183457Y-49037428D01*
X120612028Y-48837428D02*
X120269171Y-48837428D01*
X120440600Y-49437428D02*
X120440600Y-48837428D01*
X119812028Y-49437428D02*
X119812028Y-49123142D01*
X119840600Y-49066000D01*
X119897742Y-49037428D01*
X120012028Y-49037428D01*
X120069171Y-49066000D01*
X119812028Y-49408857D02*
X119869171Y-49437428D01*
X120012028Y-49437428D01*
X120069171Y-49408857D01*
X120097742Y-49351714D01*
X120097742Y-49294571D01*
X120069171Y-49237428D01*
X120012028Y-49208857D01*
X119869171Y-49208857D01*
X119812028Y-49180285D01*
X119269171Y-49037428D02*
X119269171Y-49523142D01*
X119297742Y-49580285D01*
X119326314Y-49608857D01*
X119383457Y-49637428D01*
X119469171Y-49637428D01*
X119526314Y-49608857D01*
X119269171Y-49408857D02*
X119326314Y-49437428D01*
X119440600Y-49437428D01*
X119497742Y-49408857D01*
X119526314Y-49380285D01*
X119554885Y-49323142D01*
X119554885Y-49151714D01*
X119526314Y-49094571D01*
X119497742Y-49066000D01*
X119440600Y-49037428D01*
X119326314Y-49037428D01*
X119269171Y-49066000D01*
D12*
X105767600Y-66867600D02*
X105767600Y-66867600D01*
X105767600Y-66867600D02*
X105767600Y-72617600D01*
X105767600Y-72617600D02*
X105767600Y-72617600D01*
X105767600Y-72617600D02*
X105767600Y-66867600D01*
X105767600Y-72617600D02*
X137767600Y-72617600D01*
X137767600Y-72617600D02*
X137767600Y-72617600D01*
X137767600Y-72617600D02*
X105767600Y-72617600D01*
X105767600Y-72617600D02*
X105767600Y-72617600D01*
X137767600Y-72617600D02*
X137767600Y-72617600D01*
X137767600Y-72617600D02*
X137767600Y-66867600D01*
X137767600Y-66867600D02*
X137767600Y-66867600D01*
X137767600Y-66867600D02*
X137767600Y-72617600D01*
X137767600Y-62367600D02*
X137767600Y-62367600D01*
X137767600Y-62367600D02*
X137767600Y-56617600D01*
X137767600Y-56617600D02*
X137767600Y-56617600D01*
X137767600Y-56617600D02*
X137767600Y-62367600D01*
X137767600Y-56617600D02*
X105767600Y-56617600D01*
X105767600Y-56617600D02*
X105767600Y-56617600D01*
X105767600Y-56617600D02*
X137767600Y-56617600D01*
X137767600Y-56617600D02*
X137767600Y-56617600D01*
X105767600Y-56617600D02*
X105767600Y-56617600D01*
X105767600Y-56617600D02*
X105767600Y-62367600D01*
X105767600Y-62367600D02*
X105767600Y-62367600D01*
X105767600Y-62367600D02*
X105767600Y-56617600D01*
D13*
X104867600Y-64417600D02*
X104867600Y-64417600D01*
X104867600Y-64517600D02*
X104867600Y-64517600D01*
X104867600Y-64417600D02*
X104867600Y-64417600D01*
X104867600Y-64517600D02*
G75*
G03*
X104867600Y-64417600I0J50000D01*
G01*
X104867600Y-64417600D02*
G75*
G03*
X104867600Y-64517600I0J-50000D01*
G01*
X104867600Y-64517600D02*
G75*
G03*
X104867600Y-64417600I0J50000D01*
G01*
D14*
X119463457Y-66711285D02*
X119282028Y-66771761D01*
X119221552Y-66832238D01*
X119161076Y-66953190D01*
X119161076Y-67134619D01*
X119221552Y-67255571D01*
X119282028Y-67316047D01*
X119402980Y-67376523D01*
X119886790Y-67376523D01*
X119886790Y-66106523D01*
X119463457Y-66106523D01*
X119342504Y-66167000D01*
X119282028Y-66227476D01*
X119221552Y-66348428D01*
X119221552Y-66469380D01*
X119282028Y-66590333D01*
X119342504Y-66650809D01*
X119463457Y-66711285D01*
X119886790Y-66711285D01*
X118798219Y-66106523D02*
X118072504Y-66106523D01*
X118435361Y-67376523D02*
X118435361Y-66106523D01*
X116983933Y-67376523D02*
X117709647Y-67376523D01*
X117346790Y-67376523D02*
X117346790Y-66106523D01*
X117467742Y-66287952D01*
X117588695Y-66408904D01*
X117709647Y-66469380D01*
M02*
