G04 #@! TF.GenerationSoftware,KiCad,Pcbnew,(5.1.8)-1*
G04 #@! TF.CreationDate,2021-06-05T10:41:31+02:00*
G04 #@! TF.ProjectId,nrf52-sensor-tag,6e726635-322d-4736-956e-736f722d7461,rev?*
G04 #@! TF.SameCoordinates,Original*
G04 #@! TF.FileFunction,Legend,Bot*
G04 #@! TF.FilePolarity,Positive*
%FSLAX46Y46*%
G04 Gerber Fmt 4.6, Leading zero omitted, Abs format (unit mm)*
G04 Created by KiCad (PCBNEW (5.1.8)-1) date 2021-06-05 10:41:31*
%MOMM*%
%LPD*%
G01*
G04 APERTURE LIST*
%ADD10C,0.200000*%
%ADD11C,0.100000*%
%ADD12C,0.254000*%
G04 APERTURE END LIST*
D10*
X104867600Y-64417600D02*
X104867600Y-64417600D01*
X104867600Y-64517600D02*
X104867600Y-64517600D01*
X104867600Y-64417600D02*
X104867600Y-64417600D01*
D11*
X105767600Y-62367600D02*
X105767600Y-56617600D01*
X105767600Y-62367600D02*
X105767600Y-62367600D01*
X105767600Y-56617600D02*
X105767600Y-62367600D01*
X105767600Y-56617600D02*
X105767600Y-56617600D01*
X137767600Y-56617600D02*
X137767600Y-56617600D01*
X105767600Y-56617600D02*
X137767600Y-56617600D01*
X105767600Y-56617600D02*
X105767600Y-56617600D01*
X137767600Y-56617600D02*
X105767600Y-56617600D01*
X137767600Y-56617600D02*
X137767600Y-62367600D01*
X137767600Y-56617600D02*
X137767600Y-56617600D01*
X137767600Y-62367600D02*
X137767600Y-56617600D01*
X137767600Y-62367600D02*
X137767600Y-62367600D01*
X137767600Y-66867600D02*
X137767600Y-72617600D01*
X137767600Y-66867600D02*
X137767600Y-66867600D01*
X137767600Y-72617600D02*
X137767600Y-66867600D01*
X137767600Y-72617600D02*
X137767600Y-72617600D01*
X105767600Y-72617600D02*
X105767600Y-72617600D01*
X137767600Y-72617600D02*
X105767600Y-72617600D01*
X137767600Y-72617600D02*
X137767600Y-72617600D01*
X105767600Y-72617600D02*
X137767600Y-72617600D01*
X105767600Y-72617600D02*
X105767600Y-66867600D01*
X105767600Y-72617600D02*
X105767600Y-72617600D01*
X105767600Y-66867600D02*
X105767600Y-72617600D01*
X105767600Y-66867600D02*
X105767600Y-66867600D01*
D10*
X104867600Y-64517600D02*
G75*
G03*
X104867600Y-64417600I0J50000D01*
G01*
X104867600Y-64417600D02*
G75*
G03*
X104867600Y-64517600I0J-50000D01*
G01*
X104867600Y-64517600D02*
G75*
G03*
X104867600Y-64417600I0J50000D01*
G01*
D12*
X119463457Y-66711285D02*
X119282028Y-66771761D01*
X119221552Y-66832238D01*
X119161076Y-66953190D01*
X119161076Y-67134619D01*
X119221552Y-67255571D01*
X119282028Y-67316047D01*
X119402980Y-67376523D01*
X119886790Y-67376523D01*
X119886790Y-66106523D01*
X119463457Y-66106523D01*
X119342504Y-66167000D01*
X119282028Y-66227476D01*
X119221552Y-66348428D01*
X119221552Y-66469380D01*
X119282028Y-66590333D01*
X119342504Y-66650809D01*
X119463457Y-66711285D01*
X119886790Y-66711285D01*
X118798219Y-66106523D02*
X118072504Y-66106523D01*
X118435361Y-67376523D02*
X118435361Y-66106523D01*
X116983933Y-67376523D02*
X117709647Y-67376523D01*
X117346790Y-67376523D02*
X117346790Y-66106523D01*
X117467742Y-66287952D01*
X117588695Y-66408904D01*
X117709647Y-66469380D01*
M02*
