G04 #@! TF.GenerationSoftware,KiCad,Pcbnew,(5.1.8)-1*
G04 #@! TF.CreationDate,2021-04-15T21:20:39+02:00*
G04 #@! TF.ProjectId,nrf52-sensor-tag,6e726635-322d-4736-956e-736f722d7461,rev?*
G04 #@! TF.SameCoordinates,Original*
G04 #@! TF.FileFunction,Copper,L2,Bot*
G04 #@! TF.FilePolarity,Positive*
%FSLAX46Y46*%
G04 Gerber Fmt 4.6, Leading zero omitted, Abs format (unit mm)*
G04 Created by KiCad (PCBNEW (5.1.8)-1) date 2021-04-15 21:20:39*
%MOMM*%
%LPD*%
G01*
G04 APERTURE LIST*
G04 #@! TA.AperFunction,ComponentPad*
%ADD10O,1.700000X1.700000*%
G04 #@! TD*
G04 #@! TA.AperFunction,ComponentPad*
%ADD11R,1.700000X1.700000*%
G04 #@! TD*
G04 #@! TA.AperFunction,SMDPad,CuDef*
%ADD12R,2.600000X3.560000*%
G04 #@! TD*
G04 #@! TA.AperFunction,ViaPad*
%ADD13C,0.600000*%
G04 #@! TD*
G04 #@! TA.AperFunction,Conductor*
%ADD14C,0.250000*%
G04 #@! TD*
G04 #@! TA.AperFunction,Conductor*
%ADD15C,0.254000*%
G04 #@! TD*
G04 #@! TA.AperFunction,Conductor*
%ADD16C,0.100000*%
G04 #@! TD*
G04 APERTURE END LIST*
D10*
X114274600Y-79362300D03*
X116814600Y-79362300D03*
X119354600Y-79362300D03*
X121894600Y-79362300D03*
X124434600Y-79362300D03*
X126974600Y-79362300D03*
D11*
X129514600Y-79362300D03*
D12*
X136417600Y-64617600D03*
X107117600Y-64617600D03*
D13*
X107670600Y-61468000D03*
X104490931Y-64709115D03*
X108051600Y-74041000D03*
X106654600Y-71755000D03*
X135610600Y-74041000D03*
X136753600Y-71755000D03*
X138277600Y-61722000D03*
X134594600Y-65405000D03*
X130403600Y-77089000D03*
X115036610Y-56642000D03*
X111734600Y-69723000D03*
X127355600Y-73152000D03*
X121513600Y-67691000D03*
X133197600Y-66294000D03*
X109321600Y-62992000D03*
X115544600Y-60325000D03*
X126720600Y-72390000D03*
X123164600Y-66740000D03*
X133197600Y-65024000D03*
X109321600Y-61849000D03*
X115004100Y-58579500D03*
X109321600Y-64008000D03*
X109321600Y-64643000D03*
X109321600Y-65278000D03*
X109321600Y-65913000D03*
X105638600Y-59817000D03*
X134594600Y-61595000D03*
X111099600Y-69215000D03*
X108559600Y-72136000D03*
X115544600Y-67691000D03*
X116941600Y-68199000D03*
X136372600Y-67818000D03*
X120878600Y-71501000D03*
X114782600Y-64897000D03*
X119354600Y-73533000D03*
X114919600Y-66167000D03*
X116306600Y-73279000D03*
X114782600Y-67945000D03*
X114782600Y-73533000D03*
D14*
X127355600Y-77203300D02*
X129514600Y-79362300D01*
X127355600Y-73152000D02*
X127355600Y-77203300D01*
X131800600Y-67691000D02*
X133197600Y-66294000D01*
X121513600Y-67691000D02*
X131800600Y-67691000D01*
X109321600Y-62992000D02*
X112877600Y-62992000D01*
X112877600Y-62992000D02*
X115544600Y-60325000D01*
X126720600Y-79108300D02*
X126974600Y-79362300D01*
X126720600Y-72390000D02*
X126720600Y-79108300D01*
X131481600Y-66740000D02*
X133197600Y-65024000D01*
X123164600Y-66740000D02*
X131481600Y-66740000D01*
X111734600Y-61849000D02*
X115004100Y-58579500D01*
X109321600Y-61849000D02*
X111734600Y-61849000D01*
X108559600Y-71755000D02*
X108559600Y-72136000D01*
X111099600Y-69215000D02*
X108559600Y-71755000D01*
X115544600Y-78092300D02*
X114274600Y-79362300D01*
X115544600Y-67691000D02*
X115544600Y-78092300D01*
X116941600Y-79235300D02*
X116814600Y-79362300D01*
X116941600Y-68199000D02*
X116941600Y-79235300D01*
X136372600Y-67818000D02*
X132689600Y-71501000D01*
X132689600Y-71501000D02*
X120878600Y-71501000D01*
X119354600Y-69469000D02*
X119354600Y-73533000D01*
X114782600Y-64897000D02*
X119354600Y-69469000D01*
X116306600Y-67554000D02*
X116306600Y-73279000D01*
X114919600Y-66167000D02*
X116306600Y-67554000D01*
X114782600Y-67945000D02*
X114782600Y-73533000D01*
D15*
X137123589Y-55936508D02*
X137871404Y-57412722D01*
X138477697Y-58952476D01*
X138937142Y-60542239D01*
X139245700Y-62168039D01*
X139400660Y-63815589D01*
X139400660Y-65470411D01*
X139245700Y-67117961D01*
X138937142Y-68743761D01*
X138477697Y-70333524D01*
X137871404Y-71873278D01*
X137123589Y-73349492D01*
X136240826Y-74749194D01*
X135230871Y-76060081D01*
X134102601Y-77270635D01*
X132865930Y-78370217D01*
X131531727Y-79349163D01*
X130693182Y-79850933D01*
X130693182Y-78512300D01*
X130686868Y-78448197D01*
X130668170Y-78386557D01*
X130637806Y-78329750D01*
X130596943Y-78279957D01*
X130547150Y-78239094D01*
X130490343Y-78208730D01*
X130428703Y-78190032D01*
X130364600Y-78183718D01*
X128975242Y-78183718D01*
X127807600Y-77016077D01*
X127807600Y-73586712D01*
X127842623Y-73551689D01*
X127911240Y-73448996D01*
X127958505Y-73334889D01*
X127982600Y-73213754D01*
X127982600Y-73090246D01*
X127958505Y-72969111D01*
X127911240Y-72855004D01*
X127842623Y-72752311D01*
X127755289Y-72664977D01*
X127652596Y-72596360D01*
X127538489Y-72549095D01*
X127417354Y-72525000D01*
X127333031Y-72525000D01*
X127347600Y-72451754D01*
X127347600Y-72328246D01*
X127323505Y-72207111D01*
X127276240Y-72093004D01*
X127207623Y-71990311D01*
X127170312Y-71953000D01*
X132667395Y-71953000D01*
X132689600Y-71955187D01*
X132711805Y-71953000D01*
X132778207Y-71946460D01*
X132863410Y-71920614D01*
X132941933Y-71878643D01*
X133010759Y-71822159D01*
X133024923Y-71804900D01*
X136384824Y-68445000D01*
X136434354Y-68445000D01*
X136555489Y-68420905D01*
X136669596Y-68373640D01*
X136772289Y-68305023D01*
X136859623Y-68217689D01*
X136928240Y-68114996D01*
X136975505Y-68000889D01*
X136999600Y-67879754D01*
X136999600Y-67756246D01*
X136975505Y-67635111D01*
X136928240Y-67521004D01*
X136859623Y-67418311D01*
X136772289Y-67330977D01*
X136669596Y-67262360D01*
X136555489Y-67215095D01*
X136434354Y-67191000D01*
X136310846Y-67191000D01*
X136189711Y-67215095D01*
X136075604Y-67262360D01*
X135972911Y-67330977D01*
X135885577Y-67418311D01*
X135816960Y-67521004D01*
X135769695Y-67635111D01*
X135745600Y-67756246D01*
X135745600Y-67805776D01*
X132502377Y-71049000D01*
X121313312Y-71049000D01*
X121278289Y-71013977D01*
X121175596Y-70945360D01*
X121061489Y-70898095D01*
X120940354Y-70874000D01*
X120816846Y-70874000D01*
X120695711Y-70898095D01*
X120581604Y-70945360D01*
X120478911Y-71013977D01*
X120391577Y-71101311D01*
X120322960Y-71204004D01*
X120275695Y-71318111D01*
X120251600Y-71439246D01*
X120251600Y-71562754D01*
X120275695Y-71683889D01*
X120322960Y-71797996D01*
X120391577Y-71900689D01*
X120478911Y-71988023D01*
X120581604Y-72056640D01*
X120695711Y-72103905D01*
X120816846Y-72128000D01*
X120940354Y-72128000D01*
X121061489Y-72103905D01*
X121175596Y-72056640D01*
X121278289Y-71988023D01*
X121313312Y-71953000D01*
X126270888Y-71953000D01*
X126233577Y-71990311D01*
X126164960Y-72093004D01*
X126117695Y-72207111D01*
X126093600Y-72328246D01*
X126093600Y-72451754D01*
X126117695Y-72572889D01*
X126164960Y-72686996D01*
X126233577Y-72789689D01*
X126268600Y-72824712D01*
X126268601Y-78418467D01*
X126224306Y-78448064D01*
X126060364Y-78612006D01*
X125931556Y-78804781D01*
X125842831Y-79018982D01*
X125797600Y-79246376D01*
X125797600Y-79478224D01*
X125842831Y-79705618D01*
X125931556Y-79919819D01*
X126060364Y-80112594D01*
X126224306Y-80276536D01*
X126417081Y-80405344D01*
X126631282Y-80494069D01*
X126858676Y-80539300D01*
X127090524Y-80539300D01*
X127317918Y-80494069D01*
X127532119Y-80405344D01*
X127724894Y-80276536D01*
X127888836Y-80112594D01*
X128017644Y-79919819D01*
X128106369Y-79705618D01*
X128151600Y-79478224D01*
X128151600Y-79246376D01*
X128106369Y-79018982D01*
X128017644Y-78804781D01*
X127888836Y-78612006D01*
X127724894Y-78448064D01*
X127532119Y-78319256D01*
X127317918Y-78230531D01*
X127172600Y-78201626D01*
X127172600Y-77659523D01*
X128336018Y-78822942D01*
X128336018Y-80212300D01*
X128342332Y-80276403D01*
X128361030Y-80338043D01*
X128391394Y-80394850D01*
X128432257Y-80444643D01*
X128482050Y-80485506D01*
X128538857Y-80515870D01*
X128600497Y-80534568D01*
X128664600Y-80540882D01*
X129395397Y-80540882D01*
X128618377Y-80911874D01*
X127064833Y-81481906D01*
X125464736Y-81903956D01*
X123832149Y-82174316D01*
X122181419Y-82290611D01*
X120527052Y-82251818D01*
X118883587Y-82058277D01*
X117265467Y-81711691D01*
X115686912Y-81215105D01*
X114161794Y-80572882D01*
X114064125Y-80520493D01*
X114158676Y-80539300D01*
X114390524Y-80539300D01*
X114617918Y-80494069D01*
X114832119Y-80405344D01*
X115024894Y-80276536D01*
X115188836Y-80112594D01*
X115317644Y-79919819D01*
X115406369Y-79705618D01*
X115451600Y-79478224D01*
X115451600Y-79246376D01*
X115406369Y-79018982D01*
X115362661Y-78913463D01*
X115848510Y-78427615D01*
X115865759Y-78413459D01*
X115922243Y-78344633D01*
X115964214Y-78266110D01*
X115987292Y-78190032D01*
X115990060Y-78180908D01*
X115998787Y-78092301D01*
X115996600Y-78070096D01*
X115996600Y-73825951D01*
X116009604Y-73834640D01*
X116123711Y-73881905D01*
X116244846Y-73906000D01*
X116368354Y-73906000D01*
X116489489Y-73881905D01*
X116489601Y-73881859D01*
X116489601Y-78226887D01*
X116471282Y-78230531D01*
X116257081Y-78319256D01*
X116064306Y-78448064D01*
X115900364Y-78612006D01*
X115771556Y-78804781D01*
X115682831Y-79018982D01*
X115637600Y-79246376D01*
X115637600Y-79478224D01*
X115682831Y-79705618D01*
X115771556Y-79919819D01*
X115900364Y-80112594D01*
X116064306Y-80276536D01*
X116257081Y-80405344D01*
X116471282Y-80494069D01*
X116698676Y-80539300D01*
X116930524Y-80539300D01*
X117157918Y-80494069D01*
X117372119Y-80405344D01*
X117564894Y-80276536D01*
X117728836Y-80112594D01*
X117857644Y-79919819D01*
X117925864Y-79755121D01*
X118010443Y-79993552D01*
X118159422Y-80243655D01*
X118354331Y-80459888D01*
X118587680Y-80633941D01*
X118850501Y-80759125D01*
X118997710Y-80803776D01*
X119227600Y-80682455D01*
X119227600Y-79489300D01*
X119481600Y-79489300D01*
X119481600Y-80682455D01*
X119711490Y-80803776D01*
X119858699Y-80759125D01*
X120121520Y-80633941D01*
X120354869Y-80459888D01*
X120549778Y-80243655D01*
X120624600Y-80118045D01*
X120699422Y-80243655D01*
X120894331Y-80459888D01*
X121127680Y-80633941D01*
X121390501Y-80759125D01*
X121537710Y-80803776D01*
X121767600Y-80682455D01*
X121767600Y-79489300D01*
X119481600Y-79489300D01*
X119227600Y-79489300D01*
X119207600Y-79489300D01*
X119207600Y-79235300D01*
X119227600Y-79235300D01*
X119227600Y-78042145D01*
X119481600Y-78042145D01*
X119481600Y-79235300D01*
X121767600Y-79235300D01*
X121767600Y-78042145D01*
X122021600Y-78042145D01*
X122021600Y-79235300D01*
X122041600Y-79235300D01*
X122041600Y-79489300D01*
X122021600Y-79489300D01*
X122021600Y-80682455D01*
X122251490Y-80803776D01*
X122398699Y-80759125D01*
X122661520Y-80633941D01*
X122894869Y-80459888D01*
X123089778Y-80243655D01*
X123238757Y-79993552D01*
X123323336Y-79755121D01*
X123391556Y-79919819D01*
X123520364Y-80112594D01*
X123684306Y-80276536D01*
X123877081Y-80405344D01*
X124091282Y-80494069D01*
X124318676Y-80539300D01*
X124550524Y-80539300D01*
X124777918Y-80494069D01*
X124992119Y-80405344D01*
X125184894Y-80276536D01*
X125348836Y-80112594D01*
X125477644Y-79919819D01*
X125566369Y-79705618D01*
X125611600Y-79478224D01*
X125611600Y-79246376D01*
X125566369Y-79018982D01*
X125477644Y-78804781D01*
X125348836Y-78612006D01*
X125184894Y-78448064D01*
X124992119Y-78319256D01*
X124777918Y-78230531D01*
X124550524Y-78185300D01*
X124318676Y-78185300D01*
X124091282Y-78230531D01*
X123877081Y-78319256D01*
X123684306Y-78448064D01*
X123520364Y-78612006D01*
X123391556Y-78804781D01*
X123323336Y-78969479D01*
X123238757Y-78731048D01*
X123089778Y-78480945D01*
X122894869Y-78264712D01*
X122661520Y-78090659D01*
X122398699Y-77965475D01*
X122251490Y-77920824D01*
X122021600Y-78042145D01*
X121767600Y-78042145D01*
X121537710Y-77920824D01*
X121390501Y-77965475D01*
X121127680Y-78090659D01*
X120894331Y-78264712D01*
X120699422Y-78480945D01*
X120624600Y-78606555D01*
X120549778Y-78480945D01*
X120354869Y-78264712D01*
X120121520Y-78090659D01*
X119858699Y-77965475D01*
X119711490Y-77920824D01*
X119481600Y-78042145D01*
X119227600Y-78042145D01*
X118997710Y-77920824D01*
X118850501Y-77965475D01*
X118587680Y-78090659D01*
X118354331Y-78264712D01*
X118159422Y-78480945D01*
X118010443Y-78731048D01*
X117925864Y-78969479D01*
X117857644Y-78804781D01*
X117728836Y-78612006D01*
X117564894Y-78448064D01*
X117393600Y-78333609D01*
X117393600Y-68633712D01*
X117428623Y-68598689D01*
X117497240Y-68495996D01*
X117544505Y-68381889D01*
X117558402Y-68312026D01*
X118902600Y-69656225D01*
X118902601Y-73098287D01*
X118867577Y-73133311D01*
X118798960Y-73236004D01*
X118751695Y-73350111D01*
X118727600Y-73471246D01*
X118727600Y-73594754D01*
X118751695Y-73715889D01*
X118798960Y-73829996D01*
X118867577Y-73932689D01*
X118954911Y-74020023D01*
X119057604Y-74088640D01*
X119171711Y-74135905D01*
X119292846Y-74160000D01*
X119416354Y-74160000D01*
X119537489Y-74135905D01*
X119651596Y-74088640D01*
X119754289Y-74020023D01*
X119841623Y-73932689D01*
X119910240Y-73829996D01*
X119957505Y-73715889D01*
X119981600Y-73594754D01*
X119981600Y-73471246D01*
X119957505Y-73350111D01*
X119910240Y-73236004D01*
X119841623Y-73133311D01*
X119806600Y-73098288D01*
X119806600Y-69491204D01*
X119808787Y-69468999D01*
X119800060Y-69380392D01*
X119794044Y-69360562D01*
X119774214Y-69295190D01*
X119732243Y-69216667D01*
X119675759Y-69147841D01*
X119658512Y-69133687D01*
X118154071Y-67629246D01*
X120886600Y-67629246D01*
X120886600Y-67752754D01*
X120910695Y-67873889D01*
X120957960Y-67987996D01*
X121026577Y-68090689D01*
X121113911Y-68178023D01*
X121216604Y-68246640D01*
X121330711Y-68293905D01*
X121451846Y-68318000D01*
X121575354Y-68318000D01*
X121696489Y-68293905D01*
X121810596Y-68246640D01*
X121913289Y-68178023D01*
X121948312Y-68143000D01*
X131778395Y-68143000D01*
X131800600Y-68145187D01*
X131822805Y-68143000D01*
X131889207Y-68136460D01*
X131974410Y-68110614D01*
X132052933Y-68068643D01*
X132121759Y-68012159D01*
X132135923Y-67994900D01*
X133209825Y-66921000D01*
X133259354Y-66921000D01*
X133380489Y-66896905D01*
X133494596Y-66849640D01*
X133597289Y-66781023D01*
X133684623Y-66693689D01*
X133753240Y-66590996D01*
X133800505Y-66476889D01*
X133816276Y-66397600D01*
X134479528Y-66397600D01*
X134491788Y-66522082D01*
X134528098Y-66641780D01*
X134587063Y-66752094D01*
X134666415Y-66848785D01*
X134763106Y-66928137D01*
X134873420Y-66987102D01*
X134993118Y-67023412D01*
X135117600Y-67035672D01*
X136131850Y-67032600D01*
X136290600Y-66873850D01*
X136290600Y-64744600D01*
X136544600Y-64744600D01*
X136544600Y-66873850D01*
X136703350Y-67032600D01*
X137717600Y-67035672D01*
X137842082Y-67023412D01*
X137961780Y-66987102D01*
X138072094Y-66928137D01*
X138168785Y-66848785D01*
X138248137Y-66752094D01*
X138307102Y-66641780D01*
X138343412Y-66522082D01*
X138355672Y-66397600D01*
X138352600Y-64903350D01*
X138193850Y-64744600D01*
X136544600Y-64744600D01*
X136290600Y-64744600D01*
X134641350Y-64744600D01*
X134482600Y-64903350D01*
X134479528Y-66397600D01*
X133816276Y-66397600D01*
X133824600Y-66355754D01*
X133824600Y-66232246D01*
X133800505Y-66111111D01*
X133753240Y-65997004D01*
X133684623Y-65894311D01*
X133597289Y-65806977D01*
X133494596Y-65738360D01*
X133380489Y-65691095D01*
X133259354Y-65667000D01*
X133193825Y-65667000D01*
X133209825Y-65651000D01*
X133259354Y-65651000D01*
X133380489Y-65626905D01*
X133494596Y-65579640D01*
X133597289Y-65511023D01*
X133684623Y-65423689D01*
X133753240Y-65320996D01*
X133800505Y-65206889D01*
X133824600Y-65085754D01*
X133824600Y-64962246D01*
X133800505Y-64841111D01*
X133753240Y-64727004D01*
X133684623Y-64624311D01*
X133597289Y-64536977D01*
X133494596Y-64468360D01*
X133380489Y-64421095D01*
X133259354Y-64397000D01*
X133135846Y-64397000D01*
X133014711Y-64421095D01*
X132900604Y-64468360D01*
X132797911Y-64536977D01*
X132710577Y-64624311D01*
X132641960Y-64727004D01*
X132594695Y-64841111D01*
X132570600Y-64962246D01*
X132570600Y-65011775D01*
X131294377Y-66288000D01*
X123599312Y-66288000D01*
X123564289Y-66252977D01*
X123461596Y-66184360D01*
X123347489Y-66137095D01*
X123226354Y-66113000D01*
X123102846Y-66113000D01*
X122981711Y-66137095D01*
X122867604Y-66184360D01*
X122764911Y-66252977D01*
X122677577Y-66340311D01*
X122608960Y-66443004D01*
X122561695Y-66557111D01*
X122537600Y-66678246D01*
X122537600Y-66801754D01*
X122561695Y-66922889D01*
X122608960Y-67036996D01*
X122677577Y-67139689D01*
X122764911Y-67227023D01*
X122782836Y-67239000D01*
X121948312Y-67239000D01*
X121913289Y-67203977D01*
X121810596Y-67135360D01*
X121696489Y-67088095D01*
X121575354Y-67064000D01*
X121451846Y-67064000D01*
X121330711Y-67088095D01*
X121216604Y-67135360D01*
X121113911Y-67203977D01*
X121026577Y-67291311D01*
X120957960Y-67394004D01*
X120910695Y-67508111D01*
X120886600Y-67629246D01*
X118154071Y-67629246D01*
X115409600Y-64884777D01*
X115409600Y-64835246D01*
X115385505Y-64714111D01*
X115338240Y-64600004D01*
X115269623Y-64497311D01*
X115182289Y-64409977D01*
X115079596Y-64341360D01*
X114965489Y-64294095D01*
X114844354Y-64270000D01*
X114720846Y-64270000D01*
X114599711Y-64294095D01*
X114485604Y-64341360D01*
X114382911Y-64409977D01*
X114295577Y-64497311D01*
X114226960Y-64600004D01*
X114179695Y-64714111D01*
X114155600Y-64835246D01*
X114155600Y-64958754D01*
X114179695Y-65079889D01*
X114226960Y-65193996D01*
X114295577Y-65296689D01*
X114382911Y-65384023D01*
X114485604Y-65452640D01*
X114599711Y-65499905D01*
X114720846Y-65524000D01*
X114770377Y-65524000D01*
X114798234Y-65551857D01*
X114736711Y-65564095D01*
X114622604Y-65611360D01*
X114519911Y-65679977D01*
X114432577Y-65767311D01*
X114363960Y-65870004D01*
X114316695Y-65984111D01*
X114292600Y-66105246D01*
X114292600Y-66228754D01*
X114316695Y-66349889D01*
X114363960Y-66463996D01*
X114432577Y-66566689D01*
X114519911Y-66654023D01*
X114622604Y-66722640D01*
X114736711Y-66769905D01*
X114857846Y-66794000D01*
X114907377Y-66794000D01*
X115248404Y-67135028D01*
X115247604Y-67135360D01*
X115144911Y-67203977D01*
X115057577Y-67291311D01*
X115011038Y-67360962D01*
X114965489Y-67342095D01*
X114844354Y-67318000D01*
X114720846Y-67318000D01*
X114599711Y-67342095D01*
X114485604Y-67389360D01*
X114382911Y-67457977D01*
X114295577Y-67545311D01*
X114226960Y-67648004D01*
X114179695Y-67762111D01*
X114155600Y-67883246D01*
X114155600Y-68006754D01*
X114179695Y-68127889D01*
X114226960Y-68241996D01*
X114295577Y-68344689D01*
X114330600Y-68379712D01*
X114330601Y-73098287D01*
X114295577Y-73133311D01*
X114226960Y-73236004D01*
X114179695Y-73350111D01*
X114155600Y-73471246D01*
X114155600Y-73594754D01*
X114179695Y-73715889D01*
X114226960Y-73829996D01*
X114295577Y-73932689D01*
X114382911Y-74020023D01*
X114485604Y-74088640D01*
X114599711Y-74135905D01*
X114720846Y-74160000D01*
X114844354Y-74160000D01*
X114965489Y-74135905D01*
X115079596Y-74088640D01*
X115092601Y-74079951D01*
X115092601Y-77905074D01*
X114723437Y-78274239D01*
X114617918Y-78230531D01*
X114390524Y-78185300D01*
X114158676Y-78185300D01*
X113931282Y-78230531D01*
X113717081Y-78319256D01*
X113524306Y-78448064D01*
X113360364Y-78612006D01*
X113231556Y-78804781D01*
X113142831Y-79018982D01*
X113097600Y-79246376D01*
X113097600Y-79478224D01*
X113142831Y-79705618D01*
X113231556Y-79919819D01*
X113360364Y-80112594D01*
X113425946Y-80178176D01*
X112703516Y-79790667D01*
X111324894Y-78875333D01*
X110038043Y-77834925D01*
X108854271Y-76678587D01*
X107783982Y-75416479D01*
X106836582Y-74059693D01*
X106020396Y-72620153D01*
X105775295Y-72074246D01*
X107932600Y-72074246D01*
X107932600Y-72197754D01*
X107956695Y-72318889D01*
X108003960Y-72432996D01*
X108072577Y-72535689D01*
X108159911Y-72623023D01*
X108262604Y-72691640D01*
X108376711Y-72738905D01*
X108497846Y-72763000D01*
X108621354Y-72763000D01*
X108742489Y-72738905D01*
X108856596Y-72691640D01*
X108959289Y-72623023D01*
X109046623Y-72535689D01*
X109115240Y-72432996D01*
X109162505Y-72318889D01*
X109186600Y-72197754D01*
X109186600Y-72074246D01*
X109162505Y-71953111D01*
X109115240Y-71839004D01*
X109115071Y-71838752D01*
X111111825Y-69842000D01*
X111161354Y-69842000D01*
X111282489Y-69817905D01*
X111396596Y-69770640D01*
X111499289Y-69702023D01*
X111586623Y-69614689D01*
X111655240Y-69511996D01*
X111702505Y-69397889D01*
X111726600Y-69276754D01*
X111726600Y-69153246D01*
X111702505Y-69032111D01*
X111655240Y-68918004D01*
X111586623Y-68815311D01*
X111499289Y-68727977D01*
X111396596Y-68659360D01*
X111282489Y-68612095D01*
X111161354Y-68588000D01*
X111037846Y-68588000D01*
X110916711Y-68612095D01*
X110802604Y-68659360D01*
X110699911Y-68727977D01*
X110612577Y-68815311D01*
X110543960Y-68918004D01*
X110496695Y-69032111D01*
X110472600Y-69153246D01*
X110472600Y-69202775D01*
X108255700Y-71419677D01*
X108238441Y-71433841D01*
X108183326Y-71501000D01*
X108181958Y-71502667D01*
X108139986Y-71581191D01*
X108114140Y-71666393D01*
X108111042Y-71697846D01*
X108072577Y-71736311D01*
X108003960Y-71839004D01*
X107956695Y-71953111D01*
X107932600Y-72074246D01*
X105775295Y-72074246D01*
X105342597Y-71110510D01*
X104809141Y-69544030D01*
X104424717Y-67934479D01*
X104192703Y-66296003D01*
X104115138Y-64643000D01*
X104192703Y-62989997D01*
X104246370Y-62611000D01*
X105311600Y-62611000D01*
X105311600Y-66548000D01*
X105317883Y-66611795D01*
X105336491Y-66673137D01*
X105366709Y-66729671D01*
X105407376Y-66779224D01*
X105456929Y-66819891D01*
X105513463Y-66850109D01*
X105574805Y-66868717D01*
X105638600Y-66875000D01*
X109956600Y-66875000D01*
X110020395Y-66868717D01*
X110081737Y-66850109D01*
X110138271Y-66819891D01*
X110187824Y-66779224D01*
X110228491Y-66729671D01*
X110258709Y-66673137D01*
X110277317Y-66611795D01*
X110283600Y-66548000D01*
X110283600Y-63444000D01*
X112855395Y-63444000D01*
X112877600Y-63446187D01*
X112899805Y-63444000D01*
X112966207Y-63437460D01*
X113051410Y-63411614D01*
X113129933Y-63369643D01*
X113198759Y-63313159D01*
X113212923Y-63295900D01*
X113671223Y-62837600D01*
X134479528Y-62837600D01*
X134482600Y-64331850D01*
X134641350Y-64490600D01*
X136290600Y-64490600D01*
X136290600Y-62361350D01*
X136544600Y-62361350D01*
X136544600Y-64490600D01*
X138193850Y-64490600D01*
X138352600Y-64331850D01*
X138355672Y-62837600D01*
X138343412Y-62713118D01*
X138307102Y-62593420D01*
X138248137Y-62483106D01*
X138168785Y-62386415D01*
X138072094Y-62307063D01*
X137961780Y-62248098D01*
X137842082Y-62211788D01*
X137717600Y-62199528D01*
X136703350Y-62202600D01*
X136544600Y-62361350D01*
X136290600Y-62361350D01*
X136131850Y-62202600D01*
X135117600Y-62199528D01*
X134993118Y-62211788D01*
X134873420Y-62248098D01*
X134763106Y-62307063D01*
X134666415Y-62386415D01*
X134587063Y-62483106D01*
X134528098Y-62593420D01*
X134491788Y-62713118D01*
X134479528Y-62837600D01*
X113671223Y-62837600D01*
X114975577Y-61533246D01*
X133967600Y-61533246D01*
X133967600Y-61656754D01*
X133991695Y-61777889D01*
X134038960Y-61891996D01*
X134107577Y-61994689D01*
X134194911Y-62082023D01*
X134297604Y-62150640D01*
X134411711Y-62197905D01*
X134532846Y-62222000D01*
X134656354Y-62222000D01*
X134777489Y-62197905D01*
X134891596Y-62150640D01*
X134994289Y-62082023D01*
X135081623Y-61994689D01*
X135150240Y-61891996D01*
X135197505Y-61777889D01*
X135221600Y-61656754D01*
X135221600Y-61533246D01*
X135197505Y-61412111D01*
X135150240Y-61298004D01*
X135081623Y-61195311D01*
X134994289Y-61107977D01*
X134891596Y-61039360D01*
X134777489Y-60992095D01*
X134656354Y-60968000D01*
X134532846Y-60968000D01*
X134411711Y-60992095D01*
X134297604Y-61039360D01*
X134194911Y-61107977D01*
X134107577Y-61195311D01*
X134038960Y-61298004D01*
X133991695Y-61412111D01*
X133967600Y-61533246D01*
X114975577Y-61533246D01*
X115556824Y-60952000D01*
X115606354Y-60952000D01*
X115727489Y-60927905D01*
X115841596Y-60880640D01*
X115944289Y-60812023D01*
X116031623Y-60724689D01*
X116100240Y-60621996D01*
X116147505Y-60507889D01*
X116171600Y-60386754D01*
X116171600Y-60263246D01*
X116147505Y-60142111D01*
X116100240Y-60028004D01*
X116031623Y-59925311D01*
X115944289Y-59837977D01*
X115841596Y-59769360D01*
X115727489Y-59722095D01*
X115606354Y-59698000D01*
X115482846Y-59698000D01*
X115361711Y-59722095D01*
X115247604Y-59769360D01*
X115144911Y-59837977D01*
X115057577Y-59925311D01*
X114988960Y-60028004D01*
X114941695Y-60142111D01*
X114917600Y-60263246D01*
X114917600Y-60312776D01*
X112690377Y-62540000D01*
X110275131Y-62540000D01*
X110258709Y-62485863D01*
X110228491Y-62429329D01*
X110187824Y-62379776D01*
X110138271Y-62339109D01*
X110081737Y-62308891D01*
X110055724Y-62301000D01*
X111712395Y-62301000D01*
X111734600Y-62303187D01*
X111756805Y-62301000D01*
X111823207Y-62294460D01*
X111908410Y-62268614D01*
X111986933Y-62226643D01*
X112055759Y-62170159D01*
X112069923Y-62152900D01*
X115016325Y-59206500D01*
X115065854Y-59206500D01*
X115186989Y-59182405D01*
X115301096Y-59135140D01*
X115403789Y-59066523D01*
X115491123Y-58979189D01*
X115559740Y-58876496D01*
X115607005Y-58762389D01*
X115631100Y-58641254D01*
X115631100Y-58517746D01*
X115607005Y-58396611D01*
X115559740Y-58282504D01*
X115491123Y-58179811D01*
X115403789Y-58092477D01*
X115301096Y-58023860D01*
X115186989Y-57976595D01*
X115065854Y-57952500D01*
X114942346Y-57952500D01*
X114821211Y-57976595D01*
X114707104Y-58023860D01*
X114604411Y-58092477D01*
X114517077Y-58179811D01*
X114448460Y-58282504D01*
X114401195Y-58396611D01*
X114377100Y-58517746D01*
X114377100Y-58567275D01*
X111547377Y-61397000D01*
X109756312Y-61397000D01*
X109721289Y-61361977D01*
X109618596Y-61293360D01*
X109504489Y-61246095D01*
X109383354Y-61222000D01*
X109259846Y-61222000D01*
X109138711Y-61246095D01*
X109024604Y-61293360D01*
X108921911Y-61361977D01*
X108834577Y-61449311D01*
X108765960Y-61552004D01*
X108718695Y-61666111D01*
X108694600Y-61787246D01*
X108694600Y-61910754D01*
X108718695Y-62031889D01*
X108765960Y-62145996D01*
X108834577Y-62248689D01*
X108869888Y-62284000D01*
X105638600Y-62284000D01*
X105574805Y-62290283D01*
X105513463Y-62308891D01*
X105456929Y-62339109D01*
X105407376Y-62379776D01*
X105366709Y-62429329D01*
X105336491Y-62485863D01*
X105317883Y-62547205D01*
X105311600Y-62611000D01*
X104246370Y-62611000D01*
X104424717Y-61351521D01*
X104805970Y-59755246D01*
X105011600Y-59755246D01*
X105011600Y-59878754D01*
X105035695Y-59999889D01*
X105082960Y-60113996D01*
X105151577Y-60216689D01*
X105238911Y-60304023D01*
X105341604Y-60372640D01*
X105455711Y-60419905D01*
X105576846Y-60444000D01*
X105700354Y-60444000D01*
X105821489Y-60419905D01*
X105935596Y-60372640D01*
X106038289Y-60304023D01*
X106125623Y-60216689D01*
X106194240Y-60113996D01*
X106241505Y-59999889D01*
X106265600Y-59878754D01*
X106265600Y-59755246D01*
X106241505Y-59634111D01*
X106194240Y-59520004D01*
X106125623Y-59417311D01*
X106038289Y-59329977D01*
X105935596Y-59261360D01*
X105821489Y-59214095D01*
X105700354Y-59190000D01*
X105576846Y-59190000D01*
X105455711Y-59214095D01*
X105341604Y-59261360D01*
X105238911Y-59329977D01*
X105151577Y-59417311D01*
X105082960Y-59520004D01*
X105035695Y-59634111D01*
X105011600Y-59755246D01*
X104805970Y-59755246D01*
X104809141Y-59741970D01*
X105342597Y-58175490D01*
X106020396Y-56665847D01*
X106537959Y-55753000D01*
X137007854Y-55753000D01*
X137123589Y-55936508D01*
G04 #@! TA.AperFunction,Conductor*
D16*
G36*
X137123589Y-55936508D02*
G01*
X137871404Y-57412722D01*
X138477697Y-58952476D01*
X138937142Y-60542239D01*
X139245700Y-62168039D01*
X139400660Y-63815589D01*
X139400660Y-65470411D01*
X139245700Y-67117961D01*
X138937142Y-68743761D01*
X138477697Y-70333524D01*
X137871404Y-71873278D01*
X137123589Y-73349492D01*
X136240826Y-74749194D01*
X135230871Y-76060081D01*
X134102601Y-77270635D01*
X132865930Y-78370217D01*
X131531727Y-79349163D01*
X130693182Y-79850933D01*
X130693182Y-78512300D01*
X130686868Y-78448197D01*
X130668170Y-78386557D01*
X130637806Y-78329750D01*
X130596943Y-78279957D01*
X130547150Y-78239094D01*
X130490343Y-78208730D01*
X130428703Y-78190032D01*
X130364600Y-78183718D01*
X128975242Y-78183718D01*
X127807600Y-77016077D01*
X127807600Y-73586712D01*
X127842623Y-73551689D01*
X127911240Y-73448996D01*
X127958505Y-73334889D01*
X127982600Y-73213754D01*
X127982600Y-73090246D01*
X127958505Y-72969111D01*
X127911240Y-72855004D01*
X127842623Y-72752311D01*
X127755289Y-72664977D01*
X127652596Y-72596360D01*
X127538489Y-72549095D01*
X127417354Y-72525000D01*
X127333031Y-72525000D01*
X127347600Y-72451754D01*
X127347600Y-72328246D01*
X127323505Y-72207111D01*
X127276240Y-72093004D01*
X127207623Y-71990311D01*
X127170312Y-71953000D01*
X132667395Y-71953000D01*
X132689600Y-71955187D01*
X132711805Y-71953000D01*
X132778207Y-71946460D01*
X132863410Y-71920614D01*
X132941933Y-71878643D01*
X133010759Y-71822159D01*
X133024923Y-71804900D01*
X136384824Y-68445000D01*
X136434354Y-68445000D01*
X136555489Y-68420905D01*
X136669596Y-68373640D01*
X136772289Y-68305023D01*
X136859623Y-68217689D01*
X136928240Y-68114996D01*
X136975505Y-68000889D01*
X136999600Y-67879754D01*
X136999600Y-67756246D01*
X136975505Y-67635111D01*
X136928240Y-67521004D01*
X136859623Y-67418311D01*
X136772289Y-67330977D01*
X136669596Y-67262360D01*
X136555489Y-67215095D01*
X136434354Y-67191000D01*
X136310846Y-67191000D01*
X136189711Y-67215095D01*
X136075604Y-67262360D01*
X135972911Y-67330977D01*
X135885577Y-67418311D01*
X135816960Y-67521004D01*
X135769695Y-67635111D01*
X135745600Y-67756246D01*
X135745600Y-67805776D01*
X132502377Y-71049000D01*
X121313312Y-71049000D01*
X121278289Y-71013977D01*
X121175596Y-70945360D01*
X121061489Y-70898095D01*
X120940354Y-70874000D01*
X120816846Y-70874000D01*
X120695711Y-70898095D01*
X120581604Y-70945360D01*
X120478911Y-71013977D01*
X120391577Y-71101311D01*
X120322960Y-71204004D01*
X120275695Y-71318111D01*
X120251600Y-71439246D01*
X120251600Y-71562754D01*
X120275695Y-71683889D01*
X120322960Y-71797996D01*
X120391577Y-71900689D01*
X120478911Y-71988023D01*
X120581604Y-72056640D01*
X120695711Y-72103905D01*
X120816846Y-72128000D01*
X120940354Y-72128000D01*
X121061489Y-72103905D01*
X121175596Y-72056640D01*
X121278289Y-71988023D01*
X121313312Y-71953000D01*
X126270888Y-71953000D01*
X126233577Y-71990311D01*
X126164960Y-72093004D01*
X126117695Y-72207111D01*
X126093600Y-72328246D01*
X126093600Y-72451754D01*
X126117695Y-72572889D01*
X126164960Y-72686996D01*
X126233577Y-72789689D01*
X126268600Y-72824712D01*
X126268601Y-78418467D01*
X126224306Y-78448064D01*
X126060364Y-78612006D01*
X125931556Y-78804781D01*
X125842831Y-79018982D01*
X125797600Y-79246376D01*
X125797600Y-79478224D01*
X125842831Y-79705618D01*
X125931556Y-79919819D01*
X126060364Y-80112594D01*
X126224306Y-80276536D01*
X126417081Y-80405344D01*
X126631282Y-80494069D01*
X126858676Y-80539300D01*
X127090524Y-80539300D01*
X127317918Y-80494069D01*
X127532119Y-80405344D01*
X127724894Y-80276536D01*
X127888836Y-80112594D01*
X128017644Y-79919819D01*
X128106369Y-79705618D01*
X128151600Y-79478224D01*
X128151600Y-79246376D01*
X128106369Y-79018982D01*
X128017644Y-78804781D01*
X127888836Y-78612006D01*
X127724894Y-78448064D01*
X127532119Y-78319256D01*
X127317918Y-78230531D01*
X127172600Y-78201626D01*
X127172600Y-77659523D01*
X128336018Y-78822942D01*
X128336018Y-80212300D01*
X128342332Y-80276403D01*
X128361030Y-80338043D01*
X128391394Y-80394850D01*
X128432257Y-80444643D01*
X128482050Y-80485506D01*
X128538857Y-80515870D01*
X128600497Y-80534568D01*
X128664600Y-80540882D01*
X129395397Y-80540882D01*
X128618377Y-80911874D01*
X127064833Y-81481906D01*
X125464736Y-81903956D01*
X123832149Y-82174316D01*
X122181419Y-82290611D01*
X120527052Y-82251818D01*
X118883587Y-82058277D01*
X117265467Y-81711691D01*
X115686912Y-81215105D01*
X114161794Y-80572882D01*
X114064125Y-80520493D01*
X114158676Y-80539300D01*
X114390524Y-80539300D01*
X114617918Y-80494069D01*
X114832119Y-80405344D01*
X115024894Y-80276536D01*
X115188836Y-80112594D01*
X115317644Y-79919819D01*
X115406369Y-79705618D01*
X115451600Y-79478224D01*
X115451600Y-79246376D01*
X115406369Y-79018982D01*
X115362661Y-78913463D01*
X115848510Y-78427615D01*
X115865759Y-78413459D01*
X115922243Y-78344633D01*
X115964214Y-78266110D01*
X115987292Y-78190032D01*
X115990060Y-78180908D01*
X115998787Y-78092301D01*
X115996600Y-78070096D01*
X115996600Y-73825951D01*
X116009604Y-73834640D01*
X116123711Y-73881905D01*
X116244846Y-73906000D01*
X116368354Y-73906000D01*
X116489489Y-73881905D01*
X116489601Y-73881859D01*
X116489601Y-78226887D01*
X116471282Y-78230531D01*
X116257081Y-78319256D01*
X116064306Y-78448064D01*
X115900364Y-78612006D01*
X115771556Y-78804781D01*
X115682831Y-79018982D01*
X115637600Y-79246376D01*
X115637600Y-79478224D01*
X115682831Y-79705618D01*
X115771556Y-79919819D01*
X115900364Y-80112594D01*
X116064306Y-80276536D01*
X116257081Y-80405344D01*
X116471282Y-80494069D01*
X116698676Y-80539300D01*
X116930524Y-80539300D01*
X117157918Y-80494069D01*
X117372119Y-80405344D01*
X117564894Y-80276536D01*
X117728836Y-80112594D01*
X117857644Y-79919819D01*
X117925864Y-79755121D01*
X118010443Y-79993552D01*
X118159422Y-80243655D01*
X118354331Y-80459888D01*
X118587680Y-80633941D01*
X118850501Y-80759125D01*
X118997710Y-80803776D01*
X119227600Y-80682455D01*
X119227600Y-79489300D01*
X119481600Y-79489300D01*
X119481600Y-80682455D01*
X119711490Y-80803776D01*
X119858699Y-80759125D01*
X120121520Y-80633941D01*
X120354869Y-80459888D01*
X120549778Y-80243655D01*
X120624600Y-80118045D01*
X120699422Y-80243655D01*
X120894331Y-80459888D01*
X121127680Y-80633941D01*
X121390501Y-80759125D01*
X121537710Y-80803776D01*
X121767600Y-80682455D01*
X121767600Y-79489300D01*
X119481600Y-79489300D01*
X119227600Y-79489300D01*
X119207600Y-79489300D01*
X119207600Y-79235300D01*
X119227600Y-79235300D01*
X119227600Y-78042145D01*
X119481600Y-78042145D01*
X119481600Y-79235300D01*
X121767600Y-79235300D01*
X121767600Y-78042145D01*
X122021600Y-78042145D01*
X122021600Y-79235300D01*
X122041600Y-79235300D01*
X122041600Y-79489300D01*
X122021600Y-79489300D01*
X122021600Y-80682455D01*
X122251490Y-80803776D01*
X122398699Y-80759125D01*
X122661520Y-80633941D01*
X122894869Y-80459888D01*
X123089778Y-80243655D01*
X123238757Y-79993552D01*
X123323336Y-79755121D01*
X123391556Y-79919819D01*
X123520364Y-80112594D01*
X123684306Y-80276536D01*
X123877081Y-80405344D01*
X124091282Y-80494069D01*
X124318676Y-80539300D01*
X124550524Y-80539300D01*
X124777918Y-80494069D01*
X124992119Y-80405344D01*
X125184894Y-80276536D01*
X125348836Y-80112594D01*
X125477644Y-79919819D01*
X125566369Y-79705618D01*
X125611600Y-79478224D01*
X125611600Y-79246376D01*
X125566369Y-79018982D01*
X125477644Y-78804781D01*
X125348836Y-78612006D01*
X125184894Y-78448064D01*
X124992119Y-78319256D01*
X124777918Y-78230531D01*
X124550524Y-78185300D01*
X124318676Y-78185300D01*
X124091282Y-78230531D01*
X123877081Y-78319256D01*
X123684306Y-78448064D01*
X123520364Y-78612006D01*
X123391556Y-78804781D01*
X123323336Y-78969479D01*
X123238757Y-78731048D01*
X123089778Y-78480945D01*
X122894869Y-78264712D01*
X122661520Y-78090659D01*
X122398699Y-77965475D01*
X122251490Y-77920824D01*
X122021600Y-78042145D01*
X121767600Y-78042145D01*
X121537710Y-77920824D01*
X121390501Y-77965475D01*
X121127680Y-78090659D01*
X120894331Y-78264712D01*
X120699422Y-78480945D01*
X120624600Y-78606555D01*
X120549778Y-78480945D01*
X120354869Y-78264712D01*
X120121520Y-78090659D01*
X119858699Y-77965475D01*
X119711490Y-77920824D01*
X119481600Y-78042145D01*
X119227600Y-78042145D01*
X118997710Y-77920824D01*
X118850501Y-77965475D01*
X118587680Y-78090659D01*
X118354331Y-78264712D01*
X118159422Y-78480945D01*
X118010443Y-78731048D01*
X117925864Y-78969479D01*
X117857644Y-78804781D01*
X117728836Y-78612006D01*
X117564894Y-78448064D01*
X117393600Y-78333609D01*
X117393600Y-68633712D01*
X117428623Y-68598689D01*
X117497240Y-68495996D01*
X117544505Y-68381889D01*
X117558402Y-68312026D01*
X118902600Y-69656225D01*
X118902601Y-73098287D01*
X118867577Y-73133311D01*
X118798960Y-73236004D01*
X118751695Y-73350111D01*
X118727600Y-73471246D01*
X118727600Y-73594754D01*
X118751695Y-73715889D01*
X118798960Y-73829996D01*
X118867577Y-73932689D01*
X118954911Y-74020023D01*
X119057604Y-74088640D01*
X119171711Y-74135905D01*
X119292846Y-74160000D01*
X119416354Y-74160000D01*
X119537489Y-74135905D01*
X119651596Y-74088640D01*
X119754289Y-74020023D01*
X119841623Y-73932689D01*
X119910240Y-73829996D01*
X119957505Y-73715889D01*
X119981600Y-73594754D01*
X119981600Y-73471246D01*
X119957505Y-73350111D01*
X119910240Y-73236004D01*
X119841623Y-73133311D01*
X119806600Y-73098288D01*
X119806600Y-69491204D01*
X119808787Y-69468999D01*
X119800060Y-69380392D01*
X119794044Y-69360562D01*
X119774214Y-69295190D01*
X119732243Y-69216667D01*
X119675759Y-69147841D01*
X119658512Y-69133687D01*
X118154071Y-67629246D01*
X120886600Y-67629246D01*
X120886600Y-67752754D01*
X120910695Y-67873889D01*
X120957960Y-67987996D01*
X121026577Y-68090689D01*
X121113911Y-68178023D01*
X121216604Y-68246640D01*
X121330711Y-68293905D01*
X121451846Y-68318000D01*
X121575354Y-68318000D01*
X121696489Y-68293905D01*
X121810596Y-68246640D01*
X121913289Y-68178023D01*
X121948312Y-68143000D01*
X131778395Y-68143000D01*
X131800600Y-68145187D01*
X131822805Y-68143000D01*
X131889207Y-68136460D01*
X131974410Y-68110614D01*
X132052933Y-68068643D01*
X132121759Y-68012159D01*
X132135923Y-67994900D01*
X133209825Y-66921000D01*
X133259354Y-66921000D01*
X133380489Y-66896905D01*
X133494596Y-66849640D01*
X133597289Y-66781023D01*
X133684623Y-66693689D01*
X133753240Y-66590996D01*
X133800505Y-66476889D01*
X133816276Y-66397600D01*
X134479528Y-66397600D01*
X134491788Y-66522082D01*
X134528098Y-66641780D01*
X134587063Y-66752094D01*
X134666415Y-66848785D01*
X134763106Y-66928137D01*
X134873420Y-66987102D01*
X134993118Y-67023412D01*
X135117600Y-67035672D01*
X136131850Y-67032600D01*
X136290600Y-66873850D01*
X136290600Y-64744600D01*
X136544600Y-64744600D01*
X136544600Y-66873850D01*
X136703350Y-67032600D01*
X137717600Y-67035672D01*
X137842082Y-67023412D01*
X137961780Y-66987102D01*
X138072094Y-66928137D01*
X138168785Y-66848785D01*
X138248137Y-66752094D01*
X138307102Y-66641780D01*
X138343412Y-66522082D01*
X138355672Y-66397600D01*
X138352600Y-64903350D01*
X138193850Y-64744600D01*
X136544600Y-64744600D01*
X136290600Y-64744600D01*
X134641350Y-64744600D01*
X134482600Y-64903350D01*
X134479528Y-66397600D01*
X133816276Y-66397600D01*
X133824600Y-66355754D01*
X133824600Y-66232246D01*
X133800505Y-66111111D01*
X133753240Y-65997004D01*
X133684623Y-65894311D01*
X133597289Y-65806977D01*
X133494596Y-65738360D01*
X133380489Y-65691095D01*
X133259354Y-65667000D01*
X133193825Y-65667000D01*
X133209825Y-65651000D01*
X133259354Y-65651000D01*
X133380489Y-65626905D01*
X133494596Y-65579640D01*
X133597289Y-65511023D01*
X133684623Y-65423689D01*
X133753240Y-65320996D01*
X133800505Y-65206889D01*
X133824600Y-65085754D01*
X133824600Y-64962246D01*
X133800505Y-64841111D01*
X133753240Y-64727004D01*
X133684623Y-64624311D01*
X133597289Y-64536977D01*
X133494596Y-64468360D01*
X133380489Y-64421095D01*
X133259354Y-64397000D01*
X133135846Y-64397000D01*
X133014711Y-64421095D01*
X132900604Y-64468360D01*
X132797911Y-64536977D01*
X132710577Y-64624311D01*
X132641960Y-64727004D01*
X132594695Y-64841111D01*
X132570600Y-64962246D01*
X132570600Y-65011775D01*
X131294377Y-66288000D01*
X123599312Y-66288000D01*
X123564289Y-66252977D01*
X123461596Y-66184360D01*
X123347489Y-66137095D01*
X123226354Y-66113000D01*
X123102846Y-66113000D01*
X122981711Y-66137095D01*
X122867604Y-66184360D01*
X122764911Y-66252977D01*
X122677577Y-66340311D01*
X122608960Y-66443004D01*
X122561695Y-66557111D01*
X122537600Y-66678246D01*
X122537600Y-66801754D01*
X122561695Y-66922889D01*
X122608960Y-67036996D01*
X122677577Y-67139689D01*
X122764911Y-67227023D01*
X122782836Y-67239000D01*
X121948312Y-67239000D01*
X121913289Y-67203977D01*
X121810596Y-67135360D01*
X121696489Y-67088095D01*
X121575354Y-67064000D01*
X121451846Y-67064000D01*
X121330711Y-67088095D01*
X121216604Y-67135360D01*
X121113911Y-67203977D01*
X121026577Y-67291311D01*
X120957960Y-67394004D01*
X120910695Y-67508111D01*
X120886600Y-67629246D01*
X118154071Y-67629246D01*
X115409600Y-64884777D01*
X115409600Y-64835246D01*
X115385505Y-64714111D01*
X115338240Y-64600004D01*
X115269623Y-64497311D01*
X115182289Y-64409977D01*
X115079596Y-64341360D01*
X114965489Y-64294095D01*
X114844354Y-64270000D01*
X114720846Y-64270000D01*
X114599711Y-64294095D01*
X114485604Y-64341360D01*
X114382911Y-64409977D01*
X114295577Y-64497311D01*
X114226960Y-64600004D01*
X114179695Y-64714111D01*
X114155600Y-64835246D01*
X114155600Y-64958754D01*
X114179695Y-65079889D01*
X114226960Y-65193996D01*
X114295577Y-65296689D01*
X114382911Y-65384023D01*
X114485604Y-65452640D01*
X114599711Y-65499905D01*
X114720846Y-65524000D01*
X114770377Y-65524000D01*
X114798234Y-65551857D01*
X114736711Y-65564095D01*
X114622604Y-65611360D01*
X114519911Y-65679977D01*
X114432577Y-65767311D01*
X114363960Y-65870004D01*
X114316695Y-65984111D01*
X114292600Y-66105246D01*
X114292600Y-66228754D01*
X114316695Y-66349889D01*
X114363960Y-66463996D01*
X114432577Y-66566689D01*
X114519911Y-66654023D01*
X114622604Y-66722640D01*
X114736711Y-66769905D01*
X114857846Y-66794000D01*
X114907377Y-66794000D01*
X115248404Y-67135028D01*
X115247604Y-67135360D01*
X115144911Y-67203977D01*
X115057577Y-67291311D01*
X115011038Y-67360962D01*
X114965489Y-67342095D01*
X114844354Y-67318000D01*
X114720846Y-67318000D01*
X114599711Y-67342095D01*
X114485604Y-67389360D01*
X114382911Y-67457977D01*
X114295577Y-67545311D01*
X114226960Y-67648004D01*
X114179695Y-67762111D01*
X114155600Y-67883246D01*
X114155600Y-68006754D01*
X114179695Y-68127889D01*
X114226960Y-68241996D01*
X114295577Y-68344689D01*
X114330600Y-68379712D01*
X114330601Y-73098287D01*
X114295577Y-73133311D01*
X114226960Y-73236004D01*
X114179695Y-73350111D01*
X114155600Y-73471246D01*
X114155600Y-73594754D01*
X114179695Y-73715889D01*
X114226960Y-73829996D01*
X114295577Y-73932689D01*
X114382911Y-74020023D01*
X114485604Y-74088640D01*
X114599711Y-74135905D01*
X114720846Y-74160000D01*
X114844354Y-74160000D01*
X114965489Y-74135905D01*
X115079596Y-74088640D01*
X115092601Y-74079951D01*
X115092601Y-77905074D01*
X114723437Y-78274239D01*
X114617918Y-78230531D01*
X114390524Y-78185300D01*
X114158676Y-78185300D01*
X113931282Y-78230531D01*
X113717081Y-78319256D01*
X113524306Y-78448064D01*
X113360364Y-78612006D01*
X113231556Y-78804781D01*
X113142831Y-79018982D01*
X113097600Y-79246376D01*
X113097600Y-79478224D01*
X113142831Y-79705618D01*
X113231556Y-79919819D01*
X113360364Y-80112594D01*
X113425946Y-80178176D01*
X112703516Y-79790667D01*
X111324894Y-78875333D01*
X110038043Y-77834925D01*
X108854271Y-76678587D01*
X107783982Y-75416479D01*
X106836582Y-74059693D01*
X106020396Y-72620153D01*
X105775295Y-72074246D01*
X107932600Y-72074246D01*
X107932600Y-72197754D01*
X107956695Y-72318889D01*
X108003960Y-72432996D01*
X108072577Y-72535689D01*
X108159911Y-72623023D01*
X108262604Y-72691640D01*
X108376711Y-72738905D01*
X108497846Y-72763000D01*
X108621354Y-72763000D01*
X108742489Y-72738905D01*
X108856596Y-72691640D01*
X108959289Y-72623023D01*
X109046623Y-72535689D01*
X109115240Y-72432996D01*
X109162505Y-72318889D01*
X109186600Y-72197754D01*
X109186600Y-72074246D01*
X109162505Y-71953111D01*
X109115240Y-71839004D01*
X109115071Y-71838752D01*
X111111825Y-69842000D01*
X111161354Y-69842000D01*
X111282489Y-69817905D01*
X111396596Y-69770640D01*
X111499289Y-69702023D01*
X111586623Y-69614689D01*
X111655240Y-69511996D01*
X111702505Y-69397889D01*
X111726600Y-69276754D01*
X111726600Y-69153246D01*
X111702505Y-69032111D01*
X111655240Y-68918004D01*
X111586623Y-68815311D01*
X111499289Y-68727977D01*
X111396596Y-68659360D01*
X111282489Y-68612095D01*
X111161354Y-68588000D01*
X111037846Y-68588000D01*
X110916711Y-68612095D01*
X110802604Y-68659360D01*
X110699911Y-68727977D01*
X110612577Y-68815311D01*
X110543960Y-68918004D01*
X110496695Y-69032111D01*
X110472600Y-69153246D01*
X110472600Y-69202775D01*
X108255700Y-71419677D01*
X108238441Y-71433841D01*
X108183326Y-71501000D01*
X108181958Y-71502667D01*
X108139986Y-71581191D01*
X108114140Y-71666393D01*
X108111042Y-71697846D01*
X108072577Y-71736311D01*
X108003960Y-71839004D01*
X107956695Y-71953111D01*
X107932600Y-72074246D01*
X105775295Y-72074246D01*
X105342597Y-71110510D01*
X104809141Y-69544030D01*
X104424717Y-67934479D01*
X104192703Y-66296003D01*
X104115138Y-64643000D01*
X104192703Y-62989997D01*
X104246370Y-62611000D01*
X105311600Y-62611000D01*
X105311600Y-66548000D01*
X105317883Y-66611795D01*
X105336491Y-66673137D01*
X105366709Y-66729671D01*
X105407376Y-66779224D01*
X105456929Y-66819891D01*
X105513463Y-66850109D01*
X105574805Y-66868717D01*
X105638600Y-66875000D01*
X109956600Y-66875000D01*
X110020395Y-66868717D01*
X110081737Y-66850109D01*
X110138271Y-66819891D01*
X110187824Y-66779224D01*
X110228491Y-66729671D01*
X110258709Y-66673137D01*
X110277317Y-66611795D01*
X110283600Y-66548000D01*
X110283600Y-63444000D01*
X112855395Y-63444000D01*
X112877600Y-63446187D01*
X112899805Y-63444000D01*
X112966207Y-63437460D01*
X113051410Y-63411614D01*
X113129933Y-63369643D01*
X113198759Y-63313159D01*
X113212923Y-63295900D01*
X113671223Y-62837600D01*
X134479528Y-62837600D01*
X134482600Y-64331850D01*
X134641350Y-64490600D01*
X136290600Y-64490600D01*
X136290600Y-62361350D01*
X136544600Y-62361350D01*
X136544600Y-64490600D01*
X138193850Y-64490600D01*
X138352600Y-64331850D01*
X138355672Y-62837600D01*
X138343412Y-62713118D01*
X138307102Y-62593420D01*
X138248137Y-62483106D01*
X138168785Y-62386415D01*
X138072094Y-62307063D01*
X137961780Y-62248098D01*
X137842082Y-62211788D01*
X137717600Y-62199528D01*
X136703350Y-62202600D01*
X136544600Y-62361350D01*
X136290600Y-62361350D01*
X136131850Y-62202600D01*
X135117600Y-62199528D01*
X134993118Y-62211788D01*
X134873420Y-62248098D01*
X134763106Y-62307063D01*
X134666415Y-62386415D01*
X134587063Y-62483106D01*
X134528098Y-62593420D01*
X134491788Y-62713118D01*
X134479528Y-62837600D01*
X113671223Y-62837600D01*
X114975577Y-61533246D01*
X133967600Y-61533246D01*
X133967600Y-61656754D01*
X133991695Y-61777889D01*
X134038960Y-61891996D01*
X134107577Y-61994689D01*
X134194911Y-62082023D01*
X134297604Y-62150640D01*
X134411711Y-62197905D01*
X134532846Y-62222000D01*
X134656354Y-62222000D01*
X134777489Y-62197905D01*
X134891596Y-62150640D01*
X134994289Y-62082023D01*
X135081623Y-61994689D01*
X135150240Y-61891996D01*
X135197505Y-61777889D01*
X135221600Y-61656754D01*
X135221600Y-61533246D01*
X135197505Y-61412111D01*
X135150240Y-61298004D01*
X135081623Y-61195311D01*
X134994289Y-61107977D01*
X134891596Y-61039360D01*
X134777489Y-60992095D01*
X134656354Y-60968000D01*
X134532846Y-60968000D01*
X134411711Y-60992095D01*
X134297604Y-61039360D01*
X134194911Y-61107977D01*
X134107577Y-61195311D01*
X134038960Y-61298004D01*
X133991695Y-61412111D01*
X133967600Y-61533246D01*
X114975577Y-61533246D01*
X115556824Y-60952000D01*
X115606354Y-60952000D01*
X115727489Y-60927905D01*
X115841596Y-60880640D01*
X115944289Y-60812023D01*
X116031623Y-60724689D01*
X116100240Y-60621996D01*
X116147505Y-60507889D01*
X116171600Y-60386754D01*
X116171600Y-60263246D01*
X116147505Y-60142111D01*
X116100240Y-60028004D01*
X116031623Y-59925311D01*
X115944289Y-59837977D01*
X115841596Y-59769360D01*
X115727489Y-59722095D01*
X115606354Y-59698000D01*
X115482846Y-59698000D01*
X115361711Y-59722095D01*
X115247604Y-59769360D01*
X115144911Y-59837977D01*
X115057577Y-59925311D01*
X114988960Y-60028004D01*
X114941695Y-60142111D01*
X114917600Y-60263246D01*
X114917600Y-60312776D01*
X112690377Y-62540000D01*
X110275131Y-62540000D01*
X110258709Y-62485863D01*
X110228491Y-62429329D01*
X110187824Y-62379776D01*
X110138271Y-62339109D01*
X110081737Y-62308891D01*
X110055724Y-62301000D01*
X111712395Y-62301000D01*
X111734600Y-62303187D01*
X111756805Y-62301000D01*
X111823207Y-62294460D01*
X111908410Y-62268614D01*
X111986933Y-62226643D01*
X112055759Y-62170159D01*
X112069923Y-62152900D01*
X115016325Y-59206500D01*
X115065854Y-59206500D01*
X115186989Y-59182405D01*
X115301096Y-59135140D01*
X115403789Y-59066523D01*
X115491123Y-58979189D01*
X115559740Y-58876496D01*
X115607005Y-58762389D01*
X115631100Y-58641254D01*
X115631100Y-58517746D01*
X115607005Y-58396611D01*
X115559740Y-58282504D01*
X115491123Y-58179811D01*
X115403789Y-58092477D01*
X115301096Y-58023860D01*
X115186989Y-57976595D01*
X115065854Y-57952500D01*
X114942346Y-57952500D01*
X114821211Y-57976595D01*
X114707104Y-58023860D01*
X114604411Y-58092477D01*
X114517077Y-58179811D01*
X114448460Y-58282504D01*
X114401195Y-58396611D01*
X114377100Y-58517746D01*
X114377100Y-58567275D01*
X111547377Y-61397000D01*
X109756312Y-61397000D01*
X109721289Y-61361977D01*
X109618596Y-61293360D01*
X109504489Y-61246095D01*
X109383354Y-61222000D01*
X109259846Y-61222000D01*
X109138711Y-61246095D01*
X109024604Y-61293360D01*
X108921911Y-61361977D01*
X108834577Y-61449311D01*
X108765960Y-61552004D01*
X108718695Y-61666111D01*
X108694600Y-61787246D01*
X108694600Y-61910754D01*
X108718695Y-62031889D01*
X108765960Y-62145996D01*
X108834577Y-62248689D01*
X108869888Y-62284000D01*
X105638600Y-62284000D01*
X105574805Y-62290283D01*
X105513463Y-62308891D01*
X105456929Y-62339109D01*
X105407376Y-62379776D01*
X105366709Y-62429329D01*
X105336491Y-62485863D01*
X105317883Y-62547205D01*
X105311600Y-62611000D01*
X104246370Y-62611000D01*
X104424717Y-61351521D01*
X104805970Y-59755246D01*
X105011600Y-59755246D01*
X105011600Y-59878754D01*
X105035695Y-59999889D01*
X105082960Y-60113996D01*
X105151577Y-60216689D01*
X105238911Y-60304023D01*
X105341604Y-60372640D01*
X105455711Y-60419905D01*
X105576846Y-60444000D01*
X105700354Y-60444000D01*
X105821489Y-60419905D01*
X105935596Y-60372640D01*
X106038289Y-60304023D01*
X106125623Y-60216689D01*
X106194240Y-60113996D01*
X106241505Y-59999889D01*
X106265600Y-59878754D01*
X106265600Y-59755246D01*
X106241505Y-59634111D01*
X106194240Y-59520004D01*
X106125623Y-59417311D01*
X106038289Y-59329977D01*
X105935596Y-59261360D01*
X105821489Y-59214095D01*
X105700354Y-59190000D01*
X105576846Y-59190000D01*
X105455711Y-59214095D01*
X105341604Y-59261360D01*
X105238911Y-59329977D01*
X105151577Y-59417311D01*
X105082960Y-59520004D01*
X105035695Y-59634111D01*
X105011600Y-59755246D01*
X104805970Y-59755246D01*
X104809141Y-59741970D01*
X105342597Y-58175490D01*
X106020396Y-56665847D01*
X106537959Y-55753000D01*
X137007854Y-55753000D01*
X137123589Y-55936508D01*
G37*
G04 #@! TD.AperFunction*
D15*
X109829600Y-66421000D02*
X109053367Y-66421000D01*
X109055672Y-66397600D01*
X109052600Y-64903350D01*
X108893850Y-64744600D01*
X107244600Y-64744600D01*
X107244600Y-64764600D01*
X106990600Y-64764600D01*
X106990600Y-64744600D01*
X106970600Y-64744600D01*
X106970600Y-64490600D01*
X106990600Y-64490600D01*
X106990600Y-64470600D01*
X107244600Y-64470600D01*
X107244600Y-64490600D01*
X108893850Y-64490600D01*
X109052600Y-64331850D01*
X109054187Y-63559894D01*
X109138711Y-63594905D01*
X109259846Y-63619000D01*
X109383354Y-63619000D01*
X109504489Y-63594905D01*
X109618596Y-63547640D01*
X109721289Y-63479023D01*
X109756312Y-63444000D01*
X109829600Y-63444000D01*
X109829600Y-66421000D01*
G04 #@! TA.AperFunction,Conductor*
D16*
G36*
X109829600Y-66421000D02*
G01*
X109053367Y-66421000D01*
X109055672Y-66397600D01*
X109052600Y-64903350D01*
X108893850Y-64744600D01*
X107244600Y-64744600D01*
X107244600Y-64764600D01*
X106990600Y-64764600D01*
X106990600Y-64744600D01*
X106970600Y-64744600D01*
X106970600Y-64490600D01*
X106990600Y-64490600D01*
X106990600Y-64470600D01*
X107244600Y-64470600D01*
X107244600Y-64490600D01*
X108893850Y-64490600D01*
X109052600Y-64331850D01*
X109054187Y-63559894D01*
X109138711Y-63594905D01*
X109259846Y-63619000D01*
X109383354Y-63619000D01*
X109504489Y-63594905D01*
X109618596Y-63547640D01*
X109721289Y-63479023D01*
X109756312Y-63444000D01*
X109829600Y-63444000D01*
X109829600Y-66421000D01*
G37*
G04 #@! TD.AperFunction*
M02*
