M48
; DRILL file {KiCad (5.1.8)-1} date 06/05/21 10:41:33
; FORMAT={-:-/ absolute / inch / decimal}
; #@! TF.CreationDate,2021-06-05T10:41:33+02:00
; #@! TF.GenerationSoftware,Kicad,Pcbnew,(5.1.8)-1
; #@! TF.FileFunction,Plated,1,2,PTH
FMAT,2
INCH
T1C0.0118
T2C0.0157
T3C0.0394
%
G90
G05
T1
X4.159Y-2.355
X4.199Y-2.825
X4.239Y-2.42
X4.254Y-2.915
X4.274Y-2.84
X4.349Y-2.76
X4.364Y-2.64
X4.364Y-2.6715
X4.4041Y-2.7475
X4.519Y-2.555
X4.519Y-2.675
X4.519Y-2.895
X4.5244Y-2.605
X4.5277Y-2.3063
X4.529Y-2.23
X4.549Y-2.375
X4.549Y-2.665
X4.579Y-2.885
X4.604Y-2.685
X4.699Y-2.895
X4.759Y-2.815
X4.784Y-2.665
X4.849Y-2.6276
X4.989Y-2.85
X5.014Y-2.88
X5.134Y-3.035
X5.244Y-2.56
X5.244Y-2.61
X5.299Y-2.425
X5.299Y-2.575
X5.339Y-2.915
X5.369Y-2.67
X5.384Y-2.825
X5.444Y-2.43
T2
X4.139Y-2.4509
X4.349Y-2.46
X4.349Y-2.495
X4.349Y-2.53
X4.349Y-2.565
X4.349Y-2.6
T3
X4.499Y-3.1245
X4.599Y-3.1245
X4.699Y-3.1245
X4.799Y-3.1245
X4.899Y-3.1245
X4.999Y-3.1245
X5.099Y-3.1245
T0
M30
